<svg width="392" height="244" viewBox="0 0 392 244" fill="none" xmlns="http://www.w3.org/2000/svg">
<path d="M268.996 16.9318C307.862 -13.3604 345.896 1.37332 361.534 26.8963C390.837 74.7257 371.558 139.496 334.543 177.361C304.931 207.653 244.062 230.505 217.329 238.145C180.572 246.448 97.9562 252.294 61.5582 209.248C25.1602 166.201 21.7157 112.259 24.5432 90.6697C28.9131 61.1083 52.7672 10.3556 113.225 43.8364C188.797 85.6874 220.414 54.797 268.996 16.9318Z" fill="#FFE4C4"/>
<path d="M212.262 118.11C212.365 118.11 212.47 118.083 212.565 118.025L213.825 117.271C214.008 117.162 214.121 116.961 214.121 116.743L214.12 106.386L222.057 101.562L222.059 101.563C222.244 101.664 222.469 101.658 222.649 101.548C222.83 101.437 222.941 101.238 222.941 101.023L222.941 99.5757C222.941 99.238 222.672 98.9641 222.341 98.9641C222.01 98.9641 221.741 99.238 221.741 99.5757V100.33C221.739 100.332 221.737 100.333 221.734 100.335L213.258 105.488C213.091 105.565 212.959 105.715 212.917 105.902C212.892 106.01 212.894 106.119 212.921 106.221V116.394L211.958 116.971C211.672 117.142 211.576 117.517 211.744 117.808C211.855 118.002 212.056 118.109 212.262 118.109L212.262 118.11Z" fill="#F9CF9B"/>
<path d="M222.541 111.586C222.648 111.586 222.755 111.556 222.849 111.499L231.329 106.32C231.51 106.209 231.621 106.01 231.621 105.795C231.621 105.57 231.5 105.342 231.305 105.236L222.625 100.486C222.332 100.327 221.968 100.437 221.812 100.735C221.655 101.033 221.765 101.403 222.057 101.563L229.823 105.814L222.475 110.302C219.277 108.771 216.393 107.184 213.902 105.583C213.798 105.493 213.665 105.439 213.52 105.439C213.188 105.439 212.92 105.702 212.92 106.04C212.92 106.251 213.025 106.465 213.199 106.577C215.778 108.24 218.768 109.885 222.086 111.467C222.129 111.488 222.175 111.503 222.223 111.512C222.254 111.519 222.286 111.529 222.317 111.542C222.389 111.571 222.465 111.586 222.54 111.586H222.541Z" fill="#F9CF9B"/>
<path d="M208.801 120.087C208.902 120.087 209.004 120.061 209.097 120.007L210.677 119.09C210.965 118.922 211.066 118.549 210.902 118.255C210.738 117.961 210.372 117.86 210.083 118.026L208.503 118.944C208.216 119.111 208.115 119.485 208.279 119.778C208.39 119.976 208.593 120.087 208.801 120.087L208.801 120.087Z" fill="#F9CF9B"/>
<path d="M205.42 122.005C205.52 122.005 205.62 121.98 205.712 121.927L207.253 121.051C207.542 120.886 207.646 120.513 207.484 120.218C207.323 119.924 206.957 119.819 206.668 119.983L205.127 120.859C204.838 121.023 204.734 121.396 204.896 121.692C205.006 121.891 205.21 122.005 205.42 122.005H205.42Z" fill="#F9CF9B"/>
<path d="M222.34 98.1272C222.672 98.1272 222.94 97.8533 222.94 97.5156V96.0271C222.94 95.6895 222.672 95.4155 222.34 95.4155C222.009 95.4155 221.741 95.6895 221.741 96.0271V97.5156C221.741 97.8533 222.009 98.1272 222.34 98.1272Z" fill="#F9CF9B"/>
<path d="M222.34 94.233C222.672 94.233 222.94 93.9591 222.94 93.6214L222.941 91.9705C222.941 91.6328 222.672 91.3589 222.341 91.3589C222.009 91.3589 221.741 91.6328 221.741 91.9705V93.6217C221.74 93.9594 222.009 94.233 222.34 94.233V94.233Z" fill="#F9CF9B"/>
<path d="M222.541 122.269C222.648 122.269 222.753 122.241 222.848 122.183L231.327 117.045C231.509 116.935 231.62 116.735 231.62 116.519V105.795C231.62 105.458 231.351 105.184 231.02 105.184C230.689 105.184 230.42 105.458 230.42 105.795V116.171L222.941 120.704V110.912C222.941 110.575 222.672 110.301 222.341 110.301C222.01 110.301 221.741 110.575 221.741 110.912V121.576C221.741 121.827 221.891 122.052 222.119 122.145L222.319 122.226C222.391 122.255 222.466 122.269 222.541 122.269L222.541 122.269Z" fill="#F9CF9B"/>
<path d="M239.421 121.597C239.635 121.597 239.842 121.48 239.949 121.274C240.106 120.977 239.996 120.606 239.704 120.446L238.024 119.528C237.733 119.368 237.369 119.481 237.212 119.779C237.055 120.076 237.166 120.448 237.458 120.607L239.138 121.524C239.228 121.574 239.325 121.597 239.421 121.597L239.421 121.597Z" fill="#F9CF9B"/>
<path d="M236.001 119.762C236.218 119.762 236.429 119.64 236.535 119.43C236.686 119.129 236.569 118.76 236.275 118.606L234.635 117.749C234.339 117.594 233.978 117.714 233.827 118.014C233.675 118.314 233.792 118.683 234.087 118.838L235.727 119.695C235.815 119.74 235.909 119.762 236.001 119.762L236.001 119.762Z" fill="#F9CF9B"/>
<path d="M232.52 117.927C232.736 117.927 232.945 117.807 233.053 117.598C233.205 117.298 233.091 116.929 232.797 116.773L231.297 115.977C231.003 115.823 230.64 115.937 230.488 116.238C230.335 116.537 230.449 116.907 230.743 117.063L232.243 117.858C232.331 117.904 232.426 117.927 232.52 117.927H232.52Z" fill="#F9CF9B"/>
<path d="M222.341 122.187C222.554 122.187 222.761 122.071 222.87 121.865C223.027 121.568 222.916 121.197 222.625 121.037L213.805 116.205C213.513 116.046 213.149 116.156 212.993 116.454C212.835 116.751 212.945 117.123 213.237 117.282L222.057 122.115C222.147 122.164 222.245 122.187 222.341 122.187Z" fill="#F9CF9B"/>
<path d="M308.908 123.403L305.056 138.502" stroke="#122832" stroke-width="5.92" stroke-miterlimit="10"/>
<path d="M331.231 136.507L250.111 132.922L225.388 241.276L351.884 241.924L364.802 179.975C369.188 158.12 353.231 137.478 331.231 136.507Z" fill="#FE503F"/>
<path d="M338.492 122.861H271.659L285.954 81.3655H346.617C347.8 81.3654 348.965 81.6482 350.016 82.1903C351.067 82.7324 351.973 83.5181 352.659 84.482C353.345 85.4458 353.792 86.5598 353.96 87.7312C354.129 88.9025 354.016 90.0973 353.629 91.2158L344.097 118.862C343.694 120.029 342.937 121.041 341.932 121.757C340.928 122.474 339.725 122.86 338.492 122.861Z" fill="#FE503F"/>
<path d="M198.558 190.299C187.694 183.085 168.313 170.719 168.313 170.719C168.313 170.719 134.057 148.473 134.697 146.568C135.336 144.662 146.893 149.648 146.893 149.648C145.99 147.886 135.426 141.59 135.848 140.453C136.269 139.315 149.676 146.658 150.271 146.101C150.865 145.544 136.886 137.983 137.706 136.469C138.526 134.955 152.498 142.494 153.273 142.155C154.048 141.816 140.106 133.472 141.874 132.184C143.642 130.896 162.941 145.544 164.709 145.212C166.477 144.881 160.383 136.228 160.691 132.41C161 128.592 176.837 152.035 176.837 152.035C180.478 155.206 209.099 167.504 209.099 167.504L198.558 190.299Z" fill="#FFB882"/>
<path d="M225.884 168.874C225.884 168.874 261.825 92.3682 284.246 121.535C308.322 152.864 265.045 181.353 242.963 204.721C240.129 207.709 236.267 209.509 232.158 209.756C228.05 210.004 224 208.681 220.828 206.054L168.764 171.141L177.582 153.067L225.884 168.874Z" fill="#FFB882"/>
<path d="M264.609 183.868C255.001 172.979 241.812 158.549 231.354 148.518C243.46 127.869 268.807 101.42 284.261 121.498C301.595 144.037 284.028 165.116 264.609 183.868Z" fill="#FC9823"/>
<path d="M339.214 144.346C340.455 125.037 307.404 109.486 307.404 109.486L295.102 101.646L294.35 103.702L273.825 122.906L270.424 114.019L270.62 110.698L267.249 114.23C264.774 114.637 254.677 128.441 252.029 134.865C247.996 144.655 246.762 157.457 246.379 165.139C237.237 240.048 236.538 242.383 236.538 242.383H328.064C328.064 242.383 331.57 264.2 339.214 144.346Z" fill="#FC9823"/>
<path d="M253.526 61.0548C251.788 57.5153 252.375 51.8747 252.375 51.8747C252.375 51.8747 237.779 46.8968 241.263 38.5451C244.746 30.1933 261.893 34.855 261.893 34.855C261.893 34.855 255.4 24.8916 268.16 32.9948C273.231 36.218 274.074 37.0088 278.016 35.2541C281.958 33.4994 288.203 35.7511 290.054 39.0195C291.183 41.0604 290.483 42.8829 292.025 42.7247C297.736 42.1222 300.407 48.0867 296.487 60.731C296.487 60.731 298.458 67.1774 294.613 77.2311C293.229 80.8685 288.497 82.081 288.497 82.081" fill="#151D02"/>
<path d="M253.481 52.914C253.481 52.914 249.147 82.2166 258.063 93.5129C262.638 97.9485 268.04 95.9981 271.5 95.87C271.636 94.6124 270.959 106.044 270.349 116.286C270.353 116.314 270.353 116.342 270.349 116.369C270.53 118.131 272.9 118.689 275.684 118.53C279.957 118.237 283.954 116.305 286.841 113.138L295.305 104.041L290.581 82.7437C290.581 82.7437 289.64 77.939 289.828 76.3952C293.267 75.9584 295.652 70.7019 294.215 67.2904C292.853 64.0295 287.518 63.8187 286.691 66.8913C285.863 69.9639 283.237 69.9036 282.929 67.3431C282.741 65.8369 283.869 53.6144 275.052 52.1684C269.785 52.5374 268.544 56.2125 265.85 56.3556C263.157 56.4987 260.666 50.8204 259.335 52.3567C255.151 57.1915 253.481 52.914 253.481 52.914Z" fill="#FFB882"/>
<path d="M302.167 232.992C289.211 231.486 265.956 228.812 265.956 228.812C265.956 228.812 219.361 229.784 219.068 227.803C218.774 225.823 247.304 210.701 247.304 210.701C251.977 211.868 301.136 207.899 301.136 207.899L302.167 232.992Z" fill="#FFB882"/>
<path d="M306.742 141.07C306.426 134.699 297.645 113.146 310.037 110.548C323.106 107.806 361.74 147.449 352.87 213.555C350.853 228.564 342.186 240.952 316.191 236.2L267.054 228.948L268.559 210.083L316.176 199.163C316.176 199.163 307.667 159.988 306.742 141.07Z" fill="#FFB882"/>
<path d="M302.273 183.288C300.286 164.423 298.804 151.659 298.308 141.582C297.992 135.211 297.646 113.161 310.037 110.563C319.547 108.567 345.399 133.155 353.863 169.883C339.846 175.004 316.523 178.717 302.273 183.288Z" fill="#FC9823"/>
<path d="M211.49 229.189H273.744C274.848 229.189 275.744 230.084 275.744 231.189V234.968C275.744 236.073 274.848 236.968 273.744 236.968H211.49C210.386 236.968 209.49 236.073 209.49 234.968V231.189C209.49 230.084 210.386 229.189 211.49 229.189Z" fill="#A59078"/>
<path d="M126.208 235.621C126.488 236.423 127.246 236.961 128.096 236.961H228.28C229.657 236.961 230.622 235.601 230.168 234.301L206.362 166.223C206.082 165.42 205.324 164.883 204.474 164.883H104.29C102.913 164.883 101.947 166.243 102.402 167.543L126.208 235.621Z" fill="#A59078"/>
<path d="M160.15 202.951C160.15 201.654 160.534 200.386 161.254 199.307C161.974 198.229 162.998 197.388 164.195 196.891C165.392 196.395 166.71 196.265 167.981 196.518C169.252 196.771 170.42 197.396 171.337 198.313C172.253 199.231 172.877 200.399 173.13 201.672C173.383 202.944 173.253 204.263 172.757 205.462C172.261 206.66 171.421 207.685 170.344 208.405C169.266 209.126 167.999 209.511 166.703 209.511C164.965 209.509 163.3 208.817 162.071 207.587C160.843 206.358 160.152 204.691 160.15 202.951Z" fill="white"/>
<path d="M0.0147705 236.55H384.588V244.001H0.0147705V236.55Z" fill="#4A4A47"/>
<path d="M82.8292 63.3771C82.8292 63.9645 82.5947 64.5279 82.1774 64.9434C81.7599 65.3587 81.1939 65.5921 80.6038 65.5921C80.0137 65.5921 79.4476 65.3587 79.0301 64.9434C78.6128 64.5279 78.3784 63.9645 78.3784 63.3771C78.3784 62.7898 78.6128 62.2263 79.0301 61.8108C79.4476 61.3955 80.0137 61.1621 80.6038 61.1621C81.1939 61.1621 81.76 61.3955 82.1774 61.8108C82.5947 62.2263 82.8292 62.7898 82.8292 63.3771ZM79.8619 63.3771C79.8619 63.6757 80.0427 63.945 80.3199 64.0591C80.5971 64.1736 80.9162 64.1103 81.1283 63.8992C81.3404 63.6881 81.404 63.3704 81.289 63.0945C81.1743 62.8186 80.9038 62.6387 80.6038 62.6387C80.4071 62.6387 80.2183 62.7165 80.0792 62.855C79.9401 62.9934 79.8619 63.1813 79.8619 63.3771L79.8619 63.3771Z" fill="#63AC43"/>
<path d="M62.8004 73.7136C63.2099 73.7136 63.5422 74.0444 63.5422 74.452V77.4054H85.0542V74.8359L77.3321 69.3869C77.1103 69.2292 76.812 69.2292 76.5902 69.3869L69.172 75.0203V75.0206C69.018 75.1548 68.8153 75.2196 68.6117 75.1998C68.4078 75.1803 68.2215 75.0774 68.0963 74.9163C67.9711 74.7551 67.9187 74.5494 67.951 74.3484C67.9833 74.1472 68.0978 73.9682 68.2672 73.854L75.6854 68.2132H75.6851C76.041 67.9472 76.472 67.7998 76.9168 67.7917C77.3616 67.7837 77.7977 67.9158 78.1629 68.1687L85.054 73.0271V59.6852C85.054 59.2773 84.7219 58.9468 84.3121 58.9468H64.2835C64.0868 58.9468 63.8983 59.0247 63.759 59.1631C63.6199 59.3015 63.5419 59.4894 63.5419 59.6852V60.4236V60.4234C63.5419 60.8313 63.2096 61.1618 62.8 61.1618C62.3905 61.1618 62.0581 60.8313 62.0581 60.4234V59.6852C62.0581 59.0976 62.2926 58.5342 62.7101 58.1189C63.1274 57.7036 63.6934 57.4702 64.2835 57.4702H84.3121C84.9025 57.4702 85.4685 57.7036 85.8858 58.1189C86.303 58.5342 86.5375 59.0976 86.5375 59.6852V80.3581C86.5375 80.9457 86.303 81.5092 85.8858 81.9244C85.4685 82.3397 84.9024 82.5731 84.3121 82.5731H64.2835C63.6934 82.5731 63.1273 82.3397 62.7101 81.9244C62.2926 81.5091 62.0581 80.9457 62.0581 80.3581V74.4515C62.0581 74.2557 62.1364 74.0679 62.2755 73.9294C62.4145 73.791 62.6033 73.7131 62.8 73.7131L62.8004 73.7136ZM63.5422 80.3586C63.5422 80.5544 63.6202 80.7423 63.7593 80.8807C63.8987 81.0192 64.0872 81.097 64.2839 81.097H84.3124C84.7222 81.097 85.0543 80.7665 85.0543 80.3586V78.882H63.5424L63.5422 80.3586Z" fill="#63AC43"/>
<path d="M56.6583 70.2656L64.5292 62.4315C64.8186 62.1452 65.2857 62.1452 65.5751 62.4315L68.2011 65.0453C68.4887 65.3333 68.4887 65.7982 68.2011 66.0862L60.3302 73.9204C60.0408 74.2066 59.5737 74.2066 59.2843 73.9204L56.6583 71.3066C56.3707 71.0186 56.3707 70.5536 56.6583 70.2656ZM65.0258 63.9971L63.9725 65.0455L65.5451 66.6108L66.628 65.5918L65.0258 63.9971ZM59.8331 72.3553L64.5583 67.6521L62.9857 66.0868L58.2309 70.7606L59.8331 72.3553Z" fill="#63AC43"/>
<path d="M70.9599 70.0223C70.7631 70.0223 70.5746 69.9444 70.4353 69.806C70.2962 69.6675 70.2182 69.4797 70.2182 69.2839V68.5457H69.4763C69.0668 68.5457 68.7345 68.2149 68.7345 67.8073C68.7345 67.3996 69.0668 67.0689 69.4763 67.0689H70.2182V66.3307C70.2182 65.9228 70.5503 65.5923 70.9598 65.5923C71.3697 65.5923 71.7017 65.9228 71.7017 66.3307V67.0691L72.4436 67.0689C72.8532 67.0689 73.1852 67.3996 73.1852 67.8073C73.1852 68.2149 72.8532 68.5457 72.4436 68.5457H71.7017V69.2841V69.2839C71.7017 69.4797 71.6235 69.6675 71.4844 69.806C71.3453 69.9444 71.1566 70.0223 70.9598 70.0223L70.9599 70.0223Z" fill="#63AC43"/>
<path d="M61.3169 63.3772H60.575V64.1157C60.575 64.5233 60.2429 64.8538 59.8331 64.8538C59.4236 64.8538 59.0915 64.5233 59.0915 64.1157V63.3772H58.3496C57.9401 63.3772 57.6077 63.0467 57.6077 62.6388C57.6077 62.2312 57.9401 61.9007 58.3496 61.9007H59.0915V61.1622C59.0915 60.7546 59.4236 60.4238 59.8331 60.4238C60.2429 60.4238 60.575 60.7546 60.575 61.1622V61.9007H61.3169C61.7265 61.9007 62.0585 62.2312 62.0585 62.6388C62.0585 63.0467 61.7265 63.3772 61.3169 63.3772Z" fill="#63AC43"/>
<path d="M68.7347 60.4236H67.2512V61.9002H68.7347V60.4236Z" fill="#63AC43"/>
<path d="M71.702 62.6387H70.2185V64.1153H71.702V62.6387Z" fill="#63AC43"/>
<path d="M197.252 14.293L197.598 15.33L189.407 18.0656C189.295 18.1032 189.173 18.1032 189.061 18.0656L180.87 15.33L181.216 14.293L189.234 16.968L197.252 14.293Z" fill="#F9CF9B"/>
<path d="M189.278 11.5333C189.322 11.5374 189.366 11.5469 189.407 11.5613L197.598 14.293C197.823 14.3672 197.974 14.577 197.973 14.8135V25.7439C197.974 25.9803 197.823 26.1904 197.598 26.2646L189.407 28.996C189.295 29.0336 189.173 29.0336 189.061 28.996L180.87 26.2646C180.647 26.1889 180.498 25.9793 180.499 25.7439V14.8135C180.498 14.5783 180.647 14.3684 180.87 14.293L189.061 11.5613C189.13 11.5374 189.205 11.5277 189.278 11.5333ZM189.234 12.655L181.592 15.2049V25.3482L189.234 27.9023L196.881 25.3482V15.2049L189.234 12.655Z" fill="#F9CF9B"/>
<path d="M189.782 17.5447V28.4751H188.69V17.5447H189.782Z" fill="#F9CF9B"/>
<path d="M189.061 27.9585L189.407 28.9956L181.216 31.727V31.7273C181.104 31.7649 180.982 31.7649 180.87 31.7273L172.679 28.9958L173.025 27.9587L181.043 30.6338L189.061 27.9585Z" fill="#F9CF9B"/>
<path d="M180.87 25.2231L181.216 26.2641L173.4 28.8706V39.0139L181.043 41.5641L188.69 39.0139V28.4752H189.782V39.4094C189.781 39.6443 189.63 39.8522 189.407 39.9259L181.216 42.6615C181.104 42.6991 180.982 42.6991 180.87 42.6615L172.679 39.9259C172.457 39.8508 172.308 39.6431 172.308 39.4094V28.4752C172.308 28.2415 172.457 28.0338 172.679 27.9586L180.87 25.2231Z" fill="#F9CF9B"/>
<path d="M181.591 31.2112V42.1416H180.499V31.2112H181.591Z" fill="#F9CF9B"/>
<path d="M205.443 27.9585L205.789 28.9956L197.598 31.727V31.7273C197.486 31.7649 197.364 31.7649 197.252 31.7273L189.061 28.9956L189.407 27.9586L197.425 30.6336L205.443 27.9585Z" fill="#F9CF9B"/>
<path d="M197.599 25.2231L205.79 27.9587C206.012 28.0324 206.163 28.2403 206.164 28.4753V39.4094C206.163 39.6444 206.012 39.8523 205.79 39.926L197.599 42.6616C197.486 42.6992 197.364 42.6992 197.252 42.6616L189.061 39.926L189.408 38.8889L197.425 41.564L205.072 39.0139V28.8706L197.252 26.2643L197.599 25.2231Z" fill="#F9CF9B"/>
<path d="M197.973 31.2112V42.1416H196.881V31.2112H197.973Z" fill="#F9CF9B"/>
<path d="M368.915 117.705C368.491 117.705 368.146 118.037 368.146 118.446V122.154H369.685L369.685 118.446C369.685 118.037 369.34 117.705 368.915 117.705H368.915Z" fill="#63AC43"/>
<path d="M387.383 135.5H381.997V123.636H362.76C362.336 123.636 361.991 123.969 361.991 124.378C361.991 124.787 362.336 125.119 362.76 125.119H380.458V135.5H369.686V126.602H368.147V136.983H387.384C387.808 136.983 388.153 136.651 388.153 136.242C388.153 135.832 387.808 135.5 387.383 135.5V135.5Z" fill="#63AC43"/>
<path d="M380.458 138.466V142.174C380.458 142.583 380.803 142.915 381.227 142.915C381.652 142.915 381.997 142.583 381.997 142.174L381.997 138.466H380.458Z" fill="#63AC43"/>
<path d="M388.152 128.085C387.955 128.085 387.759 128.013 387.608 127.868L384.53 124.902C384.23 124.612 384.23 124.143 384.53 123.853C384.831 123.564 385.318 123.564 385.618 123.853L388.152 126.295L390.686 123.854C390.987 123.564 391.474 123.564 391.774 123.854C392.075 124.143 392.075 124.613 391.774 124.902L388.696 127.868C388.546 128.013 388.349 128.085 388.152 128.085V128.085Z" fill="#63AC43"/>
<path d="M388.153 124.748C388.103 124.748 388.052 124.745 388.002 124.734C387.952 124.726 387.902 124.711 387.856 124.693C387.81 124.674 387.768 124.652 387.725 124.623C387.683 124.597 387.644 124.567 387.61 124.53C387.571 124.497 387.54 124.46 387.514 124.419C387.487 124.378 387.46 124.337 387.441 124.289C387.421 124.244 387.406 124.2 387.399 124.152C387.387 124.104 387.383 124.055 387.383 124.007C387.383 123.959 387.387 123.911 387.398 123.862C387.406 123.814 387.422 123.77 387.44 123.722C387.46 123.677 387.486 123.636 387.513 123.596C387.54 123.555 387.571 123.518 387.609 123.484C387.644 123.447 387.682 123.418 387.725 123.392C387.767 123.366 387.809 123.34 387.855 123.321C387.902 123.303 387.952 123.288 388.002 123.281C388.252 123.232 388.518 123.31 388.695 123.484C388.841 123.621 388.922 123.814 388.922 124.007C388.922 124.055 388.919 124.104 388.907 124.152C388.899 124.2 388.884 124.244 388.865 124.289C388.845 124.337 388.818 124.378 388.792 124.418C388.765 124.459 388.734 124.496 388.696 124.53C388.553 124.671 388.357 124.748 388.153 124.748L388.153 124.748Z" fill="#63AC43"/>
<path d="M387.302 121.397C387.217 120.996 387.483 120.603 387.898 120.518C388.314 120.436 388.722 120.696 388.81 121.096C388.895 121.496 388.629 121.89 388.214 121.971C388.16 121.982 388.106 121.99 388.056 121.99C387.698 121.986 387.379 121.745 387.302 121.397L387.302 121.397ZM386.14 119.424C385.829 119.146 385.81 118.679 386.094 118.379C386.383 118.075 386.872 118.056 387.183 118.334C387.495 118.612 387.518 119.08 387.229 119.384C387.076 119.539 386.868 119.621 386.664 119.621C386.475 119.621 386.286 119.558 386.14 119.424L386.14 119.424ZM384.005 118.471C383.585 118.423 383.285 118.052 383.335 117.648C383.385 117.24 383.77 116.951 384.193 116.999C384.613 117.051 384.913 117.418 384.863 117.826C384.817 118.201 384.482 118.479 384.101 118.479C384.07 118.479 384.039 118.475 384.005 118.471L384.005 118.471Z" fill="#63AC43"/>
<path d="M381.228 118.446C381.178 118.446 381.128 118.442 381.077 118.431C381.027 118.424 380.977 118.409 380.931 118.39C380.885 118.372 380.843 118.349 380.8 118.32C380.758 118.294 380.719 118.264 380.685 118.227C380.539 118.09 380.458 117.901 380.458 117.704C380.458 117.656 380.462 117.608 380.473 117.56C380.481 117.512 380.496 117.467 380.515 117.419C380.535 117.374 380.561 117.333 380.588 117.293C380.615 117.252 380.646 117.215 380.684 117.178C380.719 117.145 380.757 117.115 380.8 117.089C380.842 117.063 380.884 117.037 380.93 117.019C380.976 117 381.026 116.985 381.077 116.978C381.327 116.93 381.592 117.008 381.769 117.178C381.808 117.215 381.839 117.252 381.866 117.293C381.892 117.334 381.919 117.374 381.938 117.419C381.958 117.467 381.973 117.511 381.981 117.56C381.993 117.608 381.997 117.656 381.997 117.704C381.997 117.901 381.916 118.09 381.77 118.227C381.735 118.264 381.697 118.294 381.654 118.32C381.612 118.349 381.57 118.372 381.523 118.39C381.473 118.409 381.427 118.423 381.377 118.431C381.327 118.442 381.278 118.446 381.228 118.446V118.446Z" fill="#63AC43"/>
<path d="M365.068 136.983C364.871 136.983 364.674 136.911 364.524 136.766L361.991 134.324L359.457 136.766C359.157 137.056 358.669 137.056 358.369 136.766C358.068 136.476 358.068 136.007 358.369 135.717L361.447 132.751C361.747 132.462 362.235 132.462 362.535 132.751L365.613 135.717C365.913 136.007 365.913 136.477 365.613 136.766C365.462 136.911 365.265 136.983 365.068 136.983H365.068Z" fill="#63AC43"/>
<path d="M361.991 137.354C361.783 137.354 361.591 137.276 361.448 137.135C361.302 136.998 361.221 136.809 361.221 136.613C361.221 136.564 361.225 136.516 361.236 136.467C361.244 136.419 361.259 136.371 361.279 136.327C361.298 136.282 361.325 136.242 361.352 136.201C361.379 136.16 361.409 136.123 361.448 136.089C361.733 135.811 362.248 135.811 362.533 136.089C362.571 136.123 362.602 136.16 362.629 136.201C362.656 136.241 362.683 136.282 362.702 136.327C362.721 136.371 362.737 136.419 362.744 136.467C362.756 136.516 362.76 136.564 362.76 136.613C362.76 136.713 362.741 136.805 362.702 136.898C362.664 136.987 362.606 137.068 362.533 137.136C362.391 137.276 362.194 137.354 361.991 137.354H361.991Z" fill="#63AC43"/>
<path d="M365.949 143.62C365.53 143.568 365.23 143.201 365.28 142.793C365.33 142.385 365.715 142.096 366.138 142.148C366.557 142.197 366.857 142.564 366.807 142.972C366.761 143.35 366.426 143.625 366.045 143.625C366.015 143.624 365.98 143.624 365.949 143.62L365.949 143.62ZM362.96 142.285C362.644 142.007 362.625 141.54 362.914 141.236C363.202 140.936 363.691 140.917 364.003 141.195C364.314 141.473 364.333 141.941 364.045 142.241C363.895 142.4 363.687 142.482 363.479 142.482C363.295 142.482 363.106 142.415 362.96 142.285L362.96 142.285ZM361.332 139.523C361.248 139.123 361.513 138.73 361.929 138.649C362.344 138.563 362.752 138.823 362.841 139.223C362.925 139.624 362.66 140.017 362.244 140.098C362.19 140.109 362.137 140.117 362.087 140.117C361.729 140.116 361.409 139.875 361.332 139.523L361.332 139.523Z" fill="#63AC43"/>
<path d="M368.915 143.657C368.711 143.657 368.515 143.579 368.373 143.438C368.227 143.3 368.146 143.111 368.146 142.915C368.146 142.867 368.15 142.818 368.161 142.77C368.169 142.722 368.184 142.673 368.204 142.629C368.223 142.584 368.25 142.544 368.277 142.503C368.304 142.463 368.334 142.425 368.373 142.392C368.55 142.217 368.815 142.14 369.065 142.188C369.115 142.195 369.161 142.21 369.211 142.228C369.258 142.247 369.3 142.273 369.342 142.299C369.385 142.324 369.423 142.354 369.461 142.391C369.496 142.425 369.527 142.462 369.554 142.502C369.584 142.543 369.608 142.584 369.627 142.628C369.646 142.673 369.661 142.721 369.669 142.769C369.681 142.819 369.685 142.867 369.685 142.915C369.685 143.111 369.604 143.297 369.462 143.438C369.389 143.508 369.304 143.564 369.212 143.6C369.116 143.638 369.019 143.657 368.915 143.657L368.915 143.657Z" fill="#63AC43"/>
<g style="mix-blend-mode:multiply">
<path d="M27.2957 210.124H115.299" stroke="#FC9823" stroke-width="0.77" stroke-miterlimit="10" stroke-dasharray="5.24 5.24"/>
<path d="M115.212 204.658V146.309" stroke="#FC9823" stroke-width="0.77" stroke-miterlimit="10" stroke-dasharray="5 5"/>
<path d="M113.538 142.297H25.5354" stroke="#FC9823" stroke-width="0.77" stroke-miterlimit="10" stroke-dasharray="5.24 5.24"/>
<path d="M25.8265 148.192V206.541" stroke="#FC9823" stroke-width="0.77" stroke-miterlimit="10" stroke-dasharray="5 5"/>
<path d="M111.691 140.834H116.491V145.639H111.691V140.834Z" fill="white" stroke="#FC9823" stroke-width="1.74" stroke-miterlimit="10"/>
<path d="M23.6747 140.834H28.4749V145.639H23.6747V140.834Z" fill="white" stroke="#FC9823" stroke-width="1.74" stroke-miterlimit="10"/>
<path d="M111.691 206.556H116.491V211.361H111.691V206.556Z" fill="white" stroke="#FC9823" stroke-width="1.74" stroke-miterlimit="10"/>
<path d="M23.6747 206.556H28.4749V211.361H23.6747V206.556Z" fill="white" stroke="#FC9823" stroke-width="1.74" stroke-miterlimit="10"/>
</g>
<path d="M90.9218 214.9L87.7242 224.186C87.6599 224.382 87.5355 224.552 87.3686 224.673C87.2018 224.794 87.001 224.859 86.7951 224.859C86.5891 224.859 86.3883 224.794 86.2215 224.673C86.0547 224.552 85.9302 224.382 85.8659 224.186L79.5234 203.717C79.47 203.545 79.465 203.362 79.5089 203.187C79.5528 203.013 79.6439 202.854 79.7722 202.728C79.9004 202.602 80.0609 202.513 80.2361 202.473C80.4112 202.432 80.5941 202.44 80.7648 202.497L101.244 209.388C101.44 209.452 101.61 209.577 101.731 209.744C101.852 209.911 101.917 210.111 101.917 210.318C101.917 210.524 101.852 210.725 101.731 210.892C101.61 211.059 101.44 211.183 101.244 211.248L91.5689 214.313C91.4239 214.356 91.2905 214.431 91.1785 214.533C91.0665 214.634 90.9787 214.76 90.9218 214.9Z" fill="#151D02"/>
<path d="M88.652 160.795C89.7632 160.795 90.6575 161.679 90.6575 162.777V186.421L77.8556 172.997C77.7045 172.834 77.4968 172.723 77.2757 172.688C76.9435 172.636 76.5888 172.763 76.3671 173.013L66.0096 184.533L58.802 176.961C58.6509 176.798 58.4432 176.687 58.2221 176.652C57.8898 176.6 57.5352 176.727 57.3135 176.977L47.5362 187.754V162.778C47.5362 161.68 48.4308 160.797 49.5416 160.797L88.652 160.795ZM65.5876 167.732C63.9259 167.732 62.579 169.063 62.579 170.705C62.579 172.347 63.9259 173.678 65.5876 173.678C67.2493 173.678 68.5962 172.347 68.5962 170.705C68.5962 169.063 67.2493 167.732 65.5876 167.732ZM77.1359 175.133L90.6577 189.301V190.524C90.6577 191.622 89.763 192.505 88.6522 192.505H61.5139L77.1359 175.133ZM58.0827 179.097L64.6794 186.019L58.8351 192.506H49.5439C48.4968 192.506 47.6487 191.72 47.5538 190.71L58.0827 179.097Z" fill="#FC9823"/>
<path d="M154.947 110.1L158.312 110.147C158.589 110.151 158.851 110.264 159.041 110.462C159.232 110.66 159.336 110.927 159.329 111.203L158.506 147.517C158.5 147.793 158.384 148.057 158.185 148.249C157.985 148.442 157.718 148.548 157.442 148.544L154.077 148.497C153.789 148.493 153.532 148.372 153.347 148.181C153.163 147.99 153.053 147.728 153.059 147.44L153.883 111.128C153.895 110.552 154.372 110.092 154.947 110.101L154.947 110.1ZM155.165 146.428L156.447 146.446L157.086 118.263L155.803 118.245L155.165 146.428ZM155.851 116.161L157.134 116.18L157.223 112.216L155.941 112.199L155.851 116.161Z" fill="#424441"/>
<path d="M167.294 113.81C167.478 114.001 167.736 114.122 168.023 114.125L174.061 114.209C174.636 114.217 175.112 113.757 175.125 113.182C175.139 112.607 174.683 112.133 174.108 112.125L168.071 112.042C167.496 112.034 167.019 112.494 167.006 113.069C166.999 113.357 167.11 113.619 167.294 113.81Z" fill="#424441"/>
<path d="M137.573 113.368C137.758 113.559 138.015 113.679 138.303 113.683L144.34 113.767C144.915 113.775 145.391 113.315 145.404 112.739C145.417 112.164 144.962 111.691 144.387 111.683L138.35 111.599C137.775 111.591 137.298 112.051 137.285 112.627C137.279 112.915 137.389 113.176 137.573 113.368Z" fill="#424441"/>
<path d="M155.936 102.048C156.12 102.239 156.377 102.36 156.665 102.364C157.24 102.372 157.717 101.912 157.73 101.336L157.867 95.2938C157.881 94.7182 157.425 94.2453 156.85 94.2375C156.275 94.2295 155.798 94.6895 155.786 95.2649L155.648 101.307C155.641 101.595 155.752 101.857 155.936 102.048Z" fill="#424441"/>
<path d="M164.236 106.135C164.633 106.547 165.291 106.556 165.706 106.155L170.215 101.798C170.63 101.397 170.645 100.738 170.249 100.326C169.852 99.9135 169.194 99.9047 168.779 100.305L164.27 104.662C163.855 105.063 163.84 105.723 164.236 106.135Z" fill="#424441"/>
<path d="M143.218 126.459C143.614 126.871 144.273 126.88 144.687 126.479L148.821 122.485C149.236 122.084 149.251 121.424 148.855 121.012C148.458 120.6 147.8 120.591 147.385 120.992L143.251 124.986C142.837 125.387 142.821 126.047 143.218 126.459Z" fill="#424441"/>
<path d="M143.352 101.034L147.676 105.519C148.074 105.931 148.735 105.94 149.151 105.539C149.568 105.138 149.583 104.477 149.185 104.065L144.86 99.58C144.462 99.1673 143.802 99.1584 143.385 99.5595C142.969 99.9609 142.954 100.621 143.352 101.034Z" fill="#424441"/>
<path d="M164.281 122.72L168.245 126.831C168.643 127.243 169.304 127.252 169.72 126.851C170.137 126.45 170.151 125.789 169.754 125.377L165.79 121.266C165.392 120.853 164.731 120.844 164.315 121.245C163.898 121.647 163.883 122.307 164.281 122.72Z" fill="#424441"/>
</svg>
