<svg width="77" height="40" viewBox="0 0 77 40" fill="none" xmlns="http://www.w3.org/2000/svg">
<path d="M54.8483 27.6886C52.4696 26.5741 50.0934 25.7579 48.0329 24.4381C45.7233 23.0114 43.6247 21.2575 41.8004 19.2295C40.8732 18.1831 40.3765 16.8152 40.4133 15.4094C40.4502 14.0037 41.0178 12.668 41.9984 11.6794C44.0317 9.36835 46.9204 9.0845 49.7132 10.9048C53.3293 13.2499 55.6 16.7454 57.3261 20.6501C57.7467 21.6103 58.0822 22.5957 58.4405 23.5146C64.7747 25.2761 66.6375 23.9125 74.765 11.6033C76.9699 12.5813 76.7042 14.36 76.1676 16.1591C74.3678 22.1766 67.4582 27.8207 61.3261 28.3227C60.7022 28.3709 60.0793 28.3933 59.3358 28.4342C59.1193 29.3099 58.9705 30.0716 58.7562 30.8099C57.1667 36.1329 53.0726 39.5588 47.5959 39.3967C44.3849 39.2393 41.2131 38.5991 38.1837 37.4968C32.9859 35.6888 28.4623 32.5279 24.3563 28.8673C19.3942 24.4525 14.6371 19.789 9.78907 15.2464C9.06303 14.5647 8.30516 13.918 7.33531 13.0608C7.19072 15.109 6.94045 17.1477 6.58554 19.1685C6.4208 19.8751 5.30087 20.9929 4.92477 20.8823C4.10707 20.6377 3.47324 19.7237 2.80586 19.0416C2.66073 18.8882 2.70332 18.5424 2.6691 18.2792C2.11792 14.1715 1.60807 9.97471 0.965938 5.84273C0.396328 2.19323 0.884317 1.35668 4.43814 0.790271C8.4314 0.2574 12.4954 0.849295 16.1875 2.5015C17.4046 2.99499 18.5781 3.71495 17.8423 5.66706C14.3807 6.95786 10.9415 4.58598 6.90967 5.03779C7.8328 6.13946 8.40156 6.94469 9.09213 7.61985C15.0793 13.4307 20.902 19.427 27.1624 24.9348C30.6395 27.8784 34.4221 30.4266 38.4425 32.534C40.9806 33.8384 43.7366 34.6445 46.5657 34.9099C51.2536 35.3912 53.999 32.8435 54.8483 27.6886ZM52.5509 22.39L53.2208 21.602C52.3593 19.1798 50.9022 17.0207 48.9886 15.3308C47.1927 13.7361 45.7393 13.4408 45.0368 14.5801C44.024 16.2129 45.1699 17.3596 46.2757 18.1935C48.2467 19.668 50.4331 20.9591 52.5396 22.3507L52.5509 22.39Z" fill="#F9CF9B"/>
</svg>
