<svg width="50" height="50" viewBox="0 0 50 50" fill="none" xmlns="http://www.w3.org/2000/svg">
<path d="M40 12.9264C40.7818 12.6501 41.6235 12.4995 42.4999 12.4995C46.6421 12.4995 50 15.8574 50 19.9996V42.4999C50 46.6421 46.6421 50 42.4999 50H7.50011C3.35791 50 0 46.6421 0 42.4999V7.50011C0 3.35791 3.35791 0 7.50011 0H32.5001C36.6423 0 40.0002 3.35791 40.0002 7.50011L40 12.9264ZM40 19.9996V45.0007H42.4999C43.8807 45.0007 45.0002 43.8811 45.0002 42.5004V20C45.0002 18.6193 43.8807 17.5002 42.4999 17.5002C41.1191 17.5002 40 18.6193 40 20V19.9996ZM12.4993 17.4997H28.2109C29.5917 17.4997 30.7108 16.3806 30.7108 14.9998C30.7108 13.6191 29.5917 12.4995 28.2109 12.4995H12.4993C11.1185 12.4995 9.99936 13.6191 9.99936 14.9998C9.99936 16.3806 11.1185 17.4997 12.4993 17.4997ZM12.4993 27.4997H28.2109C29.5917 27.4997 30.7108 26.3806 30.7108 24.9998C30.7108 23.6191 29.5917 22.4999 28.2109 22.4999H12.4993C11.1185 22.4999 9.99936 23.6191 9.99936 24.9998C9.99936 26.3806 11.1185 27.4997 12.4993 27.4997ZM12.4993 37.5002H19.9994C21.3801 37.5002 22.4997 36.3806 22.4997 34.9998C22.4997 33.6191 21.3801 32.4999 19.9994 32.4999H12.4993C11.1185 32.4999 9.99936 33.6191 9.99936 34.9998C9.99936 36.3806 11.1185 37.5002 12.4993 37.5002Z" fill="#FC9823"/>
</svg>
