<svg width="48" height="50" viewBox="0 0 48 50" fill="none" xmlns="http://www.w3.org/2000/svg">
<path fill-rule="evenodd" clip-rule="evenodd" d="M21.9582 0.985845C22.4081 0.366135 23.1283 0 23.8938 0C24.6594 0 25.3796 0.366135 25.8295 0.985845C26.5237 1.94044 27.2368 2.92271 27.8396 3.75306C29.0587 5.43026 31.2182 6.1313 33.1899 5.49118C34.1665 5.17432 35.321 4.79856 36.4431 4.43481C37.1718 4.19806 37.9685 4.32345 38.5882 4.77451C39.2079 5.22436 39.5753 5.9446 39.5753 6.71055V10.13C39.5753 12.2034 40.9105 14.0409 42.8821 14.681C43.8587 14.9979 45.0121 15.3737 46.1341 15.7385C46.8627 15.9757 47.4348 16.5461 47.6703 17.2747C47.907 18.0034 47.7816 18.8002 47.3306 19.4199C46.638 20.3749 45.9233 21.3572 45.3204 22.1871C44.1026 23.8647 44.1026 26.1353 45.3204 27.8129C45.9233 28.6429 46.638 29.6252 47.3306 30.5801C47.7816 31.1998 47.907 31.9965 47.6703 32.7253C47.4347 33.4539 46.8627 34.0244 46.1341 34.2615C45.0121 34.6264 43.8587 35.0021 42.8821 35.3189C40.9104 35.9591 39.5753 37.7966 39.5753 39.87V43.2895C39.5753 44.0554 39.2079 44.7756 38.5882 45.2255C37.9685 45.6766 37.1718 45.8019 36.4431 45.5652C35.3211 45.2015 34.1666 44.8257 33.1899 44.5088C31.2182 43.8687 29.0587 44.5697 27.8396 46.2469C27.2368 47.0774 26.5237 48.0596 25.8295 49.0142C25.3796 49.6339 24.6594 50 23.8938 50C23.1283 50 22.4081 49.6339 21.9582 49.0142C21.264 48.0596 20.5509 47.0773 19.948 46.2469C18.729 44.5697 16.5695 43.8687 14.5978 44.5088C13.6211 44.8257 12.4667 45.2014 11.3446 45.5652C10.6159 45.8019 9.81914 45.6766 9.19943 45.2255C8.57972 44.7756 8.21238 44.0554 8.21238 43.2895V39.87C8.21238 37.7966 6.87718 35.9591 4.90555 35.3189C3.92893 35.0021 2.77559 34.6263 1.65359 34.2615C0.924918 34.0243 0.352842 33.4539 0.117387 32.7253C-0.11936 31.9966 0.00602777 31.1998 0.457084 30.5801C1.1497 29.6251 1.86438 28.6428 2.46727 27.8129C3.68505 26.1353 3.68505 23.8647 2.46727 22.1871C1.86439 21.3571 1.14971 20.3748 0.457084 19.4199C0.00602777 18.8002 -0.11936 18.0035 0.117387 17.2747C0.352934 16.5461 0.924969 15.9756 1.65359 15.7385C2.77559 15.3736 3.92897 14.9979 4.90555 14.681C6.87728 14.0409 8.21238 12.2034 8.21238 10.13V6.71055C8.21238 5.94462 8.57972 5.22439 9.19943 4.77451C9.81914 4.32345 10.6158 4.19806 11.3446 4.43481C12.4666 4.79854 13.6211 5.17429 14.5978 5.49118C16.5695 6.13132 18.729 5.43029 19.948 3.75306L21.9582 0.985845ZM29.8758 26.1968C27.2343 26.1968 25.0904 28.3407 25.0904 30.9822C25.0904 33.6241 27.2343 35.768 29.8758 35.768C32.5177 35.768 34.6616 33.6241 34.6616 30.9822C34.6616 28.3407 32.5177 26.1968 29.8758 26.1968ZM15.168 35.4174L34.3111 16.2744C34.7778 15.8077 34.7778 15.0495 34.3111 14.5828C33.8444 14.116 33.0861 14.1161 32.6194 14.5828L13.4764 33.7258C13.0097 34.1925 13.0097 34.9507 13.4764 35.4174C13.9431 35.8842 14.7013 35.8841 15.168 35.4174ZM29.8758 28.5895C31.1969 28.5895 32.2689 29.6614 32.2689 30.9822C32.2689 32.3033 31.1969 33.3753 29.8758 33.3753C28.555 33.3753 27.4831 32.3033 27.4831 30.9822C27.4831 29.6614 28.555 28.5895 29.8758 28.5895ZM17.9123 14.2324C15.2704 14.2324 13.1265 16.3764 13.1265 19.0183C13.1265 21.6597 15.2704 23.8036 17.9123 23.8036C20.5538 23.8036 22.6977 21.6597 22.6977 19.0183C22.6977 16.3764 20.5538 14.2324 17.9123 14.2324ZM17.9123 16.6251C19.233 16.6251 20.305 17.6971 20.305 19.0183C20.305 20.339 19.233 21.411 17.9123 21.411C16.5911 21.411 15.5192 20.339 15.5192 19.0183C15.5192 17.6971 16.5911 16.6251 17.9123 16.6251Z" fill="#FC9823"/>
</svg>
