<svg width="50" height="50" viewBox="0 0 50 50" fill="none" xmlns="http://www.w3.org/2000/svg">
<path d="M27.7949 27.7584C27.7949 24.6857 29.1415 21.7826 31.4965 19.8067C33.3674 18.2339 35.7466 17.3711 38.1981 17.3711C38.803 17.3711 39.4159 17.4275 40.0208 17.5322C41.8434 17.8467 43.4967 18.6854 44.8596 19.8872L45.287 16.3712C45.545 14.4194 44.021 12.6855 42.0532 12.6855H3.26236C1.29459 12.6855 -0.2295 14.4194 0.0285546 16.3712L2.98026 40.5085C3.08496 41.3231 3.77851 41.928 4.60129 41.928H25.2466V34.3149C25.2466 32.702 26.3274 31.3472 27.8032 30.9117V27.758L27.7949 27.7584ZM23.077 30.073C23.077 30.7424 22.8754 31.3877 22.4963 31.9361C21.456 33.4279 19.0528 35.8152 15.4075 37.4603C11.7622 35.8152 9.35077 33.4279 8.31048 31.9361C7.9314 31.3877 7.7298 30.7346 7.7298 30.0652L7.73017 20.452C12.7061 20.194 15.4078 16.3631 15.4078 16.3631C15.4078 16.3631 18.1096 20.194 23.0773 20.452L23.077 30.073Z" fill="#FC9823"/>
<path d="M12.1092 27.4275C11.7947 27.1131 11.2864 27.1131 10.9719 27.4275C10.6575 27.742 10.6575 28.2503 10.9719 28.5648L13.0768 30.6696C13.2379 30.8307 13.4395 30.9035 13.6493 30.9035C13.859 30.9035 14.0607 30.8229 14.2218 30.6696L19.843 25.0484C20.1575 24.7339 20.1575 24.2256 19.843 23.9111C19.5285 23.5967 19.0202 23.5967 18.7058 23.9111L13.6575 28.9594L12.1092 27.4275Z" fill="#FC9823"/>
<path d="M6.97189 11.0567V7.50023H38.3509V11.0567H42.0607C42.093 11.0567 42.1253 11.0649 42.1576 11.0649V5.93565C42.1576 5.03232 41.4236 4.30644 40.5284 4.30644H18.4317C17.9238 4.30644 17.4396 4.06436 17.1334 3.66115L14.8429 0.645288C14.5366 0.242077 14.0525 0 13.5446 0H4.7943C3.89914 0 3.16547 0.734024 3.16547 1.62921V11.0568C3.19777 11.0568 3.23007 11.0486 3.26237 11.0486H6.97179L6.97189 11.0567Z" fill="#FC9823"/>
<path d="M46.9726 30.7257V28.1691C46.9726 23.7256 43.8676 19.8302 39.7468 19.1125C37.1579 18.661 34.5289 19.3624 32.537 21.0398C30.5451 22.7172 29.4078 25.1609 29.4078 27.7577V30.7254H32.5771V27.7577C32.5771 26.0963 33.303 24.532 34.5772 23.4594C35.8674 22.3708 37.5048 21.9353 39.2063 22.2335C41.8271 22.6849 43.8031 25.2334 43.8031 28.1609V30.7175H46.9727L46.9726 30.7257Z" fill="#FC9823"/>
<path d="M47.5696 32.3388H28.811C27.7302 32.3388 26.8514 33.2179 26.8514 34.2984V48.0403C26.8514 49.1211 27.7306 49.9999 28.811 49.9999H47.5696C48.6504 49.9999 49.5292 49.1207 49.5292 48.0403V34.2984C49.5292 33.2176 48.65 32.3384 47.5696 32.3384V32.3388ZM39.3353 41.1778V44.5409C39.3353 45.1698 38.8274 45.6859 38.1903 45.6859C37.5613 45.6859 37.0452 45.178 37.0452 44.5409V41.1778C36.2953 40.7664 35.7792 39.9841 35.7792 39.0649C35.7792 37.7342 36.86 36.6534 38.1907 36.6534C39.5213 36.6534 40.6021 37.7342 40.6021 39.0649C40.6014 39.9842 40.0853 40.7664 39.3353 41.1778Z" fill="#FC9823"/>
</svg>
