<svg width="50" height="50" viewBox="0 0 50 50" fill="none" xmlns="http://www.w3.org/2000/svg">
<path d="M31.6107 33.7778L27.3329 29.5V36.4998C29.4995 36.2223 30.9441 35.278 31.6107 33.7778Z" fill="#FC9823"/>
<path d="M15.5554 12.6668C16.9997 10.167 19.7774 8.50023 23.3887 8.167V6.83359C23.3887 5.8338 24.2218 5.11149 25.3886 5.11149H25.4999C26.4996 5.05608 27.3332 5.83382 27.3886 6.83359V8.167C31.6664 8.6669 34.8887 11.278 35.9439 15.0001C35.9993 15.278 36.0551 15.5558 36.0551 15.7779C36.0551 16.8335 35.2773 17.7225 34.2218 17.9445H33.9997C33.7777 17.9999 33.5552 17.9999 33.2774 17.9999C32.2217 18.0553 31.2774 17.3334 31.0554 16.3332C30.6663 14.4444 29.1666 12.9997 27.2779 12.6665V21.8887C32.2776 22.9997 36.9445 24.8331 36.9445 31.4441C36.9445 32.2218 36.8891 32.9996 36.6666 33.7774L43.9442 41.0549C47.7772 36.8333 49.9992 31.1666 49.9992 24.9996C49.9992 11.1665 38.8327 0 24.9996 0C18.833 0 13.1664 2.22199 8.83313 5.94455L15.5554 12.6668Z" fill="#FC9823"/>
<path d="M26.6108 8.8335C26.8887 8.8335 27.1665 8.88891 27.444 8.94471C27.1665 8.8893 26.8887 8.8335 26.6108 8.8335Z" fill="#FC9823"/>
<path d="M23.3886 20.5V12.7222C21.0553 13.1112 19.5552 14.4443 19.2775 16.4443L23.3886 20.5Z" fill="#FC9823"/>
<path d="M35.1662 37.3329C33.4995 39.4995 30.7776 40.8884 27.3329 41.1104V43.1658V43.2212C27.2217 44.221 26.3885 44.9433 25.3883 44.888H25.3329C24.3331 44.9434 23.4996 44.1656 23.4441 43.1659V41.1105C18.3331 40.666 14.8889 37.8328 13.8333 33.2771C13.7778 33.0551 13.7778 32.8327 13.7778 32.6106C13.7778 31.4438 14.6668 30.3886 15.8333 30.222C16.0553 30.1665 16.2778 30.1665 16.4444 30.1665C17.6112 30.1111 18.611 30.8889 18.833 31.9998C19.4996 34.7776 20.7777 35.9998 23.4441 36.4443V26.2223C19.4442 25.3333 14.4443 23.3891 14.4443 17.1667V16.5556L6.27778 8.44482C2.38865 12.8334 0 18.6669 0 25.0001C0 38.8333 11.1665 49.9998 24.9996 49.9998C31.3329 49.9998 37.1661 47.6111 41.5549 43.722L35.1662 37.3329Z" fill="#FC9823"/>
</svg>
