<svg width="50" height="50" viewBox="0 0 50 50" fill="none" xmlns="http://www.w3.org/2000/svg">
<path d="M22.6559 43.75H12.4995C11.3835 43.75 10.3518 44.3456 9.79334 45.3129C9.23531 46.2797 9.23531 47.471 9.79334 48.4376C10.3519 49.4044 11.3835 50 12.4995 50H22.6559C23.7725 50 24.804 49.4043 25.3621 48.4376C25.9206 47.4709 25.9206 46.2796 25.3621 45.3129C24.804 44.3456 23.7724 43.75 22.6559 43.75Z" fill="#FC9823"/>
<path d="M22.6559 32.0312H7.81219C6.69558 32.0312 5.66404 32.6269 5.10601 33.5942C4.54743 34.5609 4.54743 35.7522 5.10601 36.7189C5.66404 37.6856 6.69571 38.2812 7.81219 38.2812H22.6559C23.7725 38.2812 24.804 37.6856 25.3621 36.7189C25.9206 35.7521 25.9206 34.5608 25.3621 33.5942C24.804 32.6269 23.7724 32.0312 22.6559 32.0312Z" fill="#FC9823"/>
<path d="M3.12471 26.5625H22.6559C23.7725 26.5625 24.804 25.9668 25.3621 25.0001C25.9206 24.0334 25.9206 22.8421 25.3621 21.8754C24.804 20.9081 23.7724 20.3125 22.6559 20.3125H3.12471C2.0081 20.3125 0.976559 20.9081 0.418525 21.8754C-0.139508 22.8422 -0.139508 24.0335 0.418525 25.0001C0.976559 25.9668 2.00822 26.5625 3.12471 26.5625Z" fill="#FC9823"/>
<path d="M40.6246 0.000196907H15.6247C13.1381 0.000196907 10.7539 0.987651 8.99522 2.74628C7.23713 4.50436 6.24969 6.88842 6.24969 9.37516V11.719C6.24969 12.8357 6.84532 13.8672 7.81205 14.4252C8.7788 14.9833 9.9701 14.9833 10.9368 14.4252C11.9035 13.8672 12.4991 12.8355 12.4991 11.719V9.37516C12.4991 8.54628 12.8288 7.7517 13.4146 7.16535C14.0005 6.57952 14.7955 6.25037 15.6244 6.25037H24.9993V12.5005V12.4999C24.9993 13.6165 25.5949 14.6481 26.5616 15.2067C27.5284 15.7647 28.7197 15.7647 29.6869 15.2067C30.6536 14.6481 31.2492 13.6166 31.2492 12.4999V6.25038H40.6241C41.4529 6.25038 42.2475 6.57954 42.8339 7.16536C43.4197 7.75173 43.7489 8.54627 43.7489 9.37517V34.3751C43.7489 35.204 43.4197 35.9991 42.8339 36.5849C42.2475 37.1707 41.453 37.5004 40.6241 37.5004H35.9363C34.8202 37.5004 33.7886 38.096 33.2301 39.0628C32.6721 40.0295 32.6721 41.2208 33.2301 42.1875C33.7887 43.1542 34.8202 43.7498 35.9363 43.7498H40.6241C43.1107 43.7498 45.4949 42.7624 47.253 41.0043C49.0115 39.2458 49.999 36.8616 49.999 34.3749V9.37496C49.999 6.88837 49.0116 4.50417 47.253 2.74608C45.4949 0.987581 43.1108 0 40.6241 0L40.6246 0.000196907Z" fill="#FC9823"/>
</svg>
