<svg width="41" height="50" viewBox="0 0 41 50" fill="none" xmlns="http://www.w3.org/2000/svg">
<path d="M40.421 7.52612C40.421 5.57884 38.842 3.9998 36.8947 3.9998H33.5788V5.52593C33.5788 8.26287 31.3683 10.4734 28.6314 10.4734C25.8944 10.4734 23.7368 8.26287 23.7368 5.52593V3.94727H16.6843V5.47339C16.6843 8.21033 14.4737 10.4209 11.7897 10.4209C9.05279 10.4209 6.84226 8.21033 6.84226 5.47339V3.94727H3.52638C1.5791 3.94727 6.10352e-05 5.52631 6.10352e-05 7.47358V14.0525H40.4737V7.52612H40.421Z" fill="#FC9823"/>
<path d="M0 16.5791V35.7896C0 37.7369 1.57904 39.3159 3.52631 39.3159H8.78947C9.21057 45.2638 14.158 50.0002 20.2105 50.0002C26.2631 50.0002 31.2105 45.2635 31.6316 39.3686H36.8947C38.842 39.3686 40.421 37.7895 40.421 35.8423V16.5791H0ZM20.2105 47.5265C15.2631 47.5265 11.2633 43.5266 11.2633 38.5792C11.2633 33.6318 15.2632 29.6319 20.2105 29.6319C25.1579 29.6319 29.1578 33.6318 29.1578 38.5792C29.1578 43.5266 25.1579 47.5265 20.2105 47.5265Z" fill="#FC9823"/>
<path d="M11.7895 7.94727C13.1578 7.94727 14.2107 6.84182 14.2107 5.52603V2.42124C14.2107 1.05291 13.1053 0 11.7895 0C10.4737 0 9.36825 1.10545 9.36825 2.42124V5.47387C9.31575 6.8422 10.4212 7.94718 11.7895 7.94718V7.94727Z" fill="#FC9823"/>
<path d="M28.6316 7.94727C29.9999 7.94727 31.0528 6.84182 31.0528 5.52603L31.0524 2.42124C31.0524 1.05291 29.947 0 28.6312 0C27.2629 0 26.21 1.10545 26.21 2.42124V5.47387C26.2103 6.8422 27.3158 7.94718 28.6316 7.94718L28.6316 7.94727Z" fill="#FC9823"/>
<path d="M24.0526 38.8948L20.8945 38.2634V33.5792C20.8945 32.8948 20.3156 32.3159 19.6313 32.3159C18.947 32.3159 18.368 32.8949 18.368 33.5792V39.2634C18.368 39.8423 18.7891 40.3688 19.3681 40.4738L23.5258 41.2631H23.7891C24.368 41.2631 24.8945 40.842 24.9995 40.263C25.1581 39.6841 24.6845 39.0526 24.0527 38.8947L24.0526 38.8948Z" fill="#FC9823"/>
</svg>
