<svg width="107" height="30" viewBox="0 0 107 30" fill="none" xmlns="http://www.w3.org/2000/svg">
<path d="M39.3469 12.7496H46.4662V16.3934H34V12.9791L41.0498 3.85563H34V0.230591H46.4662V3.64487L39.3469 12.7496ZM56.604 16.4308C55.2437 16.4308 54.0224 16.1639 52.9351 15.63C51.8677 15.096 51.0237 14.3326 50.4081 13.3397C49.7925 12.3468 49.4847 11.1759 49.4847 9.83178C49.4847 8.50166 49.7925 7.34015 50.4081 6.34725C51.0386 5.35435 51.8925 4.59094 52.9599 4.05702C54.0472 3.5231 55.2685 3.25614 56.6288 3.25614C57.9891 3.25614 59.2055 3.5231 60.2729 4.05702C61.3601 4.59094 62.2091 5.35435 62.8247 6.34725C63.4552 7.34015 63.7729 8.50166 63.7729 9.83178C63.7729 11.1619 63.4552 12.3328 62.8247 13.3397C62.2091 14.3326 61.3601 15.096 60.2729 15.63C59.1906 16.1592 57.9693 16.4308 56.604 16.4308ZM56.604 12.6559C57.2692 12.6559 57.8203 12.4264 58.2572 11.9675C58.709 11.4944 58.9374 10.82 58.9374 9.94887C58.9374 9.07774 58.709 8.41268 58.2572 7.95369C57.8203 7.49471 57.2792 7.26522 56.6288 7.26522C55.9784 7.26522 55.4373 7.49471 55.0004 7.95369C54.5635 8.41268 54.3451 9.07774 54.3451 9.94887C54.3451 10.8341 54.5536 11.5085 54.9756 11.9675C55.3976 12.4264 55.9437 12.6559 56.604 12.6559ZM101.479 3.41538C103.197 3.41538 104.543 3.90246 105.516 4.88131C106.504 5.86017 107 7.19497 107 8.89508V16.3934H102.239V9.49457C102.239 8.80609 102.035 8.27217 101.633 7.88812C101.226 7.50408 100.675 7.31674 99.98 7.31674C99.285 7.31674 98.7339 7.50876 98.3268 7.88812C97.9197 8.27217 97.7211 8.80609 97.7211 9.49457V16.3934H92.96V9.49457C92.96 8.80609 92.7565 8.27217 92.3543 7.88812C91.9671 7.50408 91.421 7.31674 90.7259 7.31674C90.011 7.31674 89.455 7.50876 89.0479 7.88812C88.6408 8.27217 88.4422 8.80609 88.4422 9.49457V16.3934H83.6811V3.53246H88.4422V5.22789C88.8642 4.67992 89.4053 4.24436 90.0706 3.92119C90.7508 3.58398 91.5302 3.41538 92.404 3.41538C93.4068 3.41538 94.3005 3.62145 95.075 4.0336C95.8693 4.44575 96.4948 5.0265 96.9466 5.77586C97.4331 5.07334 98.0736 4.50663 98.8679 4.08043C99.6474 3.64018 100.526 3.41538 101.479 3.41538ZM69.9837 15.6253C68.8964 15.0914 68.0475 14.3279 67.4319 13.335C66.8013 12.3281 66.4836 11.1572 66.4836 9.8271C66.4836 8.49698 66.8013 7.33547 67.4319 6.34257C68.0475 5.34966 68.8964 4.58625 69.9837 4.05233C71.0511 3.51841 72.2674 3.25145 73.6277 3.25145C74.988 3.25145 76.2093 3.51841 77.2966 4.05233C78.364 4.58625 79.2179 5.34966 79.8484 6.34257C80.464 7.33547 80.7718 8.49698 80.7718 9.8271C80.7718 11.1713 80.464 12.3421 79.8484 13.335C79.2328 14.3279 78.3888 15.0914 77.3214 15.6253C76.2342 16.1592 75.0129 16.4262 73.6525 16.4262C72.2922 16.4308 71.066 16.1592 69.9837 15.6253ZM75.2809 11.9675C75.7029 11.5085 75.9115 10.8387 75.9115 9.94887C75.9115 9.07774 75.693 8.41268 75.2561 7.95369C74.8192 7.49471 74.2781 7.26522 73.6277 7.26522C72.9774 7.26522 72.4362 7.49471 71.9993 7.95369C71.5475 8.41268 71.3192 9.07774 71.3192 9.94887C71.3192 10.82 71.5475 11.4944 71.9993 11.9675C72.4362 12.4264 72.9873 12.6559 73.6525 12.6559C74.3178 12.6559 74.8589 12.4264 75.2809 11.9675Z" fill="#63AC43"/>
<path d="M40.364 20.7946V21.7429H37.7996V29.7345H36.5744V21.7429H34V20.7946H40.364ZM48.6179 25.8661C48.6179 26.0878 48.603 26.3237 48.5782 26.5737H42.6705C42.7152 27.2672 42.9632 27.8097 43.4146 28.2013C43.8709 28.5881 44.4264 28.7768 45.0713 28.7768C45.602 28.7768 46.0435 28.6636 46.3957 28.4324C46.7578 28.1918 47.0058 27.8758 47.1496 27.4842H48.474C48.2756 28.1588 47.8788 28.7108 47.2885 29.1401C46.6933 29.5599 45.9592 29.7675 45.0762 29.7675C44.3768 29.7675 43.7469 29.6166 43.1864 29.3193C42.6358 29.0221 42.2043 28.5976 41.8918 28.0503C41.5793 27.4936 41.4205 26.852 41.4205 26.1255C41.4205 25.399 41.5743 24.7621 41.8769 24.2149C42.1844 23.6677 42.611 23.2478 43.1566 22.9553C43.7122 22.6581 44.352 22.5071 45.0713 22.5071C45.7707 22.5071 46.3957 22.6534 46.9314 22.9411C47.472 23.2336 47.8837 23.6346 48.1714 24.1489C48.4691 24.6536 48.6179 25.2245 48.6179 25.8661ZM47.353 25.6255C47.353 25.182 47.2488 24.7999 47.0405 24.4838C46.8322 24.1583 46.5494 23.913 46.1923 23.7526C45.8401 23.5827 45.4483 23.4978 45.0167 23.4978C44.3967 23.4978 43.8659 23.6865 43.4245 24.0639C42.9929 24.4413 42.7449 24.9603 42.6804 25.6302H47.353V25.6255ZM49.7786 26.1255C49.7786 25.399 49.9323 24.7669 50.2349 24.229C50.5424 23.6818 50.9641 23.2572 51.5047 22.96C52.0553 22.6628 52.6803 22.5118 53.3797 22.5118C54.2874 22.5118 55.0364 22.7194 55.6168 23.1393C56.212 23.5592 56.6039 24.1394 56.7923 24.8848H55.468C55.344 24.4555 55.0959 24.1205 54.7239 23.8705C54.3618 23.6205 53.9154 23.4978 53.3747 23.4978C52.6753 23.4978 52.1049 23.729 51.6734 24.1913C51.2418 24.6442 51.0236 25.2905 51.0236 26.1302C51.0236 26.9747 51.2418 27.6304 51.6734 28.0928C52.1049 28.5551 52.6704 28.7863 53.3747 28.7863C53.9154 28.7863 54.3618 28.6683 54.7239 28.4277C55.0811 28.1871 55.3291 27.8475 55.468 27.3993H56.7923C56.5939 28.1164 56.1971 28.6966 55.6068 29.1306C55.0116 29.5599 54.2725 29.7722 53.3797 29.7722C52.6803 29.7722 52.0553 29.6213 51.5047 29.3241C50.9641 29.0269 50.5424 28.6023 50.2349 28.055C49.9323 27.5031 49.7786 26.8615 49.7786 26.1255ZM62.0998 22.5779C62.6554 22.5779 63.1613 22.6911 63.6127 22.9223C64.0641 23.144 64.4113 23.4837 64.6643 23.9366C64.9272 24.3894 65.0561 24.9414 65.0561 25.5924V29.7345H63.8409V25.7576C63.8409 25.0546 63.6573 24.5215 63.2903 24.1536C62.9232 23.7762 62.4173 23.5875 61.7774 23.5875C61.1276 23.5875 60.6117 23.7809 60.2248 24.163C59.8479 24.5498 59.6594 25.1065 59.6594 25.8425V29.7298H58.4342V20.2427H59.6594V23.7054C59.9024 23.3469 60.2348 23.0685 60.6564 22.8704C61.0879 22.677 61.5691 22.5779 62.0998 22.5779ZM71.9658 29.7439C71.3457 29.7439 70.7852 29.6401 70.2941 29.4373C69.808 29.225 69.4261 28.9325 69.1483 28.5645C68.8706 28.1871 68.7267 27.7578 68.7168 27.2672H70.0263C70.0709 27.6871 70.2495 28.0409 70.567 28.3334C70.8894 28.6164 71.3556 28.758 71.9707 28.758C72.556 28.758 73.0124 28.6211 73.3447 28.3475C73.687 28.0645 73.8556 27.7059 73.8556 27.2719C73.8556 26.9275 73.7564 26.6539 73.558 26.4369C73.3596 26.2246 73.1116 26.0595 72.814 25.951C72.5163 25.8425 72.1195 25.7198 71.6136 25.5924C70.9935 25.4368 70.4926 25.2858 70.1156 25.1301C69.7485 24.9744 69.4261 24.7386 69.1583 24.413C68.8954 24.0781 68.7664 23.6346 68.7664 23.078C68.7664 22.592 68.8954 22.158 69.1583 21.7806C69.4211 21.4032 69.7832 21.1154 70.2495 20.9079C70.7257 20.7003 71.2713 20.6012 71.8814 20.6012C72.7644 20.6012 73.4836 20.8088 74.0391 21.2287C74.6046 21.6485 74.927 22.2052 74.9965 22.8987H73.6473C73.6026 22.5543 73.4142 22.2571 73.0818 22.0023C72.7495 21.7382 72.308 21.6061 71.7624 21.6061C71.2515 21.6061 70.8299 21.7334 70.5074 21.9929C70.185 22.2429 70.0213 22.592 70.0213 23.0449C70.0213 23.3704 70.1156 23.6346 70.3041 23.8422C70.5025 24.0498 70.7406 24.2055 71.0183 24.3187C71.306 24.4225 71.7078 24.5404 72.2187 24.6772C72.8388 24.8376 73.3397 25.0027 73.7167 25.1631C74.0937 25.3188 74.4161 25.5594 74.6889 25.8944C74.9568 26.2199 75.0957 26.6633 75.0957 27.2294C75.0957 27.6635 74.9766 28.0739 74.7336 28.4607C74.4905 28.8476 74.1334 29.1589 73.6522 29.3995C73.1761 29.6213 72.6156 29.7439 71.9658 29.7439ZM78.3992 23.6677V27.8097C78.3992 28.1541 78.4736 28.3947 78.6274 28.5409C78.7811 28.6778 79.044 28.7485 79.421 28.7485H80.3238V29.7345H79.2176C78.5331 29.7345 78.0222 29.5835 77.68 29.2863C77.3377 28.9891 77.1691 28.4938 77.1691 27.8097V23.6677H76.2117V22.7053H77.1691V20.9362H78.3942V22.7053H80.3238V23.6677H78.3992ZM83.042 23.8469C83.2603 23.4459 83.5628 23.1346 83.9596 22.9081C84.3664 22.6864 84.8525 22.5732 85.4279 22.5732V23.7809H85.1055C83.7315 23.7809 83.042 24.4885 83.042 25.9085V29.7298H81.8168V22.7005H83.042V23.8469ZM93.5924 25.8661C93.5924 26.0878 93.5776 26.3237 93.5528 26.5737H87.6451C87.6898 27.2672 87.9378 27.8097 88.3891 28.2013C88.8455 28.5881 89.401 28.7768 90.0459 28.7768C90.5766 28.7768 91.0181 28.6636 91.3703 28.4324C91.7324 28.1918 91.9804 27.8758 92.1242 27.4842H93.4486C93.2502 28.1588 92.8534 28.7108 92.2631 29.1401C91.6679 29.5599 90.9338 29.7675 90.0508 29.7675C89.3514 29.7675 88.7215 29.6166 88.161 29.3193C87.6104 29.0221 87.1788 28.5976 86.8663 28.0503C86.5539 27.4936 86.3951 26.852 86.3951 26.1255C86.3951 25.399 86.5489 24.7621 86.8515 24.2149C87.159 23.6677 87.5856 23.2478 88.1312 22.9553C88.6868 22.6581 89.3266 22.5071 90.0459 22.5071C90.7453 22.5071 91.3703 22.6534 91.906 22.9411C92.4466 23.2336 92.8583 23.6346 93.146 24.1489C93.4436 24.6536 93.5924 25.2245 93.5924 25.8661ZM92.3226 25.6255C92.3226 25.182 92.2185 24.7999 92.0101 24.4838C91.8018 24.1583 91.5191 23.913 91.1619 23.7526C90.8097 23.5827 90.4179 23.4978 89.9864 23.4978C89.3663 23.4978 88.8356 23.6865 88.3941 24.0639C87.9626 24.4413 87.7146 24.9603 87.6501 25.6302H92.3226V25.6255ZM101.955 25.8661C101.955 26.0878 101.941 26.3237 101.916 26.5737H96.0081C96.0527 27.2672 96.3007 27.8097 96.7521 28.2013C97.2085 28.5881 97.764 28.7768 98.4089 28.7768C98.9396 28.7768 99.3811 28.6636 99.7332 28.4324C100.09 28.1918 100.343 27.8758 100.487 27.4842H101.812C101.613 28.1588 101.216 28.7108 100.626 29.1401C100.031 29.5599 99.2967 29.7675 98.4138 29.7675C97.7144 29.7675 97.0845 29.6166 96.524 29.3193C95.9734 29.0221 95.5418 28.5976 95.2293 28.0503C94.9168 27.4936 94.7581 26.852 94.7581 26.1255C94.7581 25.399 94.9119 24.7621 95.2145 24.2149C95.522 23.6677 95.9486 23.2478 96.4942 22.9553C97.0497 22.6581 97.6896 22.5071 98.4089 22.5071C99.1083 22.5071 99.7332 22.6534 100.269 22.9411C100.81 23.2336 101.221 23.6346 101.509 24.1489C101.807 24.6536 101.955 25.2245 101.955 25.8661ZM100.691 25.6255C100.691 25.182 100.586 24.7999 100.378 24.4838C100.17 24.1583 99.887 23.913 99.5299 23.7526C99.1777 23.5827 98.7858 23.4978 98.3543 23.4978C97.7343 23.4978 97.2035 23.6865 96.762 24.0639C96.3305 24.4413 96.0825 24.9603 96.018 25.6302H100.691V25.6255ZM105.075 23.6677V27.8097C105.075 28.1541 105.15 28.3947 105.304 28.5409C105.457 28.6778 105.72 28.7485 106.097 28.7485H107V29.7345H105.894C105.209 29.7345 104.698 29.5835 104.356 29.2863C104.014 28.9891 103.845 28.4938 103.845 27.8097V23.6677H102.888V22.7053H103.845V20.9362H105.07V22.7053H107V23.6677H105.075Z" fill="#63AC43"/>
<path d="M15.814 1.96619H22.199C26.5138 1.96619 30.0123 5.30018 30.0123 9.412V11.8553" stroke="#63AC43" stroke-miterlimit="10"/>
<path d="M2.49756 15.0763V9.412C2.49756 5.30018 5.99614 1.96619 10.3109 1.96619H12.4535" stroke="#63AC43" stroke-miterlimit="10"/>
<path d="M16.7387 28.1896H10.3109C5.99614 28.1896 2.49756 24.8557 2.49756 20.7438V18.0999" stroke="#63AC43" stroke-miterlimit="10"/>
<path d="M30.0154 15.0763V20.7406C30.0154 24.8524 26.5168 28.1864 22.202 28.1864H19.0918" stroke="#63AC43" stroke-miterlimit="10"/>
<path d="M31.51 10.4313L30.0156 11.8554L28.5212 10.4313" stroke="#63AC43" stroke-miterlimit="10"/>
<path d="M20.5862 29.6138L19.0918 28.1897L20.5862 26.7656" stroke="#63AC43" stroke-miterlimit="10"/>
<path d="M1 19.5239L2.49769 18.0999L3.99209 19.5239" stroke="#63AC43" stroke-miterlimit="10"/>
<path d="M11.0842 0.539062L12.5786 1.9663L11.0842 3.39039" stroke="#63AC43" stroke-miterlimit="10"/>
<path d="M15.8139 2.70651C16.243 2.70651 16.5908 2.37508 16.5908 1.96623C16.5908 1.55739 16.243 1.22595 15.8139 1.22595C15.3849 1.22595 15.0371 1.55739 15.0371 1.96623C15.0371 2.37508 15.3849 2.70651 15.8139 2.70651Z" fill="#63AC43"/>
<path d="M30.0156 15.8167C30.4446 15.8167 30.7924 15.4853 30.7924 15.0765C30.7924 14.6676 30.4446 14.3362 30.0156 14.3362C29.5866 14.3362 29.2388 14.6676 29.2388 15.0765C29.2388 15.4853 29.5866 15.8167 30.0156 15.8167Z" fill="#63AC43"/>
<path d="M16.7387 28.9299C17.1678 28.9299 17.5156 28.5985 17.5156 28.1896C17.5156 27.7808 17.1678 27.4493 16.7387 27.4493C16.3097 27.4493 15.9619 27.7808 15.9619 28.1896C15.9619 28.5985 16.3097 28.9299 16.7387 28.9299Z" fill="#63AC43"/>
<path d="M2.49753 15.8167C2.92656 15.8167 3.27435 15.4853 3.27435 15.0765C3.27435 14.6676 2.92656 14.3362 2.49753 14.3362C2.0685 14.3362 1.7207 14.6676 1.7207 15.0765C1.7207 15.4853 2.0685 15.8167 2.49753 15.8167Z" fill="#63AC43"/>
<path d="M7.00195 9.95402V20.199L16.255 25.3242L25.5081 20.199V9.95402L16.255 4.82886L7.00195 9.95402ZM15.4779 23.1741L8.54505 19.3368V11.9125L15.4779 15.7498V23.1741ZM16.255 14.4618L9.10013 10.5022L16.255 6.54257L23.4099 10.5022L16.255 14.4618Z" fill="#FC9823"/>
</svg>
