<svg width="40" height="40" viewBox="0 0 40 40" fill="none" xmlns="http://www.w3.org/2000/svg">
<path d="M29.1661 39.9985H0.833402C0.373317 39.9985 0 39.6235 0 39.1651V10.8324C0 10.3723 0.373317 9.99902 0.833402 9.99902H29.1661C29.6245 9.99902 29.9995 10.3723 29.9995 10.8324V39.1651C29.9995 39.6235 29.6245 39.9985 29.1661 39.9985ZM1.66695 38.332H28.3325V11.6664H1.66695V38.332Z" fill="#E4E4E4"/>
<path d="M39.1652 29.9986H29.9991C29.5407 29.9986 29.1657 29.6236 29.1657 29.1652C29.1657 28.7068 29.5407 28.3318 29.9991 28.3318H38.3324V1.66623H11.6668V9.99954C11.6668 10.4596 11.2935 10.8329 10.8334 10.8329C10.3733 10.8329 10 10.4596 10 9.99954V0.833402C10 0.373317 10.3733 0 10.8334 0H39.1661C39.6245 0 39.9995 0.373317 39.9995 0.833402V29.1661C39.9995 29.6245 39.6245 29.9995 39.1661 29.9995L39.1652 29.9986Z" fill="#E4E4E4"/>
<path d="M0.833887 11.666C0.620444 11.666 0.40728 11.5842 0.243785 11.4227C-0.0812617 11.0993 -0.0812617 10.5695 0.243785 10.2444L10.2435 0.244762C10.5685 -0.0802851 11.0966 -0.0802851 11.4217 0.244762C11.7468 0.569808 11.7468 1.09966 11.4217 1.42301L1.42203 11.4227C1.26049 11.5842 1.04704 11.666 0.833602 11.666H0.833887Z" fill="#E4E4E4"/>
<path d="M29.1659 11.6655C28.9525 11.6655 28.7393 11.5837 28.5758 11.4222C28.2508 11.0988 28.2508 10.569 28.5758 10.244L38.5755 0.244273C38.8989 -0.0807734 39.4287 -0.0807734 39.7537 0.244273C40.0771 0.56932 40.0771 1.09917 39.7537 1.42252L29.7541 11.4222C29.5925 11.5837 29.3791 11.6655 29.1656 11.6655H29.1659Z" fill="#E4E4E4"/>
<path d="M29.1659 39.9982C28.9525 39.9982 28.7393 39.9165 28.5758 39.7549C28.2508 39.4332 28.2508 38.9017 28.5758 38.5767L38.5755 28.577C38.8989 28.2536 39.4287 28.2536 39.7537 28.577C40.0771 28.902 40.0771 29.4335 39.7537 29.7552L29.7541 39.7549C29.5925 39.9165 29.3791 39.9982 29.1656 39.9982H29.1659Z" fill="#E4E4E4"/>
<path d="M0.833887 39.9981C0.620444 39.9981 0.40728 39.9164 0.243785 39.7548C-0.0812617 39.4331 -0.0812617 38.9016 0.243785 38.5766L0.833887 37.9865C1.15893 37.6614 1.68707 37.6614 2.01213 37.9865C2.33718 38.3115 2.33718 38.843 2.01213 39.1664L1.42203 39.7565C1.26049 39.9164 1.04704 39.9981 0.833602 39.9981L0.833887 39.9981Z" fill="#E4E4E4"/>
<path d="M3.62881 37.2031C3.41537 37.2031 3.2022 37.1214 3.03871 36.9599C2.71366 36.6348 2.71366 36.105 3.03871 35.7816L4.14189 34.6784C4.46693 34.3534 4.99507 34.3534 5.32013 34.6784C5.64518 35.0018 5.64518 35.5316 5.32013 35.8567L4.21695 36.9616C4.05541 37.1198 3.84197 37.2032 3.62852 37.2032L3.62881 37.2031ZM6.93699 33.895C6.72355 33.895 6.51038 33.8132 6.34689 33.6517C6.02184 33.3283 6.02184 32.7985 6.34689 32.4734L7.45007 31.3702C7.77511 31.0452 8.30325 31.0452 8.62831 31.3702C8.95336 31.6936 8.95336 32.2218 8.62831 32.5485L7.52513 33.6517C7.36191 33.8149 7.15015 33.895 6.9367 33.895H6.93699Z" fill="#E4E4E4"/>
<path d="M10.244 30.5884C10.0306 30.5884 9.81744 30.51 9.65394 30.3451C9.32889 30.0201 9.32889 29.492 9.65394 29.1669L10.244 28.5768C10.5691 28.2517 11.0972 28.2517 11.4223 28.5768C11.7473 28.9002 11.7473 29.4317 11.4223 29.755L10.8322 30.3435C10.6706 30.5067 10.4572 30.5884 10.2438 30.5884L10.244 30.5884Z" fill="#E4E4E4"/>
<path d="M29.9994 29.9988H28.3328C27.8744 29.9988 27.4994 29.6238 27.4994 29.1654C27.4994 28.7069 27.8744 28.332 28.3328 28.332H29.9994C30.4578 28.332 30.8328 28.7069 30.8328 29.1654C30.8328 29.6238 30.4578 29.9988 29.9994 29.9988ZM24.9995 29.9988H23.333C22.8746 29.9988 22.4996 29.6238 22.4996 29.1654C22.4996 28.7069 22.8746 28.332 23.333 28.332H24.9995C25.4579 28.332 25.8329 28.7069 25.8329 29.1654C25.8329 29.6238 25.4579 29.9988 24.9995 29.9988ZM19.9997 29.9988H18.3332C17.8731 29.9988 17.4998 29.6238 17.4998 29.1654C17.4998 28.7069 17.8731 28.332 18.3332 28.332H19.9997C20.4598 28.332 20.8331 28.7069 20.8331 29.1654C20.8331 29.6238 20.4598 29.9988 19.9997 29.9988ZM14.9998 29.9988H13.3333C12.8732 29.9988 12.4999 29.6238 12.4999 29.1654C12.4999 28.7069 12.8732 28.332 13.3333 28.332H14.9998C15.4599 28.332 15.8332 28.7069 15.8332 29.1654C15.8332 29.6238 15.4599 29.9988 14.9998 29.9988ZM10.8334 29.1654C10.3733 29.1654 10 28.7904 10 28.332V26.6654C10 26.207 10.3733 25.832 10.8334 25.832C11.2935 25.832 11.6668 26.207 11.6668 26.6654V28.332C11.6668 28.7904 11.2935 29.1654 10.8334 29.1654ZM10.8334 24.1655C10.3733 24.1655 10 23.7905 10 23.3321V21.6656C10 21.2072 10.3733 20.8322 10.8334 20.8322C11.2935 20.8322 11.6668 21.2072 11.6668 21.6656V23.3321C11.6668 23.7905 11.2935 24.1655 10.8334 24.1655ZM10.8334 19.1657C10.3733 19.1657 10 18.7924 10 18.3323V16.6658C10 16.2057 10.3733 15.8324 10.8334 15.8324C11.2935 15.8324 11.6668 16.2057 11.6668 16.6658V18.3323C11.6668 18.7924 11.2935 19.1657 10.8334 19.1657ZM10.8334 14.1658C10.3733 14.1658 10 13.7925 10 13.3324V11.6659C10 11.2058 10.3733 10.8325 10.8334 10.8325C11.2935 10.8325 11.6668 11.2058 11.6668 11.6659V13.3324C11.6668 13.7925 11.2935 14.1658 10.8334 14.1658Z" fill="#E4E4E4"/>
</svg>
