<svg width="60" height="53" viewBox="0 0 60 53" fill="none" xmlns="http://www.w3.org/2000/svg">
<path d="M46.8643 15.7914L30.6264 6.41909C30.2418 6.19429 29.7641 6.19429 29.3795 6.41909L13.1417 15.7914C12.7571 16.0162 12.5137 16.4287 12.5137 16.8692V35.6142C12.5137 36.0642 12.748 36.4763 13.1417 36.692L29.3795 46.0643C30.0075 46.3831 30.4387 46.1769 30.6264 46.0643L46.8643 36.692C47.2488 36.4672 47.4922 36.0547 47.4922 35.6142L47.4927 16.8692C47.4832 16.4192 47.2488 16.0067 46.8643 15.7914ZM43.7334 16.8692L29.9993 24.7981L16.2651 16.8692L29.9993 8.94031L43.7334 16.8692ZM15.0078 19.034L28.7419 26.9629V42.8204L15.0078 34.8915V19.034ZM31.2456 42.8214V26.9639L44.9797 19.035V34.8925L31.2456 42.8214Z" fill="#63AC43"/>
<path d="M59.6351 22.8586C59.1474 22.371 58.3601 22.371 57.8634 22.8586L56.1663 24.5551C55.2945 10.8714 43.904 0 30.0008 0C29.3072 0 28.7539 0.562217 28.7539 1.24654C28.7539 1.93086 29.3163 2.49307 30.0008 2.49307C42.4698 2.49307 52.698 12.1561 53.6537 24.3773L52.1349 22.8589C51.6472 22.3713 50.86 22.3713 50.3632 22.8589C49.8755 23.3465 49.8755 24.1335 50.3632 24.6301L54.1131 28.3789C54.3569 28.6227 55.0786 29.0348 55.8848 28.3789L59.6347 24.6301C60.1224 24.1426 60.1224 23.3461 59.6351 22.8589L59.6351 22.8586Z" fill="#63AC43"/>
<path d="M29.9996 49.982C17.5307 49.982 7.30245 40.319 6.3467 28.0978L7.86552 29.6161C8.74687 30.3095 9.38434 29.8599 9.63725 29.6161C10.125 29.1286 10.125 28.3416 9.63725 27.8449L5.88739 24.0962C5.39967 23.6086 4.61242 23.6086 4.11565 24.0962L0.365791 27.8449C-0.12193 28.3325 -0.12193 29.1195 0.365791 29.6161C0.853512 30.1037 1.64075 30.1037 2.13752 29.6161L3.83456 27.9196C4.70598 41.6122 16.0969 52.4847 30.0001 52.4847C30.6937 52.4847 31.247 51.9225 31.247 51.2381C31.247 50.5448 30.6937 49.9826 30.0001 49.9826L29.9996 49.982Z" fill="#63AC43"/>
</svg>
