<svg width="50" height="40" viewBox="0 0 50 40" fill="none" xmlns="http://www.w3.org/2000/svg">
<path d="M15.9097 1.09277C15.2823 1.09277 14.7734 1.58308 14.7734 2.18669V7.65676H17.046L17.0464 2.18669C17.0464 1.58268 16.5371 1.09277 15.9097 1.09277H15.9097Z" fill="#FC9823"/>
<path d="M43.1815 27.349H35.2271V9.84473H6.81791C6.19051 9.84473 5.68164 10.335 5.68164 10.9386C5.68164 11.5427 6.19093 12.0326 6.81791 12.0326H32.9544V27.3488H17.0452V14.2206H14.7727V29.5368H43.1819C43.8093 29.5368 44.3182 29.0465 44.3182 28.4429C44.3178 27.8389 43.8089 27.3486 43.1815 27.3486V27.349Z" fill="#FC9823"/>
<path d="M32.9551 31.7246V37.1947C32.9551 37.7987 33.4644 38.2886 34.0913 38.2886C34.7187 38.2886 35.2276 37.7983 35.2276 37.1947L35.228 31.7246H32.9551Z" fill="#FC9823"/>
<path d="M44.3186 16.4088C44.0277 16.4088 43.7372 16.3019 43.5152 16.0883L38.9696 11.7121C38.5257 11.2847 38.5257 10.5922 38.9696 10.1652C39.4135 9.73789 40.1329 9.73789 40.5764 10.1652L44.3186 13.7676L48.0608 10.1656C48.5047 9.73828 49.2241 9.73828 49.6675 10.1656C50.1114 10.593 50.1114 11.2855 49.6675 11.7125L45.122 16.0886C44.9 16.3023 44.6095 16.4088 44.3186 16.4088V16.4088Z" fill="#FC9823"/>
<path d="M44.3179 11.4857C44.2442 11.4857 44.1701 11.4804 44.0956 11.4639C44.0219 11.4529 43.9478 11.4311 43.8796 11.4037C43.8114 11.3762 43.7496 11.3434 43.6866 11.2999C43.6247 11.2617 43.5673 11.2178 43.5161 11.1633C43.4595 11.1141 43.4139 11.0595 43.3743 10.9992C43.3346 10.9389 43.2946 10.879 43.2665 10.8077C43.2379 10.742 43.2153 10.6764 43.2046 10.6054C43.1876 10.5341 43.1816 10.4627 43.1816 10.3918C43.1816 10.3208 43.1872 10.2494 43.2042 10.1785C43.2157 10.1075 43.2383 10.0419 43.2661 9.97052C43.295 9.90489 43.3342 9.8446 43.3739 9.7847C43.4135 9.72441 43.4591 9.66985 43.5157 9.62063C43.5669 9.56607 43.6236 9.52219 43.6862 9.48403C43.7488 9.44588 43.811 9.40734 43.8792 9.38025C43.9474 9.35278 44.0211 9.33103 44.0952 9.31996C44.4646 9.24899 44.8569 9.36384 45.1185 9.62063C45.3353 9.82286 45.4546 10.1071 45.4546 10.3918C45.4546 10.4627 45.4491 10.5341 45.432 10.6051C45.4201 10.676 45.3975 10.7417 45.3694 10.8073C45.3409 10.8783 45.3012 10.9385 45.262 10.9988C45.2224 11.0591 45.1768 11.1137 45.1201 11.1629C44.9089 11.3708 44.6191 11.4857 44.3179 11.4857L44.3179 11.4857Z" fill="#FC9823"/>
<path d="M43.0612 6.5409C42.9356 5.95024 43.3283 5.3703 43.9419 5.24439C44.5554 5.1242 45.1578 5.50691 45.2886 6.09757C45.4134 6.68823 45.0214 7.26817 44.4079 7.38841C44.3279 7.40482 44.249 7.41588 44.1749 7.41588C43.6458 7.41092 43.1749 7.05531 43.0611 6.54096L43.0612 6.5409ZM41.3455 3.63111C40.8854 3.22094 40.8576 2.53143 41.2773 2.08845C41.7034 1.63973 42.4255 1.61265 42.8853 2.02282C43.3462 2.433 43.3795 3.1225 42.9535 3.57086C42.7268 3.80056 42.42 3.92113 42.1184 3.92113C41.8398 3.92074 41.5607 3.82802 41.3455 3.63113L41.3455 3.63111ZM38.1919 2.22501C37.5724 2.15404 37.1293 1.60688 37.2034 1.01046C37.2771 0.408731 37.8455 -0.0178181 38.4705 0.0531171C39.0899 0.129811 39.5331 0.671246 39.4589 1.27294C39.3908 1.82544 38.8965 2.23563 38.3337 2.23563C38.2885 2.23601 38.243 2.23029 38.1918 2.22494L38.1919 2.22501Z" fill="#FC9823"/>
<path d="M34.0898 2.18643C34.0161 2.18643 33.942 2.18109 33.8675 2.16468C33.7937 2.15361 33.7196 2.13187 33.6515 2.10439C33.5833 2.07692 33.5215 2.04411 33.4585 2.00061C33.3966 1.96245 33.3392 1.91857 33.288 1.86401C33.0724 1.6614 32.9531 1.3821 32.9531 1.0925C32.9531 1.02153 32.9587 0.950178 32.9757 0.879203C32.9872 0.808233 33.0098 0.742608 33.0375 0.671253C33.0665 0.605625 33.1057 0.545333 33.1453 0.485436C33.185 0.425149 33.2306 0.370584 33.2872 0.31602C33.3384 0.266798 33.395 0.22292 33.4577 0.184758C33.5203 0.146602 33.5825 0.108064 33.6507 0.0809733C33.7188 0.0535008 33.7925 0.0317509 33.8667 0.0206858C34.236 -0.0502845 34.6284 0.0645655 34.89 0.316011C34.9467 0.370574 34.9923 0.425521 35.0319 0.485428C35.0711 0.545715 35.1116 0.605623 35.1393 0.671244C35.1678 0.742214 35.1904 0.807839 35.2019 0.879195C35.2202 0.950165 35.2261 1.02113 35.2261 1.09249C35.2261 1.38248 35.1068 1.6614 34.8908 1.86362C34.8393 1.91819 34.783 1.96206 34.7196 2.00022C34.6578 2.0441 34.5947 2.07691 34.5266 2.104C34.4529 2.13148 34.3847 2.15322 34.3106 2.16429C34.2372 2.1807 34.1635 2.18642 34.0898 2.18642V2.18643Z" fill="#FC9823"/>
<path d="M10.227 29.5367C9.93613 29.5367 9.64522 29.4298 9.42367 29.2162L5.68187 25.6135L1.93967 29.2162C1.49656 29.6435 0.776003 29.6435 0.332921 29.2162C-0.110974 28.7888 -0.110974 28.0963 0.332921 27.6693L4.8785 23.2932C5.3216 22.8658 6.04216 22.8658 6.48524 23.2932L11.0308 27.6693C11.4747 28.0967 11.4747 28.7892 11.0308 29.2162C10.8089 29.4299 10.518 29.5367 10.2271 29.5367H10.227Z" fill="#FC9823"/>
<path d="M5.68161 30.0836C5.37485 30.0836 5.09067 29.9688 4.88062 29.7608C4.66422 29.5586 4.54492 29.2797 4.54492 28.9897C4.54492 28.9187 4.55047 28.8474 4.56751 28.7756C4.57901 28.7047 4.6016 28.6333 4.63014 28.5677C4.65867 28.502 4.69831 28.4425 4.73794 28.3819C4.77757 28.3223 4.82315 28.267 4.87982 28.2178C5.30033 27.8076 6.06165 27.8076 6.4822 28.2178C6.53888 28.267 6.58446 28.3216 6.62409 28.3819C6.66372 28.4422 6.70375 28.5021 6.73189 28.5677C6.76043 28.6333 6.78302 28.7043 6.79451 28.7756C6.81195 28.8474 6.8179 28.9187 6.8179 28.9897C6.8179 29.1373 6.78936 29.274 6.73268 29.4109C6.67601 29.5422 6.5908 29.6624 6.4826 29.7616C6.27255 29.9688 5.98243 30.0836 5.68161 30.0836H5.68161Z" fill="#FC9823"/>
<path d="M11.5269 39.3281C10.9075 39.2514 10.4643 38.71 10.5385 38.109C10.6122 37.5069 11.1805 37.0808 11.8055 37.1574C12.425 37.2284 12.8681 37.7702 12.794 38.372C12.7258 38.9306 12.2316 39.3354 11.6688 39.3354C11.6236 39.3343 11.5725 39.3343 11.5269 39.3282L11.5269 39.3281ZM7.11214 37.3592C6.64604 36.9491 6.61791 36.2596 7.04397 35.8112C7.47002 35.3682 8.1917 35.3408 8.65193 35.7509C9.11208 36.1611 9.14061 36.851 8.71455 37.2936C8.493 37.5286 8.18624 37.6492 7.87947 37.6492C7.60679 37.6492 7.32817 37.5504 7.11217 37.3592L7.11214 37.3592ZM4.70872 33.2841C4.58387 32.6935 4.97584 32.1135 5.58937 31.9937C6.2029 31.8678 6.80529 32.2509 6.93607 32.8415C7.06092 33.4322 6.66894 34.0121 6.05541 34.132C5.97575 34.1484 5.89648 34.1598 5.82237 34.1598C5.29406 34.1594 4.82241 33.8038 4.70862 33.2841L4.70872 33.2841Z" fill="#FC9823"/>
<path d="M15.9097 39.383C15.6085 39.383 15.3188 39.2682 15.1087 39.0602C14.8927 38.8576 14.7734 38.5787 14.7734 38.2887C14.7734 38.2177 14.779 38.1464 14.796 38.0746C14.8075 38.0037 14.8301 37.9323 14.8586 37.8667C14.8872 37.8011 14.9268 37.7415 14.9665 37.6809C15.0061 37.6214 15.0517 37.566 15.1083 37.5168C15.3695 37.2596 15.7619 37.1448 16.1309 37.2161C16.2046 37.2272 16.2727 37.249 16.3469 37.2757C16.415 37.3035 16.4777 37.3413 16.5399 37.3794C16.6025 37.4176 16.6592 37.4615 16.7159 37.516C16.767 37.5653 16.8126 37.6198 16.8522 37.6801C16.8978 37.7404 16.9319 37.8003 16.96 37.8659C16.9885 37.9316 17.0111 38.0025 17.0226 38.0739C17.0405 38.1468 17.0464 38.2177 17.0464 38.2887C17.0464 38.5787 16.9271 38.8523 16.717 39.0598C16.6092 39.1632 16.484 39.2457 16.3477 39.2998C16.2054 39.3555 16.0631 39.383 15.9097 39.383L15.9097 39.383Z" fill="#FC9823"/>
</svg>
