<svg width="50" height="46" viewBox="0 0 50 46" fill="none" xmlns="http://www.w3.org/2000/svg">
<path d="M13.1623 4.07422L12.6504 5.60432L24.7469 9.64045C24.9132 9.69589 25.0929 9.69589 25.2588 9.64045L37.3553 5.60432L36.8434 4.07422L25.0031 8.02104L13.1623 4.07422Z" fill="#E4E4E4"/>
<path d="M24.9383 0.00227814C24.8735 0.00839837 24.8094 0.022439 24.7478 0.04368L12.6514 4.074C12.3201 4.18344 12.0969 4.49306 12.0977 4.84191V20.9687C12.0969 21.3176 12.3202 21.6275 12.6514 21.737L24.7478 25.767C24.9142 25.8225 25.0938 25.8225 25.2598 25.767L37.3563 21.737C37.6853 21.6254 37.9056 21.3161 37.9042 20.9687V4.84191C37.9057 4.49486 37.6853 4.18524 37.3563 4.074L25.2598 0.04368C25.1568 0.0083988 25.0474 -0.00600185 24.9383 0.00227814ZM25.0038 1.65726L36.2902 5.41938V20.3849L25.0038 24.1532L13.711 20.3849V5.41938L25.0038 1.65726Z" fill="#E4E4E4"/>
<path d="M24.1934 8.87158V24.9984H25.807V8.87158H24.1934Z" fill="#E4E4E4"/>
<path d="M25.26 24.2363L24.748 25.7664L36.8445 29.7965V29.7968C37.0109 29.8523 37.1905 29.8523 37.3565 29.7968L49.453 25.7668L48.941 24.2367L37.1007 28.1835L25.26 24.2363Z" fill="#E4E4E4"/>
<path d="M37.3555 20.2004L36.8436 21.7363L48.3861 25.582V40.5475L37.0998 44.31L25.807 40.5475V24.9986H24.1934V41.1309C24.1952 41.4776 24.418 41.7843 24.7471 41.8931L36.8435 45.9292C37.0099 45.9846 37.1895 45.9846 37.3555 45.9292L49.452 41.8931C49.7789 41.7822 49.9988 41.4758 49.9999 41.1309V24.9986C49.9988 24.6537 49.7789 24.3473 49.452 24.2364L37.3555 20.2004Z" fill="#E4E4E4"/>
<path d="M36.291 29.0352V45.162H37.9042V29.0352H36.291Z" fill="#E4E4E4"/>
<path d="M1.06663 24.2363L0.554688 25.7664L12.6512 29.7965V29.7968C12.8175 29.8523 12.9971 29.8523 13.1631 29.7968L25.2596 25.7665L24.7477 24.2364L12.9074 28.1832L1.06663 24.2363Z" fill="#E4E4E4"/>
<path d="M12.6502 20.2004L0.553701 24.2366C0.224649 24.3453 0.00179719 24.652 0 24.9987V41.131C0.00180005 41.4777 0.224649 41.7845 0.553701 41.8932L12.6502 45.9293C12.8165 45.9848 12.9962 45.9848 13.1621 45.9293L25.2586 41.8932L24.7467 40.3631L12.9064 44.3099L1.61358 40.5474V25.5819L13.1617 21.7365L12.6502 20.2004Z" fill="#E4E4E4"/>
<path d="M12.0977 29.0352V45.162H13.7109V29.0352H12.0977Z" fill="#E4E4E4"/>
</svg>
