<svg width="56" height="50" viewBox="0 0 56 50" fill="none" xmlns="http://www.w3.org/2000/svg">
<path d="M5.51758 25.6758V31.3064L9.23379 31.7569C9.68425 34.1217 10.5851 36.2614 11.9365 38.1758L9.57163 41.2163L14.3014 45.9461L17.3419 43.5812C19.2563 44.8199 21.396 45.7208 23.7608 46.2839L24.2113 50.0001H30.968L31.4185 46.2839C33.7833 45.8334 35.923 44.8199 37.8374 43.5812L40.8779 45.9461L45.6077 41.2163L43.2428 38.1758C44.4815 36.2614 45.3824 34.1217 45.9455 31.7569L49.6617 31.3064V25.6758H35.4725C35.6978 26.3515 35.8104 27.1397 35.8104 27.928C35.8104 32.4325 32.0942 36.1488 27.5897 36.1488C23.0851 36.1488 19.3689 32.4325 19.3689 27.928C19.3689 27.1397 19.4815 26.3515 19.7068 25.6758H5.51758Z" fill="#FC9823"/>
<path d="M54.0534 21.1712H48.9858V6.53153H52.4768L45.9453 0L39.4138 6.53153H42.9048V21.1712H29.955V8.8964H33.4459L26.9144 2.47748L20.3829 9.00901H23.8739V21.1712H12.1622V12.7252H15.6532L9.12162 6.19369L2.59009 12.7252H6.08108V21.1712H1.12613C0.45045 21.1712 0 21.6216 0 22.2973C0 22.973 0.45045 23.4234 1.12613 23.4234H53.9421C54.6178 23.4234 55.0682 22.973 55.0682 22.2973C55.0682 21.6216 54.6178 21.1712 54.0547 21.1712H54.0534Z" fill="#FC9823"/>
</svg>
