<svg width="50" height="51" viewBox="0 0 50 51" fill="none" xmlns="http://www.w3.org/2000/svg">
<path d="M17.1798 30.5288L19.7991 33.1477C20.0141 33.3627 20.3056 33.4834 20.6094 33.4834C20.9128 33.4834 21.2046 33.3627 21.4193 33.1477L49.6642 4.91102C49.8793 4.69601 50 4.40467 50 4.10093C50 3.79719 49.8793 3.50545 49.6642 3.29083L47.0445 0.672302C46.8202 0.448097 46.5276 0.336601 46.2342 0.336601C45.9407 0.336601 45.6473 0.448505 45.4238 0.672302L17.18 28.9079C16.7318 29.3556 16.7318 30.0809 17.18 30.5281L17.1798 30.5288ZM46.2342 3.10237L47.2332 4.1003L25.3119 26.0142L24.3129 25.0163L46.2342 3.10237ZM22.6928 26.6369L23.6918 27.6348L20.6093 30.7165L19.611 29.7178L22.6928 26.6369Z" fill="#E4E4E4"/>
<path d="M29.6308 37.5004C29.9242 37.5004 30.2176 37.6123 30.4411 37.8361L35.1408 42.5348C35.5885 42.9824 35.5885 43.7078 35.1408 44.155C34.6938 44.6026 33.967 44.6026 33.5201 44.155L28.8204 39.4563C28.3727 39.0087 28.3727 38.2833 28.8204 37.8361C29.0439 37.6123 29.3373 37.5004 29.6308 37.5004Z" fill="#E4E4E4"/>
<path d="M6.49404 14.37C6.78747 14.37 7.08051 14.4819 7.30437 14.7057L12.004 19.404C12.4518 19.8516 12.4518 20.577 12.004 21.0242C11.5563 21.4718 10.8307 21.4718 10.3834 21.0242L5.68371 16.3259C5.23598 15.8782 5.23598 15.1529 5.68371 14.7057C5.90798 14.4819 6.20061 14.37 6.49404 14.37Z" fill="#E4E4E4"/>
<path d="M11.6078 37.5004C11.9012 37.5004 12.1942 37.6123 12.4181 37.8361C12.8658 38.2837 12.8658 39.0091 12.4181 39.4563L7.71843 44.155C7.27069 44.6026 6.5451 44.6026 6.09777 44.155C5.65003 43.7074 5.65003 42.982 6.09777 42.5348L10.7974 37.8361C11.0209 37.6123 11.3143 37.5004 11.6078 37.5004Z" fill="#E4E4E4"/>
<path d="M21.2055 40.9339C21.8383 40.9339 22.3516 41.4474 22.3516 42.0796L22.3516 48.9548C22.3516 49.5875 21.8379 50.1006 21.2055 50.1006C20.5726 50.1006 20.0593 49.587 20.0593 48.9548L20.0593 42.0796C20.0593 41.447 20.5726 40.9339 21.2055 40.9339Z" fill="#E4E4E4"/>
<path d="M21.2055 8.84928C21.8383 8.84928 22.3516 9.36282 22.3516 9.99505L22.3516 16.2976C22.3516 16.9302 21.8379 17.4434 21.2055 17.4434C20.5726 17.4434 20.0593 16.9298 20.0593 16.2976L20.0593 9.99505C20.0593 9.3628 20.5726 8.84928 21.2055 8.84928Z" fill="#E4E4E4"/>
<path d="M1.14665 28.3297L8.02382 28.3297C8.65665 28.3297 9.16992 28.8431 9.16992 29.4752C9.16992 30.1076 8.65623 30.6206 8.02382 30.6206L1.14665 30.6206C0.513818 30.6206 0.000543639 30.1072 0.000543695 29.4752C0.000543751 28.8427 0.513839 28.3297 1.14665 28.3297Z" fill="#E4E4E4"/>
<path d="M34.3859 28.3297L40.6898 28.3297C41.3227 28.3297 41.8359 28.8431 41.8359 29.4752C41.8359 30.1076 41.3222 30.6206 40.6898 30.6206L34.3855 30.6206C33.7526 30.6206 33.2394 30.1072 33.2394 29.4752C33.2394 28.8427 33.7531 28.3297 34.3859 28.3297Z" fill="#E4E4E4"/>
</svg>
