<svg width="55" height="50" viewBox="0 0 55 50" fill="none" xmlns="http://www.w3.org/2000/svg">
<path d="M30.882 28.481C31.8565 29.3407 32.9943 29.759 34.0847 29.759C36.2504 29.759 38.2282 28.1093 38.3578 25.0003C38.2278 21.8912 36.2504 20.2416 34.0841 20.2416C32.9941 20.2416 31.8559 20.6599 30.8814 21.5196C30.2721 22.0573 29.5871 22.3289 28.9521 22.3289C27.7454 22.3289 26.7171 21.3491 26.7159 19.3539V13.409C26.7159 12.433 25.9244 11.6419 24.9484 11.6419H19.0072H19.0076C15.9583 11.6419 15.2794 9.2439 16.8389 7.4765C19.4073 4.56633 18.0317 0.195638 13.3581 0.000488281C8.68465 0.194852 7.309 4.56555 9.87737 7.4765C11.4368 9.244 10.7579 11.6419 7.70871 11.6419H7.70909H1.7675C0.791558 11.6419 0 12.4326 0 13.409V19.3577C0.00265217 21.3506 1.03094 22.3293 2.23685 22.3293C2.87185 22.3293 3.55614 22.0576 4.16613 21.52C5.13984 20.6603 6.27835 20.242 7.36883 20.242C9.53488 20.242 11.5127 21.8909 11.6425 25.0007C11.5126 28.109 9.53517 29.7594 7.36883 29.7594C6.27883 29.7594 5.14062 29.3411 4.16613 28.4814C3.5569 27.9437 2.87186 27.6721 2.23685 27.6721C1.03045 27.6721 0.00300678 28.6504 0 30.6437V36.5913C0 37.5672 0.791481 38.3588 1.7675 38.3588H7.70909H7.70871C10.758 38.3588 11.4369 40.7567 9.87737 42.5241C7.309 45.4343 8.68465 49.805 13.3581 50.0001C18.0317 49.8058 19.4073 45.4351 16.8389 42.5241C15.2795 40.7566 15.9584 38.3588 19.0076 38.3588H24.9488C25.9247 38.3588 26.7163 37.5673 26.7163 36.5913L26.7159 30.6463C26.717 28.6511 27.7457 27.6713 28.9521 27.6713C29.5882 27.6713 30.2724 27.943 30.882 28.481V28.481Z" fill="#FC9823"/>
<path d="M50.1506 21.5187C51.9184 23.0782 54.3159 22.3992 54.3159 19.3505V13.4085C54.3159 12.4325 53.5252 11.6414 52.5488 11.6414H46.6072H46.6076C43.5583 11.6414 42.8794 9.24341 44.4389 7.47601C47.0073 4.56584 45.6313 0.19515 40.9581 0C36.2846 0.194364 34.909 4.56506 37.4774 7.47601C39.0368 9.24351 38.3579 11.6414 35.3087 11.6414H35.3091H29.3667C28.3911 11.6414 27.6004 12.4321 27.5996 13.4077V19.3531C27.6007 20.6432 28.1191 21.4448 28.9526 21.4448C29.3898 21.4448 29.8672 21.2357 30.2976 20.8564C31.3925 19.8903 32.7375 19.3572 34.0845 19.3572C36.9829 19.3572 39.1031 21.6623 39.2406 24.9619L39.2421 24.9998L39.2406 25.0362C39.1031 28.3366 36.9829 30.6409 34.0848 30.6409C32.7379 30.6409 31.3925 30.1094 30.2976 29.1425C29.8675 28.7632 29.3898 28.5541 28.9526 28.5541C28.1186 28.5541 27.6007 29.3558 27.5996 30.6452V36.5909V36.592C27.6 37.5677 28.3911 38.3584 29.3667 38.3584H35.3095H35.3083C38.3576 38.3584 39.0365 40.7563 37.477 42.5237C34.9086 45.4339 36.2843 49.8046 40.9578 49.9997C45.6313 49.8054 47.0069 45.4347 44.4386 42.5237C42.8791 40.7562 43.558 38.3584 46.6072 38.3584H46.6068H52.5484C53.5244 38.3584 54.3155 37.5669 54.3155 36.5909L54.3148 30.6485C54.3148 27.5996 51.9172 26.9203 50.1494 28.4802C47.24 31.0486 42.87 29.6734 42.6746 24.9999C42.8701 20.3263 47.24 18.9507 50.1506 21.5187L50.1506 21.5187Z" fill="#FC9823"/>
</svg>
