<svg width="74" height="50" viewBox="0 0 74 50" fill="none" xmlns="http://www.w3.org/2000/svg">
<path d="M27.1131 45.7283L29.551 48.0137C30.1605 48.4706 30.9219 48.4706 31.5315 48.0137L32.4454 46.9472C33.6643 45.7283 33.5118 43.7478 32.2929 42.6815C30.7695 41.1581 29.2461 41.7676 28.3316 42.529C28.9411 41.9195 29.3981 41.1581 29.7025 41.0056C30.312 40.3961 30.6165 39.6347 30.6165 38.8727C30.6165 38.1107 30.312 37.1968 29.7025 36.5873C28.4836 35.3683 26.5031 35.5208 25.4368 36.7398L24.5228 37.8062C25.1323 37.1967 25.5893 36.5873 26.0462 36.1303C27.2652 34.9114 27.1127 32.9309 25.8937 31.8646C24.6748 30.6457 22.6943 30.7982 21.628 32.0171L20.2571 33.388C21.476 32.1691 21.3235 30.1886 20.1046 29.1223C18.8857 27.9033 16.9052 28.0558 15.8389 29.2748L13.7059 31.5602C12.792 32.4742 12.944 33.8456 13.8584 34.7596L14.9249 35.826C15.8388 36.74 17.3628 36.588 18.1243 35.6735L18.2768 35.521C17.3628 36.435 17.5148 37.9589 18.4293 38.8729L19.3432 39.6349C20.7141 40.8538 21.9331 40.3969 22.9995 39.3304C22.2376 40.2444 22.3901 41.7683 23.304 42.5298L24.066 43.2918C25.2849 44.5107 26.5039 44.0538 27.5704 43.1393C27.2659 43.4438 27.1134 43.5963 27.1134 43.5963C26.5039 44.3572 26.5039 45.2716 27.1134 45.7287L27.1131 45.7283Z" fill="#FC9823"/>
<path d="M51.7955 35.5205C52.8619 34.4541 52.8619 32.7782 52.0999 31.7117C51.643 31.1022 40.978 21.0473 38.2359 20.2853L32.1417 21.6562C31.6847 21.8087 31.0752 21.8087 30.4658 21.8087C27.2664 21.8087 24.3716 19.6758 23.6102 16.4765C23.3057 15.1056 23.3057 13.5817 23.9147 12.3633L15.0781 25.9226C15.9921 25.4657 16.9065 25.3132 17.8205 25.3132C20.8672 25.3132 22.5432 27.4461 23.0002 27.903L23.0012 28.055C24.8296 27.9025 26.2006 28.3594 27.4194 29.2739H27.5719C27.7244 29.4264 29.4003 30.6448 29.7049 33.0827C32.5997 34.1492 34.1231 37.044 33.6662 39.6339C37.0181 41.9193 37.3225 46.185 34.8851 48.9274C35.4946 49.5368 35.6471 49.5368 35.9515 49.6893C37.1705 50.2988 38.5414 49.9938 39.4559 48.9274C40.5224 47.8609 40.5224 46.185 39.7604 44.9661C40.9793 45.728 42.6552 45.5755 43.5692 44.5091C44.6356 43.2901 44.6356 41.4623 43.4167 40.2434C44.6356 41.3098 46.4635 41.3098 47.6824 40.0909C48.2919 39.4814 48.4444 38.72 48.4444 37.9579C48.4444 37.1959 48.1399 36.282 47.5305 35.825C48.7489 36.8914 50.5768 36.7389 51.7956 35.5205L51.7955 35.5205Z" fill="#FC9823"/>
<path d="M2.12774 26.3793L4.56564 27.9032C5.32762 28.3602 6.08903 28.6652 7.00355 28.6652C8.52694 28.6652 10.0503 27.9032 10.8124 26.5323L21.3242 10.383C21.9337 9.31651 22.2382 8.09753 21.9337 6.87858C21.6293 5.65963 21.0198 4.59316 19.9533 3.98375L17.5154 2.30788C16.7534 1.8509 15.8395 1.5459 15.0775 1.5459C13.5541 1.5459 12.0307 2.30788 11.2687 3.67883L0.756772 19.9805C-0.00520712 21.047 -0.157709 22.2659 0.147295 23.4849C0.299797 24.7038 1.06124 25.6178 2.12774 26.3792V26.3793Z" fill="#FC9823"/>
<path d="M68.8574 24.2466L71.4473 22.8757C72.9707 22.1137 73.5802 20.2858 72.8182 18.7624L63.9822 1.699C63.2202 0.17561 61.3923 -0.433934 59.8689 0.328099L57.2791 1.699C55.7557 2.46097 55.1461 4.28885 55.9082 5.81223L64.7447 22.8757C65.5057 24.3991 67.3335 25.0086 68.8574 24.2466Z" fill="#FC9823"/>
<path d="M60.1733 23.637L61.3922 23.1801L53.4702 7.79248L51.3372 8.85892C48.8993 9.77287 46.3095 9.77287 43.8721 8.85892C42.5012 8.40194 41.5867 7.63998 39.9108 8.24944C34.5786 9.46838 35.34 9.31588 29.5509 10.6873C27.418 11.2968 26.199 13.4297 26.6561 15.5626C27.113 17.5431 29.2459 18.9145 31.5313 18.4574L37.93 17.0865C40.8248 16.3246 51.4893 26.8371 53.7746 28.9699L60.1733 23.637Z" fill="#FC9823"/>
</svg>
