<svg width="49" height="50" viewBox="0 0 49 50" fill="none" xmlns="http://www.w3.org/2000/svg">
<path d="M30.4957 20.8303L27.7355 21.8566C27.6022 22.3058 27.2028 22.6403 26.7097 22.6403L13.2586 22.6398C12.6575 22.6398 12.1717 22.153 12.1717 21.5529C12.1717 20.9528 12.658 20.466 13.2586 20.466H24.5533L25.8038 14.6423C25.8419 14.4636 25.9249 14.2976 26.045 14.1594L30.4956 9.0155V0H9.47461V27.5321H30.4956L30.4957 20.8303ZM13.0097 3.533C13.0097 2.93291 13.496 2.44611 14.0966 2.44611H25.8713C26.4724 2.44611 26.9582 2.93291 26.9582 3.533V11.7755C26.9582 12.3756 26.4719 12.8624 25.8713 12.8624H14.0966C13.4956 12.8624 13.0097 12.3756 13.0097 11.7755V3.533ZM13.2592 15.444H20.1884C20.7895 15.444 21.2753 15.9308 21.2753 16.5309C21.2753 17.131 20.789 17.6178 20.1884 17.6178H13.2592C12.6582 17.6178 12.1723 17.131 12.1723 16.5309C12.1723 15.9308 12.6587 15.444 13.2592 15.444Z" fill="#FC9823"/>
<path d="M26.9102 19.8441L31.1972 18.2504L40.0414 8.02924L36.7148 5.1499L27.8706 15.3714L26.9102 19.8441Z" fill="#FC9823"/>
<path d="M38.1367 3.50535L40.1249 1.20801L43.4515 4.08684L41.4633 6.38419L38.1367 3.50535Z" fill="#FC9823"/>
<path d="M48.1094 7.86035V38.6099C48.1094 39.5001 47.3794 40.2198 46.4995 40.2198L29.6397 40.2203L32.2296 49.9999H15.8698L18.4596 40.2198H1.60985C0.719728 40.2198 0 39.5001 0 38.6099V7.86034C0 6.97022 0.719715 6.25049 1.60985 6.25049H7.29978V28.6202C7.29978 29.2203 7.78952 29.71 8.3901 29.71H31.5798C32.1799 29.71 32.6701 29.2203 32.6701 28.6202V19.8703L44.459 6.25049H46.4989C47.3793 6.25049 48.1093 6.97021 48.1093 7.86034L48.1094 7.86035Z" fill="#FC9823"/>
</svg>
