<svg width="48" height="50" viewBox="0 0 48 50" fill="none" xmlns="http://www.w3.org/2000/svg">
<path d="M10.3447 47.51L0.944461 38.1093C0.339402 37.5043 0 36.6842 0 35.829V16.3074C0 15.4045 0.664622 14.5981 1.5642 14.5224C2.52993 14.4416 3.34489 15.1412 3.42524 16.0862L4.43777 27.9434C4.30825 28.0403 4.18298 28.1438 4.06623 28.2601C3.37844 28.9479 3.02439 29.8801 3.08537 30.8614C3.13831 31.7151 3.54578 32.5087 4.15037 33.1133L11.0925 40.0554C11.3766 40.3394 11.8337 40.4085 12.1598 40.1735C12.5753 39.8743 12.6098 39.2915 12.2633 38.9455L5.2674 31.9496C4.60325 31.2854 4.50493 30.1986 5.12323 29.4911C5.50516 29.0538 6.06012 28.835 6.64156 28.8955C7.06416 28.9394 7.45036 29.1559 7.75052 29.4561L10.6302 32.3358C11.6314 33.337 12.9664 33.8834 14.4091 33.8707C15.5686 33.8608 16.6771 34.35 17.4968 35.1702L22.0385 39.7123C22.6431 40.3169 22.983 41.1375 22.983 41.9927V49.5966C22.983 49.8192 22.8024 49.9998 22.5798 49.9998H11.2897V49.7923C11.2897 48.9301 10.9541 48.1199 10.3448 47.5106L10.3447 47.51ZM36.2884 49.7908V49.9984H24.9983C24.7757 49.9984 24.5951 49.8178 24.5951 49.5951V41.9913C24.5951 41.1361 24.935 40.3155 25.5396 39.7109L30.0813 35.1687C30.9014 34.3486 32.0095 33.8594 33.169 33.8693C34.6112 33.8816 35.9466 33.3356 36.9479 32.3344L39.8276 29.4547C40.1277 29.1545 40.5144 28.938 40.9365 28.894C41.518 28.8335 42.0734 29.0524 42.4549 29.4897C43.0727 30.1973 42.9749 31.284 42.3107 31.9481L35.3148 38.9441C34.9683 39.2906 35.0028 39.8729 35.4183 40.1721C35.744 40.407 36.2016 40.338 36.4857 40.0539L43.4277 33.1118C44.0323 32.5072 44.4398 31.7135 44.4927 30.8599C44.5537 29.8791 44.1992 28.9465 43.5119 28.2587C43.3951 28.1419 43.2699 28.0388 43.1403 27.9419L44.1529 16.0847C44.2337 15.1398 45.0482 14.4402 46.0139 14.521C46.9135 14.5962 47.5781 15.4031 47.5781 16.3059V35.8288C47.5781 36.6844 47.2382 37.5045 46.6336 38.1091L37.2334 47.5093C36.6241 48.1191 36.2885 48.9293 36.2885 49.7906L36.2884 49.7908Z" fill="#FC9823"/>
<path d="M24.0073 34.3961C23.8735 34.4831 23.7057 34.4831 23.5715 34.3961C21.9917 33.3699 17.8966 30.45 17.0794 27.2899C17.0738 27.2545 17.0648 27.2209 17.0548 27.1874C16.9665 26.8116 16.9225 26.4329 16.9386 26.0538C17.0128 24.3119 18.5392 22.9222 20.2815 22.9856C21.4784 23.0291 22.5373 23.7201 23.0638 24.8112C23.1981 25.0896 23.4807 25.2668 23.7899 25.2668C24.0995 25.2668 24.3812 25.0896 24.516 24.8112C25.0766 23.6502 26.2394 22.9421 27.5304 22.9856C29.2741 23.0437 30.6445 24.4647 30.6445 26.2094C30.6445 26.5503 30.5986 26.8901 30.5159 27.2277C30.5126 27.2418 30.5083 27.2551 30.5055 27.2693C29.7005 30.4373 25.5904 33.368 24.0073 34.3962L24.0073 34.3961ZM35.0794 26.6122H32.2384C32.2483 26.4779 32.2568 26.3441 32.2568 26.2089C32.2568 23.541 30.0861 21.3704 27.4183 21.3704C26.0215 21.3704 24.7003 21.9892 23.7932 23.0135C22.8903 21.9783 21.5837 21.3704 20.1604 21.3704C17.4924 21.3704 15.3218 23.5411 15.3218 26.2089C15.3218 26.3441 15.3299 26.4779 15.3398 26.6122H12.4993C12.0545 26.6122 11.6929 26.2501 11.6929 25.8057V14.8754L16.9157 18.1745C17.3029 18.4189 17.7496 18.5484 18.2077 18.5484H29.3705C29.8281 18.5484 30.2748 18.4193 30.6624 18.1745L35.8853 14.8754V25.8057C35.8858 26.2501 35.5237 26.6122 35.0793 26.6122H35.0794ZM10.8867 9.67655C10.8867 9.23221 11.2483 8.87012 11.6932 8.87012H35.8858C36.3302 8.87012 36.6923 9.23221 36.6923 9.67655V12.0132C36.6923 12.2916 36.5519 12.5464 36.3165 12.6948L29.8017 16.8092C29.6726 16.8905 29.5233 16.934 29.371 16.934H18.2082C18.0555 16.934 17.9066 16.891 17.7776 16.8097L11.2628 12.6948C11.0274 12.5464 10.887 12.2911 10.887 12.0132L10.8867 9.67655Z" fill="#FC9823"/>
<path d="M17.3385 7.66103C18.0064 7.66103 18.5482 7.11931 18.5482 6.45138V4.43533C18.5482 3.32353 19.4524 2.41927 20.5642 2.41927H27.0156C28.1274 2.41927 29.0316 3.32355 29.0316 4.43533V6.45138C29.0316 7.11931 29.5729 7.66103 30.2413 7.66103C30.9092 7.66103 31.4509 7.11931 31.4509 6.45138V4.43533C31.4509 1.98956 29.4614 0 27.0156 0H20.5642C18.1185 0 16.1289 1.98956 16.1289 4.43533V6.45138C16.1289 7.11931 16.6702 7.66103 17.3386 7.66103H17.3385Z" fill="#FC9823"/>
</svg>
