<svg width="49" height="50" viewBox="0 0 49 50" fill="none" xmlns="http://www.w3.org/2000/svg">
<path d="M48.537 16.9642H39.6017L22.6375 0H29.9573L48.537 16.9642ZM20.5146 0.40204L38.0003 17.8877L22.2361 35.3122L4.7504 17.8265L20.5146 0.40204ZM10.661 32.1428H7.08957V31.5202C7.08957 31.0913 7.32554 30.6971 7.70381 30.4946C8.08207 30.292 8.54125 30.3144 8.89799 30.5524L10.6609 31.7279L10.661 32.1428ZM7.08957 33.9285H10.661V35.7142C10.661 36.3523 10.3206 36.9418 9.76814 37.2607C9.21568 37.5796 8.53488 37.5796 7.98243 37.2607C7.42998 36.9418 7.08957 36.3523 7.08957 35.7142V33.9285ZM6.93492 22.5367L6.28123 24.171L4.77011 23.0378L5.80643 21.4091L6.93492 22.5367ZM19.8675 42.9836L13.1229 44.6696H13.1233C12.7259 44.7688 12.4468 45.126 12.4468 45.5357V50H3.39156L1.72228 39.15C1.72029 39.1369 1.7179 39.1237 1.71551 39.1106L0 30.534L3.80897 24.5483L5.59468 25.888L3.58213 30.9187C3.49723 31.1315 3.49723 31.3691 3.58213 31.5819L5.30886 35.8983C5.35311 36.7701 5.71543 37.596 6.32728 38.2185C6.93952 38.8415 7.7586 39.2182 8.62952 39.2776C9.50085 39.337 10.3634 39.0751 11.0546 38.5414L16.666 40.1446C16.9777 40.2335 17.3134 40.1466 17.5425 39.9174L18.5004 38.9595L21.1 40.5192L19.8675 42.9836ZM21.9008 38.917L19.8018 37.6579L20.9291 36.5306L21.637 37.2385C21.8044 37.4059 22.0316 37.5 22.2684 37.5H22.6096L21.9008 38.917ZM32.5998 35.7143H24.2799L39.6288 18.7501H48.7562L32.5998 35.7143Z" fill="#FC9823"/>
</svg>
