<svg width="202" height="78" viewBox="0 0 202 78" fill="none" xmlns="http://www.w3.org/2000/svg">
<path fill-rule="evenodd" clip-rule="evenodd" d="M49.8297 19.6354C49.8297 14.1794 49.8297 13.6356 47.3749 13.3625L46.147 13.0894C45.6565 12.8175 45.6565 11.7264 46.147 11.4533C49.3381 11.1802 53.757 10.9083 58.1748 10.9083C62.1022 10.9083 65.539 11.4533 67.9937 12.8175C70.4484 14.4537 72.4127 17.1811 72.4127 21.2715C72.4127 26.7263 68.73 29.1817 66.2753 30.5448C66.0295 30.5448 66.0295 31.0898 66.2753 31.3629C70.4484 39.2719 72.9032 44.1816 75.3579 46.3616C76.8305 47.7259 78.3031 47.999 79.0394 47.999C79.2852 48.2733 79.2852 49.089 79.0394 49.3633C78.5489 49.3633 77.5668 49.6352 75.6026 49.6352C70.6942 49.6352 67.9937 47.4552 64.8027 41.9993C63.5759 39.545 62.1022 36.2714 60.8754 34.0903C59.8933 32.4529 59.1569 32.181 57.6843 32.181C55.9659 32.181 55.9659 32.181 55.9659 33.5441V40.9093C55.9659 46.9078 56.4575 47.1809 58.9101 47.4552L59.8922 47.7271C60.3838 48.0014 60.3838 49.0914 59.8922 49.3645C57.6833 49.0902 55.2285 49.0902 53.0196 49.0902C50.8107 49.0902 48.3549 49.0902 45.9012 49.3645C45.6554 49.0902 45.4096 48.0002 45.9012 47.7271L47.1281 47.4552C49.5828 47.1809 49.8286 46.9078 49.8286 40.9093V19.6354H49.8297ZM55.9659 28.0893C55.9659 29.9986 55.9659 29.9986 58.4206 29.9986C63.5759 29.9986 65.7848 27.2736 65.7848 21.8165C65.7848 17.1811 63.3301 13.3625 58.6664 13.3625C55.9659 13.3625 55.9659 13.3625 55.9659 16.0899V28.0893Z" fill="black"/>
<path fill-rule="evenodd" clip-rule="evenodd" d="M82.7221 19.6353C82.7221 14.1794 82.4763 13.6356 80.0216 13.3625L78.7947 13.0894C78.3031 12.8175 78.3031 11.7263 78.7947 11.4533C81.9858 11.1802 86.4036 10.9083 90.8225 10.9083C94.7499 10.9083 98.1856 11.4532 100.64 12.8175C103.341 14.4537 105.06 17.1811 105.06 21.2715C105.06 26.7263 101.378 29.1817 98.9241 30.5448C98.6783 30.5448 98.6783 31.0898 98.9241 31.3629C103.096 39.2719 105.55 44.1816 108.006 46.3616C109.478 47.7259 110.952 47.999 111.688 47.999C111.934 48.2733 111.934 49.089 111.688 49.3633C111.197 49.3633 110.216 49.6352 108.251 49.6352C103.341 49.6352 100.64 47.4552 97.4493 41.9993C96.2225 39.545 94.7499 36.2714 93.522 34.0903C92.5399 32.4529 92.0494 32.181 90.3309 32.181C88.6125 32.181 88.6125 32.181 88.6125 33.5441V40.9093C88.6125 46.9078 89.1041 47.1809 91.5588 47.4552L92.5399 47.7271C93.0315 48.0014 93.0315 49.0914 92.5399 49.3645C90.3309 49.0902 87.8762 49.0902 85.6673 49.0902C83.4584 49.0902 81.0036 49.0902 78.7947 49.3645C78.3031 49.0902 78.0573 48.0002 78.5489 47.7271L79.7757 47.4552C82.2305 47.1809 82.7221 46.9078 82.7221 40.9093V19.6353ZM88.6125 28.0893C88.6125 29.9986 88.6125 29.9986 91.0673 29.9986C96.2225 29.9986 98.4314 27.2736 98.4314 21.8165C98.4314 17.1811 95.9767 13.3625 91.313 13.3625C88.6125 13.3625 88.6125 13.3625 88.6125 16.0899V28.0893ZM148.015 30.2717C148.015 41.4543 140.161 50.1826 129.605 50.1826C118.069 50.1826 111.196 40.9093 111.196 30.5448C111.196 18.8173 119.05 10.0902 129.852 10.0902C141.878 10.0902 148.015 19.6354 148.015 30.2717ZM118.314 28.9086C118.314 36.8176 121.505 47.7259 130.341 47.7259C136.233 47.7259 140.896 42.8173 140.896 31.3629C140.896 22.6358 137.459 12.5444 129.114 12.5444C123.959 12.5444 118.314 16.6349 118.314 28.9086ZM200.3 12.8175C197.845 13.3625 197.109 14.7268 195.145 19.3623C191.217 29.1805 187.781 37.0895 184.836 45.0009C184.099 47.1809 183.855 48.8171 183.363 49.9095C183.118 49.9095 182.873 50.1838 182.382 50.1838C182.137 50.1838 181.645 49.9095 181.4 49.9095C180.418 46.3628 177.227 38.7269 175.018 33.8172C172.808 38.9988 170.355 44.4535 168.392 49.9095C168.392 49.9095 167.9 50.1838 167.654 50.1838C167.163 50.1838 166.918 49.9095 166.672 49.9095C165.936 47.1821 164.463 44.1828 162.99 40.6362L152.926 17.1823C151.945 14.4549 151.453 13.6368 149.244 13.0906L147.772 12.5456C147.526 12.2725 147.526 11.1814 148.017 10.9095C149.982 11.1814 151.946 11.1814 154.155 11.1814C156.117 11.1814 158.082 11.1814 160.537 10.9095C161.027 11.1814 161.027 12.2725 160.783 12.5456L159.555 12.8187C158.817 13.0906 158.326 13.3637 158.326 13.9087C158.326 14.4549 158.573 15.5461 159.555 17.7273L165.691 32.4541C167.409 36.82 168.881 39.8181 169.373 40.9105C170.355 38.455 171.583 35.7276 172.809 32.7272C173.055 31.9091 173.547 31.091 173.547 30.546C173.547 30.2729 173.301 29.7279 173.055 28.9098L167.655 16.0911C166.673 13.9087 165.937 13.3637 164.464 12.8187L162.992 12.5456C162.746 12.2725 162.746 11.1814 163.237 10.9095C165.446 11.1814 167.165 11.1814 168.882 11.1814C170.846 11.1814 172.81 11.1814 175.019 10.9095C175.51 11.1814 175.51 12.2725 175.019 12.5456L173.791 12.8187C173.054 13.0906 172.809 13.3637 172.809 13.6368C172.809 14.1818 172.809 14.728 173.301 15.5461C174.528 18.5454 175.51 21.5458 176.737 24.0001C177.719 22.0908 178.456 19.9096 179.437 17.7273C180.175 15.818 180.419 14.4549 180.419 13.9087C180.419 13.3637 180.174 13.0906 179.437 13.0906L177.966 12.5456C177.719 11.9994 177.719 11.1814 178.211 10.9095C179.438 11.1814 180.912 11.1814 182.875 11.1814C184.838 11.1814 186.066 11.1814 187.785 10.9095C188.275 11.1814 188.275 12.2725 187.785 12.5456L186.557 12.8187C184.594 13.3637 184.102 13.9087 182.385 17.4542C181.157 19.6365 179.93 22.9089 178.948 25.3644C178.457 25.9094 178.211 26.7275 178.211 27.0006C178.211 27.2748 178.457 27.8186 178.702 28.3636L180.912 33.8184C182.14 36.2726 183.366 39.8181 183.857 40.9105C186.557 34.0915 189.257 26.4544 191.958 19.0916C192.939 16.6361 193.676 14.4549 193.676 13.6368C193.676 13.3637 192.695 13.0906 191.958 12.8187L190.976 12.5456C190.484 12.2725 190.484 11.1814 190.976 10.9095C192.939 11.1814 194.657 11.1814 196.376 11.1814C198.095 11.1814 199.812 11.1814 201.286 10.9095C201.777 11.1814 201.777 11.9994 201.532 12.5456L200.3 12.8175ZM18.4099 31.3629C16.9373 31.3629 16.9373 31.3629 16.2009 33.2722L13.5004 41.9993C12.2736 46.3628 12.5183 46.6359 14.973 46.9078L16.9373 47.1821C17.4278 47.7271 17.182 49.0914 16.6904 49.3645C14.7272 49.0902 12.5172 49.0902 9.81673 49.0902C7.6078 49.0902 5.64467 49.0902 3.43575 49.3645C2.94416 49.0902 2.69836 48.0002 3.18995 47.1821L5.15308 46.9078C7.11729 46.6359 7.8536 45.8178 8.8357 43.6378C9.57201 41.7262 10.5541 38.455 12.0267 34.6365L21.1082 8.72709C21.8456 6.54592 22.3361 4.63664 22.3361 3.54545C24.5451 3.00046 26.7551 0 26.7551 0C27.2456 0 27.7361 0.273097 27.9819 0.546193C28.964 3.81855 29.945 7.364 30.9271 10.6364L40.2555 40.9105C41.7281 45.819 42.2186 46.364 45.4097 46.909L46.3918 47.1833C46.8823 47.7283 46.8823 49.0926 46.6376 49.3657C43.937 49.0914 41.4823 49.0914 38.0455 49.0914C35.1003 49.0914 32.3997 49.3657 29.9439 49.3657C29.4534 49.0914 29.4534 47.7283 29.9439 47.1833L31.1729 46.909C33.6276 46.6371 33.8734 46.364 32.8913 43.0904L29.945 33.2734C29.2087 31.3641 28.964 31.3641 27.2466 31.3641H18.4099V31.3629ZM26.2645 28.0893C28.2288 28.0893 28.4735 27.8174 27.983 26.1813L25.2824 17.453C24.0556 13.6356 23.8098 12.2713 23.3193 11.7264C23.0735 12.2713 22.3372 13.9075 21.3551 17.453L18.4109 25.9082C17.9204 28.0893 17.9204 28.0893 19.6378 28.0893H26.2645ZM49.8297 72.0003H171.088L163.97 78L195.636 70.9079L163.97 64.0901L170.352 69.2717H49.3381L39.2745 62.4551H0.982104L8.83678 69.2717V72.0003L0 78H39.2745L49.8297 72.0003Z" fill="black"/>
<path fill-rule="evenodd" clip-rule="evenodd" d="M7.36416 62.4551L12.7641 66.5444H13.4993L8.34519 62.4551H7.36416ZM15.2188 62.4551L20.6188 66.5444H21.6009L16.2009 62.4551H15.2188ZM24.0556 62.4551L29.4556 66.5444H30.1919L25.0377 62.4551H24.0556ZM13.2546 73.9084L7.85468 78H7.11837L12.2736 73.9084H13.2546ZM21.3551 73.9084L15.9551 78H14.973L20.373 73.9084H21.3551ZM30.1919 73.9084L24.7919 78H24.0556L29.4556 73.9084H30.1919Z" fill="white"/>
</svg>
