<svg width="129" height="78" viewBox="0 0 129 78" fill="none" xmlns="http://www.w3.org/2000/svg">
<path d="M128.428 2.1723C128 3.42442 127.606 4.67655 127.178 5.89184C126.586 7.65954 125.994 9.39042 125.401 11.1581C124.711 13.1836 124.02 15.2459 123.296 17.2714C122.836 18.5972 122.375 19.923 121.947 21.2119C121.256 23.2006 120.599 25.1892 119.908 27.2147C119.25 29.1666 118.592 31.1184 117.901 33.0334C117.21 35.0589 116.519 37.0844 115.829 39.0731C115.368 40.3988 114.907 41.7246 114.48 43.0136C113.756 45.1127 113.065 47.2119 112.341 49.311C112.111 49.9739 111.848 50.6368 111.552 51.2997C111.322 51.7784 111.026 52.1835 110.532 52.3676C110.401 52.4413 110.236 52.4781 110.072 52.4781C107.473 52.4781 104.907 52.4781 102.308 52.4781C101.88 52.4781 101.453 52.3676 101.222 51.9257C100.992 51.5206 100.795 51.1155 100.63 50.6736C100.17 49.4951 99.775 48.3167 99.3473 47.1014C98.7881 45.4442 98.2288 43.7869 97.6696 42.1297C97.0116 40.1779 96.3537 38.226 95.6958 36.2742C95.1694 34.7275 94.6431 33.1439 94.1167 31.5972C93.5904 30.0136 93.0312 28.43 92.5048 26.8465C92.0772 25.5943 91.6495 24.3422 91.2218 23.0901C90.6626 21.4329 90.1034 19.7757 89.5112 18.0816C89.0836 16.8295 88.6559 15.5774 88.2283 14.3252C87.6361 12.5944 87.0769 10.9003 86.4847 9.16945C85.9913 7.77002 85.5307 6.33377 85.0373 4.93434C84.7412 4.08731 84.478 3.24029 84.182 2.39327C84.1162 2.1723 84.0504 1.95134 84.0504 1.69355C84.0175 1.25163 84.2807 0.883355 84.6754 0.772873C84.8728 0.736046 85.1031 0.699219 85.3005 0.699219C88.5243 0.699219 91.7811 0.699219 95.005 0.699219C95.959 0.699219 96.4853 1.10432 96.7814 2.13548C97.2748 3.75587 97.7354 5.41309 98.2288 7.03348C98.5249 8.02781 98.821 9.02215 99.1499 10.0533C99.5118 11.2686 99.8737 12.4839 100.236 13.6992C100.532 14.6935 100.861 15.7247 101.157 16.719C101.486 17.8238 101.815 18.9286 102.144 20.0334C102.44 20.991 102.736 21.9853 103.032 22.9428C103.525 24.6368 104.019 26.2941 104.545 27.9881C105.071 29.719 105.565 31.413 106.091 33.1439C106.157 33.328 106.19 33.549 106.288 33.7331C106.354 33.4753 106.453 33.2176 106.519 32.9966C107.012 31.413 107.506 29.8295 107.999 28.2827C108.427 26.8465 108.854 25.3734 109.282 23.9371C109.808 22.0958 110.335 20.2544 110.894 18.3762C111.223 17.2346 111.552 16.0561 111.881 14.9145C112.309 13.4414 112.736 11.9683 113.164 10.4584C113.592 8.98532 114.019 7.54906 114.48 6.1128C114.907 4.7502 115.335 3.3876 115.763 1.98817C116.026 1.17797 116.618 0.736047 117.375 0.736047C119.25 0.736047 121.158 0.736047 123.033 0.736047C124.415 0.736047 125.763 0.736047 127.145 0.736047C127.309 0.736047 127.474 0.772873 127.606 0.772873C128.033 0.8097 128.362 1.06749 128.494 1.54624V2.1723H128.428Z" fill="#000000"/>
<path d="M24.2777 0C24.6067 0.0368271 24.9356 0.0736545 25.2646 0.0736545C26.9094 0.220963 28.5543 0.515579 30.1333 1.03116C31.7781 1.58357 33.3901 2.28328 34.9033 3.24078C35.627 3.71954 36.3508 4.19829 37.0416 4.71387C37.3377 4.93483 37.5679 5.26627 37.6666 5.7082C37.7653 6.15012 37.6337 6.5184 37.4364 6.84984C36.8113 7.881 36.1534 8.91216 35.5284 9.90649C34.9691 10.8272 34.377 11.711 33.8177 12.6317C33.3243 13.4419 32.8308 14.2153 32.3374 15.0255C32.2058 15.2096 32.0742 15.4306 31.9097 15.5779C31.5479 15.9093 31.1531 15.8725 30.6597 15.5042C30.2649 15.2096 29.903 14.915 29.5412 14.6572C28.5872 13.9943 27.5674 13.5524 26.4818 13.2209C25.1659 12.8158 23.85 12.7053 22.4684 12.8158C21.2512 12.9263 20.0998 13.2209 18.9813 13.7365C17.3694 14.4731 15.9549 15.6147 14.8035 17.0878C13.7508 18.4504 12.9613 19.9603 12.4678 21.6543C12.2375 22.4277 12.106 23.2379 11.9086 24.0113C11.9086 24.0481 11.9086 24.0849 11.8757 24.1218H0C0.0657932 23.643 0.0986899 23.1642 0.164483 22.7223C0.361863 21.1388 0.690829 19.592 1.15138 18.0821C1.64483 16.4249 2.26987 14.8781 3.02649 13.3682C3.8489 11.7847 4.77001 10.3116 5.8556 8.91216C6.74381 7.77052 7.69781 6.73936 8.71761 5.81868C10.1651 4.49291 11.7441 3.38809 13.4218 2.50424C14.8364 1.7677 16.3167 1.14164 17.8629 0.736542C18.9485 0.441925 20.0669 0.220962 21.2183 0.110481C21.6789 0.0736539 22.1394 0.0368271 22.6 0C22.6987 0.0368271 22.7974 0 22.896 0H24.2777Z" fill="#000000"/>
<path d="M65.4638 0C65.7928 0.0368271 66.1217 0.0736545 66.4836 0.0736545C68.1284 0.220963 69.7733 0.515579 71.3523 1.03116C73.1945 1.62039 74.9709 2.46742 76.6158 3.57223C77.175 3.9405 77.7014 4.30877 78.2277 4.71387C78.8527 5.19262 79.1817 5.96599 78.5567 6.96032C77.7014 8.32292 76.846 9.72235 75.9907 11.085C75.1354 12.4476 74.313 13.7733 73.4577 15.1359C73.359 15.3201 73.2274 15.5042 73.0629 15.6147C72.6682 15.9461 72.2734 15.8725 71.7471 15.5042C71.3852 15.2096 71.0233 14.915 70.6286 14.6572C69.5759 13.9575 68.4574 13.4419 67.2731 13.1473C66.0888 12.8527 64.9046 12.7422 63.7203 12.8527C62.5031 12.9631 61.3188 13.2209 60.2003 13.7733C58.5884 14.5099 57.1739 15.6147 56.0225 17.0878C55.1014 18.2294 54.4105 19.5552 53.8842 20.9914C53.5223 21.9489 53.2921 22.9433 53.1276 23.9744C53.1276 24.0481 53.0947 24.1217 53.0947 24.1954H41.219C41.3506 23.2747 41.4493 22.354 41.5809 21.4334C41.8111 20.1076 42.1401 18.8555 42.5349 17.6034C42.9954 16.1671 43.5876 14.7677 44.2784 13.4051C45.66 10.6799 47.4365 8.32292 49.5418 6.29743C50.9893 4.93483 52.5683 3.79319 54.2461 2.83569C55.4632 2.1728 56.7462 1.58356 58.0292 1.14164C59.2463 0.736541 60.4635 0.405098 61.7136 0.25779C62.4044 0.184136 63.1281 0.110481 63.819 0.0368265C63.9177 0.0368265 64.0164 0 64.0821 0C64.0821 0 65.4638 0 65.4638 0Z" fill="#000000"/>
<path d="M0.0329313 29.1299C0.131621 29.1299 0.197414 29.1299 0.296104 29.1299C4.07922 29.1299 7.82943 29.1299 11.6125 29.1299C11.8428 29.1299 11.9086 29.2035 11.9415 29.4613C12.2376 31.3395 12.8626 33.0704 13.7837 34.6908C14.7377 36.3112 15.9549 37.6369 17.4023 38.6313C18.8169 39.5888 20.363 40.178 22.0079 40.3622C23.3237 40.5095 24.6067 40.4358 25.8897 40.1412C27.2713 39.8097 28.5543 39.2205 29.7386 38.4103C30.0346 38.1893 30.3307 37.9316 30.6597 37.7106C31.0215 37.4528 31.4163 37.2318 31.844 37.5265C32.0084 37.6369 32.1729 37.8211 32.3045 38.0052C33.2585 39.552 34.2125 41.0987 35.1665 42.6454C35.956 43.9344 36.7785 45.2233 37.5351 46.5491C37.9627 47.2856 37.8311 47.9485 37.2061 48.4641C36.5811 48.9797 35.8902 49.4584 35.1994 49.9004C34.377 50.4159 33.5217 50.8579 32.6664 51.2998C31.515 51.889 30.2978 52.2941 29.0806 52.6256C26.7121 53.2885 24.3106 53.4358 21.9092 53.2885C20.3959 53.178 18.9156 52.9202 17.4352 52.4783C15.8891 51.9995 14.3759 51.3735 12.9613 50.5633C11.7441 49.8635 10.5598 49.0533 9.47426 48.1327C8.52026 47.3225 7.59915 46.4386 6.74384 45.4811C5.72405 44.3395 4.80294 43.1242 4.01342 41.7616C3.48708 40.8409 2.96073 39.9202 2.50018 38.9627C1.84225 37.5633 1.3159 36.0534 0.92114 34.5066C0.559277 33.2177 0.296104 31.9287 0.164518 30.603C0.131621 30.2715 0.0658279 29.9033 0.0329313 29.5718C3.46471e-05 29.4245 0.0329313 29.314 0.0329313 29.1299Z" fill="#000000"/>
<path d="M41.219 29.1299H41.4822C45.2653 29.1299 49.0155 29.1299 52.7986 29.1299C52.996 29.1299 53.0618 29.2035 53.1276 29.4245C53.3907 31.0449 53.8842 32.5548 54.6079 33.9911C55.2659 35.2432 56.0554 36.348 57.0423 37.3055C58.4239 38.6313 59.9701 39.552 61.7465 40.0675C63.0295 40.4358 64.3453 40.5463 65.6612 40.399C67.5692 40.178 69.3785 39.5519 70.9904 38.3735C71.2865 38.1525 71.5497 37.9316 71.8458 37.7474C72.0431 37.6369 72.2076 37.4896 72.4379 37.4528C72.9313 37.3055 73.2603 37.5633 73.5893 38.0789C74.0827 38.8891 74.5762 39.6624 75.0696 40.4726C75.7605 41.5774 76.4513 42.7191 77.1421 43.8239C77.6356 44.6341 78.1619 45.4443 78.6554 46.2545C78.7211 46.365 78.8198 46.4754 78.8527 46.6228C79.1817 47.2856 79.0501 48.0222 78.4909 48.4273C77.8329 48.9429 77.1421 49.4584 76.4513 49.8635C75.6618 50.3423 74.8064 50.7842 73.984 51.2261C72.8984 51.7417 71.8129 52.1468 70.6615 52.4783C69.3785 52.8465 68.0626 53.1412 66.7468 53.178C65.5625 53.2148 64.3453 53.2885 63.161 53.2148C61.6478 53.1411 60.1675 52.8465 58.6871 52.4046C56.8778 51.8522 55.1672 51.1157 53.5223 50.1213C52.2394 49.348 51.0222 48.4273 49.8708 47.3593C48.851 46.4018 47.897 45.4075 47.0088 44.2658C46.0877 43.0873 45.2653 41.8352 44.5416 40.5095C43.8507 39.2573 43.2915 37.9684 42.798 36.6058C42.2388 35.059 41.8111 33.4387 41.548 31.7814C41.4164 30.9712 41.3506 30.161 41.2519 29.3508C41.219 29.314 41.219 29.2404 41.219 29.1299Z" fill="#000000"/>
<path d="M107.605 65.5886C107.506 65.8832 107.407 66.141 107.342 66.3988C107.21 66.8039 107.078 67.1721 106.947 67.5772C106.782 68.0191 106.651 68.4979 106.486 68.9398C106.388 69.2344 106.289 69.5291 106.19 69.8237C106.026 70.2656 105.894 70.7075 105.73 71.1495C105.598 71.5914 105.434 71.9965 105.302 72.4384C105.137 72.8803 105.006 73.3223 104.841 73.7642C104.743 74.0588 104.644 74.3534 104.545 74.648C104.381 75.1268 104.216 75.5687 104.085 76.0475C104.019 76.1948 103.986 76.3421 103.92 76.4894C103.887 76.5999 103.789 76.6735 103.69 76.7472C103.657 76.7472 103.624 76.784 103.591 76.784C103.032 76.784 102.44 76.784 101.881 76.784C101.782 76.784 101.683 76.7472 101.65 76.6735C101.585 76.5999 101.552 76.4894 101.519 76.3789C101.42 76.1211 101.321 75.8633 101.223 75.6055C101.091 75.2373 100.96 74.869 100.861 74.5007C100.729 74.0588 100.565 73.6169 100.433 73.2118C100.302 72.8803 100.203 72.5121 100.071 72.1806C99.9398 71.8123 99.8411 71.4809 99.7095 71.1126C99.6108 70.818 99.5121 70.5602 99.4134 70.2656C99.2819 69.8973 99.1503 69.5291 99.0516 69.1608C98.9529 68.8662 98.8542 68.6084 98.7555 68.3138C98.6239 67.9455 98.4923 67.5404 98.3608 67.1721C98.2621 66.8407 98.1305 66.5461 98.0318 66.2146C97.966 66.0305 97.9002 65.8464 97.8344 65.6622C97.8344 65.6254 97.8015 65.5517 97.8015 65.5149C97.8015 65.4044 97.8673 65.3308 97.9331 65.2939C97.966 65.2939 98.0318 65.2939 98.0647 65.2939C98.7884 65.2939 99.5121 65.2939 100.203 65.2939C100.433 65.2939 100.532 65.3676 100.598 65.6254C100.696 65.9937 100.795 66.3619 100.927 66.6934C100.992 66.9143 101.058 67.1353 101.124 67.3563C101.19 67.6141 101.289 67.9087 101.354 68.1665C101.42 68.3874 101.486 68.6084 101.552 68.8293C101.618 69.0871 101.683 69.3081 101.782 69.5659C101.848 69.7869 101.914 70.0078 101.979 70.2288C102.078 70.597 102.21 70.9653 102.308 71.3336C102.407 71.7019 102.539 72.107 102.637 72.4752C102.637 72.5121 102.67 72.5489 102.67 72.6225C102.703 72.5857 102.703 72.5121 102.736 72.4384C102.835 72.107 102.966 71.7387 103.065 71.4072C103.164 71.0758 103.262 70.7444 103.361 70.4497C103.493 70.0446 103.591 69.6395 103.723 69.2344C103.789 68.9767 103.854 68.7189 103.953 68.4611C104.052 68.1296 104.151 67.7982 104.249 67.4667C104.348 67.1353 104.447 66.8039 104.545 66.5092C104.644 66.2146 104.743 65.8832 104.841 65.5886C104.907 65.4044 105.039 65.2939 105.203 65.2939C105.631 65.2939 106.026 65.2939 106.453 65.2939C106.749 65.2939 107.045 65.2939 107.374 65.2939C107.407 65.2939 107.44 65.2939 107.473 65.2939C107.572 65.2939 107.638 65.3676 107.671 65.4781V65.5886H107.605Z" fill="#000000"/>
<path d="M29.2779 65.2573C29.3437 65.2573 29.4095 65.2573 29.4753 65.2942C29.8372 65.331 30.1661 65.4046 30.528 65.5151C30.8899 65.6256 31.2188 65.7729 31.5478 65.9939C31.7123 66.1043 31.8439 66.2148 32.0083 66.3253C32.0741 66.3621 32.107 66.4358 32.1399 66.5463C32.1728 66.6199 32.1399 66.7304 32.0741 66.8041C31.9426 67.025 31.811 67.246 31.6465 67.467C31.5149 67.6511 31.4162 67.8721 31.2846 68.0562C31.1859 68.2403 31.0872 68.3876 30.9557 68.5718C30.9228 68.6086 30.8899 68.6454 30.857 68.6822C30.7912 68.7559 30.6925 68.7559 30.5938 68.6822C30.528 68.6086 30.4293 68.5718 30.3635 68.4981C30.1661 68.3508 29.9359 68.2403 29.7056 68.2035C29.4095 68.1298 29.1463 68.093 28.8503 68.1298C28.5871 68.1667 28.3568 68.2035 28.0936 68.314C27.7318 68.4613 27.4357 68.7191 27.2054 69.0505C26.9752 69.3451 26.8107 69.6766 26.712 70.0448C26.6791 70.229 26.6462 70.3763 26.5804 70.5604C26.5804 70.5604 26.5804 70.5604 26.5804 70.5973H24.0474C24.0474 70.4868 24.0803 70.3763 24.0803 70.3026C24.1132 69.9712 24.1789 69.6397 24.2776 69.3083C24.3763 68.94 24.5079 68.6086 24.6724 68.2772C24.8369 67.9457 25.0343 67.6143 25.2645 67.3196C25.4619 67.0619 25.6593 66.8409 25.8896 66.6568C26.1856 66.3621 26.5475 66.1412 26.9094 65.957C27.2054 65.8097 27.5344 65.6624 27.8634 65.5888C28.0936 65.5151 28.3568 65.4783 28.5871 65.4415C28.6858 65.4415 28.7845 65.4415 28.8832 65.4046C28.9161 65.4046 28.9161 65.4046 28.949 65.4046H29.2779V65.2573Z" fill="#000000"/>
<path d="M24.0474 71.5547C24.0803 71.5547 24.0803 71.5547 24.1132 71.5547C24.9356 71.5547 25.7251 71.5547 26.5475 71.5547C26.5804 71.5547 26.6133 71.5915 26.6133 71.6283C26.6791 72.0334 26.8107 72.4017 27.0081 72.77C27.2054 73.1014 27.4686 73.396 27.7976 73.617C28.0936 73.838 28.4226 73.9485 28.7845 73.9853C29.0805 74.0221 29.3437 73.9853 29.6069 73.9484C29.903 73.8748 30.1661 73.7643 30.4293 73.5802C30.4951 73.5434 30.5609 73.4697 30.6267 73.4329C30.6925 73.396 30.7912 73.3224 30.8899 73.396C30.9228 73.4329 30.9557 73.4697 30.9885 73.5065C31.1859 73.838 31.4162 74.1694 31.6136 74.5009C31.7781 74.7955 31.9754 75.0533 32.1399 75.3479C32.2386 75.4952 32.2057 75.6425 32.0741 75.753C31.9426 75.8635 31.7781 75.9739 31.6465 76.0476C31.482 76.1581 31.2846 76.2686 31.0872 76.3422C30.8241 76.4527 30.5938 76.5632 30.3306 76.6368C29.8372 76.7841 29.3108 76.821 28.7845 76.7841C28.4555 76.7473 28.1265 76.7105 27.8305 76.6C27.5015 76.4895 27.1725 76.379 26.8765 76.1949C26.6133 76.0476 26.3501 75.8635 26.1199 75.6793C25.9225 75.4952 25.7251 75.3111 25.5277 75.1269C25.2974 74.8691 25.1001 74.6113 24.9356 74.3167C24.8369 74.1326 24.7053 73.9116 24.6066 73.7275C24.475 73.4329 24.3434 73.1014 24.2447 72.77C24.1789 72.4754 24.1132 72.2176 24.0803 71.923C24.0803 71.8493 24.0474 71.7756 24.0474 71.702C24.0474 71.6283 24.0474 71.5915 24.0474 71.5547Z" fill="#000000"/>
<path d="M111.388 76.674H117.277V74.5381H113.362V73.4332H116.586V71.4446H113.362V70.1925H117.277V68.0565H111.388V76.674ZM107.342 76.674H109.316V68.0565H107.342V76.674ZM92.1766 73.4332H90.4989L91.3542 70.8922L92.1766 73.4332ZM90.3673 68.0933L87.2421 76.7109H89.3804L89.808 75.4587H92.8345L93.2622 76.7109H95.4005L92.3082 68.0933H90.3673ZM80.597 76.674H86.2223V74.5381H82.5708V68.0565H80.597V76.674ZM69.2148 76.674H75.1033V74.5381H71.1886V73.4332H74.4124V71.4446H71.1886V70.1925H75.1033V68.0565H69.2148V76.674ZM63.6552 73.5069H65.5303V73.7647C65.1685 74.3539 64.5763 74.759 63.8855 74.759C62.7341 74.759 61.813 73.7279 61.813 72.4021C61.813 71.1131 62.7341 70.0451 63.8855 70.0451C64.5434 70.0451 65.1356 70.3766 65.5303 70.929L67.1423 69.7137C66.4185 68.6457 65.2014 67.9092 63.8855 67.9092C61.6485 67.9092 59.8063 69.9347 59.8063 72.3653C59.8063 74.8327 61.6485 76.8213 63.8855 76.8213C64.675 76.8213 65.4645 76.4899 65.8264 75.8638V76.674H67.3726V71.6655H63.6881L63.6552 73.5069ZM52.9967 76.674V71.8865L56.418 76.674H58.0957V68.0565H56.1219V72.8808L52.7007 68.0565H51.0229V76.674H52.9967ZM46.3187 73.4332H44.641L45.4963 70.8922L46.3187 73.4332ZM44.5094 68.0933L41.3842 76.7109H43.5225L43.9502 75.4587H46.9766L47.4043 76.7109H49.5426L46.4503 68.0933H44.5094ZM37.9301 68.0933V71.4446H34.8049V68.0933H32.8311V76.7109H34.8049V73.5069H37.9301V76.7109H39.9039V68.0933H37.9301ZM17.6987 73.4332H16.0209L16.8762 70.8922L17.6987 73.4332ZM15.8893 68.0933L12.7642 76.7109H14.9024L15.3301 75.4587H18.3566L18.7842 76.7109H20.9225L17.8302 68.0933H15.8893Z" fill="#000000"/>
<path d="M9.86954 65.2573C9.93534 65.2573 10.0011 65.2573 10.0669 65.2573C10.4288 65.2942 10.7578 65.3678 11.1196 65.4783C11.4815 65.5888 11.8104 65.7361 12.1394 65.957C12.3039 66.0675 12.4355 66.178 12.6 66.2885C12.6658 66.3253 12.6987 66.399 12.7316 66.5094C12.7644 66.5831 12.7316 66.6936 12.6658 66.7672C12.5342 66.9882 12.4026 67.2092 12.271 67.4301C12.1394 67.6143 12.0407 67.8352 11.9091 68.0194C11.8104 68.2035 11.7118 68.3508 11.5802 68.5349C11.5473 68.5718 11.5144 68.6086 11.4815 68.6454C11.4157 68.7191 11.317 68.7191 11.2183 68.6454C11.1525 68.5718 11.0538 68.5349 10.988 68.4613C10.7906 68.314 10.5604 68.2035 10.3301 68.1667C10.034 68.093 9.77085 68.0562 9.47478 68.093C9.21161 68.1298 8.98133 68.1667 8.71816 68.2772C8.3563 68.4245 8.06023 68.6822 7.82995 68.9769C7.59968 69.2715 7.43519 69.6029 7.3365 69.9712C7.30361 70.1185 7.27071 70.3026 7.20492 70.4868C7.20492 70.4868 7.20492 70.4868 7.20492 70.5236H4.67188C4.67188 70.4131 4.70477 70.3395 4.70477 70.229C4.73767 69.8975 4.80346 69.5661 4.90215 69.2347C5.00084 68.8664 5.13243 68.5349 5.29691 68.2403C5.46139 67.9089 5.65877 67.5774 5.88905 67.2828C6.08643 67.025 6.28381 66.8041 6.51409 66.6199C6.81016 66.3253 7.17202 66.1043 7.53388 65.9202C7.82995 65.7729 8.15892 65.6256 8.48788 65.5519C8.71816 65.4783 8.94844 65.4415 9.21161 65.4046C9.3103 65.4046 9.40899 65.4046 9.50768 65.3678C9.54058 65.3678 9.54058 65.3678 9.57347 65.3678H9.86954V65.2573Z" fill="#000000"/>
<path d="M4.70477 71.5181C4.73767 71.5181 4.73767 71.5181 4.77057 71.5181C5.56008 71.5181 6.3825 71.5181 7.17202 71.5181C7.20492 71.5181 7.23781 71.5549 7.23781 71.5917C7.30361 71.9968 7.43519 72.3651 7.63257 72.6965C7.82995 73.028 8.09312 73.3226 8.42209 73.5436C8.71816 73.7645 9.04713 73.875 9.40899 73.9118C9.67216 73.9487 9.96823 73.9118 10.2314 73.875C10.5275 73.8013 10.7906 73.6909 11.0538 73.5067C11.1196 73.4699 11.1854 73.3962 11.2512 73.3594C11.317 73.3226 11.4157 73.2489 11.5144 73.3226C11.5473 73.3594 11.5802 73.3963 11.6131 73.4331C11.8104 73.7645 12.0078 74.096 12.2381 74.4274C12.4026 74.722 12.5671 74.9798 12.7315 75.2744C12.8302 75.4217 12.7973 75.5691 12.6658 75.6795C12.5342 75.79 12.4026 75.9005 12.2381 75.9741C12.0736 76.0846 11.8762 76.1951 11.7118 76.2688C11.4486 76.3792 11.2183 76.4897 10.9551 76.5634C10.4617 76.7107 9.93534 76.7475 9.40899 76.7107C9.08002 76.6739 8.75106 76.637 8.45499 76.5266C8.12602 76.4161 7.79706 76.3056 7.50099 76.1215C7.23781 75.9741 6.97464 75.79 6.74436 75.6059C6.54698 75.4217 6.3496 75.2376 6.15222 75.0535C5.92195 74.7957 5.72457 74.5379 5.56008 74.2433C5.46139 74.0591 5.32981 73.8382 5.23112 73.654C5.09953 73.3594 4.96795 73.028 4.86926 72.6965C4.80346 72.4387 4.73767 72.1441 4.70477 71.8495C4.70477 71.7759 4.67188 71.7022 4.67188 71.6285C4.70477 71.5549 4.70477 71.5549 4.70477 71.5181Z" fill="#000000"/>
<path d="M9.37598 76.2324V78.0001" stroke="#000" stroke-width="2.958" stroke-miterlimit="10"/>
</svg>
