<svg width="48" height="47" viewBox="0 0 48 47" fill="none" xmlns="http://www.w3.org/2000/svg">
<path d="M4.41669 24.3109V34.271C4.41669 35.5695 4.9325 36.8147 5.85064 37.7329C6.76879 38.651 8.01406 39.1668 9.31252 39.1668H38.6875C39.986 39.1668 41.2313 38.651 42.1494 37.7329C43.0675 36.8147 43.5834 35.5695 43.5834 34.271V12.7293C43.5834 11.4309 43.0675 10.1856 42.1494 9.26745C41.2313 8.34931 39.986 7.8335 38.6875 7.8335H21.1722L25.9153 12.5766C26.6921 13.3528 27.2358 14.3313 27.4846 15.4009C27.7335 16.4704 27.6776 17.5884 27.3233 18.6278C28.0675 18.7101 28.7921 19.0391 29.36 19.609L29.3659 19.6129L29.3717 19.6207L29.3913 19.6383L29.4305 19.6775C29.6402 19.8918 29.8434 20.1126 30.0395 20.3394C30.4155 20.7624 30.9208 21.3675 31.4339 22.0823C31.943 22.7873 32.5011 23.6647 32.9418 24.6282C33.3726 25.5642 33.7917 26.7941 33.7917 28.1512C33.7917 31.7839 31.0618 35.2502 26.9375 35.2502C22.8133 35.2502 20.0834 31.7839 20.0834 28.1512C20.0834 27.5833 20.1558 27.0369 20.2733 26.5258L17.6061 29.193C17.0605 29.7387 16.4128 30.1715 15.7 30.4668C14.9871 30.7621 14.2231 30.9141 13.4515 30.9141C12.6799 30.9141 11.9158 30.7621 11.203 30.4668C10.4901 30.1715 9.84241 29.7387 9.29685 29.193L4.41669 24.3109ZM22.7114 25.4467C22.3433 26.2477 22.0417 27.1857 22.0417 28.1512C22.0417 30.8733 24.0568 33.2918 26.9375 33.2918C29.8163 33.2918 31.8334 30.8733 31.8334 28.1512C31.8334 27.1857 31.5318 26.2477 31.1636 25.4467C30.7948 24.6665 30.3528 23.9229 29.8437 23.226C29.4468 22.6751 29.0226 22.1444 28.5727 21.6358L27.9754 20.9935C27.7 20.7184 27.3267 20.564 26.9375 20.564C26.5483 20.564 26.175 20.7184 25.8996 20.9935L25.8879 21.0033C25.7743 21.1247 25.4688 21.4459 25.3004 21.6358C24.9576 22.0255 24.4955 22.5758 24.0294 23.226C23.5209 23.923 23.0797 24.6665 22.7114 25.4467ZM26.9375 24.2522C27.1059 24.4637 27.2822 24.6928 27.4565 24.9376C27.8521 25.4879 28.2241 26.0852 28.4944 26.6727C28.7686 27.27 28.8959 27.7693 28.8959 28.1512C28.8959 29.5044 27.9539 30.3543 26.9375 30.3543C25.9192 30.3543 24.9792 29.5044 24.9792 28.1512C24.9792 27.7713 25.1045 27.27 25.3806 26.6727C25.6489 26.0852 26.021 25.4879 26.4166 24.9376C26.5929 24.6928 26.7691 24.4637 26.9375 24.2522ZM13.7188 1.9585C13.3292 1.9585 12.9557 2.11324 12.6802 2.38868C12.4048 2.66413 12.25 3.03771 12.25 3.42725V6.86608C12.1875 6.92096 12.1268 6.97778 12.0679 7.03645L3.75869 15.3457C3.02442 16.0801 2.61194 17.0762 2.61194 18.1147C2.61194 19.1533 3.02442 20.1493 3.75869 20.8838L10.6814 27.8085C11.0451 28.1724 11.477 28.461 11.9522 28.6579C12.4275 28.8549 12.937 28.9562 13.4515 28.9562C13.9659 28.9562 14.4754 28.8549 14.9507 28.6579C15.426 28.461 15.8578 28.1724 16.2215 27.8085L24.5288 19.4993C25.263 18.7648 25.6755 17.7688 25.6755 16.7302C25.6755 15.6916 25.263 14.6956 24.5288 13.9611L17.608 7.03645C16.9596 6.38597 16.1024 5.98513 15.1875 5.90454V3.42725C15.1875 3.03771 15.0328 2.66413 14.7573 2.38868C14.4819 2.11324 14.1083 1.9585 13.7188 1.9585ZM12.25 11.008V12.2397C12.25 12.6293 12.4048 13.0029 12.6802 13.2783C12.9557 13.5538 13.3292 13.7085 13.7188 13.7085C14.1083 13.7085 14.4819 13.5538 14.7573 13.2783C15.0328 13.0029 15.1875 12.6293 15.1875 12.2397V8.891C15.3156 8.9406 15.4317 9.01667 15.5283 9.11425L22.4529 16.037C22.6292 16.2132 22.7232 16.4384 22.7369 16.6675H6.59044L12.25 11.006V11.008ZM12.7592 25.7307L6.63352 19.605H20.2714L14.1437 25.7307C13.9601 25.9143 13.7111 26.0174 13.4515 26.0174C13.1918 26.0174 12.9428 25.9143 12.7592 25.7307Z" fill="#424441"/>
</svg>
