<svg width="110" height="110" viewBox="0 0 110 110" fill="none" xmlns="http://www.w3.org/2000/svg">
<path d="M17.6101 45.2814C21.6818 47.4911 25.4646 49.9905 29.3314 51.5563C33.6151 53.3632 37.9459 54.5557 42.193 55.0977C44.3668 55.3578 46.3049 54.7039 47.6056 53.2716C48.9062 51.8393 49.4695 49.7386 49.1787 47.4051C48.8259 42.3098 45.4502 38.0178 40.1791 35.9263C33.3655 33.2065 27.1483 33.4862 21.2266 34.9244C19.7753 35.2834 18.4072 35.7853 17.0742 36.1903C7.38755 29.1213 6.34212 25.1937 7.87567 1.80966C4.15411 -0.292653 2.78501 1.82378 1.73846 4.33688C-1.75573 12.749 1.5603 27.8931 8.82253 36.9053C9.56408 37.8194 10.3293 38.7067 11.2288 39.7798C10.663 40.9409 10.121 41.8959 9.68402 42.9189C6.58987 50.3568 8.47651 59.4101 15.5475 66.8593C19.753 71.1656 24.3719 74.943 29.2536 78.0686C37.5498 83.5134 46.2913 86.6924 54.9842 88.8002C65.481 91.3565 75.9573 93.3836 86.4325 95.6559C88.0027 95.9948 89.5794 96.4123 91.6256 96.9175C89.8453 99.1306 88.2075 101.481 86.719 103.96C86.2499 104.883 86.5928 107.537 87.1738 107.95C88.4407 108.846 90.117 108.829 91.6134 109.086C91.9437 109.137 92.2213 108.738 92.5168 108.527C97.1494 105.257 101.815 101.842 106.586 98.6748C110.803 95.8807 110.988 94.3809 107.043 88.8873C102.512 82.8162 96.8127 77.7519 90.567 74.2458C88.5572 73.0398 86.3854 72.1169 85.4437 75.0569C88.5778 81.134 95.1938 83.5817 99.8519 89.6267C97.6305 89.4266 96.1406 89.4275 94.6215 89.1315C81.4923 86.5226 68.3932 84.3245 55.2095 81.0384C47.9979 79.0998 40.7793 76.3484 33.683 72.8335C29.2278 70.5889 24.9751 67.552 21.1483 63.8825C14.7674 57.8427 13.7423 51.5258 17.6101 45.2814ZM25.589 43.2675L25.4982 41.5628C28.9075 40.38 32.8166 40.2831 36.8524 41.2812C40.6485 42.2096 42.7669 43.9386 42.5621 46.0338C42.2763 49.0449 39.7303 48.5795 37.5347 47.8626C33.6328 46.573 29.6346 44.8039 25.641 43.2447L25.589 43.2675Z" fill="#E4E4E4"/>
</svg>
