<svg width="48" height="47" viewBox="0 0 48 47" fill="none" xmlns="http://www.w3.org/2000/svg">
<g clip-path="url(#clip0_77_726)">
<path d="M38.3938 19.6618C37.7359 16.3282 35.9411 13.3263 33.3159 11.169C30.6907 9.01169 27.3979 7.83273 24 7.8335C18.3404 7.8335 13.425 11.0452 10.9771 15.7452C8.09879 16.0562 5.43697 17.4199 3.50308 19.5743C1.56919 21.7287 0.499664 24.5218 0.5 27.4168C0.5 33.8989 5.76792 39.1668 12.25 39.1668H37.7083C43.1133 39.1668 47.5 34.7802 47.5 29.3752C47.5 24.2052 43.4854 20.0143 38.3938 19.6618ZM27.9167 25.4585V33.2918H20.0833V25.4585H14.2083L24 15.6668L33.7917 25.4585H27.9167Z" fill="#424441"/>
</g>
<defs>
<clipPath id="clip0_77_726">
<rect width="47" height="47" fill="white" transform="translate(0.5)"/>
</clipPath>
</defs>
</svg>
