<svg width="33" height="30" viewBox="0 0 33 30" fill="none" xmlns="http://www.w3.org/2000/svg">
<path d="M7.382 16.1819C7.67794 15.8271 8.22336 15.8271 8.51927 16.1819L11.441 19.6851C11.7369 20.04 12.2823 20.04 12.5782 19.6851L18.7922 12.234C19.0882 11.8792 19.6336 11.8792 19.9295 12.234L22.8029 15.6794C23.6806 15.3644 24.6255 15.1913 25.6102 15.1913C25.9232 15.1913 26.2318 15.2102 26.5358 15.244V1.66588C26.5358 0.747296 25.7884 0 24.8699 0H2.57726C1.65867 0 0.911377 0.747362 0.911377 1.66588V22.7804C0.911377 23.699 1.65874 24.4463 2.57726 24.4463H17.3335C17.2996 24.1421 17.2808 23.8338 17.2808 23.5208C17.2808 23.2078 17.2996 22.8995 17.3335 22.5953H2.76236V21.7211L7.382 16.1819ZM8.4991 4.78007C10.055 4.78007 11.3162 6.0413 11.3162 7.59718C11.3162 9.15305 10.055 10.4143 8.4991 10.4143C6.94323 10.4143 5.682 9.15305 5.682 7.59718C5.682 6.0413 6.94323 4.78007 8.4991 4.78007ZM25.6101 17.0426C22.032 17.0426 19.1314 19.9432 19.1314 23.5213C19.1314 27.0995 22.032 30 25.6101 30C29.1883 30 32.0888 27.0995 32.0888 23.5213C32.0888 19.9434 29.188 17.0426 25.6101 17.0426ZM28.9788 24.4468H24.4101L25.3772 25.4558C25.7307 25.8246 25.7186 26.4105 25.3493 26.7643C25.1701 26.9363 24.9392 27.0218 24.7091 27.0218C24.4659 27.0218 24.2229 26.9262 24.0411 26.7364L21.5734 24.1615C21.2302 23.8036 21.2302 23.2388 21.5734 22.8809L24.0411 20.306C24.3952 19.937 24.9811 19.9246 25.3496 20.2782C25.7186 20.6317 25.731 21.2179 25.3775 21.5867L24.4104 22.5956H28.9788C29.4902 22.5956 29.9044 23.0098 29.9044 23.5211C29.9044 24.0327 29.4899 24.4469 28.9788 24.4469L28.9788 24.4468Z" fill="#63AC43"/>
</svg>
