<svg width="37" height="30" viewBox="0 0 37 30" fill="none" xmlns="http://www.w3.org/2000/svg">
<path d="M35.0415 22.1548C32.1918 15.531 25.6988 11.2505 18.4998 11.2505C10.0738 11.2505 2.672 17.2271 0.901445 25.4618C0.66289 26.5693 0.938067 27.7255 1.65062 28.6064C2.3616 29.488 3.43403 30.0001 4.56721 30.0001H32.4313C33.5645 30.0001 34.6364 29.4879 35.3489 28.6064C36.0604 27.7254 36.3362 26.5692 36.0981 25.4618C35.8548 24.3296 35.4991 23.2163 35.0413 22.1544L35.0415 22.1548ZM18.4998 25.1259C16.018 25.1259 13.9995 23.1076 13.9995 20.6256C13.9995 18.1436 16.0178 16.1253 18.4998 16.1253C20.9818 16.1253 23.0001 18.1436 23.0001 20.6256C23.0001 23.1076 20.9818 25.1259 18.4998 25.1259Z" fill="#63AC43"/>
<path d="M4.57116 11.6519C5.27533 11.6519 5.98787 11.4541 6.62149 11.0393C10.1575 8.7243 14.2649 7.50005 18.5004 7.50005C22.7359 7.50005 26.8433 8.72321 30.3783 11.0387C32.1121 12.174 34.436 11.688 35.5697 9.9558C36.7045 8.22302 36.219 5.8992 34.4868 4.76442C29.7276 1.64693 24.1988 0 18.5009 0C12.803 0 7.27387 1.64693 2.51374 4.76388C0.78056 5.89811 0.296002 8.22195 1.4308 9.95527C2.15015 11.0549 3.34868 11.6519 4.57185 11.6519L4.57116 11.6519Z" fill="#63AC43"/>
</svg>
