<svg width="39" height="30" viewBox="0 0 39 30" fill="none" xmlns="http://www.w3.org/2000/svg">
<path d="M7.92425 17.4665C8.0488 17.7332 8.11235 18.0238 8.11011 18.3179V27.9324C8.11171 28.2081 8.0555 28.4811 7.94565 28.7337C7.79012 29.1083 7.52697 29.4286 7.18972 29.6541C6.85216 29.8793 6.45551 29.9997 6.04996 30H2.80203C2.20994 30.0003 1.64208 29.7656 1.22341 29.3469C0.804733 28.9282 0.569676 28.3601 0.570314 27.768V18.483C0.569675 17.8909 0.804725 17.323 1.22341 16.9044C1.64209 16.4857 2.20988 16.2506 2.80203 16.251H6.04996C6.44661 16.25 6.83527 16.3643 7.16806 16.5802C7.50083 16.7961 7.76367 17.1043 7.9243 17.4671L7.92425 17.4665ZM10.6433 13.7575C10.6423 10.6351 10.6439 4.54276 10.6433 1.4205C10.6433 1.04365 10.7931 0.682459 11.0594 0.416122C11.3258 0.149777 11.6873 0 12.0638 0H16.9647C17.3415 0 17.7027 0.149777 17.969 0.416122C18.2357 0.682467 18.3852 1.04367 18.3852 1.4205V2.52134C18.3852 2.89819 18.5349 3.25938 18.8013 3.52572C19.0676 3.79238 19.4291 3.94184 19.8057 3.94184H27.5904C27.9669 3.94184 28.3284 4.09161 28.5948 4.35796C28.8611 4.6243 29.0109 4.98582 29.0109 5.36233V13.7579C29.0109 14.1347 28.8611 14.4959 28.5948 14.7626C28.3284 15.0289 27.9669 15.1784 27.5904 15.1784H12.0641C11.6876 15.1784 11.326 15.0289 11.0597 14.7626C10.7934 14.4959 10.6436 14.1347 10.6436 13.7579L10.6433 13.7575ZM22.4456 8.40345C22.4542 9.00033 22.9406 9.48001 23.5378 9.48001C24.1347 9.48001 24.6211 9.00033 24.6296 8.40345C24.621 7.80656 24.1346 7.32688 23.5378 7.32688C22.9406 7.32688 22.4542 7.80656 22.4456 8.40345ZM18.7356 8.30445C18.7442 8.90133 19.2306 9.38069 19.8274 9.38069C20.4243 9.38069 20.9107 8.90133 20.9193 8.30445C20.9107 7.70756 20.4243 7.22821 19.8274 7.22821C19.2306 7.22821 18.7442 7.70757 18.7356 8.30445ZM15.0253 8.20545V8.20513C15.0339 8.80202 15.5203 9.28137 16.1174 9.28137C16.7143 9.28137 17.2007 8.80201 17.2093 8.20513C17.2007 7.60825 16.7143 7.12889 16.1171 7.12889C15.5202 7.12889 15.0338 7.60826 15.0253 8.20513V8.20545ZM38.235 17.8453C37.671 16.1412 35.8398 17.0469 34.143 17.6093L20.8111 22.0743C20.0245 22.4268 15.9146 22.1985 15.029 22.2595V21.6802H19.2209V21.6798C19.9679 21.6712 20.6545 21.2679 21.0256 20.6196C21.3964 19.9712 21.3964 19.1748 21.0256 18.5264C20.6545 17.8781 19.9678 17.4748 19.2209 17.4661H8.69071C8.78333 17.7405 8.82932 18.0282 8.82676 18.3175V27.9321C8.82581 28.2032 8.78716 28.4731 8.71212 28.7333H20.2438C20.9403 28.7333 21.6286 28.582 22.2612 28.2897L35.5744 22.2091C37.2909 21.4574 39.018 19.8107 38.2356 17.8454L38.235 17.8453Z" fill="#63AC43"/>
</svg>
