<svg width="31" height="30" viewBox="0 0 31 30" fill="none" xmlns="http://www.w3.org/2000/svg">
<path d="M9.2343 7.98164C7.03204 10.9782 5.4916 13.8285 4.90188 15.0871C4.82153 15.2582 4.693 15.4019 4.53206 15.5008C4.37091 15.5995 4.18449 15.649 3.9957 15.6429L3.02491 15.6127C0.691914 15.5412 -0.375374 12.6568 1.35491 11.0841L4.93624 7.82768V7.8279C5.89514 6.95626 7.13895 6.46376 8.43462 6.4428C8.67613 6.43827 8.91072 6.52424 9.09197 6.68388C9.27343 6.8433 9.38857 7.06493 9.41492 7.30512C9.44127 7.54533 9.3769 7.78661 9.23433 7.98166L9.2343 7.98164ZM24.0574 22.066C24.0618 21.8238 23.9751 21.589 23.8149 21.4076C23.6546 21.2261 23.4321 21.1112 23.1912 21.0857C22.9504 21.0602 22.7087 21.1257 22.5138 21.2695C19.476 23.5042 16.6493 25.0159 15.415 25.5955C15.2435 25.6759 15.0994 25.8044 15.0002 25.9657C14.9011 26.1269 14.8514 26.3137 14.857 26.5028L14.8872 27.4753C14.959 29.8117 17.8458 30.8734 19.4158 29.1453L22.6723 25.5639C23.5439 24.6053 24.0364 23.3617 24.0576 22.066L24.0574 22.066ZM3.35481 22.6337L4.60791 21.3806V21.3804C4.79282 21.1998 4.89759 20.9525 4.8991 20.6939C4.90061 20.4355 4.79865 20.1871 4.61568 20.0041C4.43293 19.8214 4.18451 19.7194 3.92593 19.7207C3.66757 19.7222 3.42024 19.827 3.23943 20.0119L1.98634 21.265C1.37477 21.8766 1.81633 22.9171 2.67067 22.9171C2.9273 22.9173 3.17356 22.8153 3.35479 22.6337L3.35481 22.6337ZM9.28296 28.5618L10.5363 27.3085C10.7808 27.064 10.8763 26.7078 10.7869 26.3738C10.6972 26.0399 10.4365 25.7789 10.1025 25.6895C9.76856 25.6001 9.41216 25.6956 9.16784 25.9399L7.91452 27.1936C7.30296 27.8052 7.74474 28.8457 8.59886 28.8457C8.8557 28.8459 9.10196 28.7438 9.2832 28.5619L9.28296 28.5618ZM4.16728 27.701L8.42233 23.446C8.66448 23.201 8.75802 22.8459 8.66816 22.5135C8.57851 22.181 8.31886 21.9214 7.98642 21.8317C7.65397 21.7419 7.29882 21.8354 7.0539 22.0776L2.79884 26.3326C2.18728 26.9442 2.62884 27.9847 3.48296 27.9847C3.7398 27.9849 3.98606 27.883 4.16729 27.7011L4.16728 27.701ZM24.3706 18.2912C22.9973 19.4689 21.5481 20.5546 20.0319 21.5414C19.8662 21.6487 19.6688 21.6958 19.4726 21.6751C19.2765 21.6543 19.0933 21.5666 18.954 21.4271L9.073 11.5461C8.93345 11.4068 8.84575 11.2236 8.82501 11.0274C8.80427 10.8313 8.85136 10.6339 8.95872 10.4682C9.96883 8.91636 11.0826 7.43449 12.2925 6.03275C14.277 3.73758 16.826 1.99972 19.6877 0.991382C22.5495 -0.0171781 25.6247 -0.261493 28.6098 0.282658L29.3115 0.409677C29.505 0.444887 29.6835 0.53842 29.8226 0.677539C29.9617 0.816657 30.0552 0.995082 30.0904 1.18863L30.2175 1.89028C31.2803 7.72884 29.3463 13.9987 24.3706 18.2911L24.3706 18.2912ZM23.5086 6.99122C22.7263 6.209 21.6654 5.76942 20.5592 5.76942C19.4527 5.76942 18.3919 6.20901 17.6095 6.99122C16.8273 7.7736 16.3879 8.83448 16.3879 9.9407C16.3879 11.0471 16.8273 12.108 17.6095 12.8904C18.3919 13.6726 19.4527 14.112 20.5592 14.112C21.6654 14.112 22.7263 13.6726 23.5086 12.8904C24.2898 12.1074 24.7285 11.0467 24.7285 9.9407C24.7285 8.83492 24.2898 7.77405 23.5086 6.99122ZM8.37638 13.5863C8.18347 13.3927 7.91021 13.3024 7.64 13.3426C7.36998 13.3828 7.13496 13.5489 7.00665 13.7902C6.82131 14.1423 6.64677 14.4849 6.47137 14.8426C6.18255 15.4319 6.08535 16.0971 6.19336 16.7444C6.30137 17.3918 6.6094 17.9894 7.07384 18.4529L12.047 23.4261C12.6376 24.0173 13.439 24.3495 14.2745 24.3495C15.1305 24.3495 15.636 24.0579 16.7096 23.493L16.7099 23.4932C16.9509 23.3649 17.117 23.1299 17.1572 22.8599C17.1974 22.5897 17.1071 22.3164 16.9136 22.1235L8.37638 13.5863Z" fill="#63AC43"/>
</svg>
