<svg width="48" height="47" viewBox="0 0 48 47" fill="none" xmlns="http://www.w3.org/2000/svg">
<path d="M43.0938 36.7188H40.1562V33.7812H41.625V27.9062H35.75V29.375H32.8125V26.4375C32.8125 26.048 32.9672 25.6744 33.2427 25.3989C33.5181 25.1235 33.8917 24.9688 34.2812 24.9688H43.0938C43.4833 24.9688 43.8569 25.1235 44.1323 25.3989C44.4078 25.6744 44.5625 26.048 44.5625 26.4375V35.25C44.5625 35.6395 44.4078 36.0131 44.1323 36.2886C43.8569 36.564 43.4833 36.7188 43.0938 36.7188Z" fill="#424441"/>
<path d="M35.75 44.0626H26.9375C26.548 44.0626 26.1744 43.9079 25.8989 43.6325C25.6235 43.357 25.4687 42.9834 25.4687 42.5939V33.7814C25.4687 33.3919 25.6235 33.0183 25.8989 32.7428C26.1744 32.4674 26.548 32.3126 26.9375 32.3126H35.75C36.1395 32.3126 36.5131 32.4674 36.7886 32.7428C37.064 33.0183 37.2187 33.3919 37.2187 33.7814V42.5939C37.2187 42.9834 37.064 43.357 36.7886 43.6325C36.5131 43.9079 36.1395 44.0626 35.75 44.0626ZM28.4062 41.1251H34.2812V35.2501H28.4062V41.1251ZM22.5312 29.1666C21.47 28.89 20.5075 28.3214 19.7532 27.5253C18.9989 26.7292 18.4829 25.7376 18.2638 24.663C18.0447 23.5884 18.1313 22.4739 18.5138 21.4461C18.8963 20.4182 19.5593 19.5182 20.4276 18.8482C21.2959 18.1783 22.3346 17.7652 23.4259 17.6559C24.5171 17.5466 25.6171 17.7455 26.601 18.23C27.5849 18.7144 28.4133 19.4651 28.992 20.3967C29.5707 21.3283 29.8766 22.4034 29.875 23.5001H32.8125C32.8142 21.8196 32.3353 20.1736 31.4324 18.7563C30.5294 17.3389 29.24 16.2093 27.7162 15.5006C26.1924 14.7919 24.4978 14.5337 22.8321 14.7565C21.1663 14.9792 19.599 15.6735 18.315 16.7577C17.0309 17.8418 16.0836 19.2705 15.5847 20.8753C15.0859 22.4801 15.0563 24.194 15.4994 25.8151C15.9426 27.4362 16.84 28.8967 18.0859 30.0245C19.3318 31.1523 20.8742 31.9004 22.5312 32.1805V29.1666Z" fill="#424441"/>
<path d="M42.9322 19.9016L39.5394 22.8831L37.4538 20.7975L40.9935 17.6838L37.5272 11.6912L32.4747 13.395C31.2912 12.4099 29.9507 11.6304 28.5091 11.0891L27.4663 5.875H20.5338L19.491 11.0891C18.0378 11.6152 16.69 12.3961 15.5107 13.395L10.4729 11.6912L7.00662 17.6838L11.0016 21.1941C10.7299 22.7144 10.7299 24.2709 11.0016 25.7912L7.00662 29.3162L10.4729 35.3088L15.5254 33.605C16.7089 34.5901 18.0494 35.3696 19.491 35.9109L20.5338 41.125H22.5313V44.0625H20.5338C19.8546 44.062 19.1965 43.826 18.6716 43.3949C18.1467 42.9637 17.7875 42.364 17.6551 41.6978L16.906 37.9966C16.241 37.6722 15.5983 37.3042 14.9819 36.895L11.4129 38.0994C11.1094 38.1981 10.792 38.2477 10.4729 38.2463C9.95693 38.2498 9.4494 38.1155 9.00271 37.8573C8.55602 37.5991 8.18636 37.2264 7.93193 36.7775L4.46568 30.785C4.12286 30.196 3.99546 29.5062 4.10532 28.8337C4.21518 28.1611 4.55546 27.5477 5.06787 27.0984L7.88787 24.6309C7.85849 24.2491 7.84381 23.8819 7.84381 23.5C7.84381 23.1181 7.87318 22.7509 7.90256 22.3837L5.06787 19.9016C4.55546 19.4523 4.21518 18.8389 4.10532 18.1663C3.99546 17.4938 4.12286 16.804 4.46568 16.215L7.93193 10.2225C8.18636 9.77365 8.55602 9.40087 9.00271 9.14266C9.4494 8.88446 9.95693 8.7502 10.4729 8.75375C10.792 8.75228 11.1094 8.80187 11.4129 8.90062L14.9672 10.105C15.5886 9.69566 16.2363 9.32768 16.906 9.00344L17.6551 5.30219C17.7875 4.63598 18.1467 4.03626 18.6716 3.60512C19.1965 3.17397 19.8546 2.93805 20.5338 2.9375H27.4663C28.1456 2.93805 28.8036 3.17397 29.3285 3.60512C29.8534 4.03626 30.2126 4.63598 30.3451 5.30219L31.0941 9.00344C31.7591 9.32776 32.4018 9.69575 33.0182 10.105L36.5872 8.90062C36.8907 8.80187 37.2081 8.75228 37.5272 8.75375C38.0432 8.7502 38.5507 8.88446 38.9974 9.14266C39.4441 9.40087 39.8138 9.77365 40.0682 10.2225L43.5344 16.215C43.8773 16.804 44.0047 17.4938 43.8948 18.1663C43.7849 18.8389 43.4447 19.4523 42.9322 19.9016Z" fill="#424441"/>
</svg>
