<svg width="32" height="33" viewBox="0 0 32 33" fill="none" xmlns="http://www.w3.org/2000/svg">
<g clip-path="url(#clip0_75_1049)">
<path fill-rule="evenodd" clip-rule="evenodd" d="M0 16.0908C0 24.0455 5.77733 30.6601 13.3333 32.0015V20.4455H9.33333V16.0015H13.3333V12.4455C13.3333 8.44547 15.9107 6.22413 19.556 6.22413C20.7107 6.22413 21.956 6.40146 23.1107 6.5788V10.6681H21.0667C19.1107 10.6681 18.6667 11.6455 18.6667 12.8908V16.0015H22.9333L22.2227 20.4455H18.6667V32.0015C26.2227 30.6601 32 24.0468 32 16.0908C32 7.24147 24.8 0.00146484 16 0.00146484C7.2 0.00146484 0 7.24147 0 16.0908Z" fill="#3A5A97"/>
</g>
<defs>
<clipPath id="clip0_75_1049">
<rect width="32" height="32" fill="white" transform="translate(0 0.00146484)"/>
</clipPath>
</defs>
</svg>
