<svg width="59" height="141" viewBox="0 0 59 141" fill="none" xmlns="http://www.w3.org/2000/svg">
<path d="M15.7113 43.0844C17.5309 47.3448 18.9443 51.6529 21.003 55.2812C23.2388 59.3575 25.8932 62.9814 28.8859 66.0434C30.4283 67.597 32.3536 68.2879 34.2624 67.9728C36.1713 67.6577 37.9173 66.3608 39.1382 64.351C42.0255 60.1379 42.0445 54.6775 39.2113 49.765C35.5591 43.4024 30.512 39.7611 24.9772 37.2115C23.6166 36.5918 22.2326 36.1357 20.9362 35.6255C17.7325 24.0696 19.3518 20.3418 35.0738 2.96401C33.4619 -0.994749 31.0746 -0.185859 28.6938 1.13424C20.7315 5.55855 13.9273 19.4886 14.024 31.0622C14.0378 32.2392 14.0866 33.4099 14.1254 34.8096C12.9609 35.3684 11.9431 35.7804 10.9653 36.3111C3.92152 40.2201 -0.221095 48.4881 0.696192 58.718C1.31887 64.7048 2.5939 70.5338 4.47977 76.015C7.60201 85.4344 12.4803 93.3541 17.9855 100.404C24.6264 108.926 31.5797 117.02 38.3799 125.305C39.4003 126.546 40.377 127.852 41.6672 129.519C38.8975 130.148 36.1541 130.974 33.4484 131.992C32.5076 132.424 31.1284 134.718 31.3269 135.403C31.7638 136.892 33.0887 137.919 34.102 139.049C34.3293 139.294 34.7946 139.154 35.1572 139.172C40.8189 139.486 46.5967 139.706 52.303 140.185C57.3433 140.614 58.42 139.553 58.7389 132.797C58.9563 125.225 57.6337 117.716 54.9149 111.09C54.0884 108.897 52.9591 106.825 50.3953 108.544C49.0786 115.254 52.7448 121.281 52.6426 128.912C51.0256 127.375 49.8571 126.451 48.8502 125.276C40.1786 115.078 31.2755 105.222 22.9816 94.4598C18.5324 88.4622 14.5824 81.8233 11.2024 74.6617C9.10391 70.1359 7.65603 65.1148 6.93486 59.8622C5.68339 51.1657 8.80224 45.5776 15.7113 43.0844ZM23.2162 46.4602L24.2036 45.0675C27.6104 46.2573 30.7349 48.6086 33.2786 51.897C35.6778 54.9818 36.2647 57.6524 34.8032 59.1676C32.7094 61.3505 31.0028 59.4047 29.7268 57.4795C27.469 54.0458 25.4334 50.1765 23.2712 46.4746L23.2162 46.4602Z" fill="#E4E4E4"/>
</svg>
