<svg width="93" height="50" viewBox="0 0 93 50" fill="none" xmlns="http://www.w3.org/2000/svg">
<path d="M92.4529 1.39301C92.1467 2.19565 91.8641 2.99829 91.5579 3.77732C91.1339 4.91045 90.7099 6.01998 90.286 7.15312C89.7914 8.4515 89.2967 9.77349 88.7786 11.0719C88.4488 11.9217 88.1191 12.7716 87.8129 13.5978C87.3182 14.8726 86.8472 16.1474 86.3525 17.4458C85.8815 18.6969 85.4104 19.9481 84.9158 21.1757C84.4212 22.4741 83.9265 23.7724 83.4319 25.0472C83.1022 25.8971 82.7724 26.7469 82.4662 27.5732C81.948 28.9188 81.4534 30.2644 80.9352 31.61C80.7704 32.0349 80.5819 32.4598 80.37 32.8847C80.2051 33.1916 79.9931 33.4513 79.6398 33.5693C79.5456 33.6166 79.4278 33.6402 79.3101 33.6402C77.4493 33.6402 75.6122 33.6402 73.7514 33.6402C73.4452 33.6402 73.139 33.5693 72.9742 33.2861C72.8093 33.0264 72.668 32.7667 72.5502 32.4834C72.2204 31.728 71.9378 30.9726 71.6316 30.1935C71.2312 29.1312 70.8308 28.0689 70.4304 27.0066C69.9593 25.7554 69.4882 24.5043 69.0172 23.2531C68.6403 22.2616 68.2635 21.2465 67.8866 20.255C67.5097 19.2399 67.1093 18.2248 66.7325 17.2097C66.4263 16.4071 66.1201 15.6044 65.8139 14.8018C65.4135 13.7395 65.0131 12.6772 64.5891 11.5912C64.2829 10.7886 63.9767 9.98596 63.6705 9.18332C63.2466 8.07379 62.8462 6.98787 62.4222 5.87834C62.0689 4.98127 61.7391 4.0606 61.3858 3.16353C61.1739 2.62057 60.9854 2.07761 60.7734 1.53465C60.7263 1.39301 60.6792 1.25137 60.6792 1.08612C60.6557 0.802836 60.8441 0.566766 61.1267 0.495945C61.2681 0.472338 61.4329 0.44873 61.5743 0.44873C63.8825 0.44873 66.2143 0.44873 68.5226 0.44873C69.2056 0.44873 69.5825 0.708408 69.7944 1.3694C70.1477 2.40811 70.4775 3.47043 70.8308 4.50913C71.0428 5.14652 71.2548 5.78391 71.4903 6.44491C71.7494 7.22394 72.0085 8.00297 72.2676 8.782C72.4795 9.41939 72.7151 10.0804 72.9271 10.7178C73.1626 11.426 73.3981 12.1342 73.6337 12.8424C73.8456 13.4562 74.0576 14.0936 74.2696 14.7074C74.6229 15.7933 74.9762 16.8556 75.3531 17.9415C75.7299 19.051 76.0832 20.137 76.4601 21.2465C76.5072 21.3645 76.5307 21.5062 76.6014 21.6242C76.6485 21.459 76.7192 21.2937 76.7663 21.1521C77.1196 20.137 77.4729 19.1219 77.8262 18.1304C78.1324 17.2097 78.4386 16.2654 78.7448 15.3447C79.1216 14.1644 79.4985 12.984 79.8989 11.7801C80.1344 11.0483 80.37 10.2928 80.6055 9.56103C80.9117 8.61675 81.2179 7.67247 81.5241 6.70458C81.8303 5.7603 82.1365 4.83963 82.4662 3.91896C82.7724 3.0455 83.0786 2.17204 83.3848 1.27498C83.5732 0.755621 83.9972 0.472338 84.5389 0.472338C85.8815 0.472338 87.2476 0.472338 88.5901 0.472338C89.5794 0.472338 90.5451 0.472338 91.5343 0.472338C91.6521 0.472338 91.7699 0.495945 91.8641 0.495945C92.1703 0.519552 92.4058 0.684801 92.5 0.991692V1.39301H92.4529Z" fill="#E5261D"/>
<path d="M17.8825 0C18.118 0.023607 18.3536 0.0472142 18.5891 0.0472142C19.7668 0.141642 20.9444 0.330498 22.075 0.660996C23.2527 1.0151 24.4068 1.46363 25.4903 2.07742C26.0084 2.38431 26.5266 2.6912 27.0212 3.0217C27.2332 3.16334 27.3981 3.3758 27.4688 3.65908C27.5394 3.94237 27.4452 4.17844 27.3039 4.3909C26.8564 5.0519 26.3853 5.71289 25.9378 6.35028C25.5374 6.94046 25.1134 7.50703 24.713 8.0972C24.3597 8.61655 24.0064 9.1123 23.6531 9.63166C23.5589 9.74969 23.4647 9.89133 23.3469 9.98576C23.0878 10.1982 22.8052 10.1746 22.4519 9.93855C22.1692 9.74969 21.9101 9.56083 21.651 9.39559C20.968 8.97066 20.2378 8.68738 19.4606 8.47491C18.5184 8.21523 17.5763 8.14441 16.587 8.21524C15.7156 8.28606 14.8912 8.47491 14.0904 8.80541C12.9362 9.27755 11.9234 10.0094 11.0991 10.9536C10.3454 11.8271 9.78008 12.795 9.42678 13.8809C9.2619 14.3767 9.16769 14.896 9.02637 15.3918C9.02637 15.4154 9.02637 15.439 9.00281 15.4626H0.5C0.547107 15.1557 0.570661 14.8488 0.617768 14.5655C0.759089 13.5504 0.994624 12.5589 1.32437 11.591C1.67768 10.5287 2.12519 9.53723 2.66692 8.56934C3.25576 7.55424 3.91526 6.60996 4.69252 5.71289C5.32847 4.98108 6.01152 4.32008 6.74168 3.72991C7.77803 2.88005 8.9086 2.17184 10.1098 1.60528C11.1226 1.13314 12.1825 0.731817 13.2895 0.47214C14.0668 0.283284 14.8676 0.141642 15.692 0.0708208C16.0218 0.0472138 16.3515 0.023607 16.6813 0C16.7519 0.023607 16.8226 0 16.8932 0H17.8825Z" fill="#E5261D"/>
<path d="M47.3714 0C47.6069 0.023607 47.8425 0.0472142 48.1015 0.0472142C49.2792 0.141642 50.4569 0.330498 51.5875 0.660996C52.9065 1.03871 54.1783 1.58167 55.356 2.28988C55.7564 2.52595 56.1333 2.76202 56.5101 3.0217C56.9577 3.32859 57.1932 3.82433 56.7457 4.46172C56.1333 5.33518 55.5209 6.23225 54.9085 7.10571C54.2961 7.97917 53.7073 8.82902 53.0949 9.70248C53.0242 9.82051 52.93 9.93855 52.8122 10.0094C52.5296 10.2218 52.247 10.1746 51.8701 9.93855C51.611 9.74969 51.3519 9.56083 51.0693 9.39559C50.3156 8.94705 49.5148 8.61655 48.6668 8.4277C47.8189 8.23884 46.971 8.16802 46.123 8.23884C45.2516 8.30966 44.4036 8.47491 43.6028 8.82902C42.4487 9.30116 41.4359 10.0094 40.6115 10.9536C39.952 11.6855 39.4574 12.5353 39.0805 13.456C38.8215 14.0698 38.6566 14.7072 38.5388 15.3682C38.5388 15.4154 38.5153 15.4626 38.5153 15.5098H30.0125C30.1067 14.9196 30.1773 14.3294 30.2715 13.7393C30.4364 12.8894 30.6719 12.0868 30.9546 11.2841C31.2843 10.3635 31.7083 9.46641 32.2029 8.59295C33.1922 6.84603 34.4641 5.33518 35.9715 4.0368C37.0078 3.16334 38.1384 2.43152 39.3396 1.81774C40.2111 1.39281 41.1297 1.0151 42.0483 0.731817C42.9198 0.47214 43.7913 0.259677 44.6863 0.165249C45.1809 0.118035 45.6991 0.0708206 46.1937 0.0236066C46.2644 0.0236066 46.335 0 46.3821 0C46.3821 0 47.3714 0 47.3714 0Z" fill="#E5261D"/>
<path d="M0.523652 18.6732C0.594312 18.6732 0.641419 18.6732 0.71208 18.6732C3.42073 18.6732 6.10583 18.6732 8.81448 18.6732C8.97936 18.6732 9.02647 18.7204 9.05002 18.8857C9.262 20.0896 9.70952 21.1992 10.369 22.2379C11.0521 23.2766 11.9235 24.1264 12.9599 24.7638C13.9727 25.3776 15.0797 25.7553 16.2574 25.8734C17.1995 25.9678 18.1181 25.9206 19.0367 25.7317C20.026 25.5192 20.9445 25.1415 21.7925 24.6222C22.0044 24.4805 22.2164 24.3153 22.452 24.1736C22.7111 24.0084 22.9937 23.8668 23.2999 24.0556C23.4177 24.1264 23.5354 24.2445 23.6296 24.3625C24.3127 25.354 24.9957 26.3455 25.6788 27.337C26.2441 28.1632 26.8329 28.9895 27.3746 29.8393C27.6808 30.3115 27.5866 30.7364 27.1391 31.0669C26.6916 31.3974 26.197 31.7043 25.7023 31.9876C25.1135 32.3181 24.5011 32.6013 23.8887 32.8846C23.0644 33.2623 22.1929 33.522 21.3214 33.7345C19.6255 34.1594 17.9061 34.2538 16.1867 34.1594C15.1033 34.0886 14.0434 33.9233 12.9835 33.6401C11.8764 33.3332 10.793 32.9318 9.78018 32.4125C8.9087 31.964 8.06077 31.4446 7.28351 30.8544C6.60046 30.3351 5.94096 29.7685 5.32857 29.1547C4.59841 28.4229 3.93891 27.6439 3.37363 26.7704C2.99677 26.1802 2.61991 25.5901 2.29016 24.9763C1.81909 24.0792 1.44224 23.1113 1.1596 22.1198C0.900508 21.2936 0.71208 20.4673 0.617866 19.6175C0.594312 19.405 0.547205 19.169 0.523652 18.9565C0.500098 18.8621 0.523652 18.7913 0.523652 18.6732Z" fill="#E5261D"/>
<path d="M30.0125 18.6731H30.2009C32.9095 18.6731 35.5946 18.6731 38.3033 18.6731C38.4446 18.6731 38.4917 18.7203 38.5388 18.862C38.7272 19.9007 39.0805 20.8685 39.5987 21.7892C40.0698 22.5919 40.6351 23.3001 41.3417 23.9138C42.3309 24.7637 43.438 25.3539 44.7098 25.6844C45.6284 25.9204 46.5706 25.9913 47.5127 25.8968C48.8788 25.7552 50.1743 25.3539 51.3284 24.5984C51.5404 24.4568 51.7288 24.3152 51.9408 24.1971C52.0821 24.1263 52.1999 24.0319 52.3647 24.0083C52.718 23.9138 52.9536 24.0791 53.1891 24.4096C53.5424 24.929 53.8957 25.4247 54.249 25.9441C54.7436 26.6523 55.2383 27.3841 55.7329 28.0923C56.0862 28.6116 56.463 29.131 56.8163 29.6503C56.8634 29.7212 56.9341 29.792 56.9577 29.8864C57.1932 30.3113 57.099 30.7835 56.6986 31.0432C56.2275 31.3737 55.7329 31.7042 55.2383 31.9638C54.673 32.2707 54.0606 32.554 53.4717 32.8373C52.6945 33.1678 51.9172 33.4275 51.0928 33.6399C50.1743 33.876 49.2321 34.0649 48.29 34.0885C47.442 34.1121 46.5706 34.1593 45.7226 34.1121C44.6392 34.0649 43.5793 33.876 42.5194 33.5927C41.2239 33.2386 39.9991 32.7665 38.8215 32.1291C37.9029 31.6333 37.0314 31.0432 36.207 30.3586C35.4769 29.7448 34.7938 29.1074 34.1579 28.3756C33.4984 27.6201 32.9095 26.8175 32.3914 25.9677C31.8967 25.165 31.4963 24.3388 31.143 23.4653C30.7426 22.4738 30.4364 21.4351 30.248 20.3728C30.1538 19.8534 30.1067 19.3341 30.036 18.8147C30.0125 18.7911 30.0125 18.7439 30.0125 18.6731Z" fill="#E5261D"/>
<path d="M77.5436 42.0438C77.4729 42.2327 77.4023 42.3979 77.3552 42.5632C77.261 42.8229 77.1667 43.0589 77.0725 43.3186C76.9548 43.6019 76.8605 43.9088 76.7428 44.1921C76.6721 44.3809 76.6015 44.5698 76.5308 44.7586C76.413 45.0419 76.3188 45.3252 76.201 45.6085C76.1068 45.8918 75.9891 46.1515 75.8949 46.4347C75.7771 46.718 75.6829 47.0013 75.5651 47.2846C75.4944 47.4734 75.4238 47.6623 75.3531 47.8512C75.2354 48.158 75.1176 48.4413 75.0234 48.7482C74.9763 48.8427 74.9527 48.9371 74.9056 49.0315C74.8821 49.1023 74.8114 49.1495 74.7407 49.1968C74.7172 49.1968 74.6936 49.2204 74.6701 49.2204C74.2697 49.2204 73.8457 49.2204 73.4453 49.2204C73.3746 49.2204 73.304 49.1968 73.2804 49.1495C73.2333 49.1023 73.2098 49.0315 73.1862 48.9607C73.1155 48.7954 73.0449 48.6302 72.9742 48.4649C72.88 48.2289 72.7858 47.9928 72.7151 47.7567C72.6209 47.4734 72.5032 47.1902 72.4089 46.9305C72.3147 46.718 72.2441 46.482 72.1498 46.2695C72.0556 46.0334 71.985 45.821 71.8908 45.5849C71.8201 45.396 71.7494 45.2308 71.6788 45.0419C71.5846 44.8059 71.4903 44.5698 71.4197 44.3337C71.349 44.1449 71.2784 43.9796 71.2077 43.7908C71.1135 43.5547 71.0193 43.295 70.9251 43.0589C70.8544 42.8465 70.7602 42.6576 70.6895 42.4452C70.6424 42.3271 70.5953 42.2091 70.5482 42.0911C70.5482 42.0674 70.5247 42.0202 70.5247 41.9966C70.5247 41.9258 70.5718 41.8786 70.6189 41.855C70.6424 41.855 70.6895 41.855 70.7131 41.855C71.2313 41.855 71.7494 41.855 72.2441 41.855C72.4089 41.855 72.4796 41.9022 72.5267 42.0674C72.5974 42.3035 72.668 42.5396 72.7622 42.752C72.8093 42.8937 72.8564 43.0353 72.9036 43.177C72.9507 43.3422 73.0213 43.5311 73.0684 43.6963C73.1155 43.838 73.1626 43.9796 73.2098 44.1213C73.2569 44.2865 73.304 44.4281 73.3746 44.5934C73.4217 44.735 73.4688 44.8767 73.5159 45.0183C73.5866 45.2544 73.6808 45.4905 73.7515 45.7265C73.8221 45.9626 73.9164 46.2223 73.987 46.4583C73.987 46.482 74.0106 46.5056 74.0106 46.5528C74.0341 46.5292 74.0341 46.482 74.0577 46.4347C74.1283 46.2223 74.2226 45.9862 74.2932 45.7737C74.3639 45.5613 74.4345 45.3488 74.5052 45.16C74.5994 44.9003 74.6701 44.6406 74.7643 44.3809C74.8114 44.2157 74.8585 44.0504 74.9292 43.8852C74.9998 43.6727 75.0705 43.4603 75.1411 43.2478C75.2118 43.0353 75.2825 42.8229 75.3531 42.634C75.4238 42.4452 75.4944 42.2327 75.5651 42.0438C75.6122 41.9258 75.7064 41.855 75.8242 41.855C76.1304 41.855 76.413 41.855 76.7192 41.855C76.9312 41.855 77.1432 41.855 77.3787 41.855C77.4023 41.855 77.4258 41.855 77.4494 41.855C77.52 41.855 77.5672 41.9022 77.5907 41.973V42.0438H77.5436Z" fill="#E5261D"/>
<path d="M21.4628 41.8315C21.5099 41.8315 21.557 41.8315 21.6041 41.8552C21.8632 41.8788 22.0987 41.926 22.3578 41.9968C22.6169 42.0676 22.8524 42.162 23.088 42.3037C23.2057 42.3745 23.3 42.4453 23.4177 42.5161C23.4648 42.5398 23.4884 42.587 23.5119 42.6578C23.5355 42.705 23.5119 42.7758 23.4648 42.823C23.3706 42.9647 23.2764 43.1063 23.1586 43.248C23.0644 43.366 22.9938 43.5076 22.8995 43.6257C22.8289 43.7437 22.7582 43.8381 22.664 43.9562C22.6405 43.9798 22.6169 44.0034 22.5933 44.027C22.5462 44.0742 22.4756 44.0742 22.4049 44.027C22.3578 43.9798 22.2872 43.9562 22.24 43.909C22.0987 43.8145 21.9338 43.7437 21.769 43.7201C21.557 43.6729 21.3686 43.6493 21.1566 43.6729C20.9682 43.6965 20.8033 43.7201 20.6149 43.7909C20.3558 43.8854 20.1438 44.0506 19.9789 44.2631C19.814 44.4519 19.6963 44.6644 19.6256 44.9005C19.6021 45.0185 19.5785 45.1129 19.5314 45.231C19.5314 45.231 19.5314 45.231 19.5314 45.2546H17.7178C17.7178 45.1837 17.7413 45.1129 17.7413 45.0657C17.7649 44.8532 17.812 44.6408 17.8826 44.4283C17.9533 44.1922 18.0475 43.9798 18.1653 43.7673C18.2831 43.5549 18.4244 43.3424 18.5893 43.1535C18.7306 42.9883 18.8719 42.8466 19.0368 42.7286C19.2488 42.5398 19.5078 42.3981 19.7669 42.2801C19.9789 42.1857 20.2144 42.0912 20.45 42.044C20.6149 41.9968 20.8033 41.9732 20.9682 41.9496C21.0388 41.9496 21.1095 41.9496 21.1801 41.926C21.2037 41.926 21.2037 41.926 21.2272 41.926H21.4628V41.8315Z" fill="#E5261D"/>
<path d="M17.7178 45.8684C17.7413 45.8684 17.7413 45.8684 17.7649 45.8684C18.3537 45.8684 18.919 45.8684 19.5078 45.8684C19.5314 45.8684 19.5549 45.892 19.5549 45.9156C19.6021 46.1753 19.6963 46.4114 19.8376 46.6474C19.9789 46.8599 20.1673 47.0488 20.4029 47.1904C20.6149 47.332 20.8504 47.4029 21.1095 47.4265C21.3215 47.4501 21.5099 47.4265 21.6983 47.4029C21.9103 47.3556 22.0987 47.2848 22.2872 47.1668C22.3343 47.1432 22.3814 47.096 22.4285 47.0724C22.4756 47.0488 22.5462 47.0015 22.6169 47.0488C22.6405 47.0724 22.664 47.096 22.6876 47.1196C22.8289 47.332 22.9938 47.5445 23.1351 47.757C23.2528 47.9458 23.3942 48.1111 23.5119 48.2999C23.5826 48.3944 23.559 48.4888 23.4648 48.5596C23.3706 48.6304 23.2528 48.7013 23.1586 48.7485C23.0409 48.8193 22.8995 48.8901 22.7582 48.9373C22.5698 49.0081 22.4049 49.079 22.2165 49.1262C21.8632 49.2206 21.4863 49.2442 21.1095 49.2206C20.8739 49.197 20.6384 49.1734 20.4264 49.1026C20.1909 49.0317 19.9554 48.9609 19.7434 48.8429C19.5549 48.7485 19.3665 48.6304 19.2016 48.5124C19.0603 48.3944 18.919 48.2763 18.7777 48.1583C18.6128 47.993 18.4715 47.8278 18.3537 47.6389C18.2831 47.5209 18.1888 47.3793 18.1182 47.2612C18.024 47.0724 17.9298 46.8599 17.8591 46.6474C17.812 46.4586 17.7649 46.2933 17.7413 46.1045C17.7413 46.0573 17.7178 46.01 17.7178 45.9628C17.7178 45.9156 17.7178 45.892 17.7178 45.8684Z" fill="#E5261D"/>
<path d="M80.2523 49.15H84.4684V47.7808H81.6655V47.0725H83.9738V45.7978H81.6655V44.9951H84.4684V43.6259H80.2523V49.15ZM77.3552 49.15H78.7684V43.6259H77.3552V49.15ZM66.4971 47.0725H65.2958L65.9082 45.4437L66.4971 47.0725ZM65.2016 43.6495L62.964 49.1736H64.495L64.8012 48.3709H66.9681L67.2743 49.1736H68.8053L66.5913 43.6495H65.2016ZM58.2062 49.15H62.2339V47.7808H59.6194V43.6259H58.2062V49.15ZM50.0567 49.15H54.2728V47.7808H51.4699V47.0725H53.7782V45.7978H51.4699V44.9951H54.2728V43.6259H50.0567V49.15ZM46.0762 47.1198H47.4187V47.285C47.1596 47.6627 46.7357 47.9224 46.2411 47.9224C45.4167 47.9224 44.7572 47.2614 44.7572 46.4115C44.7572 45.5853 45.4167 44.9007 46.2411 44.9007C46.7121 44.9007 47.1361 45.1132 47.4187 45.4673L48.5729 44.6882C48.0547 44.0036 47.1832 43.5315 46.2411 43.5315C44.6394 43.5315 43.3204 44.8299 43.3204 46.3879C43.3204 47.9696 44.6394 49.2444 46.2411 49.2444C46.8063 49.2444 47.3716 49.0319 47.6307 48.6306V49.15H48.7377V45.9394H46.0997L46.0762 47.1198ZM38.4448 49.15V46.081L40.8944 49.15H42.0956V43.6259H40.6824V46.7184L38.2329 43.6259H37.0316V49.15H38.4448ZM33.6635 47.0725H32.4623L33.0746 45.4437L33.6635 47.0725ZM32.368 43.6495L30.1305 49.1736H31.6614L31.9676 48.3709H34.1346L34.4408 49.1736H35.9717L33.7577 43.6495H32.368ZM27.6573 43.6495V45.7978H25.4198V43.6495H24.0066V49.1736H25.4198V47.1198H27.6573V49.1736H29.0706V43.6495H27.6573ZM13.1719 47.0725H11.9707L12.5831 45.4437L13.1719 47.0725ZM11.8765 43.6495L9.63892 49.1736H11.1699L11.4761 48.3709H13.643L13.9492 49.1736H15.4802L13.2662 43.6495H11.8765Z" fill="#E5261D"/>
<path d="M7.56594 41.8315C7.61304 41.8315 7.66015 41.8315 7.70726 41.8315C7.96635 41.8551 8.20188 41.9024 8.46097 41.9732C8.72006 42.044 8.95559 42.1384 9.19113 42.2801C9.3089 42.3509 9.40311 42.4217 9.52088 42.4925C9.56798 42.5161 9.59154 42.5634 9.61509 42.6342C9.63864 42.6814 9.61509 42.7522 9.56798 42.7994C9.47377 42.9411 9.37956 43.0827 9.28534 43.2244C9.19113 43.3424 9.12047 43.484 9.02625 43.6021C8.95559 43.7201 8.88493 43.8145 8.79072 43.9326C8.76716 43.9562 8.74361 43.9798 8.72006 44.0034C8.67295 44.0506 8.60229 44.0506 8.53163 44.0034C8.48452 43.9562 8.41386 43.9326 8.36676 43.8854C8.22543 43.7909 8.06056 43.7201 7.89569 43.6965C7.6837 43.6493 7.49528 43.6257 7.28329 43.6493C7.09487 43.6729 6.92999 43.6965 6.74156 43.7673C6.48248 43.8617 6.27049 44.027 6.10562 44.2159C5.94074 44.4047 5.82298 44.6172 5.75232 44.8532C5.72876 44.9477 5.70521 45.0657 5.6581 45.1837C5.6581 45.1837 5.6581 45.1837 5.6581 45.2073H3.84448C3.84448 45.1365 3.86804 45.0893 3.86804 45.0185C3.89159 44.806 3.9387 44.5936 4.00936 44.3811C4.08002 44.145 4.17423 43.9326 4.292 43.7437C4.40977 43.5312 4.55109 43.3188 4.71596 43.1299C4.85728 42.9647 4.9986 42.823 5.16348 42.705C5.37546 42.5161 5.63455 42.3745 5.89364 42.2565C6.10562 42.162 6.34115 42.0676 6.57669 42.0204C6.74156 41.9732 6.90644 41.9496 7.09487 41.926C7.16553 41.926 7.23619 41.926 7.30685 41.9024C7.3304 41.9024 7.3304 41.9024 7.35395 41.9024H7.56594V41.8315Z" fill="#E5261D"/>
<path d="M3.86804 45.845C3.89159 45.845 3.89159 45.845 3.91514 45.845C4.48043 45.845 5.06927 45.845 5.63455 45.845C5.6581 45.845 5.68166 45.8686 5.68166 45.8922C5.72876 46.1519 5.82298 46.3879 5.9643 46.6004C6.10562 46.8129 6.29405 47.0017 6.52958 47.1434C6.74156 47.285 6.9771 47.3558 7.23619 47.3794C7.42462 47.403 7.6366 47.3794 7.82502 47.3558C8.03701 47.3086 8.22543 47.2378 8.41386 47.1197C8.46097 47.0961 8.50808 47.0489 8.55518 47.0253C8.60229 47.0017 8.67295 46.9545 8.74361 47.0017C8.76717 47.0253 8.79072 47.0489 8.81427 47.0725C8.95559 47.285 9.09691 47.4975 9.26179 47.7099C9.37956 47.8988 9.49732 48.064 9.61509 48.2529C9.68575 48.3473 9.6622 48.4417 9.56798 48.5126C9.47377 48.5834 9.37956 48.6542 9.26179 48.7014C9.14402 48.7722 9.0027 48.8431 8.88493 48.8903C8.6965 48.9611 8.53163 49.0319 8.3432 49.0791C7.9899 49.1736 7.61304 49.1972 7.23619 49.1736C7.00065 49.15 6.76512 49.1263 6.55314 49.0555C6.3176 48.9847 6.08207 48.9139 5.87008 48.7958C5.68166 48.7014 5.49323 48.5834 5.32835 48.4653C5.18703 48.3473 5.04571 48.2293 4.90439 48.1112C4.73952 47.946 4.59819 47.7807 4.48043 47.5919C4.40977 47.4739 4.31555 47.3322 4.24489 47.2142C4.15068 47.0253 4.05646 46.8129 3.9858 46.6004C3.9387 46.4351 3.89159 46.2463 3.86804 46.0574C3.86804 46.0102 3.84448 45.963 3.84448 45.9158C3.86804 45.8686 3.86804 45.8686 3.86804 45.845Z" fill="#E5261D"/>
<path d="M7.21289 48.8669V50.0001" stroke="#E5261D" stroke-width="2.958" stroke-miterlimit="10"/>
</svg>
