<svg width="16" height="19" viewBox="0 0 16 19" fill="none" xmlns="http://www.w3.org/2000/svg">
<path d="M8 0.00146484C6.0116 0.00376873 4.10531 0.780575 2.6993 2.16148C1.29328 3.54239 0.502354 5.41464 0.500008 7.36754C0.497626 8.96345 1.0284 10.5161 2.01092 11.7872C2.01092 11.7872 2.21546 12.0517 2.24887 12.0899L8 18.7515L13.7539 12.0865C13.7839 12.051 13.9891 11.7872 13.9891 11.7872L13.9898 11.7852C14.9718 10.5146 15.5023 8.96271 15.5 7.36754C15.4976 5.41464 14.7067 3.54239 13.3007 2.16148C11.8947 0.780575 9.9884 0.00376873 8 0.00146484ZM8 10.0461C7.4606 10.0461 6.93331 9.88901 6.48481 9.59469C6.03631 9.30036 5.68675 8.88203 5.48033 8.39258C5.27391 7.90314 5.2199 7.36456 5.32513 6.84497C5.43037 6.32538 5.69011 5.8481 6.07153 5.4735C6.45294 5.0989 6.9389 4.84379 7.46794 4.74043C7.99697 4.63708 8.54534 4.69012 9.04368 4.89286C9.54202 5.09559 9.96797 5.43891 10.2676 5.8794C10.5673 6.31989 10.7273 6.83777 10.7273 7.36754C10.7264 8.07767 10.4387 8.75846 9.92747 9.26059C9.41621 9.76273 8.72304 10.0452 8 10.0461Z" fill="#63AC43"/>
</svg>
