<svg width="32" height="33" viewBox="0 0 32 33" fill="none" xmlns="http://www.w3.org/2000/svg">
<g clip-path="url(#clip0_75_1051)">
<path d="M15.9999 0.641479C7.51669 0.641479 0.639893 7.51828 0.639893 16.0015C0.639893 24.4847 7.51669 31.3615 15.9999 31.3615C24.4831 31.3615 31.3599 24.4847 31.3599 16.0015C31.3599 7.51828 24.4831 0.641479 15.9999 0.641479ZM12.2399 22.3679H9.12949V12.3583H12.2399V22.3679ZM10.6655 11.1295C9.68309 11.1295 9.04789 10.4335 9.04789 9.57268C9.04789 8.69428 9.70229 8.01908 10.7055 8.01908C11.7087 8.01908 12.3231 8.69428 12.3423 9.57268C12.3423 10.4335 11.7087 11.1295 10.6655 11.1295ZM23.5999 22.3679H20.4895V16.8207C20.4895 15.5295 20.0383 14.6527 18.9135 14.6527C18.0543 14.6527 17.5439 15.2463 17.3183 15.8175C17.2351 16.0207 17.2143 16.3087 17.2143 16.5951V22.3663H14.1023V15.5503C14.1023 14.3007 14.0623 13.2559 14.0207 12.3567H16.7231L16.8655 13.7471H16.9279C17.3375 13.0943 18.3407 12.1311 20.0191 12.1311C22.0655 12.1311 23.5999 13.5023 23.5999 16.4495V22.3679Z" fill="#007BB8"/>
</g>
<defs>
<clipPath id="clip0_75_1051">
<rect width="32" height="32" fill="white" transform="translate(0 0.00146484)"/>
</clipPath>
</defs>
</svg>
