<svg width="32" height="33" viewBox="0 0 32 33" fill="none" xmlns="http://www.w3.org/2000/svg">
<g clip-path="url(#clip0_75_1053)">
<path d="M20.7999 16.0015C20.7999 17.2745 20.2942 18.4954 19.394 19.3956C18.4938 20.2958 17.2729 20.8015 15.9999 20.8015C14.7269 20.8015 13.506 20.2958 12.6058 19.3956C11.7056 18.4954 11.1999 17.2745 11.1999 16.0015C11.1999 15.7279 11.2287 15.4607 11.2783 15.2015H9.59989V21.5967C9.59989 22.0415 9.95989 22.4015 10.4047 22.4015H21.5967C21.8099 22.4011 22.0142 22.3161 22.1647 22.1652C22.3153 22.0143 22.3999 21.8098 22.3999 21.5967V15.2015H20.7215C20.7711 15.4607 20.7999 15.7279 20.7999 16.0015ZM15.9999 19.2015C16.4202 19.2014 16.8364 19.1185 17.2247 18.9575C17.613 18.7966 17.9658 18.5607 18.263 18.2634C18.5601 17.9661 18.7958 17.6132 18.9566 17.2248C19.1173 16.8365 19.2 16.4202 19.1999 15.9999C19.1998 15.5795 19.1169 15.1633 18.9559 14.775C18.795 14.3867 18.5591 14.034 18.2618 13.7368C17.9645 13.4397 17.6116 13.204 17.2232 13.0432C16.8349 12.8825 16.4186 12.7998 15.9983 12.7999C15.1494 12.8001 14.3353 13.1375 13.7352 13.7379C13.1351 14.3384 12.7981 15.1526 12.7983 16.0015C12.7985 16.8504 13.1359 17.6644 13.7364 18.2646C14.3368 18.8647 15.151 19.2017 15.9999 19.2015ZM19.8399 12.6415H21.7583C21.8857 12.6415 22.008 12.591 22.0983 12.501C22.1885 12.411 22.2395 12.2889 22.2399 12.1615V10.2431C22.2399 10.1154 22.1892 9.99285 22.0988 9.90254C22.0085 9.81222 21.886 9.76148 21.7583 9.76148H19.8399C19.7122 9.76148 19.5897 9.81222 19.4993 9.90254C19.409 9.99285 19.3583 10.1154 19.3583 10.2431V12.1615C19.3599 12.4255 19.5759 12.6415 19.8399 12.6415ZM15.9999 0.641479C11.9262 0.641479 8.01929 2.25976 5.13873 5.14032C2.25817 8.02088 0.639893 11.9278 0.639893 16.0015C0.639893 20.0752 2.25817 23.9821 5.13873 26.8626C8.01929 29.7432 11.9262 31.3615 15.9999 31.3615C18.017 31.3615 20.0144 30.9642 21.8779 30.1923C23.7415 29.4204 25.4347 28.2889 26.8611 26.8626C28.2874 25.4363 29.4188 23.7431 30.1907 21.8795C30.9626 20.0159 31.3599 18.0186 31.3599 16.0015C31.3599 13.9844 30.9626 11.987 30.1907 10.1235C29.4188 8.2599 28.2874 6.56663 26.8611 5.14032C25.4347 3.71401 23.7415 2.5826 21.8779 1.81069C20.0144 1.03878 18.017 0.641479 15.9999 0.641479ZM23.9999 22.2239C23.9999 23.2015 23.1999 24.0015 22.2223 24.0015H9.77749C8.79989 24.0015 7.99989 23.2015 7.99989 22.2239V9.77908C7.99989 8.80148 8.79989 8.00148 9.77749 8.00148H22.2223C23.1999 8.00148 23.9999 8.80148 23.9999 9.77908V22.2239Z" fill="url(#paint0_linear_75_1053)"/>
</g>
<defs>
<linearGradient id="paint0_linear_75_1053" x1="15.9999" y1="0.641479" x2="15.9999" y2="31.3615" gradientUnits="userSpaceOnUse">
<stop stop-color="#7820C0"/>
<stop offset="0.471138" stop-color="#C52369"/>
<stop offset="1" stop-color="#DA8440"/>
</linearGradient>
<clipPath id="clip0_75_1053">
<rect width="32" height="32" fill="white" transform="translate(0 0.00146484)"/>
</clipPath>
</defs>
</svg>
