<svg width="511" height="313" viewBox="0 0 511 313" fill="none" xmlns="http://www.w3.org/2000/svg">
<g clip-path="url(#clip0_75_346)">
<path d="M19.439 310.626C19.5586 308.38 -29.3918 241.016 27.611 178.821C53.3445 150.743 96.8704 165.952 89.9866 83.9387C84.0431 13.1205 186.735 -28.4901 250.535 34.7366C291.764 75.5878 333.502 21.0902 398.919 52.013C464.335 82.9359 421.255 166.972 448.108 174.892C500.977 190.491 527.235 259.137 485.085 309.864L19.439 310.626Z" fill="#F0F0EB"/>
<path d="M252 128.626H189V308.626H252V128.626Z" fill="#FFDEB7"/>
<path d="M349 69.626H286V308.626H349V69.626Z" fill="#FFDEB7"/>
<path d="M442.725 10.7881H374.447V308.963H442.725V10.7881Z" fill="#FFDEB7"/>
<path d="M390.186 130.134L511.037 49.0161L470.655 180.423L452.938 125.906L390.186 130.134Z" fill="#F77D48"/>
<path d="M397.815 245.391C396.667 240.678 396.944 235.73 398.611 231.173C400.278 226.617 403.26 222.657 407.18 219.793C411.101 216.93 415.783 215.292 420.636 215.086C425.488 214.881 430.293 216.118 434.441 218.64C438.59 221.162 441.897 224.856 443.944 229.255C445.991 233.655 446.685 238.562 445.94 243.355C445.195 248.149 443.044 252.614 439.758 256.187C436.472 259.759 432.2 262.278 427.481 263.425C421.152 264.963 414.472 263.927 408.909 260.545C403.345 257.163 399.355 251.712 397.815 245.391Z" fill="#FFB93E"/>
<path d="M427.026 261.589C421.997 262.812 416.699 262.255 412.035 260.013C407.371 257.771 403.629 253.983 401.448 249.295C399.266 244.607 398.78 239.308 400.071 234.301C401.363 229.295 404.352 224.89 408.53 221.838C412.708 218.787 417.816 217.276 422.984 217.565C428.152 217.853 433.06 219.922 436.871 223.42C440.683 226.918 443.163 231.627 443.888 236.746C444.613 241.865 443.538 247.077 440.848 251.494C439.326 254.006 437.321 256.191 434.949 257.924C432.577 259.657 429.884 260.903 427.026 261.589ZM416.766 219.455C412.723 220.438 409.063 222.596 406.248 225.657C403.433 228.718 401.59 232.544 400.952 236.651C400.314 240.758 400.91 244.961 402.663 248.73C404.417 252.499 407.25 255.664 410.805 257.825C414.359 259.985 418.475 261.045 422.632 260.869C426.789 260.693 430.801 259.29 434.16 256.837C437.518 254.384 440.074 250.991 441.502 247.087C442.93 243.184 443.168 238.945 442.184 234.906C440.859 229.493 437.438 224.826 432.671 221.929C427.905 219.032 422.183 218.142 416.76 219.455H416.766Z" fill="#FFA412"/>
<path d="M426.264 245.45C426.219 245.016 426.098 244.593 425.906 244.2C425.715 243.839 425.444 243.526 425.115 243.284C424.718 242.996 424.281 242.766 423.819 242.601C423.206 242.382 422.578 242.208 421.94 242.08C420.771 241.828 419.615 241.516 418.478 241.146C417.51 240.838 416.589 240.4 415.74 239.843C414.979 239.338 414.331 238.678 413.841 237.908C412.873 236.222 412.606 234.224 413.099 232.344C413.345 231.507 413.764 230.731 414.33 230.066C414.931 229.365 415.653 228.778 416.461 228.333C417.378 227.825 418.366 227.461 419.393 227.253L418.944 223.572L421.911 223.212L422.365 226.945C423.384 226.944 424.396 227.11 425.361 227.437C426.252 227.735 427.075 228.209 427.779 228.83C428.484 229.451 429.057 230.207 429.465 231.053C429.931 232.011 430.228 233.042 430.344 234.101L424.986 234.748C424.818 233.382 424.387 232.389 423.693 231.771C423.342 231.469 422.929 231.247 422.482 231.122C422.036 230.996 421.568 230.97 421.111 231.044C420.62 231.093 420.142 231.231 419.701 231.451C419.344 231.635 419.032 231.894 418.786 232.21C418.559 232.513 418.402 232.863 418.329 233.235C418.248 233.633 418.235 234.041 418.288 234.444C418.329 234.837 418.439 235.219 418.613 235.574C418.794 235.921 419.053 236.222 419.369 236.452C419.769 236.74 420.209 236.969 420.674 237.132C421.315 237.366 421.97 237.561 422.635 237.717C423.887 238.01 425.036 238.347 426.073 238.698C427.038 239.012 427.956 239.456 428.802 240.016C429.563 240.527 430.211 241.188 430.705 241.96C431.681 243.658 431.946 245.672 431.441 247.564C431.192 248.398 430.77 249.169 430.201 249.828C429.592 250.52 428.861 251.093 428.043 251.52C427.12 252.007 426.134 252.362 425.112 252.574L425.525 256L422.576 256.357L422.163 252.949C421.135 252.971 420.108 252.867 419.106 252.639C418.13 252.424 417.204 252.026 416.376 251.467C415.529 250.882 414.82 250.118 414.298 249.23C413.69 248.167 413.315 246.986 413.199 245.766L418.56 245.119C418.621 245.817 418.82 246.496 419.147 247.116C419.406 247.593 419.775 248.003 420.222 248.311C420.64 248.591 421.116 248.772 421.615 248.841C422.117 248.914 422.627 248.92 423.13 248.858C423.65 248.806 424.158 248.668 424.634 248.451C425.025 248.272 425.375 248.015 425.663 247.696C425.923 247.404 426.112 247.056 426.217 246.68C426.313 246.277 426.329 245.859 426.264 245.45Z" fill="#FFA412"/>
<path d="M339.652 31.5771C339.752 35.2986 339.845 38.8562 339.687 42.118C339.168 52.7086 335.976 60.2717 321.606 60.6523C307.237 61.033 303.649 53.6485 302.552 43.1018C302.221 39.8458 302.127 36.2912 302.028 32.5609C301.817 24.6026 304.502 16.4393 308.163 10.2758C311.766 4.21477 316.312 0.089191 319.982 -0.00743365C324.16 -0.118698 328.923 3.76093 332.716 9.62576C336.589 15.6018 339.441 23.6188 339.652 31.5771Z" fill="#739AF0"/>
<path d="M302.567 43.1074L292.419 53.0188L292.26 72.1768L309.843 56.1371L302.567 43.1074Z" fill="#163560"/>
<path d="M339.57 42.1294L350.228 51.4873L351.407 70.6102L332.995 55.5222L339.57 42.1294Z" fill="#163560"/>
<path d="M339.687 42.1235C339.168 52.7142 335.976 60.2773 321.606 60.6579C307.237 61.0385 303.649 53.6541 302.552 43.1073L339.687 42.1235Z" fill="#163560"/>
<path d="M322.275 85.7836C322.275 85.7836 311.526 78.0595 315.333 69.5506C319.22 60.8691 328.774 64.1894 328.161 71.2138C327.548 78.2381 322.164 81.5936 322.275 85.7836Z" fill="#F77D48"/>
<path d="M311.124 26.4267C311.077 24.646 311.56 22.8914 312.511 21.3847C313.462 19.8781 314.84 18.6871 316.469 17.9623C318.098 17.2375 319.906 17.0116 321.663 17.313C323.421 17.6144 325.05 18.4296 326.343 19.6556C327.637 20.8816 328.538 22.4632 328.932 24.2006C329.326 25.9379 329.195 27.7529 328.556 29.416C327.917 31.0791 326.799 32.5156 325.343 33.544C323.887 34.5723 322.158 35.1462 320.375 35.1932C319.191 35.2243 318.013 35.0223 316.908 34.5986C315.802 34.1749 314.791 33.5379 313.932 32.7238C313.073 31.9098 312.382 30.9347 311.901 29.8542C311.419 28.7737 311.155 27.6091 311.124 26.4267Z" fill="#163560"/>
<path d="M329.521 28.2685C328.99 30.653 327.569 32.7454 325.546 34.1191C323.524 35.4928 321.054 36.0444 318.638 35.6615C316.223 35.2785 314.045 33.9898 312.548 32.0581C311.051 30.1264 310.348 27.6972 310.582 25.2657C310.817 22.8342 311.971 20.5835 313.809 18.9724C315.647 17.3614 318.031 16.5113 320.475 16.5956C322.92 16.6798 325.239 17.692 326.962 19.4257C328.685 21.1595 329.681 23.4843 329.747 25.9261C329.768 26.7132 329.692 27.4999 329.521 28.2685ZM311.933 24.3713C311.554 26.08 311.718 27.8643 312.403 29.4752C313.088 31.0861 314.259 32.4434 315.753 33.3577C317.247 34.272 318.989 34.6977 320.737 34.5755C322.485 34.4533 324.151 33.7893 325.503 32.676C326.855 31.5627 327.825 30.0557 328.279 28.3652C328.732 26.6747 328.646 24.885 328.033 23.2457C327.419 21.6064 326.308 20.1993 324.856 19.2206C323.403 18.2419 321.681 17.7405 319.93 17.7862C318.051 17.8317 316.242 18.5052 314.793 19.6991C313.343 20.893 312.336 22.5382 311.933 24.3713Z" fill="#BDD1F9"/>
<path d="M332.746 9.63748L308.192 10.2875C311.795 4.22649 316.342 0.10091 320.012 0.0042851C324.174 -0.10698 328.935 3.77265 332.746 9.63748Z" fill="#F77D48"/>
<path d="M146.724 304.41V308.281C146.724 308.583 146.621 308.877 146.431 309.112C146.213 309.375 145.923 309.568 145.596 309.669C145.491 309.707 145.382 309.734 145.27 309.748C145.167 309.765 145.062 309.772 144.957 309.771H71.4497C70.5703 309.771 69.8199 309.218 69.6909 308.503C69.6909 308.454 69.6909 308.407 69.6909 308.357C69.6909 308.307 69.6909 308.304 69.6909 308.281V304.41C69.6909 304.384 69.6909 304.357 69.6909 304.334C69.6909 304.311 69.6909 304.234 69.6909 304.188C69.8228 303.47 70.5703 302.92 71.4497 302.92H144.945C145.05 302.919 145.155 302.926 145.259 302.94C145.369 302.957 145.478 302.984 145.584 303.019C145.91 303.122 146.2 303.315 146.42 303.576C146.613 303.811 146.721 304.105 146.724 304.41Z" fill="#FFB93E"/>
<path d="M110.633 309.777H71.2591C70.9193 309.782 70.587 309.678 70.3117 309.479C70.0364 309.28 69.833 308.997 69.7318 308.673C69.7142 308.618 69.6996 308.565 69.6878 308.509C69.6761 308.454 69.6878 308.413 69.6878 308.363C69.6878 308.313 69.6878 308.31 69.6878 308.287V304.416C69.6878 304.39 69.6878 304.363 69.6878 304.34C69.6878 304.316 69.6878 304.24 69.6878 304.193C69.6994 304.138 69.7141 304.083 69.7318 304.029C69.8326 303.705 70.0359 303.422 70.3113 303.223C70.5866 303.024 70.9192 302.92 71.2591 302.926H105.796C106.532 305.716 108.249 308.148 110.633 309.777Z" fill="#FFA412"/>
<path d="M137.781 302.92H136.945V309.774H137.781V302.92Z" fill="#FFA412"/>
<path d="M134.952 302.92H134.116V309.774H134.952V302.92Z" fill="#FFA412"/>
<path d="M131.563 302.92H130.728V309.774H131.563V302.92Z" fill="#FFA412"/>
<path d="M126.366 302.92H125.53V309.774H126.366V302.92Z" fill="#FFA412"/>
<path d="M120.87 302.92H120.034V309.774H120.87V302.92Z" fill="#FFA412"/>
<path d="M112.445 302.92H111.609V309.774H112.445V302.92Z" fill="#FFA412"/>
<path d="M104.554 302.92H103.718V309.774H104.554V302.92Z" fill="#FFA412"/>
<path d="M97.5095 302.92H96.6741V309.774H97.5095V302.92Z" fill="#FFA412"/>
<path d="M140.472 302.92H139.636V309.774H140.472V302.92Z" fill="#FFA412"/>
<path d="M142.248 302.92H141.413V309.774H142.248V302.92Z" fill="#FFA412"/>
<path d="M143.966 302.92H143.13V309.774H143.966V302.92Z" fill="#FFA412"/>
<path d="M145.259 302.943V309.748C145.155 309.763 145.05 309.771 144.945 309.771H144.423V302.917H144.945C145.05 302.917 145.155 302.925 145.259 302.943Z" fill="#FFA412"/>
<path d="M146.419 303.576V309.112C146.201 309.375 145.911 309.57 145.584 309.672V303.019C145.911 303.12 146.201 303.313 146.419 303.576Z" fill="#FFA412"/>
<path d="M138.865 297.556V301.426C138.864 301.729 138.76 302.023 138.572 302.261C138.519 302.323 138.462 302.382 138.402 302.437C138.21 302.61 137.981 302.74 137.734 302.817C137.628 302.852 137.519 302.878 137.408 302.893C137.305 302.91 137.202 302.918 137.098 302.92H63.5847C62.7053 302.92 61.9578 302.363 61.8258 301.649C61.8258 301.599 61.8258 301.552 61.8258 301.502C61.8243 301.477 61.8243 301.452 61.8258 301.426V297.556C61.8244 297.53 61.8244 297.505 61.8258 297.479C61.8258 297.43 61.8258 297.383 61.8258 297.333C61.9578 296.619 62.7053 296.065 63.5847 296.065H137.083C137.129 296.062 137.175 296.062 137.221 296.065H137.282H137.35H137.394C137.504 296.081 137.613 296.106 137.719 296.141C137.784 296.162 137.842 296.185 137.901 296.209L138.015 296.264L138.08 296.302L138.141 296.337C138.217 296.383 138.289 296.436 138.355 296.496C138.379 296.516 138.396 296.537 138.42 296.554L138.455 296.589C138.455 296.589 138.455 296.589 138.472 296.61L138.49 296.624C138.513 296.648 138.534 296.674 138.557 296.701C138.756 296.941 138.865 297.244 138.865 297.556Z" fill="#FFB93E"/>
<path d="M102.774 302.92H63.4C63.06 302.924 62.7278 302.818 62.453 302.618C62.1782 302.418 61.9757 302.134 61.8757 301.81C61.8579 301.757 61.8432 301.703 61.8317 301.649C61.8317 301.599 61.8317 301.552 61.8317 301.502C61.8302 301.477 61.8302 301.452 61.8317 301.426V297.555C61.8302 297.53 61.8302 297.505 61.8317 297.479C61.8317 297.43 61.8317 297.383 61.8317 297.333C61.8432 297.278 61.8579 297.225 61.8757 297.172C61.9758 296.848 62.1784 296.564 62.4533 296.365C62.7281 296.165 63.0603 296.06 63.4 296.065H97.9403C97.9403 296.121 97.9696 296.176 97.9872 296.232C98.7451 298.954 100.44 301.323 102.774 302.92Z" fill="#FFA412"/>
<path d="M129.922 296.065H129.086V302.92H129.922V296.065Z" fill="#FFA412"/>
<path d="M127.096 296.065H126.26V302.92H127.096V296.065Z" fill="#FFA412"/>
<path d="M123.704 296.065H122.869V302.92H123.704V296.065Z" fill="#FFA412"/>
<path d="M118.507 296.065H117.671V302.92H118.507V296.065Z" fill="#FFA412"/>
<path d="M113.01 296.065H112.175V302.92H113.01V296.065Z" fill="#FFA412"/>
<path d="M104.586 296.065H103.75V302.92H104.586V296.065Z" fill="#FFA412"/>
<path d="M96.6975 296.065H95.8621V302.92H96.6975V296.065Z" fill="#FFA412"/>
<path d="M89.6533 296.065H88.8179V302.92H89.6533V296.065Z" fill="#FFA412"/>
<path d="M132.613 296.065H131.777V302.92H132.613V296.065Z" fill="#FFA412"/>
<path d="M134.392 296.065H133.557V302.92H134.392V296.065Z" fill="#FFA412"/>
<path d="M136.11 296.065H135.274V302.92H136.11V296.065Z" fill="#FFA412"/>
<path d="M137.399 296.089V302.893C137.296 302.909 137.191 302.917 137.086 302.917H136.576V296.065H137.097C137.199 296.066 137.299 296.074 137.399 296.089Z" fill="#FFA412"/>
<path d="M138.56 296.724V302.258C138.342 302.522 138.052 302.716 137.725 302.817V296.165C138.052 296.266 138.342 296.46 138.56 296.724Z" fill="#FFA412"/>
<path d="M142.661 290.871V294.742C142.662 295.045 142.559 295.34 142.368 295.576C142.15 295.837 141.861 296.03 141.536 296.132C141.429 296.167 141.321 296.193 141.21 296.211C141.106 296.224 141.002 296.231 140.897 296.232H67.3955C67.1134 296.232 66.8342 296.176 66.5747 296.065C66.3431 295.972 66.1371 295.826 65.9739 295.637C65.8107 295.449 65.6951 295.224 65.6367 294.982C65.6367 294.949 65.6367 294.917 65.6367 294.885C65.6351 294.863 65.6351 294.84 65.6367 294.818C65.6352 294.792 65.6352 294.767 65.6367 294.742V290.871C65.6353 290.845 65.6353 290.82 65.6367 290.795C65.6397 290.746 65.6455 290.699 65.6543 290.651C65.7833 289.934 66.5337 289.38 67.4131 289.38H140.885C140.99 289.381 141.095 289.389 141.199 289.404C141.309 289.418 141.418 289.444 141.524 289.48C141.849 289.583 142.138 289.777 142.356 290.039C142.552 290.273 142.66 290.567 142.661 290.871Z" fill="#FFB93E"/>
<path d="M106.573 296.232H67.1991C66.9453 296.232 66.6948 296.175 66.4663 296.065C66.2519 295.962 66.0648 295.811 65.9197 295.623C65.7746 295.435 65.6756 295.215 65.6308 294.982C65.6308 294.95 65.6308 294.917 65.6308 294.885C65.6292 294.863 65.6292 294.84 65.6308 294.818C65.6293 294.793 65.6293 294.767 65.6308 294.742V290.871C65.6294 290.846 65.6294 290.82 65.6308 290.795C65.6338 290.747 65.6397 290.699 65.6484 290.651C65.658 290.597 65.6717 290.543 65.6895 290.49C65.7892 290.165 65.9921 289.881 66.2675 289.681C66.543 289.481 66.8761 289.375 67.2167 289.381H101.754C102.466 292.073 104.091 294.435 106.35 296.065C106.409 296.121 106.491 296.179 106.573 296.232Z" fill="#FFA412"/>
<path d="M133.721 289.38H132.885V296.235H133.721V289.38Z" fill="#FFA412"/>
<path d="M130.892 289.38H130.057V296.235H130.892V289.38Z" fill="#FFA412"/>
<path d="M127.5 289.38H126.665V296.235H127.5V289.38Z" fill="#FFA412"/>
<path d="M122.303 289.38H121.468V296.235H122.303V289.38Z" fill="#FFA412"/>
<path d="M116.807 289.38H115.971V296.235H116.807V289.38Z" fill="#FFA412"/>
<path d="M108.382 289.38H107.546V296.235H108.382V289.38Z" fill="#FFA412"/>
<path d="M100.494 289.38H99.6582V296.235H100.494V289.38Z" fill="#FFA412"/>
<path d="M93.4497 289.38H92.6143V296.235H93.4497V289.38Z" fill="#FFA412"/>
<path d="M136.412 289.38H135.576V296.235H136.412V289.38Z" fill="#FFA412"/>
<path d="M138.188 289.38H137.353V296.235H138.188V289.38Z" fill="#FFA412"/>
<path d="M139.906 289.38H139.07V296.235H139.906V289.38Z" fill="#FFA412"/>
<path d="M141.199 289.404V296.209C141.095 296.225 140.99 296.233 140.885 296.232H140.363V289.38H140.885C140.99 289.381 141.095 289.389 141.199 289.404Z" fill="#FFA412"/>
<path d="M142.359 290.039V295.576C142.139 295.837 141.849 296.029 141.524 296.132V289.48C141.85 289.583 142.14 289.777 142.359 290.039Z" fill="#FFA412"/>
<path d="M144.423 284.011V287.879C144.425 288.182 144.321 288.477 144.13 288.713L144.051 288.804C143.905 288.957 143.732 289.082 143.541 289.173C143.462 289.211 143.381 289.244 143.297 289.272C143.19 289.307 143.081 289.332 142.969 289.348L142.817 289.366H142.656H69.1544C68.2749 289.366 67.5245 288.813 67.3955 288.095C67.3868 288.048 67.3809 288 67.3779 287.952V283.926C67.4248 283.2 68.0932 282.608 68.9433 282.523C69.0137 282.523 69.084 282.523 69.1544 282.523H142.644C142.697 282.52 142.751 282.52 142.805 282.523C142.856 282.526 142.907 282.532 142.957 282.541C143.069 282.555 143.179 282.581 143.286 282.617C143.611 282.719 143.9 282.912 144.118 283.173C144.315 283.408 144.422 283.704 144.423 284.011Z" fill="#FFB93E"/>
<path d="M108.335 289.38H68.9579C68.6179 289.385 68.2855 289.28 68.0103 289.08C67.7351 288.881 67.5318 288.598 67.4307 288.274C67.4125 288.22 67.3988 288.165 67.3896 288.11C67.3809 288.062 67.375 288.014 67.3721 287.966V283.94C67.4036 283.58 67.5608 283.242 67.8164 282.985C68.072 282.729 68.4096 282.571 68.7703 282.538C68.8319 282.538 68.8934 282.538 68.9579 282.538H103.498C104.237 285.324 105.953 287.753 108.335 289.38Z" fill="#FFA412"/>
<path d="M135.479 282.526H134.644V289.381H135.479V282.526Z" fill="#FFA412"/>
<path d="M132.654 282.526H131.818V289.381H132.654V282.526Z" fill="#FFA412"/>
<path d="M129.262 282.526H128.427V289.381H129.262V282.526Z" fill="#FFA412"/>
<path d="M124.065 282.526H123.229V289.381H124.065V282.526Z" fill="#FFA412"/>
<path d="M118.568 282.526H117.733V289.381H118.568V282.526Z" fill="#FFA412"/>
<path d="M110.144 282.526H109.308V289.381H110.144V282.526Z" fill="#FFA412"/>
<path d="M102.255 282.526H101.42V289.381H102.255V282.526Z" fill="#FFA412"/>
<path d="M95.2114 282.526H94.376V289.381H95.2114V282.526Z" fill="#FFA412"/>
<path d="M138.17 282.526H137.335V289.381H138.17V282.526Z" fill="#FFA412"/>
<path d="M139.95 282.526H139.114V289.381H139.95V282.526Z" fill="#FFA412"/>
<path d="M141.667 282.526H140.832V289.381H141.667V282.526Z" fill="#FFA412"/>
<path d="M142.958 282.547V289.354C142.855 289.37 142.751 289.377 142.647 289.378H142.122V282.523H142.647C142.751 282.523 142.855 282.531 142.958 282.547Z" fill="#FFA412"/>
<path d="M144.118 283.185V288.722C143.9 288.984 143.609 289.178 143.283 289.278V282.625C143.609 282.728 143.899 282.922 144.118 283.185Z" fill="#FFA412"/>
<path d="M139.017 277.176V281.044C139.02 281.347 138.916 281.641 138.724 281.876C138.507 282.141 138.216 282.336 137.889 282.438C137.783 282.472 137.674 282.496 137.564 282.511C137.529 282.514 137.495 282.514 137.461 282.511H137.405H63.7458C62.799 282.511 62.0192 281.882 61.9694 281.097C61.9679 281.071 61.9679 281.044 61.9694 281.018V277.15C61.9679 277.124 61.9679 277.097 61.9694 277.071C61.968 277.051 61.968 277.03 61.9694 277.01C62.0285 276.681 62.1887 276.378 62.4277 276.144C62.6667 275.91 62.9727 275.756 63.3032 275.704H63.3559C63.4825 275.679 63.611 275.666 63.74 275.666H137.235H137.394H137.461C137.488 275.663 137.516 275.663 137.543 275.666C137.653 275.681 137.762 275.705 137.868 275.739C138.196 275.841 138.486 276.036 138.704 276.301C138.913 276.544 139.025 276.856 139.017 277.176Z" fill="#FFB93E"/>
<path d="M102.929 282.546H63.5553C63.1605 282.556 62.7768 282.415 62.4822 282.153C62.1877 281.89 62.0043 281.525 61.9694 281.132C61.9679 281.106 61.9679 281.079 61.9694 281.053V277.185C61.9679 277.159 61.9679 277.133 61.9694 277.106C61.968 277.086 61.968 277.065 61.9694 277.045C62.0094 276.724 62.15 276.424 62.3712 276.188C62.5923 275.951 62.8827 275.791 63.2006 275.73C63.2229 275.727 63.2456 275.727 63.268 275.73C63.3646 275.712 63.4628 275.703 63.5611 275.704H98.0985C98.0998 275.72 98.0998 275.737 98.0985 275.753C98.8385 278.517 100.542 280.926 102.903 282.546H102.929Z" fill="#FFA412"/>
<path d="M130.077 275.686H129.242V282.541H130.077V275.686Z" fill="#FFA412"/>
<path d="M127.248 275.686H126.413V282.541H127.248V275.686Z" fill="#FFA412"/>
<path d="M123.86 275.686H123.024V282.541H123.86V275.686Z" fill="#FFA412"/>
<path d="M118.662 275.686H117.827V282.541H118.662V275.686Z" fill="#FFA412"/>
<path d="M113.166 275.686H112.331V282.541H113.166V275.686Z" fill="#FFA412"/>
<path d="M104.738 275.686H103.903V282.541H104.738V275.686Z" fill="#FFA412"/>
<path d="M96.8498 275.686H96.0144V282.541H96.8498V275.686Z" fill="#FFA412"/>
<path d="M89.8056 275.686H88.9702V282.541H89.8056V275.686Z" fill="#FFA412"/>
<path d="M132.768 275.686H131.933V282.541H132.768V275.686Z" fill="#FFA412"/>
<path d="M134.547 275.686H133.712V282.541H134.547V275.686Z" fill="#FFA412"/>
<path d="M136.262 275.686H135.427V282.541H136.262V275.686Z" fill="#FFA412"/>
<path d="M137.555 275.707V282.514C137.451 282.53 137.346 282.538 137.241 282.538H136.719V275.683H137.241C137.346 275.684 137.451 275.691 137.555 275.707Z" fill="#FFA412"/>
<path d="M138.716 276.342V281.879C138.497 282.141 138.207 282.335 137.88 282.435V275.786C138.207 275.886 138.497 276.079 138.716 276.342Z" fill="#FFA412"/>
<path d="M138.865 270.372V274.24C138.864 274.543 138.761 274.837 138.572 275.074C138.518 275.136 138.462 275.196 138.402 275.253C138.209 275.425 137.981 275.555 137.734 275.633C137.651 275.659 137.567 275.681 137.482 275.698H137.414C137.311 275.713 137.207 275.721 137.103 275.721H63.5846C63.5085 275.726 63.4321 275.726 63.356 275.721H63.2681C62.9259 275.686 62.6031 275.546 62.3442 275.32C62.0853 275.094 61.9031 274.793 61.8229 274.459C61.8229 274.415 61.8229 274.374 61.8229 274.33C61.8214 274.304 61.8214 274.278 61.8229 274.251V270.383C61.8214 270.357 61.8214 270.331 61.8229 270.304C61.8229 270.258 61.8229 270.211 61.8229 270.161C61.9548 269.446 62.7023 268.89 63.5817 268.89H137.08H137.218H137.279H137.347H137.391C137.501 268.904 137.61 268.93 137.716 268.966C137.781 268.987 137.839 269.01 137.898 269.034C138.119 269.13 138.318 269.271 138.484 269.446L138.551 269.523C138.751 269.761 138.862 270.061 138.865 270.372Z" fill="#FFB93E"/>
<path d="M102.774 275.733H63.3091C63.2739 275.733 63.2387 275.733 63.2065 275.733C62.8693 275.699 62.5524 275.557 62.3037 275.327C62.0551 275.097 61.8883 274.793 61.8287 274.459C61.8287 274.415 61.8287 274.374 61.8287 274.331C61.8273 274.304 61.8273 274.278 61.8287 274.251V270.384C61.8273 270.357 61.8273 270.331 61.8287 270.304C61.8287 270.258 61.8287 270.211 61.8287 270.161C61.8287 270.111 61.8551 270.053 61.8727 269.997C61.9732 269.673 62.176 269.39 62.4507 269.191C62.7254 268.991 63.0574 268.886 63.397 268.89H97.9403C97.9403 268.949 97.9696 269.004 97.9872 269.06C98.7381 271.753 100.406 274.099 102.704 275.695C102.727 275.701 102.754 275.715 102.774 275.733Z" fill="#FFA412"/>
<path d="M129.922 268.881H129.086V275.736H129.922V268.881Z" fill="#FFA412"/>
<path d="M127.096 268.881H126.26V275.736H127.096V268.881Z" fill="#FFA412"/>
<path d="M123.704 268.881H122.869V275.736H123.704V268.881Z" fill="#FFA412"/>
<path d="M118.507 268.881H117.671V275.736H118.507V268.881Z" fill="#FFA412"/>
<path d="M113.01 268.881H112.175V275.736H113.01V268.881Z" fill="#FFA412"/>
<path d="M104.586 268.881H103.75V275.736H104.586V268.881Z" fill="#FFA412"/>
<path d="M96.6975 268.881H95.8621V275.736H96.6975V268.881Z" fill="#FFA412"/>
<path d="M89.6533 268.881H88.8179V275.736H89.6533V268.881Z" fill="#FFA412"/>
<path d="M132.613 268.881H131.777V275.736H132.613V268.881Z" fill="#FFA412"/>
<path d="M134.392 268.881H133.557V275.736H134.392V268.881Z" fill="#FFA412"/>
<path d="M136.11 268.881H135.274V275.736H136.11V268.881Z" fill="#FFA412"/>
<path d="M137.399 268.905V275.71C137.296 275.725 137.191 275.733 137.086 275.733H136.576V268.878H137.097C137.199 268.879 137.3 268.888 137.399 268.905Z" fill="#FFA412"/>
<path d="M138.56 269.537V275.074C138.341 275.337 138.051 275.531 137.725 275.633V268.981C138.052 269.081 138.342 269.275 138.56 269.537Z" fill="#FFA412"/>
<path d="M142.661 263.687V267.555C142.663 267.859 142.56 268.154 142.368 268.39C142.151 268.653 141.862 268.847 141.536 268.949C141.429 268.982 141.321 269.007 141.21 269.025C141.106 269.04 141.002 269.048 140.897 269.048H67.3955C67.1131 269.049 66.8336 268.991 66.5747 268.879C66.3429 268.786 66.1366 268.64 65.9734 268.451C65.8101 268.263 65.6947 268.038 65.6367 267.795C65.6351 267.764 65.6351 267.733 65.6367 267.701C65.6353 267.679 65.6353 267.657 65.6367 267.634C65.6352 267.608 65.6352 267.581 65.6367 267.555V263.687C65.6352 263.661 65.6352 263.634 65.6367 263.608C65.6397 263.56 65.6456 263.512 65.6543 263.465C65.7833 262.75 66.5337 262.194 67.4131 262.194H140.885C140.99 262.194 141.095 262.203 141.199 262.22C141.309 262.235 141.418 262.26 141.524 262.293C141.85 262.396 142.14 262.591 142.357 262.856C142.552 263.089 142.66 263.383 142.661 263.687Z" fill="#FFB93E"/>
<path d="M106.573 269.049H67.1991C66.945 269.049 66.6941 268.991 66.4663 268.879C66.2517 268.776 66.0643 268.625 65.9191 268.437C65.774 268.248 65.6752 268.029 65.6308 267.795C65.6292 267.764 65.6292 267.733 65.6308 267.702C65.6294 267.679 65.6294 267.657 65.6308 267.634C65.6293 267.608 65.6293 267.582 65.6308 267.555V263.687C65.6294 263.661 65.6294 263.635 65.6308 263.608C65.6338 263.56 65.6397 263.512 65.6485 263.465C65.6573 263.411 65.671 263.358 65.6895 263.307C65.7887 262.981 65.9914 262.696 66.2669 262.495C66.5424 262.295 66.8758 262.189 67.2167 262.194H101.754C102.465 264.887 104.09 267.249 106.351 268.879C106.409 268.937 106.491 268.993 106.573 269.049Z" fill="#FFA412"/>
<path d="M133.721 262.197H132.885V269.051H133.721V262.197Z" fill="#FFA412"/>
<path d="M130.892 262.197H130.057V269.051H130.892V262.197Z" fill="#FFA412"/>
<path d="M127.5 262.197H126.665V269.051H127.5V262.197Z" fill="#FFA412"/>
<path d="M122.303 262.197H121.468V269.051H122.303V262.197Z" fill="#FFA412"/>
<path d="M116.807 262.197H115.971V269.051H116.807V262.197Z" fill="#FFA412"/>
<path d="M108.382 262.197H107.546V269.051H108.382V262.197Z" fill="#FFA412"/>
<path d="M100.494 262.197H99.6582V269.051H100.494V262.197Z" fill="#FFA412"/>
<path d="M93.4497 262.197H92.6143V269.051H93.4497V262.197Z" fill="#FFA412"/>
<path d="M136.412 262.197H135.576V269.051H136.412V262.197Z" fill="#FFA412"/>
<path d="M138.188 262.197H137.353V269.051H138.188V262.197Z" fill="#FFA412"/>
<path d="M139.906 262.197H139.07V269.051H139.906V262.197Z" fill="#FFA412"/>
<path d="M141.199 262.22V269.025C141.095 269.04 140.99 269.048 140.885 269.048H140.363V262.194H140.885C140.99 262.194 141.095 262.203 141.199 262.22Z" fill="#FFA412"/>
<path d="M142.359 262.853V268.39C142.14 268.652 141.85 268.846 141.524 268.949V262.296C141.85 262.398 142.14 262.591 142.359 262.853Z" fill="#FFA412"/>
<path d="M148.668 256.833V260.704C148.668 261.006 148.564 261.299 148.375 261.535L148.295 261.629C148.179 261.744 148.047 261.843 147.903 261.922C147.827 261.964 147.749 262.001 147.668 262.033C147.628 262.05 147.587 262.064 147.545 262.077C147.439 262.113 147.33 262.138 147.22 262.153C147.116 262.17 147.011 262.177 146.906 262.176H73.3931C72.5137 262.176 71.7662 261.623 71.6342 260.909C71.6314 260.86 71.6314 260.811 71.6342 260.762C71.6328 260.737 71.6328 260.711 71.6342 260.686V256.815C71.6328 256.79 71.6328 256.764 71.6342 256.739C71.6782 256.016 72.3495 255.421 73.1996 255.337C73.2689 255.332 73.3384 255.332 73.4077 255.337H146.906C147.011 255.337 147.116 255.345 147.22 255.36C147.33 255.377 147.439 255.403 147.545 255.436C147.83 255.528 148.089 255.687 148.298 255.902L148.378 255.995C148.567 256.233 148.67 256.529 148.668 256.833Z" fill="#FFB93E"/>
<path d="M112.58 262.194H73.2026C72.8625 262.198 72.53 262.093 72.2551 261.893C71.9803 261.693 71.7778 261.409 71.6782 261.084C71.6605 261.032 71.6458 260.979 71.6342 260.926C71.6314 260.877 71.6314 260.828 71.6342 260.779C71.6328 260.754 71.6328 260.729 71.6342 260.703V256.833C71.6328 256.807 71.6328 256.782 71.6342 256.756C71.6645 256.396 71.821 256.058 72.0762 255.801C72.3314 255.545 72.669 255.386 73.0296 255.354C73.092 255.349 73.1547 255.349 73.2172 255.354H107.758C108.492 258.138 110.203 260.565 112.58 262.194Z" fill="#FFA412"/>
<path d="M139.727 255.342H138.892V262.197H139.727V255.342Z" fill="#FFA412"/>
<path d="M136.898 255.342H136.063V262.197H136.898V255.342Z" fill="#FFA412"/>
<path d="M133.507 255.342H132.671V262.197H133.507V255.342Z" fill="#FFA412"/>
<path d="M128.309 255.342H127.474V262.197H128.309V255.342Z" fill="#FFA412"/>
<path d="M122.813 255.342H121.978V262.197H122.813V255.342Z" fill="#FFA412"/>
<path d="M114.388 255.342H113.553V262.197H114.388V255.342Z" fill="#FFA412"/>
<path d="M106.5 255.342H105.665V262.197H106.5V255.342Z" fill="#FFA412"/>
<path d="M99.456 255.342H98.6206V262.197H99.456V255.342Z" fill="#FFA412"/>
<path d="M142.418 255.342H141.583V262.197H142.418V255.342Z" fill="#FFA412"/>
<path d="M144.195 255.342H143.359V262.197H144.195V255.342Z" fill="#FFA412"/>
<path d="M145.912 255.342H145.077V262.197H145.912V255.342Z" fill="#FFA412"/>
<path d="M147.205 255.366V262.17C147.101 262.186 146.996 262.193 146.891 262.194H146.37V255.342H146.891C146.996 255.343 147.101 255.351 147.205 255.366Z" fill="#FFA412"/>
<path d="M148.363 256.001V261.535C148.146 261.798 147.856 261.993 147.53 262.094V255.442C147.856 255.544 148.146 255.738 148.363 256.001Z" fill="#FFA412"/>
<path d="M139.018 249.993V253.852C139.02 254.155 138.916 254.449 138.724 254.684C138.507 254.948 138.216 255.142 137.889 255.243C137.783 255.279 137.674 255.304 137.564 255.319H137.461H137.391H63.7459C63.4558 255.326 63.1681 255.265 62.9055 255.141C62.643 255.018 62.4129 254.835 62.2333 254.607C62.0798 254.402 61.9882 254.157 61.9694 253.902C61.968 253.876 61.968 253.851 61.9694 253.826V249.958C61.9679 249.931 61.9679 249.905 61.9694 249.879C62.0107 249.55 62.1547 249.242 62.381 249C62.6073 248.758 62.9044 248.593 63.2299 248.529C63.3984 248.485 63.5718 248.463 63.7459 248.464H137.323H137.37C137.428 248.467 137.486 248.473 137.543 248.482C137.654 248.498 137.762 248.523 137.868 248.558C137.92 248.575 137.971 248.594 138.021 248.617C138.21 248.693 138.385 248.802 138.537 248.939L138.557 248.959C138.696 249.083 138.807 249.235 138.884 249.404C138.96 249.574 138.999 249.757 139 249.943L139.018 249.993Z" fill="#FFB93E"/>
<path d="M102.929 255.354H63.5553C63.2964 255.355 63.0409 255.295 62.8104 255.177C62.5798 255.059 62.3809 254.888 62.2303 254.678C62.0751 254.46 61.9847 254.203 61.9694 253.937C61.968 253.912 61.968 253.886 61.9694 253.861V249.993C61.9679 249.966 61.9679 249.94 61.9694 249.914C61.9966 249.576 62.1359 249.256 62.3652 249.006C62.5946 248.755 62.9009 248.589 63.2358 248.532C63.341 248.511 63.448 248.5 63.5553 248.5H98.0927C98.0927 248.552 98.125 248.605 98.1396 248.658C98.8944 251.377 100.584 253.744 102.912 255.342L102.929 255.354Z" fill="#FFA412"/>
<path d="M130.077 248.5H129.242V255.354H130.077V248.5Z" fill="#FFA412"/>
<path d="M127.248 248.5H126.413V255.354H127.248V248.5Z" fill="#FFA412"/>
<path d="M123.86 248.5H123.024V255.354H123.86V248.5Z" fill="#FFA412"/>
<path d="M118.662 248.5H117.827V255.354H118.662V248.5Z" fill="#FFA412"/>
<path d="M113.166 248.5H112.331V255.354H113.166V248.5Z" fill="#FFA412"/>
<path d="M104.738 248.5H103.903V255.354H104.738V248.5Z" fill="#FFA412"/>
<path d="M96.8498 248.5H96.0144V255.354H96.8498V248.5Z" fill="#FFA412"/>
<path d="M89.8056 248.5H88.9702V255.354H89.8056V248.5Z" fill="#FFA412"/>
<path d="M132.768 248.5H131.933V255.354H132.768V248.5Z" fill="#FFA412"/>
<path d="M134.547 248.5H133.712V255.354H134.547V248.5Z" fill="#FFA412"/>
<path d="M136.262 248.5H135.427V255.354H136.262V248.5Z" fill="#FFA412"/>
<path d="M137.555 248.523V255.316C137.451 255.333 137.346 255.34 137.241 255.339H136.719V248.488H137.241C137.347 248.492 137.451 248.504 137.555 248.523Z" fill="#FFA412"/>
<path d="M138.716 249.167V254.701C138.497 254.964 138.207 255.158 137.88 255.26V248.608C138.207 248.71 138.497 248.904 138.716 249.167Z" fill="#FFA412"/>
<path d="M144.423 243.311V247.179C144.425 247.483 144.321 247.778 144.13 248.014C143.911 248.276 143.621 248.47 143.295 248.573C143.188 248.606 143.079 248.632 142.969 248.649C142.865 248.664 142.76 248.672 142.656 248.672H69.1543C68.8817 248.672 68.6118 248.619 68.36 248.514C68.1056 248.419 67.8812 248.258 67.7097 248.047C67.5382 247.837 67.4257 247.585 67.3838 247.317C67.3838 247.299 67.3838 247.279 67.3838 247.258V243.232C67.4307 242.506 68.102 241.914 68.9521 241.83C69.0214 241.825 69.0909 241.825 69.1602 241.83H142.644C142.749 241.83 142.854 241.838 142.957 241.853C143.068 241.87 143.177 241.896 143.283 241.932C143.61 242.032 143.9 242.226 144.118 242.488C144.311 242.72 144.419 243.01 144.423 243.311Z" fill="#FFB93E"/>
<path d="M108.332 248.658H68.9579C68.7136 248.658 68.4724 248.604 68.2515 248.499C68.0136 248.393 67.8074 248.227 67.6532 248.017C67.499 247.807 67.4022 247.561 67.3721 247.302C67.3721 247.284 67.3721 247.264 67.3721 247.243V243.217C67.403 242.857 67.5601 242.518 67.8158 242.262C68.0715 242.006 68.4094 241.847 68.7703 241.815C68.8328 241.81 68.8955 241.81 68.9579 241.815H103.498C104.212 244.509 105.84 246.871 108.103 248.499L108.332 248.658Z" fill="#FFA412"/>
<path d="M135.479 241.803H134.644V248.658H135.479V241.803Z" fill="#FFA412"/>
<path d="M132.654 241.803H131.818V248.658H132.654V241.803Z" fill="#FFA412"/>
<path d="M129.262 241.803H128.427V248.658H129.262V241.803Z" fill="#FFA412"/>
<path d="M124.065 241.803H123.229V248.658H124.065V241.803Z" fill="#FFA412"/>
<path d="M118.568 241.803H117.733V248.658H118.568V241.803Z" fill="#FFA412"/>
<path d="M110.144 241.803H109.308V248.658H110.144V241.803Z" fill="#FFA412"/>
<path d="M102.255 241.803H101.42V248.658H102.255V241.803Z" fill="#FFA412"/>
<path d="M95.2114 241.803H94.376V248.658H95.2114V241.803Z" fill="#FFA412"/>
<path d="M138.17 241.803H137.335V248.658H138.17V241.803Z" fill="#FFA412"/>
<path d="M139.95 241.803H139.114V248.658H139.95V241.803Z" fill="#FFA412"/>
<path d="M141.667 241.803H140.832V248.658H141.667V241.803Z" fill="#FFA412"/>
<path d="M142.958 241.827V248.634C142.855 248.65 142.751 248.657 142.647 248.658H142.122V241.803H142.647C142.751 241.804 142.855 241.811 142.958 241.827Z" fill="#FFA412"/>
<path d="M144.118 242.462V247.996C143.9 248.259 143.609 248.452 143.283 248.552V241.9C143.61 242.003 143.9 242.198 144.118 242.462Z" fill="#FFA412"/>
<path d="M146.724 236.454V240.322C146.726 240.625 146.622 240.92 146.431 241.156C146.213 241.419 145.922 241.612 145.596 241.712C145.49 241.748 145.381 241.775 145.27 241.792H145.168H145.109H71.4495C70.5027 241.792 69.7229 241.162 69.6731 240.377C69.6731 240.351 69.6731 240.325 69.6731 240.298V236.43C69.6731 236.404 69.6731 236.378 69.6731 236.351C69.7229 235.567 70.5027 234.937 71.4495 234.937H144.945C145.05 234.937 145.155 234.945 145.258 234.96C145.369 234.977 145.478 235.004 145.584 235.039C145.911 235.14 146.201 235.333 146.419 235.596C146.62 235.837 146.728 236.141 146.724 236.454Z" fill="#FFB93E"/>
<path d="M110.633 241.815H71.259C70.8644 241.824 70.4811 241.683 70.1867 241.42C69.8922 241.158 69.7087 240.793 69.6731 240.401C69.6731 240.374 69.6731 240.348 69.6731 240.322V236.454C69.6731 236.427 69.6731 236.401 69.6731 236.375C69.7087 235.982 69.8922 235.617 70.1867 235.355C70.4811 235.092 70.8644 234.951 71.259 234.96H105.796C106.531 237.745 108.242 240.173 110.618 241.803L110.633 241.815Z" fill="#FFA412"/>
<path d="M137.781 234.963H136.945V241.818H137.781V234.963Z" fill="#FFA412"/>
<path d="M134.952 234.963H134.116V241.818H134.952V234.963Z" fill="#FFA412"/>
<path d="M131.563 234.963H130.728V241.818H131.563V234.963Z" fill="#FFA412"/>
<path d="M126.366 234.963H125.53V241.818H126.366V234.963Z" fill="#FFA412"/>
<path d="M120.87 234.963H120.034V241.818H120.87V234.963Z" fill="#FFA412"/>
<path d="M112.445 234.963H111.609V241.818H112.445V234.963Z" fill="#FFA412"/>
<path d="M104.554 234.963H103.718V241.818H104.554V234.963Z" fill="#FFA412"/>
<path d="M97.5095 234.96H96.6741V241.815H97.5095V234.96Z" fill="#FFA412"/>
<path d="M140.472 234.963H139.636V241.818H140.472V234.963Z" fill="#FFA412"/>
<path d="M142.251 234.963H141.416V241.818H142.251V234.963Z" fill="#FFA412"/>
<path d="M143.966 234.963H143.13V241.818H143.966V234.963Z" fill="#FFA412"/>
<path d="M145.259 234.984V241.792C145.155 241.807 145.05 241.815 144.945 241.815H144.423V234.96H144.945C145.05 234.961 145.155 234.969 145.259 234.984Z" fill="#FFA412"/>
<path d="M146.419 235.619V241.156C146.201 241.419 145.911 241.612 145.584 241.713V235.063C145.911 235.163 146.201 235.357 146.419 235.619Z" fill="#FFA412"/>
<path d="M123.426 195.906C123.426 195.906 119.568 201.335 116.027 201.408C112.486 201.481 107.104 198.893 107.104 198.893C107.104 198.893 103.856 191.661 106.06 188.829C106.815 188.561 107.625 188.487 108.416 188.617C109.207 188.747 109.951 189.075 110.58 189.57C111.023 189.903 111.425 190.287 111.776 190.715C112.255 191.312 112.903 191.75 113.635 191.974C116.159 192.741 119.158 190.938 120.277 192.68C120.827 193.529 121.483 194.304 122.23 194.987C122.602 195.326 123.002 195.634 123.426 195.906Z" fill="#FFEDDC"/>
<path d="M73.1001 235.063C73.1001 235.063 86.7427 202.026 111.305 201.408C111.305 201.408 133.976 203.926 135.233 235.063H73.1001Z" fill="#FFEDDC"/>
<path d="M104.577 202.418C104.577 202.418 114.42 204.606 117.457 203.32C117.457 203.32 117.918 199.221 113.773 199.783C110.932 200.178 109.082 198.817 107.998 198.263C106.459 197.482 104.167 200.697 104.577 202.418Z" fill="#DB6A1D"/>
<path d="M113.143 196.22C112.512 196.691 110.581 189.57 110.581 189.57C111.023 189.903 111.425 190.287 111.777 190.715C112.255 191.312 112.903 191.751 113.635 191.974C113.641 192.182 113.755 195.76 113.143 196.22Z" fill="#E5C1A1"/>
<path d="M122.23 194.999C122.092 195.081 117.539 197.804 116.921 197.804C116.302 197.804 120.277 192.691 120.277 192.691C120.827 193.54 121.483 194.316 122.23 194.999Z" fill="#E5C1A1"/>
<path d="M86.429 225.837C86.1769 225.62 96.1026 211.264 98.8141 211.159C101.526 211.053 107.676 214.303 112.114 214.725C116.552 215.147 120.855 213.885 121.696 216.505C122.538 219.126 124.845 228.419 123.426 229.907C122.007 231.394 91.8784 230.487 86.429 225.837Z" fill="#F9DDBF"/>
<path opacity="0.5" d="M95.7623 275.683C95.7623 275.701 95.7623 275.718 95.7623 275.733C95.634 278.03 95.2646 280.306 94.6601 282.526C94.5751 282.848 94.4813 283.167 94.3846 283.486C93.765 285.519 92.9533 287.489 91.9603 289.369C90.6931 291.773 89.1432 294.017 87.3434 296.053C87.2965 296.109 87.2467 296.168 87.1939 296.22C84.851 298.838 82.13 301.092 79.1209 302.908C78.4663 303.298 77.7969 303.676 77.113 304.041C76.6498 304.283 76.1837 304.515 75.7147 304.738C75.2662 304.996 74.7942 305.218 74.3487 305.49C72.8838 306.334 71.3136 306.98 69.679 307.411V304.398C69.679 304.372 69.679 304.346 69.679 304.322C69.679 304.299 69.679 304.223 69.679 304.176C69.6905 304.12 69.7052 304.066 69.7229 304.012C69.8237 303.688 70.0271 303.405 70.3024 303.206C70.5778 303.007 70.9104 302.902 71.2502 302.908H63.3912C63.0512 302.912 62.719 302.806 62.4442 302.606C62.1695 302.406 61.9669 302.123 61.8669 301.798C61.8491 301.745 61.8345 301.692 61.8229 301.637C61.8229 301.587 61.8229 301.541 61.8229 301.491C61.8214 301.465 61.8214 301.44 61.8229 301.415V297.544C61.8215 297.518 61.8215 297.493 61.8229 297.468C61.8229 297.418 61.8229 297.371 61.8229 297.321C61.8345 297.267 61.8491 297.213 61.8669 297.16C61.967 296.836 62.1697 296.553 62.4445 296.353C62.7193 296.154 63.0515 296.048 63.3912 296.053H66.4574C66.2431 295.951 66.0559 295.799 65.9108 295.611C65.7657 295.423 65.6668 295.203 65.622 294.97C65.622 294.938 65.622 294.906 65.622 294.873C65.6204 294.851 65.6204 294.829 65.622 294.806C65.6204 294.781 65.6204 294.755 65.622 294.73V290.859C65.6206 290.834 65.6206 290.808 65.622 290.783C65.6249 290.735 65.6308 290.687 65.6396 290.64C65.6491 290.585 65.6628 290.531 65.6806 290.478C65.7803 290.153 65.9832 289.869 66.2587 289.669C66.5342 289.469 66.8673 289.363 67.2078 289.369H68.9667C68.6267 289.373 68.2943 289.268 68.0191 289.069C67.7438 288.869 67.5405 288.586 67.4394 288.262C67.4213 288.209 67.4076 288.154 67.3984 288.098C67.3896 288.051 67.3838 288.003 67.3808 287.955V283.928C67.4123 283.568 67.5696 283.23 67.8251 282.974C68.0807 282.717 68.4184 282.559 68.7791 282.526H63.5554C63.1606 282.536 62.7769 282.395 62.4823 282.132C62.1878 281.87 62.0044 281.505 61.9695 281.112C61.968 281.085 61.968 281.059 61.9695 281.033V277.165C61.968 277.138 61.968 277.112 61.9695 277.086C61.968 277.065 61.968 277.045 61.9695 277.024C62.0094 276.703 62.1501 276.403 62.3713 276.167C62.5924 275.931 62.8827 275.771 63.2006 275.71C62.8635 275.676 62.5466 275.533 62.2979 275.304C62.0493 275.074 61.8825 274.769 61.8229 274.436C61.8229 274.392 61.8229 274.351 61.8229 274.307C61.8215 274.281 61.8215 274.254 61.8229 274.228V270.36C61.8215 270.334 61.8215 270.307 61.8229 270.281C61.8229 270.234 61.8229 270.187 61.8229 270.138C61.8229 270.088 61.8493 270.029 61.8669 269.974C61.9674 269.65 62.1702 269.367 62.4449 269.167C62.7196 268.968 63.0516 268.862 63.3912 268.867H66.4574C66.2428 268.764 66.0554 268.613 65.9102 268.425C65.7651 268.236 65.6663 268.017 65.622 267.783C65.6204 267.752 65.6204 267.721 65.622 267.69C65.6205 267.667 65.6205 267.645 65.622 267.622C65.6204 267.596 65.6204 267.57 65.622 267.543V263.675C65.6205 263.649 65.6205 263.623 65.622 263.596C65.6249 263.548 65.6308 263.5 65.6396 263.453C65.6484 263.399 65.6621 263.346 65.6806 263.295C65.7798 262.969 65.9825 262.684 66.258 262.483C66.5335 262.283 66.8669 262.177 67.2078 262.182H73.2113C72.8712 262.187 72.5388 262.081 72.2639 261.881C71.989 261.681 71.7866 261.397 71.687 261.072C71.6692 261.021 71.6545 260.968 71.643 260.914C71.6401 260.865 71.6401 260.817 71.643 260.768C71.6415 260.743 71.6415 260.717 71.643 260.692V256.821C71.6415 256.796 71.6415 256.77 71.643 256.745C71.6733 256.384 71.8298 256.046 72.085 255.79C72.3402 255.533 72.6778 255.375 73.0383 255.342H63.5554C63.2965 255.344 63.041 255.283 62.8104 255.165C62.5799 255.047 62.3809 254.876 62.2304 254.666V254.631L63.2271 248.552V248.52L64.6458 239.847C66.2888 240.066 67.9153 240.394 69.5148 240.828L69.808 240.904H69.8285C70.7587 241.162 71.6762 241.455 72.581 241.783H72.6074C76.7875 243.295 80.6544 245.561 84.0163 248.467C84.0749 248.517 84.1365 248.57 84.1922 248.625C85.9593 250.174 87.5633 251.898 88.9791 253.773C89.2723 254.148 89.5419 254.531 89.8116 254.921C89.8996 255.049 89.9905 255.178 90.0755 255.31C90.5093 255.948 90.9216 256.604 91.3125 257.278C92.2169 258.837 92.9943 260.466 93.6371 262.15C94.4677 264.308 95.0652 266.549 95.4193 268.835C95.4193 268.893 95.4369 268.949 95.4457 269.004C95.7788 271.214 95.8849 273.452 95.7623 275.683Z" fill="#E2810E"/>
<path d="M19.8428 289.574C16.3912 283.32 14.8739 276.184 15.4826 269.068C16.0913 261.953 18.7987 255.177 23.2624 249.599C27.7262 244.02 33.7458 239.889 40.56 237.727C47.3743 235.566 54.6773 235.471 61.5453 237.456C68.4134 239.44 74.5382 243.414 79.1452 248.875C83.7521 254.336 86.6344 261.039 87.4275 268.137C88.2206 275.234 86.8889 282.407 83.6008 288.748C80.3127 295.09 75.2159 300.315 68.9549 303.763C60.5584 308.386 50.6672 309.489 41.457 306.828C32.2468 304.167 24.472 297.96 19.8428 289.574Z" fill="#E2810E"/>
<path d="M67.5509 304.507C67.1053 304.776 66.6529 305.039 66.1936 305.294L65.7246 305.546C65.367 305.737 65.0123 305.918 64.6517 306.097C56.516 310.075 47.1815 310.858 38.4954 308.291C29.8093 305.723 22.4045 299.993 17.7462 292.233C13.0879 284.473 11.5154 275.249 13.34 266.386C15.1646 257.524 20.2533 249.668 27.5992 244.374C28.7823 243.526 30.0147 242.749 31.2898 242.046C31.753 241.792 32.2191 241.546 32.6881 241.314C33.1571 241.083 33.6056 240.872 34.0658 240.667C35.4661 240.045 36.9044 239.512 38.372 239.071C40.5078 238.428 42.6993 237.987 44.9177 237.754C53.0864 236.887 61.3071 238.824 68.2265 243.246C75.1459 247.669 80.3516 254.312 82.9864 262.084C85.6212 269.856 85.5282 278.292 82.7226 286.004C79.917 293.716 74.5661 300.244 67.5509 304.513V304.507Z" fill="#FFB93E"/>
<path d="M48.9924 306.41C45.9314 306.407 42.886 305.973 39.9462 305.122C32.1278 302.842 25.4644 297.689 21.2979 290.698C17.1314 283.708 15.7713 275.401 17.4914 267.449C19.2115 259.497 23.8842 252.492 30.5683 247.844C37.2525 243.195 45.4516 241.249 53.5147 242.398C61.5777 243.546 68.9057 247.703 74.0229 254.032C79.1401 260.361 81.6664 268.392 81.0931 276.507C80.5198 284.622 76.8895 292.219 70.9332 297.767C64.9769 303.316 57.137 306.404 48.9924 306.41ZM48.8928 242.579C41.9841 242.592 35.2711 244.872 29.7866 249.068C24.302 253.264 20.35 259.145 18.5384 265.804C16.7268 272.463 17.1561 279.533 19.7604 285.924C22.3646 292.316 26.9993 297.676 32.9515 301.179C38.9036 304.682 45.8434 306.135 52.7029 305.313C59.5624 304.492 65.9615 301.442 70.9158 296.632C75.87 291.822 79.1047 285.52 80.1222 278.695C81.1398 271.869 79.8837 264.899 76.5473 258.856C73.8388 253.9 69.8381 249.769 64.9692 246.901C60.1004 244.033 54.5452 242.534 48.8928 242.564V242.579Z" fill="#FFA412"/>
<path d="M64.8775 277.182C64.8072 277.007 64.7309 276.834 64.6518 276.664C64.1413 275.484 63.3952 274.42 62.4591 273.537C61.4616 272.63 60.2868 271.939 59.0089 271.508C57.5875 271.035 56.1082 270.758 54.6118 270.685C52.9957 270.586 51.2369 270.562 49.3354 270.615C48.3326 270.655 47.3283 270.635 46.3278 270.556C45.6038 270.504 44.891 270.348 44.2113 270.094C43.6725 269.888 43.1888 269.56 42.7984 269.136C42.4163 268.704 42.1119 268.208 41.8985 267.672C41.6689 267.119 41.5313 266.533 41.491 265.936C41.4531 265.379 41.5413 264.82 41.749 264.302C41.9748 263.759 42.3181 263.272 42.7544 262.876C43.2956 262.393 43.9205 262.013 44.5983 261.755C46.0112 261.183 47.3284 261.195 48.5498 261.793C49.7712 262.39 50.7659 263.634 51.5339 265.526L58.8975 262.539C58.3292 261.08 57.5142 259.729 56.4879 258.546C55.584 257.5 54.4792 256.647 53.239 256.036C51.9989 255.425 50.6485 255.068 49.268 254.988C47.7717 254.893 46.27 255.046 44.824 255.442L42.7369 250.312L38.6623 251.963L40.7142 257.023C39.3396 257.717 38.0776 258.614 36.9708 259.685C35.9992 260.631 35.2049 261.744 34.6257 262.97C34.0736 264.131 33.7739 265.395 33.7463 266.68C33.7713 269.539 34.9223 272.274 36.9503 274.292C37.9461 275.198 39.1203 275.885 40.3976 276.31C41.82 276.774 43.2995 277.041 44.7947 277.103C46.5524 277.193 48.3135 277.193 50.0712 277.103C51.0279 277.04 51.9881 277.047 52.9439 277.124C53.6643 277.176 54.3733 277.333 55.0486 277.589C55.6069 277.808 56.1081 278.15 56.5143 278.591C56.9402 279.071 57.2759 279.625 57.5051 280.225C57.7405 280.78 57.8602 281.378 57.8569 281.981C57.8571 282.558 57.7226 283.126 57.4641 283.642C57.1765 284.204 56.7776 284.702 56.2915 285.106C55.7009 285.601 55.0336 285.996 54.3158 286.277C53.6224 286.557 52.895 286.745 52.1524 286.836C51.4184 286.927 50.6732 286.853 49.9715 286.619C49.2161 286.353 48.5342 285.913 47.9811 285.334C47.2773 284.578 46.7304 283.69 46.3718 282.722L39.0082 285.709C39.7762 287.6 40.7416 289.099 41.9044 290.206C42.9857 291.267 44.2864 292.079 45.7151 292.584C47.1078 293.064 48.579 293.276 50.0506 293.207C51.5644 293.148 53.065 292.901 54.518 292.473L56.4176 297.157L60.4687 295.512L58.5575 290.809C59.9353 290.112 61.2082 289.225 62.3389 288.174C63.2623 287.318 64.0334 286.311 64.6195 285.196C64.6664 285.112 64.7075 285.024 64.7485 284.936C65.3011 283.782 65.6009 282.523 65.6279 281.244C65.6641 279.852 65.4085 278.469 64.8775 277.182Z" fill="#FFA412"/>
<path d="M478.1 128.339C449.754 158.94 414.197 184.408 372.439 204.043C338.517 219.986 300.163 232.243 258.441 240.477C247.065 242.722 235.934 244.576 225.185 246.095C203.449 249.167 183.246 250.924 165.564 251.846L167.909 217.448C192.268 215.984 221.181 212.953 252.019 206.869C291.281 199.124 327.243 187.649 358.902 172.772C396.992 154.864 429.255 131.806 454.796 104.233L478.1 128.339Z" fill="#F77D48"/>
<path d="M494.968 309.089H10.1701C9.78412 309.089 9.47119 309.565 9.47119 310.152V311.179C9.47119 311.766 9.78412 312.242 10.1701 312.242H494.968C495.354 312.242 495.667 311.766 495.667 311.179V310.152C495.667 309.565 495.354 309.089 494.968 309.089Z" fill="#2E3552"/>
<path d="M290.807 197.889C276.496 178.78 244.784 180.461 225.883 165.326C214.647 156.32 209.344 142.511 201.045 131.01C185.403 109.342 154.483 91.3703 125.709 99.9728C116.677 102.661 108.584 108.23 102.551 115.116C93.4638 125.496 88.5567 138.541 85.5491 151.603C79.8602 176.212 80.3829 201.848 87.0705 226.206C91.9659 243.888 96.5 259.126 108.5 278.626C112.808 285.626 115 288.126 121 294.626C127 301.126 135.37 305.524 143.5 309.126C143.507 309.129 143.514 309.129 143.521 309.126C146 309.626 156 309.126 158 309.126C184.5 309.126 198.724 309.126 218.5 309.126C240.724 307.996 256.879 297.512 270.747 283.639C275.26 279.126 279.288 274.155 282.766 268.805C288.964 259.329 293.404 248.816 295.872 237.768C296.209 236.237 296.517 234.691 296.781 233.136C298.839 220.988 298.214 207.768 290.807 197.889Z" fill="#63AC43"/>
<path opacity="0.2" d="M295.887 237.765C293.419 248.813 288.979 259.326 282.78 268.802C279.556 267.426 273.224 239.062 241.272 235.786C239.947 235.651 223.359 234.205 222.983 233.201C226.501 230.223 251.711 225.45 256.011 223.421C273.271 215.281 289.291 227.828 294.101 234.776C294.762 235.732 295.358 236.731 295.887 237.765Z" fill="black"/>
<path opacity="0.2" d="M140.489 106.341C122.646 106.561 108.42 121.441 108.244 139.264C107.91 170.807 109.317 222.607 136.678 235.338C181.932 256.387 290.326 232.041 280.975 208.139C271.624 184.238 214.456 200.898 199.776 167.545C188.766 142.534 169.046 105.987 140.489 106.341Z" fill="black"/>
<path opacity="0.2" d="M102.633 226.844C102.571 228.864 103.17 230.85 104.339 232.501C105.101 233.572 106.377 234.55 107.637 234.158C108.95 233.751 109.396 232.155 109.63 230.799C109.885 229.259 110.105 227.681 109.847 226.138C109.589 224.595 108.78 223.075 107.417 222.314C106.054 221.553 104.102 221.775 103.196 223.049C102.44 224.109 102.551 225.532 102.692 226.823" fill="white"/>
<path opacity="0.2" d="M173.593 273.15C179.455 274.275 185.503 275.115 191.404 274.158C193.406 273.833 187.455 271.642 183.817 270.729C167.108 266.518 143.32 260.627 119.248 236.533C113.491 230.767 116.152 241.68 118.254 244.365C126.527 254.938 138.718 262.126 151.086 266.876C158.388 269.627 165.919 271.727 173.593 273.15Z" fill="white"/>
<path opacity="0.2" d="M152.246 229.359C158.713 234.162 174.856 237.033 182.578 234.924C176.08 231.391 171.572 224.877 168.586 217.99C165.6 211.104 163.913 203.717 161.559 196.578C156.433 181.063 148.188 166.821 137.356 154.771C136.212 153.494 127.305 131.856 125.629 131.63C123.713 131.367 111.932 143.054 117.466 154.448C117.466 154.448 122.065 154.156 125.406 166.675C128.077 176.687 125.58 179.727 125.58 179.727C126.581 181.777 128.626 175.89 134.753 189.83C140.299 202.443 138.56 217.698 138.56 217.698C143.047 227.238 147.658 225.952 152.246 229.359Z" fill="black"/>
<path d="M221.181 117.142C227.085 112.888 223.467 106.812 216.253 104.552C216.231 104.548 216.208 104.548 216.186 104.552C203.112 104.944 190.41 107.216 172.315 106.177C166.534 105.846 175.956 113.957 176.372 119.725C176.633 123.297 175.692 126.878 179.567 126.808C192.333 126.582 221.181 117.142 221.181 117.142Z" fill="#007CFF"/>
<path opacity="0.7" d="M221.181 117.142C227.085 112.888 223.467 106.812 216.253 104.552C216.231 104.548 216.208 104.548 216.186 104.552C203.112 104.944 190.41 107.216 172.315 106.177C166.534 105.846 175.956 113.957 176.372 119.725C176.633 123.297 175.692 126.878 179.567 126.808C192.333 126.582 221.181 117.142 221.181 117.142Z" fill="white"/>
<path opacity="0.1" d="M179.23 120.829C180.464 121.084 210.721 120.369 214.345 119.262C217.968 118.156 192.022 127.314 179.567 126.805C167.111 126.295 179.23 120.829 179.23 120.829Z" fill="black"/>
<path d="M202.141 180.804C193.415 185.289 184.028 188.353 174.334 189.881L153.448 193.18C152.027 189.064 146.82 180.473 137.203 157.505C133.468 145.691 129.253 142.613 129.147 123.54L129.103 123.444C127.822 120.489 129.361 117.043 132.536 115.743L132.644 115.717C135.576 114.545 139.287 113.149 142.986 112.039C150.032 109.868 157.188 108.071 164.423 106.654C166.857 106.295 169.31 106.08 171.769 106.01C175.225 105.805 178.462 107.398 180.206 110.156C185.723 119.081 194.552 137.44 202.141 180.804Z" fill="#007CFF"/>
<g opacity="0.7">
<path d="M202.141 180.804C193.415 185.289 184.028 188.353 174.334 189.881L153.448 193.18C152.027 189.064 146.82 180.473 137.203 157.505C133.468 145.691 129.253 142.613 129.147 123.54L129.103 123.444C127.822 120.489 129.361 117.043 132.536 115.743L132.644 115.717C135.576 114.545 139.287 113.149 142.986 112.039C150.032 109.868 157.188 108.071 164.423 106.654C166.857 106.295 169.31 106.08 171.769 106.01C175.225 105.805 178.462 107.398 180.206 110.156C185.723 119.081 194.552 137.44 202.141 180.804Z" fill="white"/>
</g>
<path opacity="0.1" d="M147.169 172.385C146.665 172.254 147.254 176.76 154.076 179.864C160.897 182.967 190.779 166.89 193.435 160.67C193.435 160.67 163.351 176.602 147.169 172.385Z" fill="black"/>
<path opacity="0.1" d="M147.503 164.515C143.959 153.535 139.416 142.625 135.954 134.74C135.997 134.587 136.055 134.439 136.127 134.298C137.299 131.586 140.996 132.69 145.616 138.207C147.513 140.517 149.124 143.048 150.414 145.743C152.627 150.25 157.634 159.189 157.743 160.864C158.226 167.812 152.9 170.872 147.503 164.515Z" fill="black"/>
<path d="M158.226 114.361C147.756 117.608 142.289 112.215 142.289 112.215C145.78 106.394 140.823 94.2834 137.505 87.7832L144.429 91.0919L153.868 95.6039C153.903 96.7066 154.001 97.8063 154.161 98.898C154.269 99.6811 154.447 100.453 154.691 101.205V101.235L154.735 101.36C155.799 104.502 158.177 106.786 163.465 106.713C163.474 106.713 167.144 111.55 158.226 114.361Z" fill="#FF978D"/>
<path d="M139.917 111.971L142.884 109.942C147.339 112.587 152.349 114.16 157.517 114.536C155.809 116.433 154.705 118.795 154.345 121.321C142.072 120.334 139.917 111.971 139.917 111.971Z" fill="#007CFF"/>
<path d="M163.292 106.127L160.067 106.253C160.067 106.253 160.434 112.905 157.52 114.586C163.532 115.33 165.118 117.807 165.118 117.807C172.37 113.28 163.292 106.127 163.292 106.127Z" fill="#007CFF"/>
<g opacity="0.9">
<path d="M139.917 111.971L142.884 109.942C147.339 112.587 152.349 114.16 157.517 114.536C155.809 116.433 154.705 118.795 154.345 121.321C142.072 120.334 139.917 111.971 139.917 111.971Z" fill="white"/>
<path d="M163.292 106.127L160.067 106.253C160.067 106.253 160.434 112.905 157.52 114.586C163.532 115.33 165.118 117.807 165.118 117.807C172.37 113.28 163.292 106.127 163.292 106.127Z" fill="white"/>
</g>
<path d="M152.381 79.3768C152.381 79.3768 156.523 81.9213 157.951 76.7416C153.868 73.5647 155.178 72.4169 153.73 69.24C153.029 67.3439 151.827 65.6727 150.252 64.404C148.677 63.1352 146.787 62.3163 144.783 62.0342L141.594 63.709C131.132 71.6469 152.381 79.3768 152.381 79.3768Z" fill="#1A2E35"/>
<path d="M128.793 78.6655C128.422 77.0355 128.376 75.3484 128.658 73.7008C128.94 72.0531 129.545 70.4772 130.438 69.0632C131.33 67.6491 132.493 66.4246 133.859 65.4597C135.226 64.4948 136.769 63.8084 138.402 63.4398C148.368 60.9305 158.276 71.3806 161.943 79.4063C162.939 81.4705 163.35 83.7675 163.132 86.0485C162.914 88.3294 162.075 90.5072 160.706 92.3457C159.337 94.1843 157.49 95.6135 155.366 96.4785C153.242 97.3434 150.921 97.6111 148.656 97.2525C141.661 96.2395 138.273 91.6893 131.856 84.4718C130.343 82.8379 129.287 80.8356 128.793 78.6655Z" fill="#FF978D"/>
<path d="M158.344 82.0854C158.344 82.0854 155.743 82.5861 149.204 85.6811C150.924 87.5286 153.129 88.6325 156.482 87.0455C158.241 86.4336 159.12 84.3547 158.464 82.4046C158.429 82.2963 158.388 82.1909 158.344 82.0854Z" fill="#1A2E35"/>
<path d="M154.284 86.1348C155.541 85.4474 156.998 85.2196 158.405 85.4906C158 86.2239 157.365 86.8033 156.597 87.1391C155.347 87.8277 153.894 88.0557 152.493 87.7832C152.886 87.0471 153.517 86.466 154.284 86.1348Z" fill="#FF5551"/>
<path d="M158.018 82.167C158.075 82.4545 158.054 82.752 157.958 83.0288C157.862 83.3056 157.693 83.5519 157.47 83.7423C155.527 84.6483 153.504 85.3755 151.429 85.9149C151.099 86.0242 150.746 86.0452 150.406 85.9758C150.065 85.9065 149.749 85.7492 149.488 85.5196C152.23 84.1602 155.084 83.0386 158.018 82.167Z" fill="white"/>
<path d="M140.354 94.0431C140.354 94.0431 139.873 83.7628 138.199 81.1832C136.467 77.9624 132.946 76.188 129.033 76.5511L126.195 78.7793C115.349 91.2439 140.354 94.0431 140.354 94.0431Z" fill="#1A2E35"/>
<path d="M152.459 81.4025C153.101 81.3222 153.718 81.1022 154.266 80.7581C154.813 80.4141 155.279 79.9543 155.629 79.4112C153.371 78.0998 151.301 76.4902 149.473 74.626L152.459 81.4025Z" fill="#FF5551"/>
<path d="M132.94 86.4741C134.905 85.0628 138.539 86.5561 140.439 88.0377C142.552 89.695 142.878 92.093 140.351 92.7225C138.294 93.1322 136.159 92.8166 134.309 91.8295C131.976 90.5939 130.976 87.8825 132.94 86.4741Z" fill="#FF978D"/>
<path d="M145.381 77.1546C145.8 76.8618 146.58 77.1722 147.014 77.7402C147.448 78.3083 147.503 79.0461 147.093 79.3536C146.683 79.661 146 79.3536 145.469 78.7826C144.985 78.1706 144.965 77.4533 145.381 77.1546Z" fill="#1A2E35"/>
<path d="M152.229 71.5914C152.648 71.2986 153.369 71.5416 153.853 72.177C154.337 72.8123 154.401 73.5473 153.982 73.8459C153.563 74.1446 152.836 73.884 152.352 73.2603C151.868 72.6367 151.813 71.89 152.229 71.5914Z" fill="#1A2E35"/>
<path d="M149.189 69.7815C149.263 69.7988 149.339 69.7991 149.413 69.7824C149.486 69.7657 149.555 69.7323 149.614 69.6849C150.032 69.2671 150.539 68.9494 151.098 68.7557C151.656 68.5619 152.251 68.4972 152.839 68.5664C152.896 68.5803 152.955 68.5828 153.013 68.5737C153.071 68.5645 153.127 68.544 153.177 68.5132C153.227 68.4825 153.271 68.4421 153.305 68.3944C153.34 68.3468 153.364 68.2928 153.378 68.2355C153.378 68.2355 153.378 68.2209 153.378 68.215C153.399 68.0962 153.374 67.9737 153.309 67.8725C153.243 67.7714 153.141 67.6991 153.023 67.6704C152.293 67.5667 151.548 67.6338 150.848 67.8666C150.148 68.0993 149.512 68.4912 148.99 69.0114C148.903 69.0969 148.853 69.2127 148.849 69.3344C148.846 69.4561 148.89 69.5744 148.972 69.6644C149.035 69.7184 149.109 69.7583 149.189 69.7815Z" fill="#1A2E35"/>
<path d="M142.5 77.3331C142.569 77.3024 142.63 77.2559 142.678 77.1975C142.725 77.139 142.759 77.0701 142.775 76.9964C142.848 76.4114 143.052 75.8505 143.372 75.3555C143.692 74.8606 144.121 74.4446 144.625 74.1386C144.731 74.0894 144.814 74.0006 144.856 73.8912C144.897 73.7817 144.895 73.6603 144.848 73.553C144.846 73.5463 144.846 73.5393 144.848 73.5325C144.792 73.4259 144.697 73.3447 144.583 73.3055C144.469 73.2663 144.345 73.2721 144.235 73.3217C143.597 73.6901 143.053 74.2012 142.646 74.8149C142.239 75.4286 141.981 76.1282 141.89 76.8588C141.875 76.9795 141.907 77.1015 141.979 77.1991C142.052 77.2968 142.16 77.3627 142.28 77.3829C142.356 77.3811 142.43 77.3642 142.5 77.3331Z" fill="#1A2E35"/>
<path d="M149.18 65.2432C148.732 64.1979 148.459 61.6125 147.199 60.2656C146.561 59.6022 145.791 59.0806 144.937 58.735C144.084 58.3894 143.168 58.2275 142.248 58.2599C139.507 58.3683 137.165 60.1661 135.031 61.8848C134.501 62.2611 134.043 62.728 133.676 63.2639C133.479 63.5266 133.364 63.8419 133.346 64.17C133.328 64.4981 133.408 64.824 133.576 65.1064C133.745 65.3888 133.993 65.615 134.29 65.7561C134.587 65.8973 134.919 65.947 135.245 65.8991C135.898 65.8757 140.65 64.7601 142.752 64.5376C143.634 64.4615 147.337 64.195 149.18 65.2432Z" fill="#1A2E35"/>
<path d="M120.485 73.8898C118.565 77.8837 120.353 83.7397 123.616 86.4803C124.985 87.6281 127.781 89.3439 127.781 89.3439L131.592 82.4836C133.6 79.7839 134.383 76.4401 134.151 73.0846C134.077 72.0541 134.213 71.0193 134.55 70.0424C134.971 68.8748 135.664 67.8241 136.573 66.9774C137.481 66.1306 138.578 65.5121 139.774 65.1731C140.673 64.9272 141.864 64.5582 141.825 63.6271C141.782 62.6199 139.876 61.8 138.601 61.4487C133.609 60.0725 126.377 61.6068 120.485 73.8898Z" fill="#1A2E35"/>
<path opacity="0.2" d="M134.142 72.5633C134.436 67.7525 137 66.0309 140.905 64.7806C140.391 63.9411 139.564 63.3398 138.607 63.1087C134.477 62.1395 133.327 69.5972 134.142 72.5633Z" fill="black"/>
<path d="M142.127 63.4074C142.564 63.5763 142.954 63.8474 143.265 64.198C144.936 65.9255 145.531 68.4641 145.434 70.8621C145.921 69.3981 145.821 67.7877 145.566 66.2563C145.439 65.2841 145.148 64.3405 144.704 63.466C144.252 62.5848 143.477 61.9116 142.541 61.5862C141.603 61.2934 140.489 61.5598 139.879 62.3328C139.513 62.8101 139.167 64.0896 139.955 64.2331C140.691 64.3678 141.034 63.0355 142.127 63.4074Z" fill="#1A2E35"/>
<path d="M141.034 129.258C141.497 130.456 142.11 131.926 142.673 133.296L144.432 137.46C145.663 140.209 146.888 142.938 148.21 145.605C149.532 148.273 150.904 150.876 152.399 153.309C153.775 155.672 155.343 157.918 157.089 160.023C157.843 160.922 161.132 158.38 172.526 158.559C175.154 158.527 177.767 158.149 180.297 157.435C181.698 157.066 183.061 156.627 184.433 156.141L186.485 155.379L188.417 154.6L193.019 160.863C192.263 161.566 191.641 162.09 190.985 162.699C190.337 163.296 189.652 163.851 188.933 164.359C187.505 165.401 186.015 166.354 184.471 167.214C181.211 169.071 157.558 179.834 151.391 176.443C145.288 171.811 137.528 159.124 134.348 152.873C132.765 149.857 131.308 146.888 129.986 143.884C129.303 142.32 128.69 140.85 128.066 139.293C127.954 139.017 127.729 138.458 127.43 137.712C124.416 130.195 123.572 121.47 130.654 116.65L135.464 114.771L141.034 129.258Z" fill="#007CFF"/>
<path opacity="0.7" d="M141.034 129.258C141.497 130.456 142.11 131.926 142.673 133.296L144.432 137.46C145.663 140.209 146.888 142.938 148.21 145.605C149.532 148.273 150.904 150.876 152.399 153.309C153.775 155.672 155.343 157.918 157.089 160.023C157.843 160.922 161.132 158.38 172.526 158.559C175.154 158.527 177.767 158.149 180.297 157.435C181.698 157.066 183.061 156.627 184.433 156.141L186.485 155.379L188.417 154.6L193.019 160.863C192.263 161.566 191.641 162.09 190.985 162.699C190.337 163.296 189.652 163.851 188.933 164.359C187.505 165.401 186.015 166.354 184.471 167.214C181.211 169.071 157.558 179.834 151.391 176.443C145.288 171.811 137.528 159.124 134.348 152.873C132.765 149.857 131.308 146.888 129.986 143.884C129.303 142.32 128.69 140.85 128.066 139.293C127.954 139.017 127.729 138.458 127.43 137.712C124.416 130.195 123.572 121.47 130.654 116.65L135.464 114.771L141.034 129.258Z" fill="white"/>
<path d="M194.613 152.012C195.654 152.58 197.175 152.744 197.955 151.866C199.421 150.373 200.511 148.209 199.94 146.165C197.665 143.395 196.088 148.065 194.813 149.201C194.024 149.936 193.47 151.389 194.613 152.012Z" fill="#FF978D"/>
<path d="M198.902 148.557C199.028 148.987 199.2 149.401 199.415 149.793C199.709 150.377 200.06 150.931 200.462 151.447C201.016 152.112 201.665 152.692 202.388 153.169C202.411 153.169 202.845 153.441 202.871 153.462C203.308 153.747 203.769 153.993 204.249 154.197C205.157 154.646 206.144 154.915 207.154 154.987C207.249 154.992 207.341 155.019 207.424 155.065C207.507 155.111 207.578 155.176 207.632 155.254C207.784 155.473 207.969 155.667 208.139 155.872C208.309 156.076 208.432 156.226 208.544 156.41C208.706 156.684 208.954 156.896 209.25 157.013C209.812 157.226 210.408 157.335 211.009 157.336C212.593 157.402 214.179 157.257 215.725 156.905C216.528 156.746 217.322 156.542 218.103 156.296C218.948 156.031 219.772 155.703 220.568 155.315C221.205 155.023 221.797 154.643 222.327 154.185C222.555 153.998 222.722 153.747 222.805 153.465C222.84 153.307 222.837 153.172 222.884 153.011C222.989 152.572 223.092 152.132 223.177 151.693C223.329 151.017 223.429 150.335 223.52 149.644C223.628 148.981 223.701 148.314 223.74 147.644C223.757 146.956 223.798 146.276 223.784 145.594C223.766 144.441 223.71 143.284 223.64 142.119C223.599 141.58 223.491 140.965 223.429 140.417C223.372 139.979 223.252 139.551 223.071 139.147C222.937 138.865 222.736 138.621 222.485 138.435C221.783 137.935 220.984 137.586 220.14 137.41C219.344 137.236 218.53 137.16 217.716 137.182C217.373 137.182 217.039 137.153 216.696 137.182C210.833 137.393 206.99 139.41 206.377 139.709C205.731 140.019 205.107 140.374 204.51 140.772C203.994 141.141 203.523 141.571 203.109 142.051C202.79 142.404 202.548 142.819 202.396 143.269C202.348 143.445 202.321 143.626 202.314 143.808C202.294 144.025 202.297 144.036 202.092 144.031C200.898 144.031 199.905 144.452 199.242 145.477C199.006 145.876 198.857 146.322 198.806 146.783C198.716 147.375 198.749 147.979 198.902 148.557ZM207.066 144.458C206.345 144.459 205.627 144.379 204.923 144.221C204.748 144.196 204.58 144.138 204.428 144.048C204.561 143.607 204.8 143.204 205.126 142.877C205.342 142.665 205.573 142.47 205.817 142.291C206.244 141.974 206.698 141.694 207.175 141.457C207.911 141.092 208.669 140.771 209.443 140.496C210.197 140.227 210.909 140.022 211.704 139.826C212.416 139.644 212.993 139.533 213.72 139.422C214.63 139.276 215.547 139.185 216.467 139.15C217.403 139.103 218.341 139.161 219.264 139.322C220.02 139.475 220.826 139.7 221.421 140.218C221.406 140.242 221.389 140.256 221.374 140.28C221.315 140.344 221.26 140.406 221.201 140.461C221.044 140.616 220.875 140.759 220.697 140.889C220.021 141.388 219.289 141.805 218.516 142.133C218.34 142.212 218.164 142.294 217.985 142.365C217.89 142.409 217.792 142.449 217.692 142.482C217.106 142.725 216.52 142.918 215.934 143.102C215.347 143.287 214.781 143.454 214.175 143.577C213.72 143.679 213.269 143.799 212.815 143.902C212.781 143.907 212.748 143.907 212.715 143.902C212.715 143.902 212.686 143.902 212.665 143.902L212.413 143.96C211.806 144.066 211.196 144.162 210.584 144.253C210.041 144.335 209.502 144.417 208.951 144.458C208.323 144.49 207.694 144.49 207.066 144.458ZM201.611 147.53C201.617 147.262 201.704 147.002 201.861 146.785C202.018 146.568 202.238 146.404 202.49 146.314C202.615 146.271 202.742 146.236 202.871 146.209C203.164 147.064 203.534 147.869 203.868 148.677C204.305 149.749 204.821 150.771 205.334 151.79C205.492 152.083 205.92 152.888 206.281 153.184L205.562 152.806C204.862 152.394 204.221 151.888 203.657 151.304C203.042 150.743 202.512 150.096 202.083 149.383C201.741 148.827 201.577 148.181 201.611 147.53Z" fill="#007CFF"/>
<path opacity="0.8" d="M198.902 148.557C199.028 148.987 199.2 149.401 199.415 149.793C199.709 150.377 200.06 150.931 200.462 151.447C201.016 152.112 201.665 152.692 202.388 153.169C202.411 153.169 202.845 153.441 202.871 153.462C203.308 153.747 203.769 153.993 204.249 154.197C205.157 154.646 206.144 154.915 207.154 154.987C207.249 154.992 207.341 155.019 207.424 155.065C207.507 155.111 207.578 155.176 207.632 155.254C207.784 155.473 207.969 155.667 208.139 155.872C208.309 156.076 208.432 156.226 208.544 156.41C208.706 156.684 208.954 156.896 209.25 157.013C209.812 157.226 210.408 157.335 211.009 157.336C212.593 157.402 214.179 157.257 215.725 156.905C216.528 156.746 217.322 156.542 218.103 156.296C218.948 156.031 219.772 155.703 220.568 155.315C221.205 155.023 221.797 154.643 222.327 154.185C222.555 153.998 222.722 153.747 222.805 153.465C222.84 153.307 222.837 153.172 222.884 153.011C222.989 152.572 223.092 152.132 223.177 151.693C223.329 151.017 223.429 150.335 223.52 149.644C223.628 148.981 223.701 148.314 223.74 147.644C223.757 146.956 223.798 146.276 223.784 145.594C223.766 144.441 223.71 143.284 223.64 142.119C223.599 141.58 223.491 140.965 223.429 140.417C223.372 139.979 223.252 139.551 223.071 139.147C222.937 138.865 222.736 138.621 222.485 138.435C221.783 137.935 220.984 137.586 220.14 137.41C219.344 137.236 218.53 137.16 217.716 137.182C217.373 137.182 217.039 137.153 216.696 137.182C210.833 137.393 206.99 139.41 206.377 139.709C205.731 140.019 205.107 140.374 204.51 140.772C203.994 141.141 203.523 141.571 203.109 142.051C202.79 142.404 202.548 142.819 202.396 143.269C202.348 143.445 202.321 143.626 202.314 143.808C202.294 144.025 202.297 144.036 202.092 144.031C200.898 144.031 199.905 144.452 199.242 145.477C199.006 145.876 198.857 146.322 198.806 146.783C198.716 147.375 198.749 147.979 198.902 148.557ZM207.066 144.458C206.345 144.459 205.627 144.379 204.923 144.221C204.748 144.196 204.58 144.138 204.428 144.048C204.561 143.607 204.8 143.204 205.126 142.877C205.342 142.665 205.573 142.47 205.817 142.291C206.244 141.974 206.698 141.694 207.175 141.457C207.911 141.092 208.669 140.771 209.443 140.496C210.197 140.227 210.909 140.022 211.704 139.826C212.416 139.644 212.993 139.533 213.72 139.422C214.63 139.276 215.547 139.185 216.467 139.15C217.403 139.103 218.341 139.161 219.264 139.322C220.02 139.475 220.826 139.7 221.421 140.218C221.406 140.242 221.389 140.256 221.374 140.28C221.315 140.344 221.26 140.406 221.201 140.461C221.044 140.616 220.875 140.759 220.697 140.889C220.021 141.388 219.289 141.805 218.516 142.133C218.34 142.212 218.164 142.294 217.985 142.365C217.89 142.409 217.792 142.449 217.692 142.482C217.106 142.725 216.52 142.918 215.934 143.102C215.347 143.287 214.781 143.454 214.175 143.577C213.72 143.679 213.269 143.799 212.815 143.902C212.781 143.907 212.748 143.907 212.715 143.902C212.715 143.902 212.686 143.902 212.665 143.902L212.413 143.96C211.806 144.066 211.196 144.162 210.584 144.253C210.041 144.335 209.502 144.417 208.951 144.458C208.323 144.49 207.694 144.49 207.066 144.458ZM201.611 147.53C201.617 147.262 201.704 147.002 201.861 146.785C202.018 146.568 202.238 146.404 202.49 146.314C202.615 146.271 202.742 146.236 202.871 146.209C203.164 147.064 203.534 147.869 203.868 148.677C204.305 149.749 204.821 150.771 205.334 151.79C205.492 152.083 205.92 152.888 206.281 153.184L205.562 152.806C204.862 152.394 204.221 151.888 203.657 151.304C203.042 150.743 202.512 150.096 202.083 149.383C201.741 148.827 201.577 148.181 201.611 147.53Z" fill="white"/>
<path opacity="0.7" d="M203.886 144.637C205.451 145.539 208.576 145.609 213.451 144.511C218.325 143.413 221.116 142.01 222.142 140.52C222.822 139.536 222.204 138.429 221.442 137.841C221.029 137.661 220.6 137.521 220.161 137.422C219.365 137.249 218.551 137.173 217.736 137.197C217.396 137.197 217.053 137.167 216.716 137.179C210.853 137.396 207.007 139.416 206.404 139.715C205.754 140.02 205.129 140.374 204.533 140.775C204.222 140.992 203.927 141.234 203.654 141.498C202.801 142.485 202.734 143.969 203.886 144.637ZM204.416 144.051C204.548 143.609 204.787 143.206 205.114 142.88C205.329 142.669 205.559 142.473 205.803 142.294C206.232 141.977 206.688 141.696 207.166 141.457C207.899 141.094 208.654 140.775 209.426 140.502C210.185 140.236 210.909 140.028 211.689 139.832C212.404 139.653 212.982 139.539 213.709 139.431C214.619 139.283 215.537 139.19 216.458 139.153C217.392 139.108 218.328 139.168 219.249 139.331C220.032 139.439 220.774 139.747 221.403 140.224C221.391 140.244 221.378 140.263 221.362 140.28C221.309 140.348 221.25 140.412 221.186 140.47C221.031 140.625 220.865 140.768 220.688 140.898C220.011 141.394 219.279 141.812 218.507 142.142L217.974 142.373L217.681 142.493C217.094 142.725 216.508 142.927 215.922 143.111C215.335 143.296 214.767 143.454 214.163 143.583C213.706 143.682 213.254 143.811 212.797 143.905L212.706 143.925H212.659L212.445 143.966C212.43 143.968 212.414 143.968 212.398 143.966C211.794 144.08 211.185 144.168 210.575 144.259C210.033 144.335 209.487 144.414 208.942 144.455C208.312 144.505 207.67 144.484 207.034 144.473C206.315 144.471 205.598 144.39 204.897 144.23C204.726 144.206 204.562 144.145 204.416 144.051Z" fill="white"/>
<path d="M204.428 144.051C204.58 144.14 204.748 144.199 204.923 144.224C205.626 144.382 206.345 144.461 207.066 144.461C207.699 144.493 208.333 144.493 208.965 144.461C209.517 144.42 210.056 144.338 210.598 144.256C211.211 144.18 211.821 144.083 212.427 143.963L212.68 143.904C212.7 143.904 212.721 143.904 212.729 143.904C212.762 143.909 212.796 143.909 212.829 143.904C213.283 143.802 213.735 143.682 214.189 143.579C214.775 143.456 215.362 143.287 215.948 143.105C216.534 142.923 217.121 142.727 217.707 142.484C217.807 142.451 217.905 142.412 218 142.367C218.179 142.297 218.355 142.215 218.531 142.136C219.304 141.808 220.036 141.39 220.711 140.891C220.89 140.761 221.058 140.618 221.216 140.464C221.274 140.408 221.33 140.347 221.389 140.282C221.389 140.259 221.421 140.244 221.436 140.221C220.849 139.703 220.034 139.477 219.278 139.325C218.355 139.164 217.417 139.106 216.482 139.152C215.561 139.188 214.644 139.278 213.735 139.425C213.008 139.547 212.43 139.647 211.718 139.829C210.938 140.025 210.211 140.23 209.458 140.499C208.683 140.774 207.925 141.094 207.189 141.459C206.713 141.697 206.259 141.976 205.832 142.294C205.587 142.472 205.356 142.668 205.14 142.88C204.81 143.205 204.565 143.608 204.428 144.051Z" fill="#835135"/>
<path opacity="0.3" d="M204.111 142.531C204.241 142.311 204.39 142.103 204.557 141.91C205.246 141.143 206.855 139.887 210.352 138.736C211.547 138.341 212.78 138.069 214.031 137.925C217.256 137.559 219.524 137.946 220.442 138.329C220.675 138.433 220.899 138.556 221.11 138.698C221.342 138.854 221.508 139.09 221.573 139.362C221.638 139.633 221.598 139.919 221.462 140.162C221.405 140.242 221.341 140.316 221.272 140.385C219.061 138.848 214.078 139.603 212.448 139.905C210.851 140.332 206.023 141.784 204.689 144.121C204.597 144.089 204.508 144.05 204.422 144.004C204.195 143.842 204.037 143.601 203.98 143.328C203.922 143.055 203.969 142.771 204.111 142.531Z" fill="black"/>
<path d="M203.765 148.396C203.765 148.396 205.618 152.712 205.164 153.23L203.112 155.573C203.112 155.573 198.422 160.164 193.635 161.028C192.808 161.161 191.961 161.038 191.207 160.674C190.453 160.311 189.829 159.725 189.419 158.996L188.991 158.249C188.804 157.914 188.657 157.558 188.555 157.189C187.968 155.16 188.622 153.968 190.287 152.7L195.045 148.894C195.474 148.561 195.994 148.366 196.537 148.335L202.259 146.669C202.989 146.628 203.34 147.181 203.765 148.396Z" fill="#FF978D"/>
<path d="M186.453 155.374C187.559 156.068 188.437 157.072 188.977 158.261C189.871 160.237 190.952 162.694 190.952 162.694L192.987 160.858C192.987 160.858 192.348 157.376 190.589 155.617L188.83 153.86C188.83 153.86 187.394 155.022 186.453 155.374Z" fill="#007CFF"/>
<path opacity="0.9" d="M186.453 155.374C187.559 156.068 188.437 157.072 188.977 158.261C189.871 160.237 190.952 162.694 190.952 162.694L192.987 160.858C192.987 160.858 192.348 157.376 190.589 155.617L188.83 153.86C188.83 153.86 187.394 155.022 186.453 155.374Z" fill="white"/>
<path d="M183.987 78.6479C184.389 77.9276 184.509 76.8735 183.899 76.3318C182.867 75.3099 181.37 74.5428 179.948 74.9322C178.013 76.4987 181.252 77.6084 182.038 78.4986C182.545 79.049 183.539 79.4385 183.987 78.6479Z" fill="#FF978D"/>
<path d="M169.844 74.5342C165.221 76.291 162.433 80.2497 163.623 83.3944C164.813 86.5391 169.536 87.6664 174.159 85.9183C178.781 84.1703 181.569 80.2028 180.376 77.0581C179.183 73.9134 174.475 72.7832 169.844 74.5342ZM171.491 79.3742C170.081 79.91 168.777 79.9364 168.586 79.4298C168.396 78.9233 169.389 78.0829 170.799 77.55C172.209 77.0171 173.523 76.9849 173.731 77.4915C173.939 77.998 172.913 78.8384 171.491 79.3742Z" fill="#007CFF"/>
<path d="M165.115 84.4218C165.37 84.2373 165.367 83.8567 165.555 83.6078C165.792 83.2916 166.276 83.2769 166.639 83.4263C166.988 83.6126 167.326 83.8188 167.651 84.0441C168.236 84.3418 168.912 84.4045 169.542 84.2194C170.172 84.0343 170.706 83.6153 171.037 83.0485C171.128 82.8293 171.251 82.6243 171.4 82.4395C171.872 81.9652 172.658 82.2141 173.323 82.2668C173.868 82.3005 174.412 82.1814 174.894 81.9227C175.375 81.664 175.774 81.2761 176.046 80.8028C176.174 80.4897 176.356 80.2013 176.583 79.9507C177.134 79.4735 177.999 79.7487 178.682 79.5027C179.365 79.2568 179.778 78.5013 179.954 77.7781C180.045 77.3945 180.1 77.0051 180.174 76.6069C178.726 73.7989 174.252 72.8503 169.843 74.5163C166.065 75.9452 163.515 78.8556 163.359 81.5904C163.402 81.4882 163.454 81.3902 163.515 81.2976C163.454 81.3902 163.402 81.4882 163.359 81.5904C163.287 82.5248 163.54 83.4556 164.075 84.2256C164.184 84.3032 164.302 84.3671 164.426 84.4159C164.532 84.4725 164.65 84.5026 164.77 84.5036C164.89 84.5046 165.008 84.4765 165.115 84.4218ZM170.799 77.5497C172.221 77.0139 173.522 76.9846 173.73 77.4912C173.939 77.9977 172.927 78.8381 171.506 79.3739C170.084 79.9097 168.791 79.9361 168.601 79.4295C168.41 78.923 169.389 78.0826 170.799 77.5497Z" fill="#1A2E35"/>
<path d="M180.88 76.0361L180.901 76.083C180.851 76.083 179.453 76.3758 176.53 76.244C174.689 76.165 173.244 77.4474 173.232 79.2043V79.8308C173.232 81.3183 174.252 82.7325 175.75 83.3005L184.213 85.0047L190.076 85.233L192.248 80.5482L180.88 76.0361Z" fill="#FF978D"/>
<path opacity="0.3" d="M205.996 101.905L208.684 106.315C210.694 109.62 213.689 112.213 217.25 113.732C217.25 113.732 219.935 113.928 221.579 112.929C223.224 111.931 205.996 101.905 205.996 101.905Z" fill="black"/>
<path d="M189.378 86.1287C189.378 86.1287 211.618 118.966 218.756 117.268C225.642 115.628 233.1 108.932 191.292 78.8496L189.378 86.1287Z" fill="#007CFF"/>
<path opacity="0.7" d="M189.378 86.1287C189.378 86.1287 211.618 118.966 218.756 117.268C225.642 115.628 233.1 108.932 191.292 78.8496L189.378 86.1287Z" fill="white"/>
<path d="M189.531 86.524C189.722 84.958 190.375 83.4842 191.407 82.29C191.577 82.0939 191.756 81.9094 191.943 81.7308C192.139 81.4654 192.365 81.2237 192.617 81.0105C192.864 80.8148 193.133 80.6478 193.418 80.5127L193.567 80.3751L191.313 78.8701C191.313 78.8701 188.358 81.2711 187.235 83.9297C186.944 84.7772 186.801 85.6688 186.813 86.5649C187.282 86.5269 187.751 86.4537 188.22 86.4332C188.659 86.4239 189.097 86.4543 189.531 86.524Z" fill="#007CFF"/>
<path opacity="0.9" d="M189.531 86.524C189.722 84.958 190.375 83.4842 191.407 82.29C191.577 82.0939 191.756 81.9094 191.943 81.7308C192.139 81.4654 192.365 81.2237 192.617 81.0105C192.864 80.8148 193.133 80.6478 193.418 80.5127L193.567 80.3751L191.313 78.8701C191.313 78.8701 188.358 81.2711 187.235 83.9297C186.944 84.7772 186.801 85.6688 186.813 86.5649C187.282 86.5269 187.751 86.4537 188.22 86.4332C188.659 86.4239 189.097 86.4543 189.531 86.524Z" fill="white"/>
<path opacity="0.2" d="M325.913 253.143L328.621 254.672L334.238 246.233L331.684 244.227L325.913 253.143Z" fill="black"/>
<path d="M332.118 243.56L325.191 254.262C325.191 254.262 295.423 247.881 262.243 216.388L262.343 215.828C243.274 220.449 189.082 219.963 180.215 210.385C175.611 205.257 172.718 198.826 171.937 191.983L202.223 182.115C202.223 182.115 244.907 186.507 265.682 196.509C287.485 204.749 332.118 243.56 332.118 243.56Z" fill="#007CFF"/>
<path d="M332.118 243.56L325.191 254.262C325.191 254.262 295.423 247.881 262.243 216.388L262.343 215.828C243.274 220.449 189.082 219.963 180.215 210.385C175.611 205.257 172.718 198.826 171.937 191.983L202.223 182.115C202.223 182.115 244.907 186.507 265.682 196.509C287.485 204.749 332.118 243.56 332.118 243.56Z" fill="#007CFF"/>
<path opacity="0.6" d="M332.118 243.56L325.191 254.262C325.191 254.262 295.423 247.881 262.243 216.388L262.343 215.828C243.274 220.449 189.082 219.963 180.215 210.385C175.611 205.257 172.718 198.826 171.937 191.983L202.223 182.115C202.223 182.115 244.907 186.507 265.682 196.509C287.485 204.749 332.118 243.56 332.118 243.56Z" fill="black"/>
<path d="M153.281 192.741C153.281 192.741 153.999 212.151 160.941 221.034L208.227 196.345L207.787 194.814C207.19 192.749 207.205 190.556 207.829 188.5C208.453 186.443 209.661 184.611 211.305 183.225C207.981 182.786 204.337 182.876 201.725 180.2C201.725 180.2 192.758 188.235 153.281 192.741Z" fill="#007CFF"/>
<g opacity="0.6">
<path d="M153.281 192.741C153.281 192.741 153.999 212.151 160.941 221.034L208.227 196.345L207.787 194.814C207.19 192.749 207.205 190.556 207.829 188.5C208.453 186.443 209.661 184.611 211.305 183.225C207.981 182.786 204.337 182.876 201.725 180.2C201.725 180.2 192.758 188.235 153.281 192.741Z" fill="black"/>
</g>
<path d="M334.079 233.215L336.272 234.275L337.078 234.662L344.544 238.263L345.292 238.623L344.609 247.682L344.579 248.078L343.899 247.87L340.877 246.939L334.548 245L333.15 244.573L330.175 243.659L330.752 242.119L334.073 233.227L334.079 233.215Z" fill="#FFC3BD"/>
<path d="M334.372 232.436L334.079 233.215L330.758 242.105L330.172 243.648L329.685 244.948L326.461 243.926L307.213 237.827C293.275 235.326 267.1 220.844 267.1 220.844C248.598 229.874 182.445 240.442 171.198 232.621C165.324 228.4 160.91 222.459 158.566 215.621L171.397 208.76C188.63 199.557 207.877 194.76 227.418 194.8C241.967 194.817 258.362 195.529 269.193 198.088C293.398 201.663 334.372 232.436 334.372 232.436Z" fill="#007CFF"/>
<path d="M341.015 251.553L338.415 260.208L335.202 258.39L325.913 253.143L331.684 244.227L333.05 245.302L334.238 246.233L340.394 251.064L341.015 251.553Z" fill="#FFC3BD"/>
<path d="M358.143 247.586C355.42 250.929 352.796 253.863 350.814 256.276C347.59 260.208 346.558 261.839 344.072 264.996C343.776 265.359 343.35 265.593 342.884 265.647C342.419 265.702 341.95 265.573 341.578 265.288L335.228 259.38C335.096 259.251 335.02 259.076 335.015 258.892C335.01 258.707 335.077 258.529 335.202 258.393L340.385 251.073C340.81 250.584 342.976 249.395 343.609 249.255C347.127 248.376 349.789 248.318 356.249 243.003C356.877 242.476 357.856 242.655 358.515 243.317C359.339 244.142 359.67 245.72 358.143 247.586Z" fill="#1A2E35"/>
<path d="M361.601 232.621C359.412 236.337 357.259 239.632 355.663 242.315C353.067 246.688 352.293 248.456 350.31 251.95C350.072 252.354 349.686 252.649 349.234 252.773C348.781 252.897 348.299 252.841 347.888 252.615L340.722 247.729C340.572 247.621 340.47 247.46 340.437 247.279C340.405 247.097 340.444 246.91 340.547 246.757L344.569 238.741C344.916 238.193 346.879 236.692 347.484 236.458C350.829 235.06 353.452 234.602 359.039 228.376C359.58 227.761 360.575 227.79 361.326 228.345C362.265 229.037 362.83 230.548 361.601 232.621Z" fill="#1A2E35"/>
<path d="M334.372 232.436L334.079 233.215L330.758 242.104L330.172 243.647L329.685 244.947L326.461 243.926L307.213 237.827C293.275 235.326 267.1 220.844 267.1 220.844C248.598 229.874 182.445 240.441 171.198 232.621C165.238 228.284 160.557 225.965 156.69 212.59C172.793 201.301 191.919 195.103 211.589 194.799C216.866 194.72 222.174 194.799 227.419 194.799C241.967 194.817 258.362 195.528 269.193 198.087C293.398 201.663 334.372 232.436 334.372 232.436Z" fill="#007CFF"/>
<g opacity="0.6">
<path d="M334.372 232.436L334.079 233.215L330.758 242.104L330.172 243.647L329.685 244.947L326.461 243.926L307.213 237.827C293.275 235.326 267.1 220.844 267.1 220.844C248.598 229.874 182.445 240.441 171.198 232.621C165.238 228.284 160.557 225.965 156.69 212.59C172.793 201.301 191.919 195.103 211.589 194.799C216.866 194.72 222.174 194.799 227.419 194.799C241.967 194.817 258.362 195.528 269.193 198.087C293.398 201.663 334.372 232.436 334.372 232.436Z" fill="black"/>
</g>
<path opacity="0.3" d="M207.488 189.998C207.488 189.998 204.788 195.417 187.446 198.214C170.104 201.01 207.321 196.02 226.044 194.767C226.044 194.767 211.947 193.256 207.488 189.998Z" fill="black"/>
<g opacity="0.7">
<path d="M282.566 82.5772C276.757 75.9745 267.874 75.6993 259.869 75.9247C256.964 76.0184 253.904 76.1707 251.403 77.9451C248.903 79.7195 247.249 83.7338 248.615 86.8228C249.94 89.8592 253.792 91.8473 252.963 95.1326C246.27 98.9156 238.429 97.7326 231.136 99.2933C225.349 100.529 219.832 103.562 215.277 108.022C214.034 109.243 212.791 110.71 212.513 112.604C212.055 115.81 214.374 118.223 216.889 119.863C216.993 119.941 217.075 120.045 217.128 120.165C217.181 120.284 217.202 120.415 217.19 120.545C217.178 120.674 217.133 120.799 217.059 120.907C216.986 121.014 216.886 121.101 216.769 121.16C215.01 121.813 213.31 122.624 211.885 123.979L211.853 124.009C210.974 124.84 211.56 126.568 212.668 126.492C212.806 126.492 212.944 126.492 213.081 126.492C216.112 126.465 218.586 128.433 218.601 130.884C218.616 133.334 216.162 135.337 213.131 135.364C212.381 135.364 212.888 136.485 213.949 136.798C216.06 137.44 218.279 137.132 220.424 136.722C222.981 136.23 225.748 135.41 227.331 132.951C228.914 130.491 228.272 125.959 225.718 125.414C230.938 125.114 236.112 124.275 241.158 122.911C243.38 122.325 245.798 121.429 246.997 119.104C248.196 116.779 246.962 112.824 244.693 113.131C251.368 110.654 258.327 109.477 265.04 107.219C271.753 104.962 278.442 101.419 283.132 95.2145C284.161 93.8442 285.117 92.2865 285.384 90.477C285.817 87.5139 284.378 84.6122 282.566 82.5772Z" fill="#D1D5D7"/>
</g>
</g>
<defs>
<clipPath id="clip0_75_346">
<rect width="511" height="312" fill="white" transform="translate(0 0.500488)"/>
</clipPath>
</defs>
</svg>
