<svg width="46" height="45" viewBox="0 0 46 45" fill="none" xmlns="http://www.w3.org/2000/svg">
<path fill-rule="evenodd" clip-rule="evenodd" d="M37.5318 33.0084C37.7998 32.9417 38.071 33.1049 38.1377 33.3728L38.8828 36.3674C38.9495 36.6354 38.7863 36.9067 38.5183 36.9733L22.5098 40.9563C22.2419 41.023 21.9706 40.8598 21.9039 40.5919L21.1588 37.5973C21.0922 37.3293 21.2553 37.058 21.5233 36.9914L37.5318 33.0084ZM33.525 11.1833C33.7414 11.0117 34.0559 11.048 34.2275 11.2643L36.1449 13.6822C36.3165 13.8985 36.2802 14.213 36.0638 14.3846L17.2363 29.3157C17.0199 29.4873 16.7054 29.451 16.5338 29.2346L14.6164 26.8167C14.4448 26.6004 14.4811 26.2859 14.6974 26.1143L33.525 11.1833ZM14.2737 1.35371C14.031 1.222 13.7274 1.31197 13.5957 1.55467L4.26608 18.7456C4.13436 18.9883 4.22433 19.2919 4.46704 19.4236L7.17923 20.8955C7.42194 21.0272 7.72546 20.9373 7.85718 20.6945L17.1868 3.50359C17.3185 3.26089 17.2286 2.95736 16.9859 2.82564L14.2737 1.35371Z" fill="#FC9823"/>
</svg>
