<svg width="62" height="62" viewBox="0 0 62 62" fill="none" xmlns="http://www.w3.org/2000/svg">
<path d="M43.8573 45.6665H18.1431C16.9597 45.6665 16.0002 44.7079 16.0002 43.5236V17.8094C16.0002 16.625 16.9597 15.6665 18.1431 15.6665H43.8573C45.0417 15.6665 46.0002 16.625 46.0002 17.8094V43.5236C46.0002 44.7079 45.0417 45.6665 43.8573 45.6665ZM20.286 41.3808H41.7145V19.9522H20.286V41.3808Z" fill="#E4E4E4" stroke="#F9F9F9"/>
<path d="M32.999 45C32.5378 45 32.0753 44.842 31.6981 44.5174L17.6985 32.5172C16.8597 31.7984 16.7628 30.5368 17.4815 29.6988C18.2003 28.8591 19.4649 28.7631 20.302 29.4818L34.3005 41.4821C35.1402 42.2009 35.238 43.4625 34.5174 44.3004C34.1228 44.7634 33.5621 45 32.9987 45H32.999Z" fill="#E4E4E4"/>
<path d="M28.9998 40C28.4882 40 27.9766 39.8208 27.5859 39.4627C26.8047 38.7466 26.8047 37.5864 27.5859 36.8703L35.5859 29.5371C36.3672 28.821 37.6328 28.821 38.4141 29.5371L44.4141 35.037C45.1953 35.7531 45.1953 36.9132 44.4141 37.6294C43.6328 38.3455 42.3672 38.3455 41.5859 37.6294L36.9998 33.4259L30.4136 39.4631C30.023 39.8208 29.5114 40 28.9998 40V40Z" fill="#E4E4E4"/>
<path d="M35.2859 60.6664H26.7145C25.5311 60.6664 24.5716 59.7079 24.5716 58.5236V55.5522C22.2322 54.9538 20.0137 54.0374 17.9441 52.8129L15.8471 54.9098C15.0101 55.7469 13.6541 55.7469 12.817 54.9098L6.75678 48.8496C5.91973 48.0126 5.91973 46.6566 6.75583 45.8195L8.85276 43.7226C7.63066 41.6529 6.71419 39.4344 6.11444 37.095H3.1431C1.95974 37.095 1.00024 36.1365 1.00024 34.9522V26.3807C1.00024 25.1964 1.95974 24.2379 3.1431 24.2379H6.11444C6.71424 21.8985 7.63072 19.68 8.85276 17.6104L6.75583 15.5139C5.92021 14.6769 5.92021 13.3209 6.75726 12.4833L12.8175 6.42307C13.6545 5.58602 15.0106 5.58602 15.8476 6.42307L17.9441 8.52C20.0137 7.29599 22.2322 6.3796 24.5716 5.7807V2.80936C24.5716 1.62505 25.5311 0.666504 26.7145 0.666504H35.2859C36.4702 0.666504 37.4287 1.62505 37.4287 2.80936V5.7807C39.7681 6.37907 41.9866 7.29551 44.0563 8.51767L46.1532 6.42319C46.9902 5.58614 48.3463 5.58614 49.1833 6.42319L55.2436 12.4834C56.0806 13.3205 56.0806 14.6765 55.2436 15.5135L53.1491 17.6105C54.3712 19.6801 55.2876 21.8981 55.886 24.238H58.8574C60.0417 24.238 61.0002 25.1966 61.0002 26.3809V34.9523C61.0002 36.1366 60.0417 37.0951 58.8574 37.0951H55.886C55.2877 39.4345 54.3712 41.6531 53.1491 43.7227L55.2436 45.8196C56.0806 46.6567 56.0806 48.0127 55.2436 48.8497L49.1833 54.91C48.3463 55.747 46.9903 55.747 46.1532 54.91L44.0563 52.813C41.9866 54.037 39.7686 54.9539 37.4287 55.5523V58.5237C37.4287 59.708 36.4702 60.6665 35.2859 60.6665L35.2859 60.6664ZM28.8573 56.3807H33.143V53.8298C33.143 52.7962 33.8815 51.9089 34.8985 51.7224C37.8846 51.1723 40.6573 50.0272 43.1394 48.3177C43.9889 47.7275 45.1377 47.8365 45.8701 48.5669L47.6677 50.3644L50.6978 47.3343L48.9002 45.535C48.1698 44.8026 48.0656 43.6556 48.651 42.8042C50.361 40.3246 51.5052 37.5518 52.0557 34.5657C52.2427 33.5479 53.1295 32.8093 54.1637 32.8093H56.7145V28.5236H54.1637C53.13 28.5236 52.2427 27.7851 52.0562 26.7682C51.5061 23.782 50.361 21.0093 48.6515 18.5297C48.0656 17.6778 48.1703 16.5314 48.9007 15.799L50.6983 13.9996L47.6682 10.9695L45.8688 12.767C45.1365 13.4974 43.9894 13.606 43.138 13.0162C40.6584 11.3063 37.8856 10.1621 34.8996 9.61156C33.8817 9.42407 33.1432 8.53727 33.1432 7.50311V4.95226H28.8574V7.50311C28.8574 8.53675 28.1199 9.42409 27.103 9.61058C24.115 10.1606 21.3431 11.3058 18.8621 13.0153C18.0111 13.6055 16.8617 13.4965 16.1309 12.7661L14.3323 10.9685L11.3022 13.9986L13.1011 15.7985C13.8315 16.5308 13.9358 17.6778 13.3489 18.5292C11.6403 21.0088 10.4947 23.7817 9.94417 26.7677C9.75668 27.7851 8.87084 28.5236 7.83671 28.5236H5.28586V32.8093H7.83671C8.87035 32.8093 9.75671 33.5478 9.94417 34.5648C10.4942 37.5509 11.6403 40.3236 13.3489 42.8032C13.9358 43.6551 13.831 44.8016 13.1011 45.534L11.3022 47.3334L14.3323 50.3635L16.1312 48.5659C16.8616 47.8379 18.0114 47.727 18.8619 48.3167C21.3425 50.0267 24.1144 51.1709 27.1029 51.7214C28.1198 51.9089 28.8573 52.7957 28.8573 53.8298V56.3807Z" fill="#E4E4E4" stroke="#F9F9F9"/>
<path d="M33.1429 26.3808C33.1429 28.7475 31.2239 30.6665 28.8572 30.6665C26.4906 30.6665 24.5715 28.7475 24.5715 26.3808C24.5715 24.0141 26.4906 22.0951 28.8572 22.0951C31.2239 22.0951 33.1429 24.0141 33.1429 26.3808Z" fill="#E4E4E4" stroke="#F9F9F9"/>
</svg>
