<svg width="60" height="61" viewBox="0 0 60 61" fill="none" xmlns="http://www.w3.org/2000/svg">
<path fill-rule="evenodd" clip-rule="evenodd" d="M8.74658 2.39001L16.7577 15.7379L8.74658 29.0889L1.62637 15.7379L8.74658 2.39001ZM26.2018 1.57892L34.225 14.949H18.1251L10.102 1.57892H26.2018ZM27.136 31.2761C27.1741 31.2476 27.2021 31.2222 27.2306 31.1847C27.2623 31.1498 27.3004 31.134 27.3252 31.0959L36.2958 16.1445C36.3174 16.1065 36.2989 16.0653 36.3111 16.0277C36.3428 15.958 36.3618 15.9046 36.3682 15.8317C36.3745 15.7974 36.4094 15.7752 36.4094 15.7371C36.4094 15.7023 36.3745 15.6806 36.3682 15.6457C36.3618 15.5728 36.3428 15.5194 36.3111 15.4502C36.2989 15.4122 36.3174 15.371 36.2958 15.3334L27.3252 0.382035C27.3067 0.350331 27.2655 0.35033 27.2433 0.324967C27.1804 0.239895 27.098 0.20185 27.0066 0.148481C26.9152 0.0977543 26.8422 0.0507263 26.7413 0.0380447C26.707 0.0317039 26.6848 0 26.6467 0H8.70723C8.66601 0 8.63748 0.0380449 8.59679 0.044385C8.52387 0.0570665 8.4705 0.0660498 8.40392 0.0945823C8.36958 0.110435 8.3347 0.0914115 8.303 0.110434C8.27129 0.129456 8.27129 0.170672 8.24329 0.192337C8.18305 0.236721 8.14818 0.281107 8.10433 0.340822C8.07896 0.372527 8.03141 0.378867 8.01291 0.416912L0.0367155 15.3683C0.0240339 15.3937 0.039886 15.4222 0.0303747 15.4476C-0.0108407 15.5422 0.00184017 15.6336 0.00184017 15.7377C0.00184017 15.8449 -0.0108407 15.9363 0.0303747 16.0315C0.039886 16.0563 0.0240339 16.0848 0.0367155 16.1102L8.01291 31.0616C8.03775 31.1118 8.08531 31.134 8.12018 31.1752C8.15135 31.2127 8.17672 31.2444 8.21793 31.2761C8.24647 31.3015 8.26496 31.3422 8.29983 31.3612C8.29983 31.3644 8.29983 31.3644 8.30301 31.3675C8.42612 31.4399 8.56509 31.478 8.70723 31.478H26.6467C26.8301 31.478 26.9939 31.3961 27.136 31.2761L27.136 31.2761Z" fill="#63AC43"/>
<path fill-rule="evenodd" clip-rule="evenodd" d="M44.1048 42.5219L57.2947 33.2897L58.3932 48.8431L45.2033 58.0816L44.1048 42.5219ZM42.1444 25.6443L56.3884 31.9951L43.2012 41.2304L28.9572 34.8763L42.1444 25.6443ZM59.9649 49.2733C59.9681 49.2384 60.0024 49.2162 59.9998 49.1787L58.7718 31.787C58.7686 31.7463 58.7274 31.7241 58.7179 31.6861C58.702 31.6105 58.6867 31.5534 58.6518 31.4874C58.636 31.4557 58.6487 31.4182 58.6296 31.3896C58.6043 31.3548 58.5604 31.3548 58.5287 31.3262C58.4843 31.276 58.4468 31.2475 58.3898 31.2094C58.3549 31.1878 58.3454 31.1402 58.3047 31.1212L42.3807 24.0195C42.3463 24.0037 42.3146 24.0259 42.2798 24.0164C42.182 23.9878 42.0938 24.0005 41.9897 24.01C41.8856 24.0195 41.7937 24.0227 41.7022 24.0734C41.6705 24.0893 41.6362 24.0766 41.6045 24.0951L26.9087 34.3851C26.8739 34.4099 26.8739 34.4575 26.8459 34.486C26.792 34.5362 26.7507 34.5774 26.7164 34.6403C26.6974 34.6688 26.6562 34.6752 26.6403 34.71C26.6245 34.7417 26.6498 34.7761 26.6371 34.811C26.6155 34.8802 26.6123 34.9404 26.6123 35.0128C26.6091 35.054 26.5743 35.0826 26.5806 35.1264L28.6229 51.9459C28.6261 51.9744 28.6541 51.9903 28.6604 52.022C28.6794 52.1039 28.7302 52.1604 28.774 52.2334C28.8343 52.3343 28.8908 52.4193 28.9859 52.4828C29.0139 52.5013 29.0171 52.5393 29.0488 52.5552L44.1585 60.2281C44.2689 60.2883 44.392 60.3131 44.5088 60.3131C44.512 60.3131 44.512 60.3163 44.512 60.3163H44.5151C44.5341 60.3163 44.5532 60.3163 44.569 60.3131C44.5944 60.3131 44.6102 60.2851 44.6319 60.282C44.7423 60.2661 44.8501 60.2408 44.9415 60.1811C44.9511 60.1747 44.9606 60.1779 44.9669 60.1715L59.6654 49.8788C59.6939 49.8598 59.6907 49.8186 59.7193 49.7964C59.7948 49.7272 59.8297 49.6453 59.8773 49.547C59.9211 49.4556 59.9623 49.3769 59.9655 49.2728L59.9649 49.2733Z" fill="#63AC43"/>
</svg>
