<svg width="38" height="40" viewBox="0 0 38 40" fill="none" xmlns="http://www.w3.org/2000/svg">
<path fill-rule="evenodd" clip-rule="evenodd" d="M26.0905 3.0969C25.967 2.84989 26.0672 2.54957 26.3142 2.42612L29.0745 1.04653C29.3215 0.92308 29.6218 1.02324 29.7453 1.27025L37.1203 16.0264C37.2438 16.2734 37.1436 16.5737 36.8966 16.6972L34.1363 18.0768C33.8893 18.2002 33.589 18.1001 33.4655 17.8531L26.0905 3.0969ZM5.66257 11.7624C5.44797 11.5886 5.41488 11.2737 5.58867 11.0591L7.53068 8.66099C7.70447 8.44639 8.01931 8.4133 8.23392 8.58708L26.9082 23.7094C27.1228 23.8832 27.1559 24.1981 26.9821 24.4127L25.0401 26.8108C24.8663 27.0254 24.5514 27.0585 24.3368 26.8847L5.66257 11.7624ZM0.263366 32.6928C0.18769 32.9584 0.341629 33.235 0.6072 33.3107L19.4178 38.6709C19.6834 38.7466 19.96 38.5926 20.0357 38.3271L20.8814 35.3593C20.9571 35.0938 20.8031 34.8171 20.5375 34.7415L1.72692 29.3812C1.46135 29.3056 1.18471 29.4595 1.10904 29.7251L0.263366 32.6928Z" fill="#FC9823"/>
</svg>
