<svg width="41" height="41" viewBox="0 0 41 41" fill="none" xmlns="http://www.w3.org/2000/svg">
<path fill-rule="evenodd" clip-rule="evenodd" d="M36.5304 28.3764C36.7821 28.2628 37.0782 28.3748 37.1918 28.6264L38.4614 31.4391C38.575 31.6907 38.4631 31.9869 38.2114 32.1005L23.1756 38.8874C22.9239 39.001 22.6278 38.889 22.5142 38.6374L21.2446 35.8247C21.131 35.5731 21.243 35.2769 21.4946 35.1633L36.5304 28.3764ZM28.6779 7.62245C28.8601 7.41487 29.176 7.39423 29.3835 7.57635L31.7032 9.61151C31.9108 9.79362 31.9314 10.1095 31.7493 10.3171L15.9017 28.38C15.7195 28.5875 15.4036 28.6082 15.1961 28.4261L12.8764 26.3909C12.6688 26.2088 12.6482 25.8929 12.8303 25.6853L28.6779 7.62245ZM7.97691 1.40135C7.71453 1.31525 7.43204 1.45815 7.34594 1.72053L1.24749 20.3049C1.16138 20.5673 1.30429 20.8498 1.56666 20.9359L4.4987 21.8981C4.76108 21.9842 5.04357 21.8413 5.12967 21.5789L11.2281 2.99447C11.3142 2.73209 11.1713 2.4496 10.909 2.3635L7.97691 1.40135Z" fill="#E4E4E4"/>
</svg>
