<svg width="55" height="46" viewBox="0 0 55 46" fill="none" xmlns="http://www.w3.org/2000/svg">
<path d="M6.77759 10.7849C6.77759 11.8573 7.20608 12.886 7.96865 13.6447C8.73167 14.403 9.76616 14.8291 10.8446 14.8291C11.9231 14.8291 12.9576 14.403 13.7206 13.6447C14.4832 12.886 14.9117 11.8573 14.9117 10.7849C14.9117 9.71251 14.4832 8.68378 13.7206 7.92509C12.9576 7.16681 11.9231 6.74072 10.8446 6.74072C9.76616 6.74072 8.73162 7.16681 7.96865 7.92509C7.20608 8.68383 6.77759 9.71251 6.77759 10.7849ZM12.2005 10.7849C12.2005 11.3302 11.87 11.8217 11.3634 12.0302C10.8569 12.2392 10.2736 12.1236 9.88595 11.7382C9.49829 11.3527 9.38211 10.7727 9.59228 10.269C9.80198 9.76523 10.2963 9.43665 10.8446 9.43665C11.2041 9.43665 11.549 9.57883 11.8032 9.83159C12.0574 10.0844 12.2004 10.4274 12.2004 10.7849L12.2005 10.7849Z" fill="#DFDFDF"/>
<path d="M43.3809 29.6575C42.6324 29.6575 42.025 30.2615 42.025 31.0057V36.3982H2.71079V31.7067L16.8234 21.7577C17.2287 21.4698 17.7739 21.4698 18.1792 21.7577L31.7364 32.0434V32.0438C32.0178 32.2889 32.3882 32.4072 32.7604 32.3711C33.1331 32.3354 33.4735 32.1476 33.7023 31.8533C33.931 31.559 34.0268 31.1835 33.9678 30.8166C33.9088 30.4492 33.6996 30.1224 33.39 29.9138L19.8328 19.6147H19.8333C19.1828 19.129 18.3953 18.86 17.5823 18.8451C16.7694 18.8307 15.9724 19.0717 15.305 19.5334L2.71119 28.4041V4.04418C2.71119 3.29943 3.31807 2.69596 4.06702 2.69596H40.6703C41.0298 2.69596 41.3743 2.83814 41.629 3.0909C41.8831 3.34367 42.0257 3.68669 42.0257 4.04418V5.39239V5.39194C42.0257 6.13669 42.633 6.74016 43.3815 6.74016C44.13 6.74016 44.7373 6.13669 44.7373 5.39194V4.04419C44.7373 2.9713 44.3089 1.9426 43.5458 1.18437C42.7833 0.426084 41.7488 0 40.6703 0H4.06703C2.98808 0 1.95357 0.426084 1.19106 1.18437C0.428549 1.94266 0 2.97132 0 4.04419V41.7892C0 42.8621 0.428491 43.8908 1.19106 44.649C1.95363 45.4072 2.98811 45.8334 4.06703 45.8334H40.6703C41.7488 45.8334 42.7833 45.4073 43.5458 44.649C44.3088 43.8907 44.7373 42.862 44.7373 41.7892V31.0048C44.7373 30.6474 44.5944 30.3043 44.3402 30.0516C44.086 29.7988 43.741 29.6566 43.3815 29.6566L43.3809 29.6575ZM42.025 41.7901C42.025 42.1476 41.8825 42.4906 41.6283 42.7434C41.3737 42.9961 41.0292 43.1383 40.6697 43.1383H4.06638C3.31743 43.1383 2.71055 42.5348 2.71055 41.7901V39.0941H42.0248L42.025 41.7901Z" fill="#DFDFDF"/>
<path d="M54.6058 23.3622L40.2213 9.05851C39.6925 8.53584 38.8387 8.53584 38.3099 9.05851L33.5107 13.8308C32.985 14.3566 32.985 15.2056 33.5107 15.7314L47.8952 30.0351C48.424 30.5578 49.2777 30.5578 49.8066 30.0351L54.6058 25.2629C55.1314 24.737 55.1314 23.8881 54.6058 23.3622ZM39.3137 11.9171L41.2387 13.8312L38.3646 16.6892L36.3856 14.8286L39.3137 11.9171ZM48.8036 27.1775L40.1681 18.5904L43.0422 15.7325L51.7318 24.2659L48.8036 27.1775Z" fill="#DFDFDF"/>
<path d="M28.4689 22.9177C28.8284 22.9177 29.1729 22.7755 29.4275 22.5228C29.6817 22.27 29.8243 21.927 29.8243 21.5695V20.2218H31.1801C31.9286 20.2218 32.5359 19.6178 32.5359 18.8735C32.5359 18.1292 31.9286 17.5253 31.1801 17.5253H29.8243V16.1776C29.8243 15.4328 29.2174 14.8293 28.4689 14.8293C27.7199 14.8293 27.1131 15.4328 27.1131 16.1776V17.5258L25.7572 17.5253C25.0087 17.5253 24.4019 18.1293 24.4019 18.8735C24.4019 19.6178 25.0087 20.2218 25.7572 20.2218H27.1131V21.57V21.5695C27.1131 21.927 27.256 22.27 27.5102 22.5228C27.7644 22.7756 28.1094 22.9177 28.4689 22.9177L28.4689 22.9177Z" fill="#DFDFDF"/>
<path d="M46.0919 10.785H47.4478V12.1332C47.4478 12.8775 48.0547 13.481 48.8036 13.481C49.5521 13.481 50.159 12.8775 50.159 12.1332V10.785H51.5148C52.2633 10.785 52.8706 10.1815 52.8706 9.43677C52.8706 8.69247 52.2633 8.08901 51.5148 8.08901H50.159V6.7408C50.159 5.9965 49.5521 5.39258 48.8036 5.39258C48.0547 5.39258 47.4478 5.9965 47.4478 6.7408V8.08901H46.0919C45.3434 8.08901 44.7366 8.69249 44.7366 9.43677C44.7366 10.1815 45.3435 10.785 46.0919 10.785Z" fill="#DFDFDF"/>
<path d="M32.5356 5.39233H35.2468V8.08831H32.5356V5.39233Z" fill="#DFDFDF"/>
<path d="M27.1128 9.43652H29.824V12.1325H27.1128V9.43652Z" fill="#DFDFDF"/>
</svg>
