<svg width="50" height="51" viewBox="0 0 50 51" fill="none" xmlns="http://www.w3.org/2000/svg">
<path d="M20.7477 1V6.37313H12L15.1589 17.597C15.7664 19.6269 16.8598 21.4179 18.5607 22.7313C20.3832 24.2836 22.6916 25 25 25C27.3084 25 29.6168 24.2836 31.4393 22.7313C33.1402 21.4179 34.2336 19.6269 34.8411 17.597L38 6.37313H29.2523V1H20.7477Z" fill="#FC9823"/>
<path d="M31.615 25C29.7605 26.5943 27.4113 27.3302 25.0622 27.3302C22.713 27.3302 20.3639 26.5943 18.5093 25C18.5093 25 8 32.4811 8 51H42C42 32.4818 31.6143 25 31.6143 25H31.615Z" fill="#FC9823"/>
</svg>
