<svg width="37" height="50" viewBox="0 0 37 50" fill="none" xmlns="http://www.w3.org/2000/svg">
<path d="M31.5345 4.31126H22.9138C22.9138 2.77145 22.0922 1.3483 20.7586 0.578544C19.4251 -0.191546 17.7818 -0.191546 16.4483 0.578544C15.1148 1.34825 14.2931 2.77145 14.2931 4.31126H5.67242C4.3004 4.31126 2.98503 4.85621 2.01478 5.82604C1.04495 6.79626 0.5 8.11166 0.5 9.48368V44.8286C0.5 46.2006 1.04495 47.5159 2.01478 48.4862C2.985 49.456 4.3004 50.001 5.67242 50.001H31.5345C32.9065 50.001 34.2219 49.456 35.1922 48.4862C36.162 47.516 36.7069 46.2006 36.7069 44.8286V9.48368C36.7069 8.11166 36.162 6.79629 35.1922 5.82604C34.2219 4.85621 32.9065 4.31126 31.5345 4.31126ZM28.9483 37.932H16.0173C15.5412 37.932 15.1552 37.546 15.1552 37.0699C15.1552 36.5939 15.5412 36.2079 16.0173 36.2079H28.9483C29.4244 36.2079 29.8104 36.5939 29.8104 37.0699C29.8104 37.546 29.4244 37.932 28.9483 37.932ZM29.8104 40.5182C29.8104 40.7468 29.7196 40.9662 29.5579 41.1278C29.3963 41.2894 29.1769 41.3803 28.9483 41.3803H22.9138C22.4378 41.3803 22.0518 40.9943 22.0518 40.5182C22.0518 40.0421 22.4378 39.6561 22.9138 39.6561H28.9483C29.1769 39.6561 29.3963 39.747 29.5579 39.9086C29.7196 40.0702 29.8104 40.2896 29.8104 40.5182ZM28.9483 31.0354H22.9138C22.4378 31.0354 22.0518 30.6494 22.0518 30.1734C22.0518 29.6973 22.4378 29.3113 22.9138 29.3113H28.9483C29.4244 29.3113 29.8104 29.6973 29.8104 30.1734C29.8104 30.6494 29.4244 31.0354 28.9483 31.0354ZM28.9483 27.5872H16.0173C15.5412 27.5872 15.1552 27.2011 15.1552 26.7251C15.1552 26.249 15.5412 25.863 16.0173 25.863H28.9483C29.4244 25.863 29.8104 26.249 29.8104 26.7251C29.8104 27.2011 29.4244 27.5872 28.9483 27.5872ZM28.9483 20.6906H22.9138C22.4378 20.6906 22.0518 20.3046 22.0518 19.8285C22.0518 19.3525 22.4378 18.9665 22.9138 18.9665H28.9483C29.4244 18.9665 29.8104 19.3525 29.8104 19.8285C29.8104 20.3046 29.4244 20.6906 28.9483 20.6906ZM28.9483 17.2423H16.0173C15.5412 17.2423 15.1552 16.8563 15.1552 16.3802C15.1552 15.9042 15.5412 15.5182 16.0173 15.5182H28.9483C29.4244 15.5182 29.8104 15.9042 29.8104 16.3802C29.8104 16.8563 29.4244 17.2423 28.9483 17.2423ZM12.1384 6.0354H15.552C15.6063 6.015 15.6583 5.98883 15.7075 5.95766C15.8033 5.90878 15.8838 5.83412 15.94 5.74214C15.9735 5.68249 15.9996 5.6186 16.0177 5.55279C16.0393 5.50545 16.0566 5.45658 16.0693 5.40616C16.0751 5.34882 16.0751 5.29109 16.0693 5.23375V5.18218V5.18179C16.072 5.14446 16.072 5.10713 16.0693 5.0698C16.0724 5.02978 16.0724 4.98937 16.0693 4.94934C16.0223 4.73998 16.005 4.52523 16.0177 4.31125C16.0177 3.38722 16.5107 2.53361 17.3108 2.07144C18.1109 1.60962 19.0969 1.60962 19.897 2.07144C20.6971 2.53365 21.1901 3.38721 21.1901 4.31125C21.1936 4.52368 21.1674 4.73536 21.1124 4.94048C21.1097 4.98089 21.1097 5.02092 21.1124 5.06133C21.1101 5.09866 21.1101 5.13599 21.1124 5.17332V5.22489C21.1066 5.28223 21.1066 5.33996 21.1124 5.3973C21.1255 5.44772 21.1428 5.49698 21.1643 5.54393C21.2205 5.63745 21.2871 5.72404 21.3625 5.80255C21.403 5.83527 21.4461 5.86413 21.4919 5.88876C21.5407 5.91994 21.5927 5.94572 21.6469 5.9665H21.6989C21.7759 5.97689 21.8544 5.97689 21.9314 5.9665H25.0695V8.74247C25.0695 9.11385 24.7685 9.4148 24.3972 9.4148H12.8109C12.4396 9.4148 12.1386 9.11385 12.1386 8.74247L12.1384 6.0354ZM12.4833 13.2164C12.738 12.8142 13.2707 12.6945 13.6728 12.9493C14.0754 13.2041 14.1947 13.7367 13.9403 14.1389L11.2164 18.4492H11.216C11.0809 18.6655 10.8565 18.8106 10.6041 18.8456H10.4921C10.2781 18.8452 10.0726 18.7652 9.9144 18.6216L7.81075 16.7166C7.49132 16.3906 7.48093 15.8722 7.78727 15.5343C8.09362 15.1961 8.61009 15.1549 8.96609 15.4404L10.3022 16.6558L12.4833 13.2164ZM13.9403 24.7593L11.2164 29.0696H11.216C11.0809 29.2859 10.8565 29.431 10.6041 29.466H10.4921C10.2781 29.4656 10.0726 29.3856 9.91441 29.242L7.81077 27.3281C7.49134 27.0026 7.48094 26.4842 7.78729 26.1459C8.09364 25.8076 8.61011 25.7664 8.96611 26.0524L10.3023 27.2677L12.4748 23.8194C12.7292 23.4173 13.2618 23.2976 13.6643 23.5524C14.0665 23.8071 14.1862 24.3398 13.9314 24.7419L13.9403 24.7593ZM13.9403 34.9494L11.2164 39.2598H11.216C11.0809 39.4757 10.8565 39.6212 10.6041 39.6562H10.4921C10.2781 39.6558 10.0726 39.5757 9.91441 39.4322L7.81077 37.5272V37.5268C7.63605 37.3725 7.52944 37.155 7.51482 36.9222C7.50058 36.6893 7.57909 36.4604 7.73342 36.2856C8.05477 35.9212 8.61049 35.8865 8.9746 36.2079L10.3108 37.4233L12.4833 33.975C12.738 33.5728 13.2707 33.4531 13.6728 33.7079C14.0754 33.9627 14.1947 34.4953 13.9403 34.8975L13.9403 34.9494ZM34.9837 44.8283C34.9837 45.7427 34.6204 46.6198 33.9738 47.2667C33.3269 47.9132 32.4498 48.2765 31.5354 48.2765H5.67331C4.7589 48.2765 3.88178 47.9132 3.23488 47.2667C2.58833 46.6198 2.22503 45.7426 2.22503 44.8283V9.48338C2.22503 8.56898 2.58833 7.69185 3.23488 7.04496C3.88182 6.3984 4.75892 6.0351 5.67331 6.0351H10.4147V7.60417H6.68198C5.95614 7.60648 5.26109 7.89627 4.74887 8.41005C4.23664 8.92383 3.94915 9.62 3.94915 10.3455V43.9663C3.94915 44.6917 4.23664 45.3879 4.74887 45.9017C5.26111 46.4155 5.95616 46.7053 6.68198 46.7076H30.5263C31.2522 46.7053 31.9472 46.4155 32.4595 45.9017C32.9717 45.388 33.2592 44.6918 33.2592 43.9663V10.3455C33.2592 9.62007 32.9717 8.92385 32.4595 8.41005C31.9472 7.89628 31.2522 7.60648 30.5263 7.60417H26.7936V6.0351H31.535C32.4494 6.0351 33.3265 6.3984 33.9734 7.04496C34.62 7.69189 34.9833 8.569 34.9833 9.48338L34.9837 44.8283Z" fill="#63AC43"/>
</svg>
