<svg width="47" height="50" viewBox="0 0 47 50" fill="none" xmlns="http://www.w3.org/2000/svg">
<path d="M26.7098 11.6054C26.7098 13.4012 25.2485 14.8618 23.4534 14.8618C21.6583 14.8618 20.1971 13.4005 20.1971 11.6054C20.1971 9.81032 21.6583 8.34979 23.4534 8.34979C25.2485 8.34979 26.7098 9.81042 26.7098 11.6054ZM15.6463 41.6272C14.8424 41.6272 14.1876 42.282 14.1876 43.0859C14.1876 43.8899 14.8424 44.5447 15.6463 44.5447C16.4503 44.5447 17.1051 43.8899 17.1051 43.0859C17.1051 42.282 16.4503 41.6272 15.6463 41.6272ZM32.5291 33.8378C31.7252 33.8378 31.0703 34.4926 31.0703 35.2965C31.0703 36.1005 31.7252 36.7553 32.5291 36.7553C33.333 36.7553 33.9879 36.1005 33.9879 35.2965C33.9879 34.4926 33.333 33.8378 32.5291 33.8378ZM46.4063 13.9117V46.8883C46.4063 48.6052 45.0105 50.001 43.2937 50.001H3.61304C1.8961 50.001 0.50036 48.6051 0.50036 46.8883L0.5 13.9117C0.5 12.1948 1.89584 10.7991 3.61268 10.7991H11.8892C11.9255 10.2781 11.9828 9.76369 12.0875 9.26932C12.1675 8.89598 12.4954 8.62992 12.8771 8.62992H15.1261C15.2211 8.35739 15.3349 8.0863 15.4641 7.81772L13.8728 6.22641C13.6017 5.95531 13.5581 5.53121 13.7706 5.21112C14.6296 3.91289 15.7697 2.77308 17.0679 1.91374C17.3873 1.70241 17.8114 1.74454 18.0832 2.01599L19.6791 3.61191C19.9398 3.48951 20.2058 3.3797 20.4744 3.28537L20.4748 1.02946C20.4748 0.647839 20.7416 0.319143 21.1142 0.239937C22.6151 -0.0786768 24.2884 -0.0786768 25.789 0.239937C26.1617 0.319141 26.4284 0.647839 26.4284 1.02946V3.27957C26.7003 3.37461 26.9688 3.48694 27.2316 3.6151L28.8204 2.02637C29.0897 1.75707 29.5091 1.71351 29.8285 1.91908C31.1429 2.7698 32.2874 3.91426 33.1381 5.22871C33.3444 5.54805 33.2994 5.96819 33.0308 6.23681L31.4421 7.82555C31.5702 8.08908 31.6826 8.35693 31.7776 8.62874H34.0266C34.4082 8.62874 34.7362 8.8948 34.8161 9.26814C34.9209 9.76316 34.9789 10.2776 35.0145 10.7979H43.291C45.009 10.7986 46.4059 12.1947 46.4059 13.9117L46.4063 13.9117ZM13.462 11.6051C13.462 12.0681 13.4934 12.5254 13.5549 12.9689H15.7251C16.0887 12.9689 16.4081 13.2134 16.5035 13.564C16.6551 14.1188 16.8671 14.6311 17.1544 15.1293C17.3366 15.4454 17.2844 15.8447 17.0262 16.1018L15.4915 17.6365C16.0391 18.3695 16.6849 19.0186 17.4237 19.5744L18.956 18.0422C19.2116 17.7873 19.6044 17.7319 19.919 17.9083C20.432 18.1938 20.9472 18.4051 21.4941 18.5541C21.8458 18.6492 22.0892 18.9685 22.0892 19.3325V21.5027C22.9777 21.6251 23.9285 21.6251 24.8175 21.5027V19.3325C24.8175 18.9639 25.0684 18.6424 25.4248 18.5509C25.9548 18.4155 26.4757 18.1985 26.9714 17.9065C27.2893 17.7193 27.6915 17.7718 27.9514 18.0307L29.4862 19.5654C30.2191 19.0178 30.8683 18.372 31.4231 17.6332L29.8908 16.1009C29.636 15.846 29.5812 15.4525 29.7569 15.1379C30.0424 14.6249 30.2537 14.1097 30.4028 13.5628C30.4978 13.2111 30.8172 12.9677 31.1812 12.9677H33.3514C33.4126 12.5234 33.4442 12.0669 33.4442 11.6039C33.4442 11.1409 33.4129 10.6845 33.3514 10.2409H31.1812C30.8118 10.2409 30.491 9.98998 30.3988 9.63284C30.2656 9.10541 30.0489 8.58447 29.7551 8.08623C29.5697 7.76941 29.6205 7.36691 29.88 7.10734L31.4138 5.57363C30.868 4.84459 30.2138 4.18968 29.484 3.64389L27.9503 5.17861C27.6907 5.43926 27.2875 5.49075 26.9703 5.30282C26.4742 5.01084 25.9533 4.79412 25.4237 4.65839C25.0673 4.56802 24.8164 4.24544 24.8164 3.87679L24.8167 1.70695C23.9282 1.58455 22.9774 1.58455 22.0884 1.70695V3.87715C22.0884 4.24077 21.844 4.56011 21.4933 4.65551C20.9465 4.80456 20.4313 5.01517 19.9182 5.30138C19.6021 5.47888 19.2101 5.42235 18.9552 5.16746L17.4255 3.63771C16.7022 4.18926 16.0473 4.84341 15.4957 5.56746L17.0255 7.09721C17.2836 7.35462 17.3358 7.75352 17.1536 8.06964C16.857 8.58482 16.6392 9.11082 16.507 9.63321C16.416 9.99035 16.0941 10.2413 15.7247 10.2413H13.5545C13.4933 10.6859 13.462 11.1413 13.462 11.605L13.462 11.6051ZM40.682 43.0859C40.682 42.6398 40.3216 42.2794 39.8755 42.2794H18.5965C18.2394 40.9787 17.0585 40.0142 15.6465 40.0142C14.2346 40.0142 13.0529 40.9787 12.6965 42.2794H7.03125C6.58519 42.2794 6.2248 42.6398 6.2248 43.0859C6.2248 43.5319 6.58519 43.8923 7.03125 43.8923H12.6965C13.0537 45.193 14.2346 46.1575 15.6465 46.1575C17.0585 46.1575 18.2401 45.193 18.5965 43.8923H39.8765C40.3214 43.8923 40.6818 43.5319 40.6818 43.0859H40.682ZM40.682 35.2965C40.682 34.8504 40.3216 34.49 39.8755 34.49H35.479C35.1219 33.1893 33.941 32.2248 32.529 32.2248C31.117 32.2248 29.9354 33.1893 29.579 34.49H7.03088C6.58482 34.49 6.22444 34.8504 6.22444 35.2965C6.22444 35.7425 6.58482 36.1029 7.03088 36.1029H29.579C29.9361 37.4036 31.117 38.3681 32.529 38.3681C33.941 38.3681 35.1226 37.4036 35.479 36.1029H39.8755C40.3216 36.1029 40.682 35.7414 40.682 35.2965ZM40.682 27.506C40.682 27.06 40.3216 26.6996 39.8755 26.6996H23.1264C22.7693 25.3989 21.5884 24.4344 20.1764 24.4344C18.7645 24.4344 17.5828 25.3989 17.2264 26.6996H7.03115C6.58509 26.6996 6.22471 27.06 6.22471 27.506C6.22471 27.9521 6.58509 28.3125 7.03115 28.3125H17.2264C17.5836 29.6132 18.7645 30.5777 20.1764 30.5777C21.5884 30.5777 22.77 29.6132 23.1264 28.3125H39.8755C40.322 28.3125 40.6823 27.9521 40.6823 27.506H40.682ZM20.1772 26.0484C19.3732 26.0484 18.7184 26.7032 18.7184 27.5072C18.7184 28.3111 19.3733 28.9659 20.1772 28.9659C20.9811 28.9659 21.6359 28.3111 21.6359 27.5072C21.6359 26.7029 20.9811 26.0484 20.1772 26.0484Z" fill="#63AC43"/>
</svg>
