<svg width="31" height="31" viewBox="0 0 31 31" fill="none" xmlns="http://www.w3.org/2000/svg">
<path d="M30.2358 10.0696C30.7724 9.28047 30.4569 8.20727 29.6045 7.8283L28.0894 7.10232C27.8683 7.00764 27.6475 6.84976 27.4896 6.6604C26.8897 7.13381 26.2585 7.44957 25.5954 7.44957C24.9324 7.44957 24.2696 7.13381 23.7013 6.6604C23.5435 6.84977 23.3541 7.00764 23.1015 7.10232L21.5864 7.79679C20.734 8.20722 20.45 9.28042 20.9551 10.0381L21.9336 11.4903C22.4702 12.2795 22.5966 13.258 22.2808 14.1736L21.5864 16.0991C21.0498 17.5196 20.9866 19.0979 21.397 20.5501L21.5232 21.0867C21.7443 21.8759 22.4702 22.4439 23.2909 22.4439H24.8377V28.5047H23.4804C22.8806 28.5047 22.3755 28.9781 22.3755 29.6097V29.799C22.3755 29.9252 22.4702 30.0201 22.5966 30.0201H28.5942C28.7204 30.0201 28.8153 29.9254 28.8153 29.799V29.6097C28.8153 29.0099 28.3419 28.5047 27.7103 28.5047H26.3531V22.4439H27.8999C28.7206 22.4439 29.4467 21.9073 29.6676 21.0867L29.7938 20.5501C30.2042 19.0665 30.1095 17.5196 29.6044 16.0991L28.9099 14.1736C28.5942 13.2897 28.7206 12.2795 29.2257 11.4903L30.2358 10.0696Z" fill="#63AC43"/>
<path d="M25.5953 6.40802C26.7317 6.40802 28.3101 4.64035 28.3101 2.87262C28.3101 1.10494 27.079 0 25.5953 0C24.1117 0 22.8806 1.10494 22.8806 2.87262C22.9123 4.64029 24.4589 6.40802 25.5953 6.40802Z" fill="#63AC43"/>
<path d="M10.7592 14.6154C12.369 14.0788 13.2528 12.3426 12.7163 10.7328C12.1797 9.12295 10.4435 8.23914 8.83362 8.77572C7.22378 9.31232 6.33997 11.0485 6.87655 12.6584C7.41315 14.2682 9.14934 15.1203 10.7592 14.6154Z" fill="#63AC43"/>
<path d="M19.1874 11.2376H15.1784C14.8944 11.2376 14.6733 11.4587 14.6733 11.7427V19.5713H12.432C11.1377 17.267 10.7904 16.9512 10.6643 16.7933C10.4432 16.5723 9.62259 15.878 8.64403 15.4675L7.98102 15.1835C7.318 14.8995 6.59203 14.8995 5.9293 15.1835C5.26629 15.4675 4.76139 16.0042 4.54031 16.6671L2.39412 22.3176C2.17305 22.9174 2.29944 23.6118 2.77285 24.0852L5.39288 26.6738L2.14152 26.6736C1.2262 26.6736 0.5 27.3996 0.5 28.3151C0.5 29.2304 1.22598 29.9566 2.14152 29.9566H9.37027C10.0333 29.9566 10.6328 29.5462 10.8854 28.9464C11.138 28.3151 11.0116 27.6206 10.5382 27.147L7.28681 23.8958L9.14918 19.7607C9.49643 20.3287 9.90684 21.055 10.2541 21.7177C10.5067 22.1911 11.0118 22.4754 11.5167 22.4754L14.6418 22.5069V29.4831C14.6418 29.7671 14.8629 29.9882 15.1469 29.9882H19.1557C19.4398 29.9882 19.6609 29.7671 19.6609 29.4831L19.6611 11.7427C19.6926 11.4586 19.4715 11.2375 19.1874 11.2375L19.1874 11.2376ZM18.6823 13.2264H17.5774C17.2933 13.2264 17.0723 13.4475 17.0723 13.7315C17.0723 14.0155 17.2933 14.2366 17.5774 14.2366H18.6823V15.1837H17.5774C17.2933 15.1837 17.0723 15.4047 17.0723 15.6888C17.0723 15.9728 17.2933 16.1939 17.5774 16.1939H18.6823V17.141H17.5774C17.2933 17.141 17.0723 17.362 17.0723 17.6461C17.0723 17.9301 17.2933 18.1512 17.5774 18.1512H18.6823V19.0982H17.5774C17.2933 19.0982 17.0723 19.3193 17.0723 19.6034C17.0723 19.8874 17.2933 20.1085 17.5774 20.1085H18.6823V21.0555H17.5774C17.2933 21.0555 17.0723 21.2766 17.0723 21.5606C17.0723 21.8447 17.2933 22.0658 17.5774 22.0658H18.6823V23.0128H17.5774C17.2933 23.0128 17.0723 23.2339 17.0723 23.5179C17.0723 23.802 17.2933 24.0231 17.5774 24.0231H18.6823V24.9701H17.5774C17.2933 24.9701 17.0723 25.1912 17.0723 25.4752C17.0723 25.7593 17.2933 25.9803 17.5774 25.9803H18.6823V26.9274H17.5774C17.2933 26.9274 17.0723 27.1485 17.0723 27.4325C17.0723 27.7166 17.2933 27.9376 17.5774 27.9376H18.6823V28.8847H15.6833L15.6835 22.2546C16.094 22.002 16.3466 21.5601 16.3466 21.055C16.3466 20.5499 16.094 20.0765 15.6835 19.8239V12.2795H18.6825L18.6823 13.2264Z" fill="#63AC43"/>
</svg>
