<svg width="49" height="44" viewBox="0 0 49 44" fill="none" xmlns="http://www.w3.org/2000/svg">
<path d="M35.3922 6.01818C35.3922 4.63254 35.4275 3.24143 35.3922 1.85608C35.3922 1.84948 35.3926 1.84288 35.3922 1.83667V1.79824C35.3922 1.77224 35.3906 1.74623 35.3879 1.72061C35.3879 1.71906 35.3879 1.71751 35.3875 1.71557C35.3103 0.737439 34.5421 0.0202022 33.5505 0.0104644C33.3381 0.00813546 33.1251 0.0104644 32.912 0.0104644H21.0498C19.1816 0.0104644 17.3115 -0.0108832 15.4442 0.0104644C14.4307 0.0217205 13.6405 0.780931 13.6086 1.79824C13.6063 1.87121 13.6086 1.94458 13.6086 2.01676L13.6082 34.0849C13.6082 34.5246 13.6059 34.9648 13.6082 35.4041C13.6109 35.9215 13.7724 36.4253 14.1574 36.7894C14.6166 37.2241 15.1747 37.2881 15.7644 37.2881H23.3592C23.3592 37.0164 23.3592 36.7447 23.3588 36.473C23.3588 36.2013 23.3588 35.9296 23.3585 35.6579C23.3581 34.7113 23.3573 33.7653 23.3569 32.8187C23.3557 30.7794 23.3542 28.74 23.353 26.7004C23.3526 25.9691 24.2318 25.6597 24.7445 26.124C25.4867 26.7962 26.2295 27.4685 26.9721 28.1404C28.5367 29.5559 30.1009 30.9719 31.6655 32.3882C32.3681 33.024 33.0706 33.6598 33.7735 34.2956C34.0414 34.5385 34.31 34.7807 34.5778 35.0237C34.7245 35.1565 34.8708 35.2888 35.0176 35.4216C35.1321 35.5252 35.2469 35.6292 35.3614 35.7328C35.4088 35.4056 35.3929 35.0726 35.3929 34.7264L35.3922 6.01818ZM27.9457 25.6249C27.5928 25.831 27.0133 25.7332 26.8305 25.3326C26.7366 25.1273 26.6294 24.929 26.5029 24.7419C26.4854 24.7151 26.4672 24.6891 26.4485 24.6635C26.4462 24.6607 26.4447 24.658 26.4431 24.6557C26.4416 24.6542 26.44 24.6518 26.4381 24.6491C26.4377 24.6479 26.4365 24.6468 26.4353 24.646C26.4342 24.6437 26.4326 24.6417 26.4311 24.6394C26.4299 24.6378 26.4284 24.6363 26.4268 24.634C26.4202 24.6254 26.4144 24.6177 26.4105 24.6134C26.3469 24.54 26.284 24.4671 26.2164 24.3972C26.1497 24.3289 26.0802 24.2617 26.0076 24.1985C26.0076 24.1985 25.9393 24.141 25.9137 24.1181C25.9133 24.1177 25.9133 24.1177 25.9125 24.117C25.9114 24.1166 25.9102 24.1154 25.9098 24.1154L25.9082 24.1138C25.8904 24.1003 25.8714 24.0855 25.8648 24.0812C25.7095 23.9726 25.5484 23.8732 25.3784 23.7866C25.3284 23.761 25.2779 23.7377 25.2267 23.7137C25.2263 23.7133 25.2251 23.7133 25.2243 23.7125C25.224 23.7125 25.224 23.7125 25.2232 23.7121C25.2228 23.7121 25.2228 23.7121 25.222 23.7117C25.2205 23.7113 25.2181 23.7106 25.2166 23.7102C25.139 23.6826 25.0617 23.6535 24.9825 23.6291C24.8238 23.579 24.6631 23.5433 24.4993 23.5122C24.4853 23.5095 24.4574 23.5072 24.4337 23.5052C24.4434 23.5056 24.4554 23.5064 24.4694 23.5068C24.4337 23.5045 24.3984 23.4986 24.3623 23.4971C24.2784 23.4932 24.1954 23.4866 24.1119 23.4858C23.9559 23.4843 23.7991 23.4913 23.6434 23.5103C23.7288 23.501 23.4657 23.5479 23.4276 23.5565C23.3434 23.5767 23.2596 23.5988 23.1773 23.6244C23.0934 23.6504 23.0111 23.6799 22.9289 23.711C22.9258 23.7121 22.9223 23.7137 22.9195 23.7148C22.9184 23.7148 22.9172 23.7152 22.9168 23.716C22.8811 23.7319 22.845 23.7486 22.8097 23.7661C22.6416 23.8487 22.4806 23.9438 22.3265 24.0502C22.3179 24.0568 22.2799 24.084 22.2558 24.1003C22.2535 24.1026 22.2508 24.1042 22.2488 24.1057C22.2391 24.1139 22.2302 24.1205 22.2287 24.122C22.1553 24.1849 22.0819 24.2481 22.0125 24.3161C21.9434 24.3828 21.877 24.4523 21.8137 24.5241C21.7897 24.5509 21.7675 24.5789 21.7435 24.6056C21.7396 24.6099 21.7365 24.6134 21.7338 24.6165C21.7334 24.6169 21.7326 24.6177 21.7322 24.6181C21.636 24.7489 21.5475 24.8859 21.4687 25.0279C21.4225 25.111 21.3821 25.196 21.3398 25.281C21.3375 25.2861 21.3355 25.2895 21.334 25.293C21.3227 25.3225 21.3111 25.3517 21.301 25.3812C21.24 25.5481 21.1911 25.7192 21.1543 25.8923C21.1446 25.9389 21.1364 25.9851 21.1275 26.0321C21.1248 26.0453 21.1193 26.0895 21.1162 26.1167V26.1171C21.1131 26.1656 21.1065 26.2486 21.1054 26.2758C21.0972 26.4439 21.0999 26.6123 21.1147 26.7796C21.1147 26.7796 21.1283 26.8798 21.131 26.9089V26.9093C21.1321 26.9163 21.1333 26.9213 21.1337 26.9232C21.1539 27.0199 21.1733 27.1158 21.1985 27.2109C21.2214 27.2951 21.2463 27.3781 21.2746 27.4608C21.2882 27.5 21.3747 27.7174 21.3165 27.5835C21.4919 27.9887 21.4419 28.4541 21.0242 28.6987C20.6768 28.902 20.0842 28.8104 19.9091 28.4064C19.4705 27.3914 19.3389 26.2941 19.6424 25.2178C20.1691 23.3461 21.8307 22.033 23.752 21.8693C25.6105 21.7113 27.4674 22.8202 28.2379 24.5102C28.4219 24.9119 28.3578 25.3843 27.9456 25.625L27.9457 25.6249ZM29.8254 10.2392C29.8254 10.2532 29.8251 10.2668 29.8243 10.2815C29.782 12.7245 28.0361 14.9537 25.6074 15.44C23.3946 15.8832 21.1042 14.9129 19.932 12.9705C18.7614 11.0306 19.0004 8.54024 20.4265 6.80682C21.8106 5.12457 24.2606 4.45386 26.3049 5.22314C28.3955 6.00991 29.8017 7.97824 29.825 10.2197L29.8254 10.2392Z" fill="#424441"/>
<path d="M48.1924 30.8962V4.44424C48.1924 4.38058 48.194 4.31653 48.1924 4.25249C48.1692 3.43583 47.6289 2.68163 46.8083 2.50386C46.223 2.37733 45.5589 2.45612 44.9674 2.45612H38.6829V6.9043C39.8191 6.91517 40.8783 7.31845 41.7481 8.04273C43.2115 9.26154 43.7828 11.4258 43.1082 13.2077C42.4072 15.0592 40.6707 16.2985 38.6826 16.3175V34.8442H46.0663C46.3404 34.8442 46.6113 34.8535 46.8791 34.7793C47.6647 34.5635 48.1697 33.8447 48.1918 33.0463C48.2128 32.3317 48.1926 31.6129 48.1926 30.8972L48.1924 30.8962Z" fill="#424441"/>
<path d="M10.3174 16.86C9.18126 16.8491 8.12203 16.4458 7.25219 15.7211C5.78884 14.5023 5.21749 12.3381 5.89208 10.5561C6.59307 8.70547 8.32961 7.46569 10.3177 7.44671V2.45521H2.93368C2.65966 2.45521 2.38873 2.44589 2.12091 2.52003C1.33491 2.73545 0.829957 3.45429 0.807798 4.25276C0.787615 4.96772 0.807798 5.68699 0.807798 6.40232V32.8543C0.807798 32.9179 0.806246 32.982 0.807798 33.046C0.831088 33.8627 1.37139 34.6169 2.19195 34.7947C2.77727 34.9212 3.44137 34.8424 4.03289 34.8424H10.3173L10.3174 16.86Z" fill="#424441"/>
<path d="M31.505 39.5916C31.9871 40.6781 32.4695 41.7641 32.9519 42.8505C32.0394 43.234 31.1265 43.6171 30.2135 44.001C29.7027 42.8493 29.1908 41.6981 28.6795 40.5464C28.4882 40.1156 27.9281 40.0904 27.5644 40.2542C26.707 40.6404 25.8487 41.0262 24.9913 41.4128C24.9901 39.7663 24.989 38.1197 24.9882 36.4732V36.4721C24.987 34.456 24.9859 32.44 24.9843 30.4236C24.9839 29.7948 24.9839 29.1668 24.9832 28.538C26.2423 29.6768 27.5015 30.8164 28.7602 31.9559C30.2247 33.2815 31.6892 34.6074 33.1536 35.9325C33.3927 36.1495 33.6322 36.3657 33.8713 36.5823C34.098 36.7872 34.3239 36.9922 34.5506 37.1967C33.6703 37.6058 32.7899 38.0149 31.9093 38.4244C31.8697 38.4383 31.832 38.4558 31.7967 38.4764C31.3981 38.6615 31.2975 39.2371 31.5048 39.5915L31.505 39.5916Z" fill="#424441"/>
</svg>
