<svg width="67" height="50" viewBox="0 0 67 50" fill="none" xmlns="http://www.w3.org/2000/svg">
<path fill-rule="evenodd" clip-rule="evenodd" d="M65.8038 4.5902C65.2739 4.05816 64.541 3.72975 63.734 3.72975H7.61776C6.80809 3.72975 6.07724 4.05816 5.54585 4.5902C5.01435 5.12224 4.68594 5.85737 4.68594 6.66156V47.0697C4.68594 47.8745 5.0165 48.6097 5.54585 49.1411C6.07789 49.6731 6.81356 50.001 7.61776 50.001H63.7354C64.5402 50.001 65.2753 49.6726 65.8052 49.1411C66.3372 48.609 66.6673 47.8739 66.6673 47.0697L66.6667 6.66156C66.6667 5.85676 66.3359 5.12159 65.8038 4.5902ZM63.0765 39.1382V7.29071H8.14391V39.1382H63.0765ZM64.2119 6.72102V39.7066C64.2119 40.0161 63.9575 40.2753 63.6452 40.2753L7.57466 40.2759C7.26246 40.2759 7.0059 40.0166 7.0059 39.7071V6.72156C7.0059 6.40721 7.26246 6.15279 7.57466 6.15279H63.6452C63.9574 6.15279 64.2119 6.40665 64.2119 6.72102ZM36.21 46.3888C36.0717 46.2543 35.8843 46.1712 35.6764 46.1712C35.4684 46.1712 35.281 46.2544 35.147 46.3888C35.0082 46.5277 34.9245 46.7124 34.9245 46.9209C34.9245 47.1288 35.0082 47.3184 35.1422 47.4524C35.2804 47.5863 35.4679 47.6701 35.6758 47.6701C35.8838 47.6701 36.0712 47.5869 36.2057 47.4572C36.344 47.3184 36.4277 47.1288 36.4277 46.9209C36.4282 46.7124 36.3445 46.5277 36.21 46.3888ZM35.6764 45.0342C36.1944 45.0342 36.6664 45.247 37.0083 45.5889C37.353 45.9313 37.5636 46.4029 37.5636 46.9209C37.5636 47.4389 37.353 47.9104 37.011 48.2528C36.6664 48.5948 36.1949 48.8076 35.6769 48.8076C35.1568 48.8076 34.6847 48.5947 34.3449 48.2572C34.0003 47.9104 33.7897 47.4388 33.7897 46.9209C33.7897 46.4029 34.0003 45.9313 34.3428 45.5889C34.6841 45.2464 35.1562 45.0342 35.6764 45.0342ZM16.5571 33.5239L14.6747 31.6421L12.7972 33.5196L14.6769 35.4019L16.5571 33.5239ZM15.0771 30.4348L17.7313 33.089C17.8307 33.0058 17.9668 32.9502 18.0991 32.9502H19.2345C19.6461 32.9502 19.9351 33.3893 19.7449 33.7685C19.6731 33.9489 19.4495 34.0877 19.2345 34.0877H18.0991C17.9576 34.0877 17.8285 34.0369 17.7313 33.9538L15.0771 36.6037C14.8551 36.8257 14.4943 36.8213 14.2772 36.6037L11.5927 33.9214C11.3707 33.6994 11.3707 33.3386 11.5927 33.1166L14.2723 30.4392C14.4943 30.2172 14.8551 30.2171 15.0771 30.4348ZM58.4208 33.519L56.5433 31.6415L54.6794 33.5331L56.5385 35.4015L58.4208 33.519ZM56.9732 30.4668L59.6253 33.1209C59.8446 33.3429 59.8446 33.6989 59.6226 33.9209L56.9425 36.6032C56.7205 36.8252 56.3597 36.8252 56.1404 36.6032L53.4581 33.9209C53.2361 33.7038 53.2361 33.3429 53.4559 33.1209L56.1404 30.4343C56.3597 30.2123 56.7205 30.2123 56.9425 30.4343L56.9732 30.4668ZM23.7803 34.0879C23.9953 34.0879 24.2199 33.9496 24.2912 33.7687C24.4808 33.3895 24.1913 32.9504 23.7803 32.9504H22.6427C22.4299 32.9504 22.2052 33.0935 22.1339 33.2696C21.9443 33.6488 22.2339 34.0879 22.6427 34.0879H23.7803ZM28.3261 34.0879C28.5384 34.0879 28.7652 33.9496 28.8343 33.7687C29.0239 33.3895 28.7371 32.9504 28.3261 32.9504H27.188C26.9752 32.9504 26.7489 33.0935 26.6797 33.2696C26.4901 33.6488 26.777 34.0879 27.188 34.0879H28.3261ZM32.8719 34.0879C33.0847 34.0879 33.3115 33.9496 33.3801 33.7687C33.5703 33.3895 33.2829 32.9504 32.8719 32.9504H31.7343C31.5194 32.9504 31.2947 33.0935 31.2234 33.2696C31.0338 33.6488 31.3227 34.0879 31.7343 34.0879H32.8719ZM37.4149 34.0879C37.6299 34.0879 37.8546 33.9496 37.9259 33.7687C38.1155 33.3895 37.8259 32.9504 37.4149 32.9504H36.2795C36.0646 32.9504 35.8404 33.0935 35.7686 33.2696C35.579 33.6488 35.8685 34.0879 36.2795 34.0879H37.4149ZM41.9612 34.0879C42.1762 34.0879 42.3982 33.9496 42.4717 33.7687C42.6613 33.3895 42.3723 32.9504 41.9612 32.9504H40.8259C40.6082 32.9504 40.3868 33.0935 40.3128 33.2696C40.1253 33.6488 40.4143 34.0879 40.8259 34.0879H41.9612ZM46.5048 34.0879C46.722 34.0879 46.944 33.9496 47.018 33.7687C47.2075 33.3895 46.9159 32.9504 46.5048 32.9504H45.3695C45.1545 32.9504 44.9303 33.0935 44.8585 33.2696C44.6689 33.6488 44.9579 34.0879 45.3695 34.0879H46.5048ZM51.0501 34.0879C51.2651 34.0879 51.4897 33.9496 51.5616 33.7687C51.7512 33.3895 51.4622 32.9504 51.0501 32.9504H49.9147C49.6997 32.9504 49.475 33.0935 49.4037 33.2696C49.2142 33.6488 49.5037 34.0879 49.9147 34.0879H51.0501ZM29.8663 19.1376L22.6522 17.2049V26.5693L29.8663 28.5074V19.1376ZM31.0017 19.1376V28.5068C33.4085 27.8598 35.8084 27.217 38.2136 26.5688V19.9607L35.1656 19.1424C34.9112 19.0776 34.7453 18.8464 34.7453 18.5969V18.1345L31.0017 19.1376ZM41.6721 13.2739V19.4104L44.7957 18.5732L46.3292 18.1616V12.0202L41.6721 13.2739ZM37.5006 11.2808L41.1028 12.2471L44.7077 11.2808L41.1028 10.3145L37.5006 11.2808ZM39.3506 21.6812V27.0036C39.3484 27.2532 39.1799 27.4849 38.9277 27.5541L37.0691 28.0537L42.1026 29.404V22.4163L39.3506 21.6812ZM43.2401 22.4163V29.404L48.5669 27.9754V20.9876L43.2401 22.4163ZM49.247 19.6924H49.2605L49.2745 19.6973L49.3166 19.7113L49.342 19.7205H49.3512L49.3539 19.7254H49.3582C49.3836 19.7345 49.4068 19.7486 49.4279 19.7621H49.4328L49.4419 19.7713L49.449 19.7756H49.4517L49.456 19.7799L49.4792 19.794L49.4862 19.7983L49.4933 19.8075H49.4981L49.5003 19.8118L49.5143 19.8215L49.517 19.8258L49.5213 19.8301L49.5284 19.8345L49.5354 19.8393L49.5381 19.8442L49.5402 19.8485L49.5473 19.8528L49.5543 19.8625H49.557L49.5592 19.8669L49.5662 19.8761H49.5683L49.5732 19.8804L49.5754 19.8852L49.5781 19.8896L49.5829 19.8939H49.5851L49.5921 19.9031V19.9079L49.6013 19.9171L49.6061 19.9263H49.6083L49.6132 19.9355L49.6153 19.9403H49.618L49.6229 19.9495H49.625L49.6272 19.9587L49.6299 19.9636H49.6321L49.6369 19.9727H49.6391L49.6413 19.9825L49.644 19.9868L49.6461 19.9916L49.651 20.0008L49.6531 20.01H49.658V20.0143L49.6629 20.0235L49.6672 20.0332V20.0376L49.6699 20.0419L49.6769 20.0602V20.0646L49.6812 20.0743V20.0786L49.6861 20.0878V20.097L49.6888 20.1018L49.6909 20.111V20.1153L49.6958 20.1245V20.138L49.7001 20.1564L49.7028 20.1699L49.705 20.1839V20.2115L49.7071 20.2163V20.2531V28.4059C49.7071 28.6555 49.5386 28.8866 49.2842 28.9563L42.8517 30.681L42.8446 30.6853H42.8425L42.8328 30.6897H42.8171L42.8101 30.6945H42.8003L42.7912 30.6994H42.7771L42.7658 30.7037H42.7447L42.7328 30.7086H42.6156L42.6037 30.7037H42.5827L42.5708 30.6994H42.5573L42.5481 30.6945H42.5384L42.5292 30.6897H42.5152L42.5054 30.6853H42.5033L42.4963 30.681L36.0637 28.9563C35.8185 28.8866 35.6521 28.6744 35.6429 28.434L30.6121 29.7843L30.6023 29.7887H30.5883L30.5791 29.793H30.5672L30.5602 29.7978H30.5553L30.5462 29.8022H30.5224L30.5175 29.8065H30.4894L30.4776 29.8108H30.3857L30.3722 29.8065H30.3441L30.3393 29.8022H30.3166L30.3069 29.7978H30.302L30.295 29.793H30.2836L30.2739 29.7887H30.2599L30.2529 29.7843L21.9337 27.5509C21.6814 27.4812 21.5129 27.2501 21.5129 27.0005L21.5107 16.4613C21.5107 16.3225 21.5615 16.1977 21.6425 16.0962H21.6452L21.6523 16.087H21.6544L21.6593 16.0778H21.6636L21.6685 16.0686H21.6733L21.689 16.0503L21.6917 16.046L21.7009 16.0411V16.0368L21.7106 16.0325V16.0281L21.7198 16.0238L21.7246 16.019L21.7317 16.0141H21.7338L21.7435 16.0049H21.7457L21.7527 15.9957H21.7576L21.7646 15.9909L21.7759 15.9817H21.7808L21.8181 15.9585L21.8251 15.9541H21.83L21.837 15.9493L21.8413 15.9444L21.8624 15.9352H21.8694L21.8737 15.9309L21.9018 15.9217H21.9088L21.9547 15.9082L21.9682 15.9039H21.9704L30.2853 13.6699C30.3777 13.6467 30.4797 13.6418 30.577 13.6699L34.7436 14.7891V11.2787C34.7436 11.1448 34.7917 11.0151 34.8733 10.9179L34.8824 10.9087V10.9039L34.8916 10.8995V10.8947L34.9013 10.8855L34.9197 10.8671H34.9219L34.9289 10.8579H34.9311L34.9381 10.8488H34.9429L34.9527 10.8396L34.9618 10.8304H34.964L34.971 10.8255L34.9759 10.8207L34.9829 10.8164H34.9856L34.9948 10.8072L35.0067 10.8029L35.0088 10.798L35.0461 10.7796L35.0553 10.7748L35.0601 10.7699L35.0672 10.7656H35.0742L35.0926 10.7564L35.0963 10.7537H35.1055L35.1309 10.7445L35.1379 10.7402L35.1844 10.7262H35.1984L40.9584 9.17705C41.0508 9.15383 41.1529 9.14897 41.2517 9.17705L47.0091 10.7262H47.0258C47.1112 10.7494 47.19 10.7861 47.2543 10.8417H47.2591L47.2613 10.8461L47.2683 10.8504L47.2753 10.8596L47.3191 10.9012L47.3261 10.9103L47.3331 10.9147L47.3358 10.9195L47.338 10.9244L47.3515 10.9379V10.9422L47.3655 10.9606H47.3682L47.3704 10.9698L47.3753 10.9746H47.3774L47.3823 10.9838H47.3845L47.3866 10.9935L47.405 11.0259L47.4077 11.0351H47.4098L47.4169 11.0535L47.4217 11.0583V11.0627L47.4352 11.0999L47.4374 11.1042C47.4558 11.1599 47.4676 11.2198 47.4676 11.2798V18.5954C47.4649 18.8217 47.3283 19.0253 47.1203 19.1177L49.247 19.6924ZM42.6713 21.3944L46.947 20.2477L44.942 19.7114L41.4922 20.6361L41.2821 20.6917L41.2751 20.6966H41.2702L41.261 20.7009H41.2421L41.2373 20.7058H41.2281L41.2184 20.7101H41.1951V20.7149L41.1914 20.7144H41.1724L41.1633 20.7193H41.0461L41.0342 20.7144H41.0104L41.0012 20.7095H40.9872L40.9775 20.7052H40.9661L40.9591 20.7004H40.9445L40.9353 20.696H40.9332L40.9234 20.6912L42.6713 21.3944ZM35.8823 17.3807V18.1623L38.893 18.9714H38.9071L38.9416 18.9806L38.9654 18.9903H38.9697L38.9816 18.9947L40.5355 19.4106V13.274L35.8833 12.0209V15.5308L35.8823 17.3807ZM24.2732 16.4647L30.4329 18.1154L34.7454 16.9589V15.9646L30.4329 14.8081L24.2732 16.4647ZM52.9597 15.2763C52.9597 15.4892 53.0986 15.7155 53.279 15.7852C53.6581 15.9747 54.0951 15.6879 54.0951 15.2763V14.1388C54.0951 13.926 53.9568 13.6997 53.7759 13.63C53.3967 13.4404 52.9597 13.7272 52.9597 14.1388V15.2763ZM52.9597 19.8221C52.9597 20.035 53.0986 20.2564 53.279 20.3304C53.6581 20.52 54.0951 20.2332 54.0951 19.8221V18.6846C54.0951 18.4675 53.9568 18.2455 53.7759 18.1709C53.3967 17.9814 52.9597 18.2725 52.9597 18.6846V19.8221ZM52.9597 24.3631C52.9597 24.5808 53.0986 24.8022 53.279 24.8768C53.6581 25.0663 54.0951 24.7752 54.0951 24.3631V23.2304C54.0951 23.0128 53.9568 22.7913 53.7759 22.7168C53.3967 22.5272 52.9597 22.8183 52.9597 23.2304V24.3631ZM1.63753 21.7826C1.63753 22.097 1.38096 22.3514 1.06877 22.3514C0.753873 22.3514 0.5 22.097 0.5 21.7826V4.46364C0.5 3.23807 1.00179 2.11891 1.80875 1.30972C2.61734 0.50492 3.73699 0.000976562 4.96474 0.000976562H14.9141C15.2284 0.000976562 15.4828 0.255375 15.4828 0.569744C15.4828 0.884098 15.2279 1.13851 14.9141 1.13851L4.96474 1.13905C4.04921 1.13905 3.2168 1.5139 2.61351 2.11454C2.01179 2.71626 1.63748 3.55288 1.63748 4.46356L1.63753 21.7826ZM54.094 9.59365C54.094 9.38083 53.9557 9.15452 53.7748 9.08484C53.3956 8.89525 52.9586 9.18206 52.9586 9.59365V10.7312C52.9586 10.944 53.0975 11.1703 53.2779 11.24C53.657 11.4296 54.094 11.1428 54.094 10.7312V9.59365Z" fill="#FC9823"/>
</svg>
