<svg width="70" height="44" viewBox="0 0 70 44" fill="none" xmlns="http://www.w3.org/2000/svg">
<path fill-rule="evenodd" clip-rule="evenodd" d="M30.4788 39.968C31.0962 40.5521 31.7438 41.1055 32.4176 41.6247C29.43 43.1436 26.0486 44.001 22.4695 44.001C17.7438 44.001 13.3638 42.5074 9.77719 39.968H30.4788ZM37.5405 2.37761C40.5281 0.858731 43.9095 0.00135718 47.4887 0.00135718C59.6305 0.00135718 69.4879 9.85925 69.4879 22.0006C69.4879 34.1425 59.63 43.9998 47.4887 43.9998C43.9095 43.9998 40.5281 43.1425 37.5405 41.6236C43.4226 37.0978 47.2165 29.9885 47.2165 21.9995C47.2165 14.0109 43.4226 6.90084 37.5405 2.37532V2.37761ZM34.9793 3.90689C40.7121 7.87932 44.4693 14.5046 44.4693 22.0014C44.4693 29.498 40.7121 36.1238 34.9793 40.0958C29.2471 36.1234 25.4893 29.4981 25.4893 22.0014C25.4893 14.5047 29.2471 7.87894 34.9793 3.90689ZM24.7053 31.6693C25.5557 33.6682 26.6615 35.5327 27.9811 37.2211H6.59117C5.02723 35.5901 3.71159 33.7187 2.70646 31.6693H24.7053ZM22.7803 23.3709C22.8845 25.2875 23.2083 27.1465 23.7255 28.9227H1.58279C0.998652 27.1593 0.631216 25.2983 0.512207 23.3709H22.7803ZM23.728 15.0725C23.2098 16.8492 22.886 18.7078 22.7803 20.6243H0.51326C0.632269 18.6963 1.0002 16.8353 1.58583 15.0725H23.728ZM27.9821 6.78063C26.6635 8.46757 25.5587 10.3296 24.7093 12.326H2.71011C3.71525 10.2785 5.02936 8.40956 6.59178 6.78063H27.9821ZM9.77843 4.03345C13.3646 1.49459 17.7446 0.000976562 22.4702 0.000976562C26.0494 0.000976562 29.4307 0.858338 32.4184 2.37722C31.744 2.8969 31.0964 3.44979 30.4799 4.03345H9.77843Z" fill="#424441"/>
</svg>
