<svg width="60" height="53" viewBox="0 0 60 53" fill="none" xmlns="http://www.w3.org/2000/svg">
<path d="M47.315 45.4963C47.1391 45.4963 46.9607 45.4509 46.7981 45.3544L44.6517 44.0871C44.3388 43.9036 44.1471 43.5663 44.1471 43.2012L44.1476 25.8015L30.6199 17.6974L30.6171 17.6988C30.3013 17.8689 29.9184 17.8589 29.6103 17.6735C29.3016 17.4876 29.1133 17.1526 29.1133 16.7918L29.1128 14.3604C29.1128 13.7932 29.5708 13.333 30.1353 13.333C30.6998 13.333 31.1578 13.7932 31.1578 14.3604V15.6277C31.1621 15.6306 31.1659 15.6329 31.1702 15.6358L45.6171 24.2919C45.902 24.4229 46.1269 24.6747 46.1992 24.9882C46.242 25.1703 46.2382 25.3533 46.1925 25.5234V42.6148L47.8342 43.5834C48.3203 43.8711 48.4839 44.5014 48.1976 44.9898C48.0083 45.3152 47.6659 45.4953 47.3154 45.4953L47.315 45.4963Z" fill="#E4E4E4"/>
<path d="M29.7953 34.5363C29.6127 34.5363 29.4306 34.4871 29.2698 34.3905L14.8156 25.6905C14.5069 25.5046 14.3186 25.1696 14.3186 24.8088C14.3186 24.4299 14.525 24.0476 14.8565 23.8698L29.6516 15.8889C30.1505 15.6223 30.7707 15.8072 31.0365 16.3076C31.3043 16.8079 31.1179 17.4305 30.6199 17.6991L17.382 24.8399L29.9077 32.3797C35.3579 29.8079 40.2731 27.1424 44.5189 24.4519C44.6963 24.3004 44.9241 24.2096 45.1714 24.2096C45.736 24.2096 46.194 24.6521 46.194 25.2203C46.194 25.5739 46.0142 25.9347 45.7174 26.122C41.322 28.9156 36.2251 31.6787 30.5704 34.3375C30.4962 34.3724 30.4183 34.3977 30.3374 34.4135C30.2841 34.4245 30.2294 34.4417 30.1766 34.4627C30.0535 34.5124 29.9246 34.5363 29.7967 34.5363H29.7953Z" fill="#E4E4E4"/>
<path d="M53.2138 48.8184C53.0421 48.8184 52.869 48.7754 52.7092 48.6846L50.017 47.143C49.5252 46.862 49.3535 46.2345 49.6332 45.7404C49.9128 45.2463 50.5373 45.0766 51.029 45.3562L53.7213 46.8978C54.2116 47.1788 54.3833 47.8063 54.1037 48.2989C53.9144 48.632 53.5691 48.8184 53.2139 48.8184L53.2138 48.8184Z" fill="#E4E4E4"/>
<path d="M58.9764 52.0398C58.8071 52.0398 58.6368 51.9982 58.4784 51.9103L55.8523 50.4375C55.3596 50.1608 55.1826 49.5348 55.458 49.0392C55.7334 48.5441 56.3578 48.3678 56.8496 48.6431L59.4758 50.1158C59.9685 50.3911 60.1454 51.0176 59.87 51.5141C59.6831 51.8496 59.3341 52.0398 58.9764 52.0398H58.9764Z" fill="#E4E4E4"/>
<path d="M30.136 11.9275C29.5715 11.9275 29.1135 11.4674 29.1135 10.9001V8.39948C29.1135 7.83226 29.5715 7.37207 30.136 7.37207C30.7006 7.37207 31.1585 7.83226 31.1585 8.39948V10.9001C31.1585 11.4674 30.7006 11.9275 30.136 11.9275Z" fill="#E4E4E4"/>
<path d="M30.1363 5.38503C29.5717 5.38503 29.1138 4.92485 29.1138 4.35762L29.1133 1.58405C29.1133 1.01683 29.5713 0.556641 30.1358 0.556641C30.7003 0.556641 31.1583 1.01683 31.1583 1.58405V4.35811C31.1588 4.92534 30.7008 5.38505 30.1363 5.38505V5.38503Z" fill="#E4E4E4"/>
<path d="M29.7953 52.4836C29.6127 52.4836 29.4334 52.4358 29.2717 52.3393L14.8187 43.7075C14.5086 43.5225 14.3198 43.1866 14.3198 42.8244V24.8082C14.3198 24.2409 14.7778 23.7808 15.3423 23.7808C15.9069 23.7808 16.3648 24.2409 16.3648 24.8082V42.2396L29.1133 49.8549V33.4046C29.1133 32.8374 29.5713 32.3772 30.1358 32.3772C30.7004 32.3772 31.1583 32.8374 31.1583 33.4046V51.3193C31.1583 51.7408 30.9025 52.1183 30.5139 52.275L30.1729 52.4112C30.0512 52.459 29.9232 52.4834 29.7953 52.4834L29.7953 52.4836Z" fill="#E4E4E4"/>
<path d="M1.02323 51.3547C0.658452 51.3547 0.305096 51.1583 0.121995 50.8128C-0.145758 50.3125 0.0420966 49.6898 0.540038 49.4212L3.40312 47.8796C3.90011 47.6105 4.52075 47.8007 4.78803 48.3011C5.05484 48.8004 4.8665 49.4241 4.36857 49.6911L1.50548 51.2328C1.35187 51.3155 1.18684 51.3547 1.02324 51.3547L1.02323 51.3547Z" fill="#E4E4E4"/>
<path d="M6.8527 48.2718C6.48127 48.2718 6.12315 48.0682 5.94195 47.7141C5.68513 47.2085 5.88345 46.5887 6.38519 46.3303L9.1807 44.8904C9.6853 44.6309 10.3007 44.8316 10.5579 45.3358C10.8162 45.8399 10.6179 46.4602 10.1147 46.7196L7.31919 48.1595C7.16985 48.2355 7.00958 48.2718 6.85264 48.2718L6.8527 48.2718Z" fill="#E4E4E4"/>
<path d="M12.7855 45.1889C12.4164 45.1889 12.0602 44.9882 11.8771 44.636C11.6175 44.1319 11.8115 43.5116 12.3128 43.2502L14.8695 41.9136C15.3713 41.6541 15.9886 41.8467 16.2487 42.3513C16.5098 42.854 16.3153 43.4757 15.8131 43.7371L13.2563 45.0738C13.1065 45.1512 12.9448 45.1889 12.7855 45.1889H12.7855Z" fill="#E4E4E4"/>
<path d="M30.1361 52.3467C29.7727 52.3467 29.4194 52.1512 29.2348 51.8062C28.9671 51.3059 29.1549 50.6832 29.6514 50.4146L44.6852 42.2967C45.1822 42.03 45.8028 42.2149 46.0701 42.7153C46.3379 43.2146 46.1514 43.8383 45.6535 44.1068L30.6197 52.2248C30.4666 52.3084 30.2997 52.3467 30.1361 52.3467Z" fill="#E4E4E4"/>
</svg>
