<svg width="60" height="61" viewBox="0 0 60 61" fill="none" xmlns="http://www.w3.org/2000/svg">
<path d="M54.0486 48.0427C52.8024 48.0427 51.5874 48.4328 50.5745 49.1585L47.6031 46.1875C48.8011 45.4833 49.9968 44.474 50.045 42.9659V28.9534C50.1049 28.3314 49.9946 27.705 49.7269 27.1406C49.4588 26.5763 49.0428 26.095 48.5232 25.7483L31.9839 14.6107C31.6899 14.4123 31.3673 14.2595 31.0277 14.1576V11.9203C38.1886 10.5638 37.3691 0.169293 30.0268 0C22.6833 0.170689 21.8664 10.5647 29.0259 11.9203V14.1576C28.6863 14.2595 28.3642 14.4123 28.0702 14.6107L11.5309 25.7483C11.0112 26.095 10.5952 26.5762 10.3272 27.1406C10.0591 27.7049 9.94916 28.3314 10.009 28.9534V42.9659C10.2083 44.3908 11.1328 45.6106 12.451 46.187L9.47955 49.1585C7.91793 48.0486 5.91969 47.7509 4.10242 48.3578C2.28469 48.9641 0.866053 50.402 0.283821 52.2277C-0.298388 54.053 0.0260027 56.0468 1.15692 57.5936C2.28783 59.1405 4.08947 60.0543 6.00546 60.0534C7.47557 60.0396 8.8902 59.4891 9.98271 58.5052C11.0757 57.5217 11.7714 56.1727 11.9393 54.7121C12.1073 53.2514 11.736 51.78 10.8951 50.574L14.1422 47.3269L28.07 56.7107H28.0705C28.6491 57.1008 29.3314 57.3094 30.0293 57.3085C30.7273 57.3081 31.4091 57.099 31.9873 56.7076L45.9117 47.3264L49.1588 50.5735V50.574C48.3179 51.78 47.9465 53.2513 48.1146 54.7121C48.2826 56.1728 48.9783 57.5216 50.0712 58.5056C51.1637 59.4891 52.5783 60.0395 54.0484 60.0534C61.9845 59.8014 61.9832 48.2943 54.0484 48.0427L54.0486 48.0427ZM6.00586 58.0517C4.58402 58.0391 3.27577 57.2733 2.5684 56.0396C1.86108 54.8059 1.86108 53.2898 2.5684 52.0566C3.27573 50.8229 4.58402 50.0571 6.00586 50.0445C7.4277 50.057 8.73595 50.8229 9.44332 52.0566C10.1506 53.2903 10.1506 54.8064 9.44332 56.0396C8.73599 57.2732 7.4277 58.0391 6.00586 58.0517ZM26.0237 6.00534C26.0362 4.58351 26.802 3.27526 28.0357 2.56789C29.2694 1.86056 30.7855 1.86056 32.0187 2.56789C33.2524 3.27521 34.0182 4.58351 34.0308 6.00534C34.0183 7.42718 33.2524 8.73543 32.0187 9.4428C30.785 10.1501 29.269 10.1501 28.0357 9.4428C26.8021 8.73548 26.0363 7.42718 26.0237 6.00534ZM12.6495 27.4084L29.0263 16.3798V28.0245C29.0263 28.5772 29.4745 29.0254 30.0272 29.0254C30.58 29.0254 31.0281 28.5772 31.0281 28.0245V16.3798L47.405 27.4084C47.8156 27.6899 48.0614 28.1559 48.0614 28.6542C48.0614 29.1524 47.8156 29.6184 47.405 29.9L30.8657 41.0375C30.359 41.3798 29.6951 41.3798 29.1883 41.0375L12.649 29.9C12.2384 29.6185 11.9926 29.1524 11.9926 28.6542C11.9926 28.1559 12.2384 27.6899 12.649 27.4084H12.6495ZM15.5847 45.8854L18.7245 42.7456C19.1021 42.3524 19.0958 41.7295 18.7106 41.3439C18.325 40.9587 17.7022 40.9525 17.3089 41.33L13.8934 44.7455L12.6432 43.9033V43.9037C12.2987 43.6749 12.0686 43.3094 12.0114 42.8997V31.8828L28.0702 42.6978C28.3642 42.8957 28.6864 43.0485 29.026 43.1504V54.9403L15.5847 45.8854ZM31.0281 54.9408V43.1509C31.3677 43.049 31.6899 42.8962 31.9839 42.6982L48.0427 31.8832V42.9001C47.9847 43.3125 47.7514 43.6803 47.4033 43.909L46.1608 44.7464L42.7453 41.3304C42.352 40.9529 41.7292 40.9591 41.3436 41.3443C40.9584 41.7299 40.9521 42.3528 41.3297 42.746L44.4695 45.8858L31.0281 54.9408ZM54.0486 58.052C52.6268 58.0395 51.3185 57.2736 50.6111 56.0399C49.9038 54.8063 49.9038 53.2902 50.6111 52.0569C51.3185 50.8233 52.6268 50.0575 54.0486 50.0449C55.4704 50.0574 56.7787 50.8232 57.4861 52.0569C58.1934 53.2906 58.1934 54.8067 57.4861 56.0399C56.7787 57.2736 55.4704 58.0394 54.0486 58.052Z" fill="#E4E4E4"/>
</svg>
