<svg width="50" height="40" viewBox="0 0 50 40" fill="none" xmlns="http://www.w3.org/2000/svg">
<path d="M15.9087 1.09277C15.2813 1.09277 14.7725 1.58308 14.7725 2.18669V7.65676H17.045L17.0454 2.18669C17.0454 1.58268 16.5361 1.09277 15.9087 1.09277H15.9087Z" fill="#E4E4E4"/>
<path d="M43.1818 27.3488H35.2274V9.8446H6.81815C6.19076 9.8446 5.68188 10.3349 5.68188 10.9385C5.68188 11.5425 6.19117 12.0324 6.81815 12.0324H32.9546V27.3486H17.0455V14.2205H14.7729V29.5367H43.1822C43.8096 29.5367 44.3184 29.0464 44.3184 28.4428C44.318 27.8387 43.8092 27.3485 43.1818 27.3485V27.3488Z" fill="#E4E4E4"/>
<path d="M32.9546 31.7246V37.1947C32.9546 37.7987 33.4639 38.2886 34.0909 38.2886C34.7183 38.2886 35.2271 37.7983 35.2271 37.1947L35.2275 31.7246H32.9546Z" fill="#E4E4E4"/>
<path d="M44.3179 16.4086C44.027 16.4086 43.7364 16.3018 43.5145 16.0881L38.9689 11.712C38.525 11.2846 38.525 10.5921 38.9689 10.1651C39.4128 9.73777 40.1322 9.73777 40.5757 10.1651L44.3179 13.7675L48.0601 10.1655C48.504 9.73816 49.2233 9.73816 49.6668 10.1655C50.1107 10.5929 50.1107 11.2854 49.6668 11.7124L45.1212 16.0885C44.8993 16.3022 44.6088 16.4086 44.3179 16.4086V16.4086Z" fill="#E4E4E4"/>
<path d="M44.3182 11.4857C44.2445 11.4857 44.1703 11.4804 44.0958 11.4639C44.0221 11.4529 43.948 11.4311 43.8798 11.4037C43.8117 11.3762 43.7498 11.3434 43.6868 11.2999C43.625 11.2617 43.5675 11.2178 43.5164 11.1633C43.4597 11.1141 43.4141 11.0595 43.3745 10.9992C43.3349 10.9389 43.2948 10.879 43.2667 10.8077C43.2382 10.742 43.2156 10.6764 43.2049 10.6054C43.1878 10.5341 43.1819 10.4627 43.1819 10.3918C43.1819 10.3208 43.1874 10.2494 43.2045 10.1785C43.216 10.1075 43.2386 10.0419 43.2663 9.97052C43.2952 9.90489 43.3345 9.8446 43.3741 9.7847C43.4137 9.72441 43.4593 9.66985 43.516 9.62063C43.5671 9.56607 43.6238 9.52219 43.6864 9.48403C43.749 9.44588 43.8113 9.40734 43.8794 9.38025C43.9476 9.35278 44.0213 9.33103 44.0954 9.31996C44.4648 9.24899 44.8572 9.36384 45.1188 9.62063C45.3356 9.82286 45.4549 10.1071 45.4549 10.3918C45.4549 10.4627 45.4493 10.5341 45.4323 10.6051C45.4204 10.676 45.3978 10.7417 45.3696 10.8073C45.3411 10.8783 45.3015 10.9385 45.2622 10.9988C45.2226 11.0591 45.177 11.1137 45.1204 11.1629C44.9091 11.3708 44.6194 11.4857 44.3182 11.4857L44.3182 11.4857Z" fill="#E4E4E4"/>
<path d="M43.0619 6.54041C42.9363 5.94975 43.3291 5.36981 43.9426 5.24391C44.5561 5.12371 45.1585 5.50642 45.2893 6.09708C45.4142 6.68774 45.0222 7.26768 44.4086 7.38792C44.3286 7.40433 44.2497 7.41539 44.1756 7.41539C43.6465 7.41043 43.1756 7.05482 43.0619 6.54047L43.0619 6.54041ZM41.3462 3.63062C40.8861 3.22045 40.8583 2.53094 41.2781 2.08797C41.7041 1.63924 42.4262 1.61216 42.886 2.02234C43.347 2.43251 43.3803 3.12202 42.9542 3.57037C42.7275 3.80007 42.4207 3.92064 42.1191 3.92064C41.8405 3.92026 41.5615 3.82754 41.3463 3.63065L41.3462 3.63062ZM38.1926 2.22452C37.5731 2.15355 37.13 1.60639 37.2041 1.00997C37.2779 0.408243 37.8462 -0.0183064 38.4712 0.0526288C39.0907 0.129323 39.5338 0.670758 39.4597 1.27246C39.3915 1.82495 38.8973 2.23514 38.3344 2.23514C38.2893 2.23552 38.2437 2.2298 38.1926 2.22446L38.1926 2.22452Z" fill="#E4E4E4"/>
<path d="M34.091 2.18643C34.0173 2.18643 33.9432 2.18109 33.8687 2.16468C33.795 2.15361 33.7209 2.13187 33.6527 2.10439C33.5845 2.07692 33.5227 2.04411 33.4597 2.00061C33.3978 1.96245 33.3404 1.91857 33.2892 1.86401C33.0736 1.6614 32.9543 1.3821 32.9543 1.0925C32.9543 1.02153 32.9599 0.950178 32.9769 0.879203C32.9884 0.808233 33.011 0.742608 33.0388 0.671253C33.0677 0.605625 33.1069 0.545333 33.1466 0.485436C33.1862 0.425149 33.2318 0.370584 33.2885 0.31602C33.3396 0.266798 33.3963 0.22292 33.4589 0.184758C33.5215 0.146602 33.5837 0.108064 33.6519 0.0809733C33.7201 0.0535008 33.7938 0.0317509 33.8679 0.0206858C34.2373 -0.0502845 34.6296 0.0645655 34.8912 0.316011C34.9479 0.370574 34.9935 0.425521 35.0331 0.485428C35.0723 0.545715 35.1128 0.605623 35.1405 0.671244C35.1691 0.742214 35.1916 0.807839 35.2031 0.879195C35.2214 0.950165 35.2273 1.02113 35.2273 1.09249C35.2273 1.38248 35.108 1.6614 34.892 1.86362C34.8405 1.91819 34.7842 1.96206 34.7208 2.00022C34.659 2.0441 34.596 2.07691 34.5278 2.104C34.4541 2.13148 34.3859 2.15322 34.3118 2.16429C34.2385 2.1807 34.1648 2.18642 34.091 2.18642V2.18643Z" fill="#E4E4E4"/>
<path d="M10.227 29.5368C9.93613 29.5368 9.64522 29.43 9.42367 29.2163L5.68187 25.6136L1.93967 29.2163C1.49656 29.6437 0.776003 29.6437 0.332921 29.2163C-0.110974 28.789 -0.110974 28.0964 0.332921 27.6694L4.8785 23.2933C5.3216 22.8659 6.04216 22.8659 6.48524 23.2933L11.0308 27.6694C11.4747 28.0968 11.4747 28.7893 11.0308 29.2163C10.8089 29.43 10.518 29.5368 10.2271 29.5368H10.227Z" fill="#E4E4E4"/>
<path d="M5.68185 30.084C5.37509 30.084 5.09092 29.9691 4.88086 29.7612C4.66447 29.559 4.54517 29.28 4.54517 28.9901C4.54517 28.9191 4.55071 28.8477 4.56776 28.776C4.57925 28.705 4.60184 28.6337 4.63038 28.568C4.65892 28.5024 4.69855 28.4429 4.73818 28.3822C4.77782 28.3227 4.82339 28.2674 4.88007 28.2182C5.30057 27.808 6.06189 27.808 6.48245 28.2182C6.53912 28.2674 6.5847 28.3219 6.62433 28.3822C6.66396 28.4425 6.704 28.5024 6.73214 28.568C6.76067 28.6337 6.78326 28.7046 6.79476 28.776C6.8122 28.8477 6.81814 28.9191 6.81814 28.9901C6.81814 29.1377 6.7896 29.2743 6.73293 29.4113C6.67625 29.5426 6.59104 29.6627 6.48285 29.7619C6.27279 29.9691 5.98267 30.084 5.68186 30.084H5.68185Z" fill="#E4E4E4"/>
<path d="M11.5277 39.3282C10.9082 39.2515 10.4651 38.7101 10.5392 38.1092C10.6129 37.5071 11.1813 37.0809 11.8063 37.1575C12.4257 37.2285 12.8689 37.7703 12.7947 38.3721C12.7265 38.9307 12.2323 39.3355 11.6695 39.3355C11.6243 39.3344 11.5732 39.3344 11.5276 39.3283L11.5277 39.3282ZM7.11287 37.3594C6.64677 36.9492 6.61864 36.2597 7.0447 35.8113C7.47076 35.3683 8.19243 35.3409 8.65266 35.7511C9.11281 36.1612 9.14134 36.8511 8.71528 37.2937C8.49373 37.5287 8.18697 37.6493 7.8802 37.6493C7.60753 37.6493 7.3289 37.5505 7.1129 37.3593L7.11287 37.3594ZM4.70945 33.2843C4.5846 32.6936 4.97658 32.1137 5.5901 31.9938C6.20363 31.8679 6.80602 32.251 6.9368 32.8416C7.06165 33.4323 6.66967 34.0122 6.05615 34.1321C5.97648 34.1485 5.89722 34.1599 5.8231 34.1599C5.29479 34.1596 4.82315 33.804 4.70936 33.2843L4.70945 33.2843Z" fill="#E4E4E4"/>
<path d="M15.9087 39.3829C15.6075 39.3829 15.3178 39.268 15.1078 39.0601C14.8918 38.8575 14.7725 38.5786 14.7725 38.2886C14.7725 38.2176 14.778 38.1463 14.7951 38.0745C14.8065 38.0036 14.8291 37.9322 14.8577 37.8666C14.8862 37.8009 14.9258 37.7414 14.9655 37.6808C15.0051 37.6212 15.0507 37.5659 15.1074 37.5167C15.3685 37.2595 15.7609 37.1447 16.1299 37.216C16.2036 37.2271 16.2718 37.2488 16.3459 37.2755C16.4141 37.3034 16.4767 37.3412 16.5389 37.3793C16.6015 37.4175 16.6582 37.4614 16.7149 37.5159C16.766 37.5651 16.8116 37.6197 16.8512 37.68C16.8968 37.7403 16.9309 37.8002 16.959 37.8658C16.9876 37.9314 17.0102 38.0024 17.0216 38.0738C17.0395 38.1466 17.0454 38.2176 17.0454 38.2886C17.0454 38.5786 16.9261 38.8521 16.7161 39.0597C16.6083 39.1631 16.483 39.2455 16.3467 39.2997C16.2044 39.3554 16.0621 39.3829 15.9087 39.3829L15.9087 39.3829Z" fill="#E4E4E4"/>
</svg>
