<svg width="60" height="56" viewBox="0 0 60 56" fill="none" xmlns="http://www.w3.org/2000/svg">
<path d="M36.9223 55.1149C36.7214 55.1149 36.5191 55.0716 36.3377 54.9878L35.347 54.5314C35.0082 54.3749 34.751 54.0958 34.6215 53.747C34.4914 53.3967 34.5068 53.0184 34.6633 52.6796C34.8906 52.1857 35.3874 51.8678 35.9316 51.8678C36.1324 51.8678 36.3293 51.9111 36.5136 51.9963L36.9422 52.1932L54.9595 44.47L37.6745 37.5561L20.2759 44.5159L23.841 46.1584C24.3254 46.3817 24.6363 46.8521 24.6518 47.3863C24.6588 47.6026 24.6154 47.8119 24.5247 48.0102C24.2975 48.5026 23.7991 48.8225 23.2565 48.8225C23.1697 48.8225 23.0835 48.814 22.9998 48.7971L22.9844 48.7941H22.9814C22.8752 48.7732 22.7721 48.7383 22.6729 48.6935L16.1606 45.692C15.6528 45.4588 15.3344 44.9485 15.3483 44.3904C15.3638 43.8322 15.7071 43.3384 16.2259 43.1306L37.1557 34.7585C37.4851 34.626 37.8619 34.626 38.1912 34.7585L59.1211 43.1306C59.6473 43.3399 59.9916 43.8422 59.9986 44.4089C60.0056 44.9755 59.6737 45.4848 59.1529 45.7081L37.4717 55.0035C37.2973 55.0773 37.1119 55.1151 36.9221 55.1151L36.9223 55.1149ZM29.5923 51.7412C29.3914 51.7412 29.1946 51.6979 29.0092 51.6127C28.3115 51.2902 28.0046 50.46 28.327 49.7608C28.5542 49.2669 29.0511 48.9485 29.5952 48.9485C29.7961 48.9485 29.9929 48.9919 30.1773 49.0771C30.8765 49.3995 31.1834 50.2297 30.861 50.9289C30.6333 51.4213 30.1354 51.7412 29.5923 51.7412Z" fill="#E4E4E4"/>
<path d="M37.6749 37.4485H37.6664C36.8975 37.4445 36.2751 36.8151 36.2796 36.0462L36.4849 1.38686C36.4889 0.622409 37.1143 0 37.8803 0H37.8888C38.6577 0.00398669 39.2801 0.63338 39.2756 1.40383L39.0703 36.0606C39.0663 36.825 38.4394 37.4475 37.6749 37.4475V37.4485Z" fill="#E4E4E4"/>
<path d="M16.1263 38.8441C15.9953 38.8441 15.8642 38.8262 15.7386 38.7898L1.00763 34.5255C0.414616 34.3541 0 33.8024 0 33.1845V14.7079C0 14.2714 0.207806 13.8538 0.556644 13.5917C0.90149 13.332 1.36893 13.2468 1.78305 13.3669L16.514 17.6312C17.107 17.8026 17.5217 18.3538 17.5217 18.9723V37.4488C17.5217 37.8853 17.3139 38.3029 16.965 38.5651C16.7248 38.745 16.4273 38.8441 16.1263 38.8441ZM2.791 32.1371L14.7312 35.5936V20.0193L2.791 16.5633V32.1371Z" fill="#E4E4E4"/>
<path d="M16.1263 20.3676C15.9953 20.3676 15.8652 20.3482 15.7386 20.3118L1.00763 16.0475C0.414616 15.8761 0 15.3249 0 14.708C0 14.09 0.414616 13.5389 1.00763 13.3669L15.7386 9.10262C15.9928 9.02886 16.2604 9.02886 16.5145 9.10262L31.2455 13.3669C31.8385 13.5383 32.2531 14.0895 32.2531 14.708C32.2531 15.3249 31.8385 15.8761 31.2455 16.0475L16.5145 20.3118C16.3869 20.3477 16.2574 20.3676 16.1263 20.3676H16.1263ZM6.41321 14.708L16.1263 17.5196L25.8394 14.708L16.1263 11.8964L6.41321 14.708Z" fill="#E4E4E4"/>
<path d="M16.1275 38.8441H16.1261C15.8261 38.8441 15.5276 38.745 15.2874 38.5651C14.9385 38.303 14.7307 37.8854 14.7307 37.4488L14.7312 18.9723C14.7312 18.3543 15.1458 17.8032 15.7388 17.6312L30.4685 13.3669C30.8832 13.2468 31.3506 13.332 31.695 13.5917C32.0438 13.8538 32.2516 14.2714 32.2516 14.7079V15.6931C32.2516 15.9054 32.2028 16.1172 32.1091 16.3086L22.0935 36.7C21.9206 37.0518 21.6051 37.317 21.2284 37.4256L16.5136 38.79C16.388 38.8264 16.2585 38.8443 16.1269 38.8443L16.1275 38.8441ZM17.5219 20.0193V35.5923L19.8622 34.9155L28.7784 16.7605L17.5219 20.0193Z" fill="#E4E4E4"/>
<path d="M58.6059 45.8224C58.4275 45.8224 58.2531 45.7891 58.0857 45.7218L49.4485 42.2668L49.447 42.2653C48.7937 42.0042 48.4354 41.2941 48.6153 40.6148C48.6308 40.5605 48.6487 40.5061 48.6696 40.4513C48.72 40.3272 48.7868 40.2101 48.869 40.1055L48.872 40.1015C49.1256 39.7821 49.5053 39.5907 49.9145 39.5753C50.1068 39.5668 50.3012 39.6017 50.4836 39.6744L55.7899 41.7969L37.867 4.58607L19.5984 41.7816L36.4918 35.0236C36.6577 34.9578 36.8321 34.9229 37.0095 34.9229C37.5846 34.9229 38.0924 35.2678 38.3057 35.8005C38.4437 36.1463 38.4397 36.5261 38.2932 36.8694C38.1467 37.2113 37.8746 37.4764 37.5288 37.6144L17.2624 45.7214C17.0979 45.7872 16.9235 45.8205 16.7461 45.8205C16.3584 45.8205 15.9841 45.6571 15.722 45.374C15.3313 44.9539 15.2391 44.3245 15.4918 43.8097L36.6257 0.780265C36.8589 0.305843 37.3498 0.000366211 37.8785 0.000366211H37.884C38.4142 0.00186112 38.9056 0.311328 39.1358 0.790228L59.8602 43.8197C60.1114 44.3429 60.0192 44.9539 59.623 45.3785C59.3599 45.6601 58.9886 45.822 58.6049 45.822L58.6059 45.8224ZM43.4859 39.7752C43.3085 39.7752 43.1355 39.7418 42.9681 39.6745C42.255 39.3885 41.9061 38.5752 42.1912 37.8605C42.4045 37.3273 42.9138 36.983 43.4873 36.983C43.6647 36.983 43.8392 37.0179 44.0051 37.0836C44.351 37.2217 44.6231 37.4868 44.7696 37.8301C44.9161 38.172 44.9216 38.5517 44.7835 38.8976C44.5702 39.4303 44.0609 39.7752 43.4858 39.7752L43.4859 39.7752Z" fill="#E4E4E4"/>
<path d="M29.3022 1.1701H32.0929V3.96079H29.3022V1.1701Z" fill="#E4E4E4"/>
<path d="M25.1165 1.1701H27.9071V3.96079H25.1165V1.1701Z" fill="#E4E4E4"/>
<path d="M20.9307 1.1701H23.7213V3.96079H20.9307V1.1701Z" fill="#E4E4E4"/>
<path d="M16.7439 1.1701H19.5346V3.96079H16.7439V1.1701Z" fill="#E4E4E4"/>
<path d="M12.5581 1.1701H15.3488V3.96079H12.5581V1.1701Z" fill="#E4E4E4"/>
<path d="M19.5352 50.0068H22.3258V52.7975H19.5352V50.0068Z" fill="#E4E4E4"/>
<path d="M15.3494 50.0068H18.14V52.7975H15.3494V50.0068Z" fill="#E4E4E4"/>
<path d="M11.1624 50.0068H13.953V52.7975H11.1624V50.0068Z" fill="#E4E4E4"/>
<path d="M6.97681 50.0068H9.76749V52.7975H6.97681V50.0068Z" fill="#E4E4E4"/>
<path d="M2.79102 50.0068H5.5817V52.7975H2.79102V50.0068Z" fill="#E4E4E4"/>
</svg>
