<svg width="60" height="54" viewBox="0 0 60 54" fill="none" xmlns="http://www.w3.org/2000/svg">
<path d="M46.865 16.6666L30.6271 7.24661C30.2426 7.02066 29.7648 7.02066 29.3802 7.24661L13.1424 16.6666C12.7578 16.8925 12.5144 17.3071 12.5144 17.7499V36.5903C12.5144 37.0426 12.7488 37.4568 13.1424 37.6736L29.3802 47.0936C30.0082 47.414 30.4394 47.2067 30.6271 47.0936L46.865 37.6736C47.2496 37.4476 47.493 37.0331 47.493 36.5903L47.4934 17.7499C47.4839 17.2976 47.2496 16.883 46.865 16.6666ZM43.7341 17.7499L30 25.7191L16.2659 17.7499L30 9.78066L43.7341 17.7499ZM15.0085 19.9257L28.7426 27.8949V43.8332L15.0085 35.864V19.9257ZM31.2463 43.8342V27.8959L44.9804 19.9267V35.865L31.2463 43.8342Z" fill="#E4E4E4"/>
<path d="M59.6346 23.7698C59.1469 23.2798 58.3596 23.2798 57.8629 23.7698L56.1658 25.475C55.294 11.7217 43.9035 0.794922 30.0003 0.794922C29.3067 0.794922 28.7534 1.36 28.7534 2.0478C28.7534 2.73561 29.3158 3.30068 30.0003 3.30068C42.4693 3.30068 52.6975 13.0128 53.6533 25.2963L52.1344 23.7702C51.6467 23.2801 50.8595 23.2801 50.3627 23.7702C49.875 24.2602 49.875 25.0513 50.3627 25.5504L54.1126 29.3183C54.3564 29.5633 55.0781 29.9774 55.8843 29.3183L59.6342 25.5504C60.1219 25.0603 60.1219 24.2598 59.6346 23.7702L59.6346 23.7698Z" fill="#E4E4E4"/>
<path d="M29.9996 51.0311C17.5307 51.0311 7.30245 41.319 6.3467 29.0355L7.86552 30.5616C8.74687 31.2585 9.38434 30.8066 9.63725 30.5616C10.125 30.0716 10.125 29.2805 9.63725 28.7814L5.88739 25.0135C5.39967 24.5235 4.61242 24.5235 4.11565 25.0135L0.365791 28.7814C-0.12193 29.2715 -0.12193 30.0625 0.365791 30.5616C0.853512 31.0517 1.64075 31.0517 2.13752 30.5616L3.83456 28.8564C4.70598 42.6187 16.0969 53.5465 30.0001 53.5465C30.6937 53.5465 31.247 52.9815 31.247 52.2937C31.247 51.5967 30.6937 51.0317 30.0001 51.0317L29.9996 51.0311Z" fill="#E4E4E4"/>
</svg>
