<svg width="51" height="50" viewBox="0 0 51 50" fill="none" xmlns="http://www.w3.org/2000/svg">
<path d="M15.9763 31.2505H34.7775L30.6665 23.69L26.1247 26.2775C25.6308 26.5545 25.0101 26.3923 24.7184 25.911L20.6852 19.2605L15.9763 31.2505Z" fill="#FC9823"/>
<path d="M36.8846 13.5618L32.1377 18.3114L30.8445 17.0182L35.5914 12.2686L36.8846 13.5618Z" fill="#FC9823"/>
<path d="M36.5247 10.8592L39.2102 8.17358L40.5049 9.46825L37.8193 12.1538L36.5247 10.8592Z" fill="#FC9823"/>
<path d="M30.3685 20.1503L30.6399 19.8793L29.3463 18.5857L29.0742 18.8546L27.6665 21.5608L30.3685 20.1503Z" fill="#FC9823"/>
<path d="M42.1579 5.77285L41.1995 6.7334L42.4927 8.027L43.4536 7.06645C44.0573 6.46445 44.1369 5.70374 43.8303 5.39338C43.5241 5.0896 42.7627 5.17086 42.1579 5.77285H42.1579Z" fill="#FC9823"/>
<path d="M41.0954 0H9.90195C4.71633 0 0.5 4.21463 0.5 9.39838V40.6007C0.5 45.786 4.71463 50.0009 9.90195 50.0009H41.098C46.2813 50.0009 50.5 45.7905 50.5 40.6007V9.39838C50.5 4.21481 46.2812 0 41.0954 0V0ZM44.925 8.53989L43.2292 10.2378L42.7982 10.673C43.7336 12.1668 44.2501 13.871 44.2501 15.6505V30.1838C44.2501 35.369 40.0334 39.5839 34.8455 39.5839H16.1541C10.9685 39.5839 6.74948 35.3693 6.74948 30.1838V15.6505C6.74948 10.469 10.9683 6.25029 16.1541 6.25029H34.8455C35.9773 6.25029 37.0836 6.45014 38.1334 6.83973C38.1376 6.84182 38.1397 6.84392 38.1418 6.84601L40.6841 4.30239C42.0628 2.92754 44.1332 2.76076 45.3026 3.92536C46.4714 5.09413 46.3005 7.16479 44.9253 8.54008L44.925 8.53989Z" fill="#FC9823"/>
<path d="M31.9916 21.7602L37.3251 31.5711C37.5044 31.7587 37.6146 32.0106 37.6146 32.292C37.6146 32.8651 37.1458 33.3338 36.5728 33.3338H36.5313H14.4497C14.1037 33.3338 13.7831 33.1629 13.5892 32.8776C13.3953 32.5923 13.3538 32.2254 13.4808 31.9087L19.5164 16.5396C19.6601 16.1668 20.0019 15.9146 20.3978 15.8832C20.7915 15.8396 21.1727 16.0416 21.3768 16.3813L24.9476 22.269L27.3018 17.7481C27.3496 17.6543 27.4166 17.5688 27.4895 17.4959L36.4539 8.52881C35.9283 8.41023 35.3957 8.32896 34.8478 8.32896L16.1537 8.32861C12.1159 8.33071 8.83252 11.6141 8.83252 15.6478V30.1793C8.83252 34.2168 12.118 37.5005 16.1537 37.5005H34.8451C38.8826 37.5005 42.1667 34.2168 42.1667 30.1789V15.6483C42.1667 14.4234 41.8563 13.2483 41.279 12.1835L31.8601 21.6024C31.9037 21.6589 31.9578 21.7004 31.9913 21.7608L31.9916 21.7602Z" fill="#FC9823"/>
</svg>
