<svg width="31" height="16" viewBox="0 0 31 16" fill="none" xmlns="http://www.w3.org/2000/svg">
<path d="M30.4997 9.58168C30.4997 7.52848 28.7886 5.81738 26.7354 5.81738H4.26429C2.2111 5.81738 0.5 7.52848 0.5 9.58168V14.2586H1.6979V14.5438C1.6979 15.0002 2.04004 15.3423 2.49634 15.3423H4.03634C4.49266 15.3423 4.83479 15.0002 4.83479 14.5438V14.2586H26.1652V14.5438C26.1652 15.0002 26.5074 15.3423 26.9637 15.3423H28.5037C28.96 15.3423 29.3021 15.0002 29.3021 14.5438V14.2586H30.5L30.4997 9.58168Z" fill="#63AC43"/>
<path d="M3.52303 2.50946H6.65996V5.24736H7.17317V2.50946H10.8805V5.24736H11.3937V2.50946H15.1007V5.24736H15.6143V2.50946H19.3782V5.24736H19.8345V2.50946H23.5988V5.24736H24.112V2.50946H27.192V5.24736H27.7052V0H27.192V1.99637H3.52322V0H3.01001V5.24736H3.52322L3.52303 2.50946Z" fill="#63AC43"/>
</svg>
