<svg width="59" height="50" viewBox="0 0 59 50" fill="none" xmlns="http://www.w3.org/2000/svg">
<path d="M21.4327 8.68704C21.3642 8.34173 21.1719 8.04815 20.8893 7.85891C20.6338 7.68869 20.3327 7.62855 20.0435 7.68825L19.5558 7.78729C19.4763 7.80365 19.3953 7.83106 19.3188 7.86643C19.2875 7.88014 19.2561 7.89163 19.2225 7.89915C19.1243 7.92258 19.0239 7.91507 18.9284 7.87748C18.8042 7.82885 18.7029 7.72981 18.6521 7.60557C18.1852 6.47063 17.5114 5.4585 16.65 4.59771C16.6266 4.57427 16.6062 4.54907 16.5886 4.52387C16.5585 4.47877 16.5355 4.42571 16.5222 4.37177C16.5169 4.34878 16.5094 4.32623 16.5147 4.3333L16.5054 4.28069L16.5152 4.15822C16.5315 4.06714 16.5687 3.98799 16.6483 3.8947L17.0139 3.33938C17.3813 2.75752 17.227 1.96516 16.669 1.57308C16.4104 1.39135 16.1022 1.32371 15.8015 1.38384C15.496 1.44441 15.2325 1.62879 15.0596 1.90335L14.7864 2.33576C14.7501 2.39324 14.7192 2.45691 14.6909 2.52456C14.64 2.64703 14.5392 2.74563 14.4172 2.79426C14.2934 2.8429 14.1532 2.84069 14.0321 2.78542C12.9603 2.30658 11.8033 2.06296 10.5741 2.06252C10.3437 2.0665 10.1235 1.87683 10.0917 1.62348L9.97851 1.02349C9.90998 0.677732 9.71809 0.383714 9.43512 0.194474C9.17956 0.0242506 8.87934 -0.0372105 8.5893 0.0242507C7.95306 0.153353 7.54451 0.815244 7.67892 1.50192L7.80095 2.09616C7.86639 2.33845 7.74303 2.59268 7.51311 2.68731C6.38123 3.15598 5.37929 3.86073 4.53524 4.78265C4.36767 4.96526 4.08824 4.9962 3.88485 4.85295L3.5108 4.59209C3.25126 4.40992 2.94309 4.34272 2.64375 4.40285C2.33824 4.46342 2.07472 4.64736 1.90096 4.92281C1.53354 5.50511 1.68785 6.29748 2.24583 6.68877L2.63227 6.96069C2.82062 7.09333 2.89269 7.33474 2.80824 7.54829C2.32542 8.76733 2.10833 10.0579 2.1636 11.3848C2.17333 11.6289 2.00708 11.842 1.76744 11.8906L1.43583 11.9578C0.79959 12.0869 0.391489 12.7493 0.525459 13.4328C0.593107 13.7777 0.785883 14.0717 1.06709 14.2596C1.32132 14.4294 1.62153 14.4913 1.91468 14.4316L2.31835 14.3493C2.55224 14.3025 2.78437 14.4272 2.87501 14.6465C3.37905 15.8716 4.11612 16.9464 5.06543 17.841C5.23786 18.0028 5.27102 18.2654 5.14457 18.4653L4.94605 18.7801C4.57863 19.3624 4.73294 20.1547 5.29004 20.5464C5.54825 20.7285 5.85598 20.7975 6.15753 20.7361C6.46305 20.6755 6.72656 20.4915 6.90033 20.2165L7.18153 19.7704C7.31196 19.575 7.56222 19.4976 7.77975 19.5861C8.45668 19.8602 9.18714 20.0428 9.94935 20.129C10.1434 20.152 10.338 20.1737 10.5299 20.1821H10.5316C10.8341 20.1936 11.1064 20.1927 11.3704 20.1772C11.3996 20.1759 11.4288 20.1763 11.4544 20.179L11.5406 20.1971C11.7108 20.2484 11.8404 20.3908 11.8846 20.603L11.981 21.0955C12.0486 21.4417 12.2419 21.7362 12.5244 21.9245C12.7176 22.0528 12.9294 22.1186 13.1474 22.1186C13.2212 22.1186 13.2964 22.1107 13.3711 22.0952C14.0069 21.9661 14.4154 21.3042 14.2815 20.6207L14.1811 20.1091C14.1718 20.0632 14.1608 20.0207 14.1484 19.9778C14.0781 19.7426 14.1882 19.4955 14.4097 19.3893C14.6781 19.2616 14.9456 19.1152 15.2047 18.9552C15.9603 18.4883 16.6403 17.8998 17.2256 17.207C17.2681 17.1566 17.3198 17.1159 17.3795 17.0858C17.4317 17.0584 17.4878 17.0416 17.5444 17.035L17.5621 17.0359L17.5891 17.0367C17.7195 17.0235 17.8384 17.0748 17.9273 17.1526C17.9614 17.1831 17.9963 17.2109 18.0303 17.2344L18.4473 17.528C18.7068 17.7106 19.015 17.7782 19.3143 17.7176C19.6198 17.6571 19.8834 17.4731 20.0571 17.1977C20.4245 16.6154 20.2702 15.823 19.7122 15.4317L19.2984 15.1399C19.2334 15.0944 19.1653 15.0559 19.0959 15.0254C18.8607 14.921 18.744 14.6491 18.8306 14.4064C19.2436 13.2476 19.4235 12.0348 19.3634 10.8008C19.3568 10.6681 19.4049 10.5368 19.4951 10.44C19.5853 10.3436 19.7122 10.2857 19.8453 10.2826C19.9086 10.2808 19.9722 10.2755 20.0377 10.2623L20.5222 10.1637C21.1585 10.0337 21.5666 9.37222 21.4326 8.68734L21.4327 8.68704ZM11.9458 15.9607C10.6698 16.2198 9.36144 15.959 8.28219 15.2392C7.17153 14.499 6.41684 13.3623 6.15685 12.0385C5.62628 9.33708 7.35687 6.70014 10.0141 6.15898C11.2888 5.89944 12.5891 6.155 13.6767 6.88056C14.7874 7.62159 15.5421 8.7579 15.8021 10.0816C16.3326 12.7831 14.6021 15.42 11.9458 15.9607Z" fill="#63AC43"/>
<path d="M19.2347 5.49624C19.2732 5.55903 19.3143 5.6196 19.3519 5.68326C19.4607 5.86852 19.5641 6.05776 19.6623 6.24965L19.7463 6.2324C20.4276 6.09224 21.1262 6.23196 21.7134 6.62325C22.3275 7.03224 22.7454 7.66405 22.89 8.40156C23.1787 9.87119 22.267 11.3025 20.8544 11.611C20.8509 11.7229 20.8411 11.8343 20.8336 11.9457L58.4382 11.9453V5.11865H18.9966C19.001 5.12528 19.0045 5.13147 19.009 5.13811C19.0872 5.25528 19.1606 5.37554 19.2345 5.49624L19.2347 5.49624ZM53.2354 8.02657C53.2354 7.48008 53.6793 7.03617 54.2258 7.03617H54.5901C55.1366 7.03617 55.5805 7.48008 55.5805 8.02657V8.4099C55.5805 8.95639 55.1366 9.4003 54.5901 9.4003H54.2258C53.6793 9.4003 53.2354 8.95639 53.2354 8.4099V8.02657ZM47.9955 8.02657C47.9955 7.48008 48.4394 7.03617 48.9859 7.03617H49.3498C49.8963 7.03617 50.3402 7.48008 50.3402 8.02657V8.4099C50.3402 8.95639 49.8963 9.4003 49.3498 9.4003H48.9859C48.4394 9.4003 47.9955 8.95639 47.9955 8.4099V8.02657ZM42.7562 8.02657C42.7562 7.48008 43.2001 7.03617 43.7466 7.03617H44.1104C44.6569 7.03617 45.1008 7.48008 45.1008 8.02657V8.4099C45.1008 8.95639 44.6569 9.4003 44.1104 9.4003H43.7466C43.2001 9.4003 42.7562 8.95639 42.7562 8.4099V8.02657Z" fill="#63AC43"/>
<path d="M52.2913 45.1869C52.3382 45.1276 52.382 45.0657 52.4222 45.0021C52.431 44.9879 52.4395 44.9729 52.4479 44.9583C52.519 44.8394 52.5783 44.7147 52.6256 44.586C52.634 44.5626 52.6437 44.5405 52.6517 44.5166C52.6716 44.456 52.6879 44.3955 52.7021 44.3336C52.7145 44.2809 52.7242 44.2274 52.7326 44.1739C52.7419 44.1165 52.7507 44.0594 52.756 44.0015C52.7635 43.9095 52.7653 43.8163 52.7609 43.7221C52.7596 43.6876 52.7565 43.6526 52.7534 43.6186C52.7423 43.5054 52.7273 43.3918 52.6985 43.2786C52.4554 42.3413 51.6423 41.7346 50.7558 41.7687C50.6289 41.7735 50.5007 41.7917 50.3724 41.8235C49.0536 42.0958 47.751 42.3629 46.4524 42.6278C45.5336 42.8152 44.6166 43.0027 43.7006 43.1893C41.8759 43.5611 40.0511 43.9334 38.2255 44.3083C38.0982 44.3627 37.9598 44.3897 37.8325 44.3879C37.6167 44.4326 37.4005 44.4772 37.1847 44.5214C37.0888 44.5413 36.9911 44.5471 36.8929 44.5374L32.5268 44.1293C32.4914 44.1257 32.4565 44.1209 32.422 44.1138L24.8605 42.5787C24.3241 42.47 23.9779 41.9473 24.0872 41.4111C24.1955 40.8756 24.7176 40.5281 25.2548 40.6378L32.7651 42.1623L36.9314 42.5514C37.1145 42.5138 37.2984 42.4762 37.4819 42.4386C37.4832 42.4373 37.485 42.436 37.4863 42.4351C37.6331 42.3193 37.8453 42.1221 38.0067 41.8616C38.0209 41.8378 38.0359 41.8148 38.0492 41.79C38.0686 41.7547 38.0863 41.7188 38.1031 41.6817C38.1208 41.6428 38.1367 41.6017 38.1517 41.5597C38.1628 41.5296 38.1738 41.4995 38.1822 41.4686C38.2035 41.3917 38.2207 41.3121 38.2282 41.2285C38.3065 40.4229 37.6247 39.3967 36.3885 39.1243C31.3441 37.7559 26.362 36.3994 21.365 35.0239L21.2071 35.0765C19.7273 35.5708 18.2527 36.0598 16.7742 36.5532C14.5082 37.3089 12.2405 38.0662 9.97808 38.8179C9.97542 38.8188 9.97365 38.8184 9.971 38.8192C9.06549 39.1203 8.15512 39.4254 7.25052 39.7256L7.03564 47.7386L14.7837 45.0265C14.8898 44.9893 14.9999 44.9712 15.1109 44.9712C15.2228 44.9712 15.3351 44.9902 15.4421 45.0282L25.8895 48.7352C25.9306 48.7493 25.9708 48.767 26.0097 48.7864C26.5792 49.0782 27.2522 49.3541 27.956 49.5832C28.5215 49.7534 29.1192 49.8887 29.8076 50.001C37.0424 48.6061 44.2584 47.2102 51.4934 45.7958C51.8144 45.6667 52.0814 45.451 52.2915 45.187L52.2913 45.1869Z" fill="#63AC43"/>
<path d="M9.10543 14.0024C9.86061 14.5064 10.7639 14.6846 11.6482 14.5046C13.5083 14.1257 14.7175 12.2705 14.3434 10.3679C14.1604 9.43503 13.6303 8.6356 12.8512 8.11607C12.2883 7.74069 11.6428 7.54614 10.9845 7.54614C10.7599 7.54614 10.5339 7.56913 10.3089 7.61512C8.44873 7.99404 7.23954 9.84923 7.61318 11.7518C7.79711 12.6834 8.32724 13.4837 9.10545 14.0023L9.10543 14.0024Z" fill="#63AC43"/>
<path d="M20.5238 13.9265C20.5048 13.9999 20.4902 14.0742 20.4699 14.1467L20.568 14.2161C21.7623 15.0571 22.0965 16.7501 21.3139 17.9907C20.9213 18.6128 20.3151 19.0324 19.6068 19.1748C18.9599 19.3026 18.3033 19.1845 17.7401 18.8401C17.1392 19.4348 16.472 19.945 15.7461 20.3655C16.0184 21.8374 15.0917 23.2629 13.668 23.5525C13.4965 23.5869 13.3245 23.6046 13.1529 23.6046C13.152 23.6046 13.1512 23.6051 13.1498 23.6051C12.9973 23.6051 12.8461 23.5874 12.6966 23.5604C12.6538 23.5525 12.6113 23.5414 12.5689 23.5317C12.457 23.506 12.3474 23.4724 12.239 23.4317C12.197 23.4158 12.1555 23.4017 12.1143 23.3831C11.9724 23.3208 11.8331 23.25 11.7005 23.1616C11.5736 23.0767 11.4564 22.9817 11.3468 22.8795C11.3101 22.845 11.2791 22.8057 11.2442 22.769C11.1752 22.6974 11.1076 22.6248 11.047 22.5461C11.0112 22.4997 10.9811 22.4489 10.9489 22.4002C10.8984 22.3246 10.8489 22.2486 10.806 22.1685C10.7769 22.1137 10.7525 22.0567 10.7269 21.9996C10.7035 21.9484 10.6756 21.8997 10.6553 21.8462V36.5041C13.3581 35.6048 16.06 34.7059 18.7677 33.8022C19.5198 33.551 20.2705 33.3017 21.0226 33.0505C21.2092 32.9878 21.4095 32.982 21.5996 33.0346C26.6927 34.4376 31.7676 35.8196 36.8608 37.2027C38.8982 37.6497 40.3856 39.5036 40.2003 41.4106C40.1853 41.5808 40.1583 41.7444 40.1207 41.8991C41.1982 41.6794 42.2753 41.4592 43.3524 41.2399C45.5454 40.7933 47.7384 40.3459 49.9314 39.894C50.1835 39.8303 50.4377 39.7949 50.6897 39.7856C51.8242 39.7441 52.9256 40.2344 53.6941 41.0798C54.1216 41.5494 54.4457 42.1282 54.6168 42.7869C54.6557 42.9413 54.6831 43.096 54.7044 43.2508C54.7101 43.2928 54.7136 43.3348 54.7181 43.3772C54.7309 43.4984 54.7384 43.6199 54.7411 43.7406C54.7415 43.7787 54.7437 43.8176 54.7428 43.8556C54.7397 44.1691 54.7017 44.4786 54.631 44.7783C54.627 44.7951 54.6257 44.8124 54.6217 44.8292L58.4387 44.8288V13.9261L20.5238 13.9265ZM28.7401 27.1763L26.009 30.052C25.8224 30.2488 25.5624 30.3606 25.291 30.3606C25.0195 30.3606 24.7595 30.2488 24.5729 30.052L23.1439 28.5469C22.7672 28.1503 22.7836 27.5238 23.1802 27.1471C23.5768 26.7705 24.2033 26.7863 24.5804 27.1834L25.2914 27.9319L27.3044 25.8132C27.6807 25.4166 28.3077 25.4007 28.7047 25.7769C29.1009 26.1532 29.1172 26.7797 28.7401 27.1763L28.7401 27.1763ZM28.7401 19.3213L26.009 22.197C25.8224 22.3937 25.5624 22.5056 25.291 22.5056C25.0195 22.5056 24.7595 22.3937 24.5729 22.197L23.1439 20.6919C22.7672 20.2953 22.7836 19.6688 23.1802 19.2921C23.5768 18.9154 24.2033 18.9313 24.5804 19.3284L25.2914 20.0769L27.3044 17.9581C27.6807 17.5615 28.3077 17.5456 28.7047 17.9219C29.1009 18.2977 29.1172 18.9247 28.7401 19.3212L28.7401 19.3213ZM47.5373 29.438H33.3582C32.8117 29.438 32.3678 28.994 32.3678 28.4476C32.3678 27.9011 32.8117 27.4572 33.3582 27.4572H47.5362C48.0827 27.4572 48.5266 27.9011 48.5266 28.4476C48.5266 28.9945 48.0835 29.438 47.5366 29.438H47.5373ZM47.5373 21.0673H33.3582C32.8117 21.0673 32.3678 20.6234 32.3678 20.0769C32.3678 19.5305 32.8117 19.0865 33.3582 19.0865H47.5362C48.0827 19.0865 48.5266 19.5305 48.5266 20.0769C48.5266 20.6234 48.0835 21.0673 47.5366 21.0673H47.5373Z" fill="#63AC43"/>
</svg>
