<svg width="50" height="51" viewBox="0 0 50 51" fill="none" xmlns="http://www.w3.org/2000/svg">
<path d="M17.1798 31.232L19.7991 33.8642C20.0141 34.0804 20.3056 34.2017 20.6094 34.2017C20.9128 34.2017 21.2046 34.0803 21.4193 33.8642L49.6642 5.48388C49.8793 5.26777 50 4.97495 50 4.66966C50 4.36437 49.8793 4.07116 49.6642 3.85545L47.0445 1.22359C46.8202 0.998241 46.5276 0.886177 46.2342 0.886177C45.9407 0.886177 45.6473 0.998653 45.4238 1.22359L17.18 29.6029C16.7318 30.0528 16.7318 30.7819 17.18 31.2314L17.1798 31.232ZM46.2342 3.66603L47.2332 4.66903L25.3119 26.6944L24.3129 25.6914L46.2342 3.66603ZM22.6928 27.3203L23.6918 28.3233L20.6093 31.4207L19.611 30.4169L22.6928 27.3203Z" fill="#63AC43"/>
<path d="M29.6315 38.2388C29.9249 38.2388 30.2184 38.3512 30.4418 38.5762L35.1415 43.2988C35.5892 43.7487 35.5892 44.4778 35.1415 44.9272C34.6946 45.3771 33.9678 45.3771 33.5208 44.9272L28.8212 40.2046C28.3734 39.7547 28.3734 39.0256 28.8212 38.5762C29.0446 38.3512 29.3381 38.2388 29.6315 38.2388Z" fill="#63AC43"/>
<path d="M6.49453 14.9911C6.78796 14.9911 7.08099 15.1036 7.30486 15.3285L12.0045 20.0508C12.4523 20.5006 12.4523 21.2297 12.0045 21.6792C11.5568 22.1291 10.8312 22.1291 10.3839 21.6792L5.6842 16.957C5.23646 16.5071 5.23646 15.778 5.6842 15.3285C5.90847 15.1036 6.2011 14.9911 6.49453 14.9911Z" fill="#63AC43"/>
<path d="M11.6073 38.2388C11.9007 38.2388 12.1937 38.3512 12.4176 38.5762C12.8654 39.0261 12.8654 39.7551 12.4176 40.2046L7.71795 44.9272C7.27021 45.3771 6.54461 45.3771 6.09728 44.9272C5.64955 44.4773 5.64955 43.7483 6.09728 43.2988L10.797 38.5762C11.0204 38.3512 11.3139 38.2388 11.6073 38.2388Z" fill="#63AC43"/>
<path d="M21.2047 41.69C21.8376 41.69 22.3508 42.2061 22.3508 42.8416L22.3508 49.7517C22.3508 50.3876 21.8371 50.9033 21.2047 50.9033C20.5719 50.9033 20.0586 50.3872 20.0586 49.7517L20.0586 42.8416C20.0586 42.2057 20.5719 41.69 21.2047 41.69Z" fill="#63AC43"/>
<path d="M21.2047 9.44226C21.8376 9.44226 22.3508 9.95842 22.3508 10.5939L22.3508 16.9285C22.3508 17.5643 21.8371 18.0801 21.2047 18.0801C20.5719 18.0801 20.0586 17.5639 20.0586 16.9285L20.0586 10.5939C20.0586 9.9584 20.5719 9.44226 21.2047 9.44226Z" fill="#63AC43"/>
<path d="M1.14616 29.021L8.02333 29.021C8.65616 29.021 9.16943 29.5372 9.16943 30.1726C9.16943 30.8085 8.65574 31.3242 8.02333 31.3242L1.14616 31.3242C0.51333 31.3242 5.53578e-05 30.8081 5.54128e-05 30.1726C5.54679e-05 29.5367 0.513351 29.021 1.14616 29.021Z" fill="#63AC43"/>
<path d="M34.3861 29.021L40.6901 29.021C41.3229 29.021 41.8362 29.5372 41.8362 30.1726C41.8362 30.8085 41.3225 31.3242 40.6901 31.3242L34.3857 31.3242C33.7529 31.3242 33.2396 30.8081 33.2396 30.1726C33.2396 29.5367 33.7533 29.021 34.3861 29.021Z" fill="#63AC43"/>
</svg>
