<svg width="31" height="24" viewBox="0 0 31 24" fill="none" xmlns="http://www.w3.org/2000/svg">
<path d="M27.1667 15H14.3335V16.4167H27.1667C27.8514 16.4167 28.4841 16.782 28.8266 17.3749C29.1688 17.968 29.1688 18.6986 28.8266 19.2917C28.4841 19.8846 27.8514 20.2499 27.1667 20.2499H20.0233C19.8852 20.2499 19.7734 20.1381 19.7734 20C19.7734 19.8619 19.8852 19.75 20.0233 19.75H27.1667C27.6728 19.75 28.1404 19.4801 28.3936 19.0416C28.6466 18.6033 28.6466 18.0634 28.3936 17.6251C28.1404 17.1866 27.6728 16.9167 27.1667 16.9167H14.3335V19.7501H15.2035C15.3417 19.7501 15.4535 19.8619 15.4535 20C15.4535 20.1382 15.3417 20.25 15.2035 20.25H14.3335V21.6667H27.1667C28.3576 21.6667 29.4578 21.0315 30.0533 20.0001C30.6488 18.9686 30.6488 17.6982 30.0533 16.6668C29.4578 15.6353 28.3576 15.0001 27.1667 15.0001V15ZM18.04 20.2499H16.7068C16.5687 20.2499 16.4566 20.138 16.4566 19.9999C16.4566 19.8618 16.5687 19.75 16.7068 19.75H18.04C18.1781 19.75 18.2899 19.8618 18.2899 19.9999C18.2899 20.138 18.1781 20.2499 18.04 20.2499Z" fill="#63AC43"/>
<path d="M29.1667 5.76329L30.3967 4.90669L29.4534 2.85338L28.0034 3.2268L28.0032 3.22656C27.7019 2.86013 27.3533 2.53508 26.9667 2.26003L27.2301 0.786596L25.1066 0L24.3467 1.28998C24.1767 1.28998 24.0133 1.26324 23.8368 1.26324H23.8366C23.5329 1.26138 23.2297 1.28487 22.93 1.33323L22.0734 0.109974L20.0201 1.05329L20.3935 2.50322H20.3933C20.0269 2.80478 19.7018 3.15333 19.4268 3.53999L17.9533 3.27655L17.1667 5.39331L18.4567 6.15342V6.15318C18.4093 6.62541 18.4237 7.10162 18.5 7.56989L17.27 8.42649L18.2133 10.4798L19.6632 10.1064L19.6635 10.1066C19.9648 10.473 20.3133 10.7981 20.7 11.0731L20.4366 12.5466L22.5601 13.3332L23.3202 12.0432C23.4902 12.0432 23.6536 12.0699 23.8301 12.0699C24.1338 12.0718 24.437 12.0483 24.7366 11.9999L25.5932 13.2299L27.6466 12.2866L27.2731 10.8367L27.2734 10.8365C27.6398 10.5351 27.9649 10.1866 28.2399 9.79992L29.7133 10.0634L30.4999 7.93982L29.21 7.17971V7.17994C29.2574 6.70771 29.243 6.2315 29.1667 5.76323L29.1667 5.76329ZM23.8333 9.8199C23.465 9.82013 23.0995 9.75596 22.7533 9.62994C22.6891 9.60878 22.6363 9.56251 22.6068 9.50182C22.5773 9.44114 22.5735 9.37092 22.5966 9.30745C22.6196 9.24397 22.6672 9.19235 22.7289 9.16469C22.7902 9.13678 22.8605 9.13516 22.9232 9.1598C23.2141 9.27025 23.5222 9.32907 23.8333 9.33326C23.9714 9.33326 24.0832 9.4451 24.0832 9.58321C24.0832 9.72132 23.9714 9.83316 23.8333 9.83316L23.8333 9.8199ZM26.7967 7.74659C26.5242 8.49712 25.9759 9.11586 25.2632 9.47645C25.2298 9.49505 25.1916 9.50435 25.1533 9.50319C25.0589 9.50412 24.9721 9.45111 24.9301 9.36647C24.8708 9.24463 24.9177 9.09792 25.0365 9.03328C25.6952 8.70102 26.187 8.11091 26.3946 7.40288C26.6023 6.6951 26.5076 5.93296 26.1328 5.2975C25.758 4.66203 25.137 4.21025 24.4169 4.0496C23.697 3.88893 22.9425 4.03355 22.3331 4.44928C21.7237 4.86501 21.3138 5.51462 21.2008 6.2436C21.0878 6.97252 21.2817 7.71584 21.7367 8.29643C21.8214 8.40594 21.8011 8.56359 21.6916 8.64822C21.5821 8.73286 21.4247 8.71263 21.3401 8.60312C20.6569 7.72122 20.4907 6.54422 20.9027 5.50768C21.3148 4.47115 22.2438 3.72943 23.346 3.55694C24.4478 3.38465 25.559 3.80735 26.2679 4.66859C26.9766 5.52983 27.1778 6.70165 26.7967 7.74985V7.74659Z" fill="#63AC43"/>
<path d="M12.7902 6.66675H1.54331C1.26662 6.66675 1.00132 6.77673 0.80552 6.97227C0.609975 7.16804 0.5 7.43334 0.5 7.71006V22.2902C0.5 22.5669 0.609981 22.8322 0.80552 23.028C1.0013 23.2235 1.26659 23.3335 1.54331 23.3335H12.7902C13.0669 23.3335 13.3322 23.2235 13.528 23.028C13.7235 22.8322 13.8335 22.5669 13.8335 22.2902V7.71006C13.8335 7.43337 13.7235 7.16807 13.528 6.97227C13.3322 6.77672 13.0669 6.66675 12.7902 6.66675ZM5.79027 9.16671H6.70032C6.83843 9.16671 6.95027 9.27855 6.95027 9.41666C6.95027 9.55477 6.83843 9.66661 6.70032 9.66661H5.77379C5.63567 9.66661 5.5236 9.55477 5.5236 9.41666C5.5236 9.27855 5.63567 9.16671 5.77379 9.16671H5.79027ZM11.9872 13.4033C11.9854 13.8242 11.6447 14.1648 11.2239 14.1666H3.11091C2.69006 14.1648 2.34943 13.8242 2.34758 13.4033V9.93004C2.34944 9.50919 2.69007 9.16856 3.11091 9.16671H3.83423C3.97234 9.16671 4.08418 9.27855 4.08418 9.41666C4.08418 9.55477 3.97234 9.66661 3.83423 9.66661H3.11091C2.96559 9.66661 2.8477 9.7845 2.8477 9.93005V13.4033C2.8477 13.5489 2.96559 13.6668 3.11091 13.6668H11.2239C11.2936 13.6668 11.3606 13.6389 11.4101 13.5896C11.4594 13.5401 11.4871 13.4731 11.4871 13.4033V9.93005C11.4871 9.86029 11.4594 9.79333 11.4101 9.74381C11.3606 9.69452 11.2936 9.66661 11.2239 9.66661H8.16727C8.02915 9.66661 7.91732 9.55477 7.91732 9.41666C7.91732 9.27855 8.02915 9.16671 8.16727 9.16671H11.2339C11.6547 9.16857 11.9954 9.5092 11.9972 9.93004L11.9872 13.4033Z" fill="#63AC43"/>
</svg>
