<svg width="31" height="20" viewBox="0 0 31 20" fill="none" xmlns="http://www.w3.org/2000/svg">
<path d="M13.7246 12.8235C14.0674 12.9409 14.3831 13.1199 14.6697 13.3385C14.9239 13.2245 15.2037 13.158 15.4996 13.158C15.7955 13.158 16.0753 13.2245 16.3296 13.3385C16.6164 13.1199 16.9319 12.9409 17.2745 12.8235C19.7961 11.9672 22.6255 7.42463 23.6409 5.67113C21.125 4.99516 19.3838 2.73894 19.3838 0.105277V0L11.6157 0.000251861V0.105529C11.6157 2.739 9.87477 4.99516 7.35913 5.67113C8.37481 7.42359 11.2039 11.9614 13.7248 12.8235L13.7246 12.8235Z" fill="#63AC43"/>
<path d="M30.4993 13.5888V10.6214C30.4993 8.45511 29.0371 6.60244 26.9399 6.10578L24.8363 5.84863C24.0307 7.29303 20.7769 12.825 17.6362 13.8921C17.4868 13.9432 17.3466 14.0147 17.2118 14.0958C17.4201 14.4172 17.5438 14.7987 17.5438 15.2098C17.5438 16.1439 16.9146 16.9252 16.0619 17.1723V18.1845H14.9376V17.1723C14.0848 16.9255 13.4557 16.144 13.4557 15.2098C13.4557 14.7987 13.5794 14.4172 13.7877 14.0958C13.6527 14.0145 13.5119 13.9427 13.3621 13.8913C10.2235 12.8186 6.97176 7.29666 6.1645 5.8511L4.0594 6.10624C1.96232 6.6029 0.5 8.45562 0.5 10.6218V13.5892C15.4059 22.1369 15.5935 22.1369 30.5 13.5892L30.4993 13.5888Z" fill="#63AC43"/>
<path d="M16.6239 15.0912C16.6239 15.7143 16.1204 16.2196 15.4996 16.2196C14.8787 16.2196 14.3752 15.7143 14.3752 15.0912C14.3752 14.4681 14.8787 13.9629 15.4996 13.9629C16.1204 13.9629 16.6239 14.4681 16.6239 15.0912Z" fill="#63AC43"/>
</svg>
