<svg width="45" height="50" viewBox="0 0 45 50" fill="none" xmlns="http://www.w3.org/2000/svg">
<path d="M39.7508 22.1227V29.4564C39.7508 30.6439 39.4503 31.8712 38.5058 32.9724C37.525 34.1151 33.268 36.7698 31.7455 37.6702C30.7012 38.2869 29.9623 36.9711 30.72 36.3925C31.4997 35.7971 35.6097 33.2473 36.8938 32.366C39.2489 30.7472 36.9833 27.1982 34.116 28.8767C32.8755 29.6027 31.5488 30.3337 28.8434 31.9102C26.2385 33.4274 24.504 35.367 23.9775 40.4889C23.7157 43.0383 25.2663 50.001 25.2663 50.001H34.0183C34.0183 43.9117 41.1729 38.862 42.8644 35.7856C43.9357 33.8372 44.0878 33.0206 44.0878 31.3201V22.1227C44.0878 18.7772 39.7509 18.8504 39.7509 22.1227H39.7508Z" fill="#63AC43"/>
<path d="M15.7451 31.9103C13.0394 30.3342 11.7133 29.6035 10.4726 28.8767C7.60485 27.1972 5.33923 30.7473 7.69397 32.3657C8.97846 33.2481 13.088 35.7972 13.8682 36.3922C14.6255 36.9708 13.887 38.2866 12.843 37.6699C11.3206 36.7701 7.0625 34.1159 6.08165 32.9732C5.13708 31.8724 4.8369 30.6444 4.8369 29.4565V22.1232C4.8369 18.8509 0.5 18.7773 0.5 22.1232V31.3197C0.5 33.0212 0.652393 33.8368 1.72338 35.7859C3.41463 38.8628 10.5699 43.9123 10.5699 50.0003L19.3211 50.0007C19.3211 50.0007 20.8713 43.0383 20.6095 40.4886C20.0845 35.3667 18.3499 33.4275 15.7451 31.9099V31.9103Z" fill="#63AC43"/>
<path d="M7.71887 21.9772C7.71887 22.7591 8.18954 23.6624 8.78884 24.0358L20.6544 30.931V18.5281L7.71851 11.0818L7.71887 21.9772Z" fill="#63AC43"/>
<path d="M23.9476 30.931L35.8131 24.0357C36.4131 23.6624 36.8834 22.7591 36.8834 21.9772L36.8838 11.0811L23.947 18.5273L23.9476 30.931Z" fill="#63AC43"/>
<path d="M23.4467 0.221897C22.8222 -0.10917 21.8056 -0.0637013 21.1292 0.328466L8.32617 7.58964L22.3005 15.6322L36.2476 7.60664L23.4467 0.221897Z" fill="#63AC43"/>
</svg>
