<svg width="31" height="16" viewBox="0 0 31 16" fill="none" xmlns="http://www.w3.org/2000/svg">
<path d="M29.5847 10.6283C30.1446 9.33663 30.5749 8.04491 30.4891 6.23669C30.4029 4.68672 30.1875 2.4478 28.982 1.62968C24.6333 3.48119 20.6724 3.395 16.7975 0.424154C16.496 0.208819 15.8932 -0.307738 15.3337 0.252065C13.8267 1.67287 8.40192 6.45202 1.47011 7.82961C0.824415 7.95875 0.393746 8.56151 0.52291 9.20752C1.5563 14.7185 9.6505 15.924 15.2476 15.8378C16.5393 15.8378 21.9641 14.374 27.4321 15.4071C27.9919 15.4933 28.5085 15.235 28.7667 14.7182C29.8001 12.5654 29.7139 11.4461 29.5848 10.9725C29.5416 10.8866 29.5416 10.7575 29.5848 10.6283L29.5847 10.6283ZM28.8958 2.23268C29.1973 2.49096 29.4556 3.0508 29.6277 3.78265C25.2792 5.89241 21.0168 5.20345 18.3474 2.06062C21.5765 3.78265 25.0638 3.82594 28.8958 2.2327L28.8958 2.23268ZM12.5781 3.22317C12.7934 3.73973 13.3962 5.03147 14.5587 6.45227L14.214 6.71055C13.7833 6.23693 12.4487 4.77317 12.0612 3.61061C12.2336 3.48147 12.4057 3.35233 12.5781 3.22319L12.5781 3.22317ZM8.53086 5.76332C8.74619 6.32312 9.34898 7.57162 10.4682 8.94944L10.1238 9.20772C9.6931 8.73411 8.31547 7.27034 7.97103 6.10779C8.18637 5.97865 8.35846 5.89245 8.53084 5.76331L8.53086 5.76332ZM29.0679 12.2645C22.8251 9.9826 12.9224 15.5366 6.76562 14.2452C4.01012 13.3842 1.55585 11.8342 1.03934 9.12158C0.996397 8.82006 1.16848 8.43264 1.64209 8.34675C4.31141 12.4369 9.21964 14.116 13.7835 12.0924C17.6583 10.4133 24.7194 8.04522 29.0679 11.1452C29.1538 11.4468 29.1109 11.8771 29.0676 12.2646L29.0679 12.2645Z" fill="#63AC43"/>
</svg>
