<svg width="60" height="61" viewBox="0 0 60 61" fill="none" xmlns="http://www.w3.org/2000/svg">
<path d="M39.3843 23.7623L36.2411 20.6036C35.983 20.3443 35.6333 20.1987 35.2687 20.1987C34.9046 20.1987 34.5544 20.3443 34.2968 20.6036L0.402958 54.6601C0.144864 54.9194 0 55.2708 0 55.6371C0 56.0035 0.144877 56.3553 0.402958 56.6142L3.54661 59.7724C3.81573 60.0428 4.16689 60.1773 4.519 60.1773C4.87112 60.1773 5.22323 60.0423 5.4914 59.7724L39.384 25.7172C39.9218 25.1773 39.9218 24.3025 39.384 23.7631L39.3843 23.7623ZM4.51901 56.8415L3.3202 55.6379L29.6257 29.2074L30.8246 30.411L4.51901 56.8415ZM32.7686 28.4564L31.5698 27.2528L35.2689 23.5359L36.4668 24.7405L32.7686 28.4564Z" fill="#E4E4E4"/>
<path d="M24.4422 15.3539C24.0901 15.3539 23.738 15.2189 23.4698 14.949L17.8302 9.28187C17.2929 8.74201 17.2929 7.86712 17.8302 7.32775C18.3665 6.78789 19.2387 6.78789 19.775 7.32775L25.4146 12.9949C25.9519 13.5348 25.9519 14.4097 25.4146 14.949C25.1464 15.219 24.7943 15.3539 24.4422 15.3539Z" fill="#E4E4E4"/>
<path d="M52.2066 43.2519C51.8545 43.2519 51.5029 43.1169 51.2342 42.847L45.5946 37.1803C45.0573 36.6404 45.0573 35.7656 45.5946 35.2262C46.1319 34.6863 47.0026 34.6863 47.5394 35.2262L53.179 40.8928C53.7163 41.4327 53.7163 42.3076 53.179 42.847C52.9099 43.1169 52.5587 43.2519 52.2066 43.2519Z" fill="#E4E4E4"/>
<path d="M46.0712 15.3539C45.719 15.3539 45.3674 15.2189 45.0988 14.949C44.5615 14.4092 44.5615 13.5343 45.0988 12.9949L50.7384 7.32775C51.2757 6.78789 52.1464 6.78789 52.6832 7.32775C53.2204 7.86761 53.2204 8.7425 52.6832 9.28187L47.0436 14.949C46.7754 15.219 46.4233 15.3539 46.0712 15.3539Z" fill="#E4E4E4"/>
<path d="M34.5543 11.2128C33.7949 11.2128 33.179 10.5934 33.179 9.83085V1.53867C33.179 0.775625 33.7954 0.156738 34.5543 0.156738C35.3137 0.156738 35.9296 0.776131 35.9296 1.53867V9.83085C35.9296 10.5939 35.3137 11.2128 34.5543 11.2128Z" fill="#E4E4E4"/>
<path d="M34.5543 49.9103C33.7949 49.9103 33.179 49.2909 33.179 48.5284V40.9268C33.179 40.1638 33.7954 39.5449 34.5543 39.5449C35.3137 39.5449 35.9296 40.1643 35.9296 40.9268V48.5284C35.9296 49.2909 35.3137 49.9103 34.5543 49.9103Z" fill="#E4E4E4"/>
<path d="M58.6248 26.4152H50.3722C49.6128 26.4152 48.9968 25.7958 48.9968 25.0333C48.9968 24.2703 49.6133 23.6514 50.3722 23.6514H58.6248C59.3842 23.6514 60.0001 24.2708 60.0001 25.0333C60.0001 25.7963 59.3841 26.4152 58.6248 26.4152Z" fill="#E4E4E4"/>
<path d="M18.7365 26.4152H11.1717C10.4123 26.4152 9.79639 25.7958 9.79639 25.0333C9.79639 24.2703 10.4128 23.6514 11.1717 23.6514H18.737C19.4964 23.6514 20.1123 24.2708 20.1123 25.0333C20.1123 25.7963 19.4958 26.4152 18.7365 26.4152Z" fill="#E4E4E4"/>
</svg>
