<svg width="51" height="50" viewBox="0 0 51 50" fill="none" xmlns="http://www.w3.org/2000/svg">
<path fill-rule="evenodd" clip-rule="evenodd" d="M12.2198 0H38.7832C45.2275 0 50.5 5.27281 50.5 11.7198V38.2832C50.5 44.7275 45.2295 50 38.7832 50H12.2198C5.77549 50 0.5 44.7295 0.5 38.2832V11.7168C0.502325 5.27251 5.77519 0 12.2198 0ZM36.0085 24.999V24.8463V24.8649V24.7584V24.7746V24.6936V24.7099L36.0062 24.6382L36.0085 24.6545L36.0062 24.5944V24.6107V24.5592V24.5778V24.5247V24.541V24.4879V24.5065V24.4534V24.4697L36.0039 24.4236L36.0062 24.4422L36.0039 24.3984V24.4146V24.3708V24.3871V24.3247V24.341L36.0015 24.2972L36.0039 24.3135L36.0015 24.2325V24.2511L35.9946 23.964V23.9826L35.9922 23.9202V23.9365V23.8741V23.8927L35.9899 23.8303V23.8465V23.8004V23.819L35.9876 23.7729L35.9899 23.7915L35.9876 23.7384V23.757L35.9853 23.7109L35.9876 23.7295L35.9853 23.6764V23.695L35.9829 23.6419V23.6605V23.6075V23.6261L35.9806 23.5637V23.5823L35.9783 23.5106V23.5292L35.9736 23.4389L35.976 23.4575L35.9713 23.3416V23.3602L35.9574 23.1033L35.9527 22.9944V23.013L35.9481 22.932L35.9504 22.9483L35.9457 22.8766L35.9481 22.8952L35.9411 22.8328L35.9434 22.8491L35.9411 22.796L35.9388 22.7611V22.7774L35.9364 22.7243L35.9388 22.7429L35.9341 22.6898V22.7061L35.9318 22.6623L35.9341 22.6786L35.9295 22.6348L33.7559 22.7782L33.7583 22.8061V22.7875L33.7606 22.8313V22.815L33.7629 22.8588L33.7606 22.8425L33.7652 22.8933L33.7629 22.877L33.7676 22.9301L33.7652 22.9138L33.7699 22.9646L33.7676 22.9483L33.7722 22.9991L33.7699 22.9828L33.7745 23.0452L33.7722 23.0266L33.7769 23.0983L33.7745 23.082L33.7815 23.1607L33.7792 23.1444L33.7862 23.2695V23.2509L33.7931 23.4199V23.4017L33.7978 23.5175V23.5013L33.8001 23.5916V23.573L33.8048 23.6447L33.8024 23.6261L33.8048 23.6884V23.6722L33.8071 23.7253V23.7067V23.7597V23.7411L33.8094 23.7942V23.7756V23.8217V23.8055L33.8117 23.8586V23.84V23.8837V23.8675L33.8141 23.9113V23.895V23.9411V23.9225L33.8164 23.9849V23.9663L33.8187 24.0287L33.8164 24.0101L33.8187 24.0725V24.0539L33.8234 24.2693V24.253L33.8257 24.334L33.8234 24.3154L33.8257 24.3615V24.3429V24.4053V24.3891L33.828 24.4329L33.8257 24.4166L33.828 24.4604V24.4441V24.4879V24.4716V24.5154V24.4968V24.5499V24.5336V24.5867V24.5681V24.6212V24.6049L33.8303 24.658L33.828 24.6417L33.8303 24.7041V24.6878V24.7572V24.7409V24.8219V24.8033L33.8327 24.9099L33.8303 24.8936V24.999C33.8303 26.6564 33.7121 28.3878 33.4459 30.1029C34.2423 29.8808 35.0177 29.6169 35.7559 29.3065C35.9275 27.8762 36.0085 26.4317 36.0085 24.999L36.0085 24.999ZM13.6503 33.3715L11.419 27.4643L10.241 28.7373C9.46092 28.0056 8.76416 27.0845 8.47707 26.0476L8.39569 25.6934V25.698C8.35655 25.4597 8.3333 25.2443 8.3333 24.999C8.34725 23.4016 9.28696 22.1032 10.4398 21.0778C11.264 20.3578 12.2196 19.742 13.2523 19.2189C13.3911 18.337 13.5624 17.4597 13.7685 16.5917C11.3935 17.5523 9.27345 18.8904 7.7873 20.7004C6.77781 21.9691 6.16445 23.3603 6.15274 24.9991C6.15274 27.1172 7.26143 28.9226 8.76375 30.3389L7.58532 31.6123L13.6503 33.3715ZM21.2009 14.7562C20.8885 15.4967 20.62 16.2702 20.3929 17.0638C22.1662 16.7883 23.9158 16.6705 25.5014 16.6705C29.6819 16.6705 34.325 17.425 38.0585 19.3835C40.144 20.4922 42.6462 22.3902 42.6694 24.9988C42.6555 26.5962 41.7181 27.8946 40.5652 28.9177C36.7854 32.2139 30.3573 33.3249 25.5013 33.3249C24.006 33.3249 22.4319 33.2369 20.9644 33.0195L20.6703 35.1815C22.2397 35.4105 23.9088 35.5054 25.5033 35.5054C31.2416 35.5054 39.3639 33.9938 43.2179 29.2951C44.227 28.0268 44.8404 26.638 44.8521 24.9988C44.8195 19.962 39.0585 17.0107 34.9011 15.7838C31.8646 14.8879 28.6611 14.4899 25.5013 14.4899C24.1679 14.4899 22.7073 14.5732 21.2006 14.7561L21.2009 14.7562ZM31.2769 37.2414L31.1172 37.556C30.0085 39.6416 28.1082 42.1438 25.5018 42.167C23.9045 42.153 22.606 41.2156 21.5807 40.0628C18.2869 36.283 17.1735 29.8549 17.1735 24.9989C17.1735 20.8184 17.928 16.1753 19.8865 12.4419C20.9952 10.3563 22.8955 7.85176 25.5018 7.83093C27.3351 7.83093 28.9209 9.18951 29.9625 10.5993L28.5643 11.634L34.2006 14.488L33.1035 8.26851L31.71 9.30081C30.2076 7.30784 28.1081 5.65046 25.5017 5.65046C20.4649 5.68069 17.5137 11.4441 16.2867 15.5995C15.3908 18.6364 14.9928 21.8376 14.9928 24.9997C14.9928 30.738 16.5045 38.8603 21.2031 42.7143C22.4714 43.7234 23.8602 44.3367 25.5013 44.3484C29.6376 44.3229 32.3691 40.4295 33.8921 36.7354C33.0221 36.9389 32.1471 37.1082 31.2768 37.2423L31.2769 37.2414Z" fill="#FC9823"/>
</svg>
