<svg width="31" height="25" viewBox="0 0 31 25" fill="none" xmlns="http://www.w3.org/2000/svg">
<path d="M0.767116 10.0487C0.85981 9.94272 0.988722 9.86667 1.19479 9.91623C1.5039 9.99045 8.09689 11.969 12.2354 7.20084L11.3027 6.48504C11.1996 6.46038 11.1559 6.33212 11.179 6.19881C11.2046 6.09811 11.2665 6.02736 11.4006 6.01675L15.2362 5.51604C15.3675 5.47284 15.4733 5.5301 15.5453 5.59026C15.6483 5.61493 15.6921 5.74318 15.6638 5.81127L15.4409 9.38173C15.4846 9.50975 15.3919 9.61598 15.2581 9.62657C15.1242 9.63716 15.021 9.61251 14.9153 9.55501L14.1113 8.76335C11.7831 10.8555 8.82098 12.6029 4.18625 11.5223C3.18931 11.2721 2.15097 10.9267 1.03007 10.3902C0.821142 10.3076 0.769695 10.0813 0.767116 10.0487Z" fill="#63AC43"/>
<path fill-rule="evenodd" clip-rule="evenodd" d="M30.1585 13.8468C30.3811 13.6174 30.5037 13.3091 30.4999 12.9894C30.5045 12.6693 30.3821 12.3604 30.1595 12.1304C29.9371 11.9002 29.6323 11.7676 29.3122 11.7614H29.197V8.49245C28.9339 8.58575 28.6594 8.64306 28.3812 8.66256H28.1592C27.6669 8.65975 27.1817 8.54432 26.7409 8.32535V11.7614H19.8858V8.31953C19.4448 8.53831 18.9598 8.65353 18.4676 8.65674H18.2484C17.9701 8.63724 17.6956 8.57993 17.4326 8.48683V11.7614H17.3202C16.8961 11.7821 16.5127 12.0202 16.3064 12.3914C16.1001 12.7624 16.1001 13.2138 16.3064 13.5848C16.5126 13.956 16.8961 14.1941 17.3202 14.2146H29.3122C29.6319 14.2085 29.9361 14.0764 30.1585 13.8468ZM20.0877 7.0135C19.6213 7.48321 18.9757 7.72994 18.3149 7.69093C17.7772 7.65896 17.2793 7.42223 16.9168 7.03975L17.1222 5.86906C17.1664 5.78964 17.1296 5.62694 17.0055 5.58288C16.9246 5.49961 16.8014 5.41532 16.6332 5.45041L16.3168 5.45661C16.3249 5.16602 16.3901 4.87593 16.5133 4.60352L18.1998 0.855977C18.3114 0.608453 18.4921 0.398526 18.7202 0.251334C18.9482 0.103942 19.214 0.0257227 19.4855 0.0259238H27.1416C27.4132 0.0257231 27.6788 0.103942 27.9069 0.251334C28.1351 0.398521 28.3156 0.608447 28.4272 0.855977L30.1137 4.60352C30.4113 5.26772 30.3651 6.03544 29.9896 6.65898C29.638 7.26063 29.0104 7.64831 28.3149 7.69376H28.1592C27.55 7.69252 26.9666 7.44763 26.5391 7.0135C26.1116 7.44764 25.5283 7.69255 24.919 7.69376C24.3168 7.69577 23.7387 7.45708 23.3134 7.03079C22.8881 7.45708 22.31 7.69577 21.7078 7.69376C21.0985 7.69252 20.5152 7.44763 20.0877 7.0135ZM6.18138 10V3.42764H14.4892C14.7379 3.42885 14.9641 3.28286 15.0657 3.05584L16.1871 0.565254C16.2456 0.442395 16.2367 0.297617 16.1636 0.182597C16.0904 0.0677791 15.9629 -0.00118903 15.8267 1.5523e-05H5.13764C4.50525 1.5523e-05 3.89901 0.251365 3.45179 0.698346C3.00479 1.14535 2.75366 1.75181 2.75366 2.384V9.9591C3.79076 10.0877 4.95966 10.1335 6.18138 10ZM2.75366 11.5003V17.1922C2.75366 17.8246 3.00481 18.4309 3.45179 18.8781C3.89899 19.3251 4.50525 19.5762 5.13764 19.5762H13.4568V21.8824H12.0558C11.8487 21.8824 11.65 21.9647 11.5035 22.1113C11.3569 22.2578 11.2747 22.4565 11.2747 22.6636V24.1309C11.2747 24.3382 11.3569 24.5369 11.5035 24.6832C11.6501 24.8298 11.8487 24.9121 12.0558 24.9121H20.1273C20.3345 24.9121 20.5331 24.8298 20.6797 24.6832C20.8263 24.5368 20.9085 24.3382 20.9085 24.1309V22.6578C20.9085 22.4507 20.8263 22.252 20.6797 22.1054C20.5331 21.959 20.3344 21.8766 20.1273 21.8766H18.7292V19.5704L27.0514 19.5706C27.6836 19.5706 28.2901 19.3193 28.7371 18.8723C29.1843 18.4253 29.4354 17.8188 29.4354 17.1866V16.6475C29.4354 16.361 29.2038 16.1284 28.917 16.1284H6.18138V12.1287C5.11422 12.0737 3.97518 11.8761 2.75366 11.5003Z" fill="#63AC43"/>
</svg>
