<svg width="46" height="50" viewBox="0 0 46 50" fill="none" xmlns="http://www.w3.org/2000/svg">
<path d="M36.4605 16.5741C36.0059 15.9016 35.409 15.3367 34.7126 14.9191L25.7449 9.74307C24.8921 9.25092 23.9247 8.9917 22.94 8.9917C21.9552 8.9917 20.9878 9.25092 20.135 9.74307L11.1688 14.9196C10.4719 15.3371 9.87545 15.902 9.4209 16.575L22.9396 24.3696L36.4605 16.5741Z" fill="#FC9823"/>
<path d="M23.6414 25.5858V40.8272V40.8267C24.38 40.7497 25.0953 40.5252 25.7452 40.1669L34.7114 34.9904C35.5647 34.4978 36.2728 33.7896 36.765 32.9368C37.2576 32.084 37.5169 31.1161 37.5169 30.1314V19.7779C37.5032 19.1054 37.3675 18.4405 37.1158 17.8164L23.6414 25.5858Z" fill="#FC9823"/>
<path d="M8.76554 17.8159C8.51383 18.44 8.37811 19.105 8.3645 19.7774V30.1309C8.3645 31.1156 8.62372 32.0835 9.11634 32.9363C9.6085 33.7891 10.3167 34.4972 11.1699 34.9899L20.1362 40.1664C20.7861 40.5248 21.5013 40.7492 22.24 40.8263V25.5848L8.76554 17.8159Z" fill="#FC9823"/>
<path d="M35.4134 36.2049L26.4477 41.3815C24.2766 42.6302 21.6056 42.6302 19.4346 41.3815L10.4688 36.2049C9.62821 35.6987 8.90451 35.0196 8.34573 34.2134L1.67822 38.0336C2.11496 38.6365 2.66816 39.1456 3.3054 39.5307L20.1362 49.2483C20.989 49.7409 21.9564 50.0001 22.9411 50.0001C23.9258 50.0001 24.8933 49.7409 25.7461 49.2483L42.5769 39.5307C43.2141 39.1461 43.7678 38.6365 44.204 38.0336L37.5365 34.2114C36.9777 35.0187 36.254 35.6982 35.4134 36.2049Z" fill="#FC9823"/>
<path d="M6.96228 30.1301V19.7789C6.96697 17.2745 8.30213 14.9613 10.4688 13.7046L19.4346 8.52721C20.2987 8.04868 21.2553 7.76034 22.24 7.68144V0C21.5014 0.0774852 20.7861 0.302426 20.1362 0.661678L3.30543 10.3778C2.45262 10.87 1.74402 11.5782 1.25184 12.4314C0.759217 13.2842 0.5 14.2517 0.5 15.2364V34.6711C0.514557 35.4107 0.676578 36.1406 0.977128 36.8168L7.63995 32.9993C7.21119 32.1024 6.98014 31.1237 6.9623 30.1296L6.96228 30.1301Z" fill="#FC9823"/>
<path d="M45.3821 15.2372C45.3821 14.2524 45.1229 13.2851 44.6303 12.4322C44.1381 11.5789 43.4295 10.8708 42.5767 10.3786L25.7459 0.662467C25.096 0.303684 24.3808 0.07921 23.6421 0.00219727V7.68219C24.6269 7.76109 25.5834 8.04943 26.4475 8.52796L35.4138 13.7045H35.4133C37.58 14.9612 38.9152 17.2744 38.9199 19.7788V30.13C38.902 31.1237 38.671 32.1023 38.2422 32.9993L44.905 36.8182C45.2056 36.142 45.3676 35.4122 45.3822 34.6725L45.3821 15.2372Z" fill="#FC9823"/>
</svg>
