<svg width="31" height="30" viewBox="0 0 31 30" fill="none" xmlns="http://www.w3.org/2000/svg">
<path fill-rule="evenodd" clip-rule="evenodd" d="M15.4999 18.2138C15.4999 16.4386 14.061 14.9997 12.2858 14.9997H3.71431C1.94003 14.9997 0.5 16.4386 0.5 18.2138V26.7853C0.5 28.5608 1.9401 29.9996 3.71431 29.9996H12.2858C14.061 29.9996 15.4999 28.5608 15.4999 26.7853V18.2138ZM30.5 18.2138C30.5 16.4386 29.0609 14.9997 27.2857 14.9997H18.7142C16.9399 14.9997 15.4999 16.4386 15.4999 18.2138V26.7853C15.4999 28.5608 16.94 29.9996 18.7142 29.9996H27.2857C29.0609 29.9996 30.5 28.5608 30.5 26.7853V18.2138ZM24.0714 18.2138H21.9286C21.3382 18.2138 20.857 18.694 20.857 19.2854C20.857 19.8769 21.3382 20.3568 21.9286 20.3568H24.0714C24.6628 20.3568 25.1427 19.8769 25.1427 19.2854C25.1427 18.694 24.6628 18.2138 24.0714 18.2138ZM9.07188 18.2138H6.92894C6.33875 18.2138 5.85757 18.694 5.85757 19.2854C5.85757 19.8769 6.33874 20.3568 6.92894 20.3568H9.07188C9.6633 20.3568 10.1433 19.8769 10.1433 19.2854C10.1433 18.694 9.66331 18.2138 9.07188 18.2138ZM25.1428 3.21431C25.1428 1.43909 23.704 0 21.9288 0H13.3573C11.583 0 10.1429 1.43909 10.1429 3.21431V11.7858C10.1429 13.561 11.583 15.0001 13.3573 15.0001H21.9288C23.704 15.0001 25.1428 13.561 25.1428 11.7858V3.21431ZM18.7142 3.21431H16.5714C15.981 3.21431 15.4998 3.69426 15.4998 4.28569C15.4998 4.87712 15.981 5.35731 16.5714 5.35731H18.7142C19.3056 5.35731 19.7856 4.87712 19.7856 4.28569C19.7856 3.69425 19.3056 3.21431 18.7142 3.21431Z" fill="#63AC43"/>
</svg>
