<svg width="46" height="44" viewBox="0 0 46 44" fill="none" xmlns="http://www.w3.org/2000/svg">
<path d="M23.0015 44.001C22.5449 44.001 22.092 43.9872 21.6424 43.9595C21.2787 43.9379 21.0017 43.6249 21.0233 43.2609C21.0449 42.8968 21.3643 42.616 21.722 42.6418C22.5818 42.6933 23.4627 42.6933 24.3212 42.639C24.6954 42.6142 24.9987 42.8926 25.0213 43.2558C25.0443 43.6194 24.7677 43.9329 24.4045 43.9559C23.9396 43.9867 23.4674 44.001 23.0016 44.001H23.0015ZM19.0224 43.6309C18.9824 43.6309 18.9405 43.6277 18.8995 43.6199C17.9955 43.4496 17.0943 43.2199 16.2207 42.9377C15.8737 42.8254 15.6836 42.4535 15.7959 42.1069C15.9082 41.7604 16.281 41.5703 16.6267 41.6821C17.4474 41.9472 18.2942 42.1631 19.1434 42.3233C19.5015 42.3914 19.7372 42.7357 19.67 43.0938C19.6106 43.41 19.334 43.6309 19.0224 43.6309V43.6309ZM27.022 43.6231C26.7113 43.6231 26.4347 43.4035 26.3749 43.0864C26.3068 42.7288 26.542 42.3831 26.8996 42.315C27.7483 42.1534 28.5939 41.9362 29.4155 41.6692C29.7635 41.5564 30.1349 41.7456 30.2468 42.0922C30.3595 42.4388 30.1703 42.8107 29.8238 42.9235C28.9502 43.2079 28.0494 43.4394 27.1458 43.6111C27.1044 43.6189 27.063 43.6231 27.022 43.6231V43.6231ZM13.9287 41.9841C13.8343 41.9841 13.7395 41.9643 13.6484 41.9215C12.8176 41.5316 12.0029 41.0833 11.2246 40.5903C10.9172 40.3952 10.826 39.9874 11.0207 39.6799C11.2154 39.3725 11.6237 39.2813 11.9311 39.476C12.6616 39.94 13.4284 40.3602 14.209 40.727C14.5391 40.8821 14.6808 41.2752 14.5257 41.6052C14.4139 41.8441 14.1768 41.984 13.9287 41.984L13.9287 41.9841ZM32.1111 41.967C31.8635 41.967 31.6269 41.828 31.5141 41.5892C31.3586 41.2591 31.4994 40.8665 31.8294 40.711C32.6087 40.3427 33.3736 39.9211 34.1027 39.4571C34.4102 39.261 34.818 39.3517 35.0132 39.6592C35.2092 39.9666 35.1186 40.3744 34.8111 40.5696C34.036 41.0639 33.2213 41.5127 32.3919 41.9039C32.3013 41.9463 32.2055 41.967 32.1112 41.967L32.1111 41.967ZM9.40873 39.1184C9.26006 39.1184 9.11186 39.0687 8.98896 38.9674C8.28244 38.3833 7.60398 37.7481 6.97253 37.0785C6.7226 36.8134 6.73503 36.3954 7.00014 36.1455C7.26526 35.8956 7.68319 35.908 7.93312 36.1731C8.52688 36.8032 9.16575 37.4011 9.83043 37.9502C10.1117 38.1827 10.1512 38.5983 9.9188 38.8795C9.78762 39.0369 9.59892 39.1184 9.40882 39.1184L9.40873 39.1184ZM36.6228 39.0944C36.4327 39.0944 36.245 39.0134 36.1142 38.8556C35.8813 38.5753 35.9209 38.1587 36.2012 37.9263C36.8663 37.3753 37.5029 36.776 38.0943 36.1468C38.3438 35.8808 38.7608 35.8683 39.0273 36.1178C39.2924 36.3673 39.3057 36.7847 39.0563 37.0508C38.4275 37.7205 37.7505 38.3575 37.043 38.9434C36.9206 39.0451 36.7715 39.0943 36.6228 39.0943L36.6228 39.0944ZM5.73949 35.2231C5.53559 35.2231 5.33491 35.1292 5.20558 34.9525C4.66383 34.211 4.16444 33.4272 3.71985 32.6239C3.54311 32.3054 3.6591 31.9036 3.97807 31.7273C4.29749 31.5505 4.6984 31.6665 4.87469 31.9855C5.29216 32.7408 5.76302 33.4772 6.27157 34.1741C6.48651 34.4682 6.42207 34.8815 6.12749 35.096C6.01058 35.1821 5.87481 35.2231 5.73948 35.2231L5.73949 35.2231ZM40.285 35.1927C40.1506 35.1927 40.0144 35.1518 39.8975 35.0666C39.6033 34.8521 39.538 34.4397 39.7525 34.1447C40.2606 33.446 40.7296 32.7078 41.1462 31.9515C41.3215 31.633 41.7233 31.5152 42.0423 31.6915C42.3618 31.8678 42.4777 32.2687 42.3024 32.5876C41.8596 33.3922 41.3607 34.1774 40.8198 34.9208C40.69 35.0985 40.4889 35.1928 40.285 35.1928L40.285 35.1927ZM3.15076 30.5435C2.88885 30.5435 2.64077 30.3856 2.53721 30.1279C2.19753 29.2741 1.90848 28.3904 1.6788 27.5001C1.58766 27.1471 1.8003 26.7876 2.15241 26.6965C2.5082 26.6068 2.86492 26.818 2.95605 27.1701C3.17192 28.006 3.44348 28.8368 3.76292 29.6395C3.89732 29.9778 3.73254 30.3621 3.39424 30.4965C3.31461 30.5283 3.23222 30.5435 3.15076 30.5435V30.5435ZM42.8655 30.5035C42.7845 30.5035 42.7026 30.4883 42.6225 30.4565C42.2842 30.3221 42.1175 29.9387 42.2524 29.5999C42.5705 28.7991 42.8402 27.9669 43.0547 27.1282C43.1444 26.7752 43.5039 26.5616 43.8569 26.6523C44.21 26.7425 44.4231 27.1015 44.3329 27.4545C44.1046 28.3475 43.8174 29.2331 43.4791 30.0859C43.3769 30.3455 43.1279 30.5034 42.8655 30.5034L42.8655 30.5035ZM1.81103 25.3617C1.48377 25.3617 1.19978 25.1182 1.15697 24.785C1.04144 23.8764 0.982063 22.9485 0.980225 22.028C0.979765 21.6639 1.27434 21.3675 1.63888 21.367H1.64026C2.00387 21.367 2.29937 21.6621 2.30029 22.0257C2.30167 22.8919 2.35783 23.7646 2.46646 24.6189C2.51203 24.9807 2.25658 25.3102 1.89525 25.3567C1.86718 25.3604 1.83956 25.3618 1.81102 25.3618L1.81103 25.3617ZM44.1934 25.318C44.1658 25.318 44.1387 25.3166 44.1111 25.3129C43.7493 25.2683 43.4929 24.9382 43.5385 24.5765C43.6453 23.7227 43.6996 22.8495 43.6996 21.9828V21.8944C43.6996 21.5303 43.9951 21.2344 44.3596 21.2344C44.7237 21.2344 45.0196 21.5299 45.0196 21.8944V21.9754C45.0196 22.9047 44.9621 23.8317 44.8489 24.7403C44.8056 25.0731 44.5212 25.318 44.1935 25.318L44.1934 25.318ZM1.80278 20.0115C1.77562 20.0115 1.74846 20.0101 1.72085 20.0069C1.35907 19.9627 1.10178 19.6336 1.14597 19.2714C1.25827 18.3573 1.42949 17.4426 1.65457 16.5548C1.74386 16.2017 2.10196 15.9886 2.45637 16.0779C2.8094 16.1677 3.02297 16.5267 2.93322 16.8797C2.72149 17.7147 2.56039 18.5735 2.45499 19.4329C2.41495 19.7661 2.1305 20.0114 1.80278 20.0114V20.0115ZM44.1805 19.8789C43.8537 19.8789 43.5702 19.6359 43.5274 19.3036C43.4164 18.4452 43.2503 17.5873 43.033 16.7541C42.9414 16.4015 43.1522 16.0407 43.5053 15.9491C43.8597 15.8561 44.2187 16.0692 44.3103 16.4213C44.5413 17.3087 44.7181 18.2214 44.8364 19.1346C44.8833 19.4964 44.6279 19.8268 44.2661 19.8738C44.2371 19.877 44.209 19.8788 44.1805 19.8788L44.1805 19.8789ZM3.11776 14.8233C3.03722 14.8233 2.95529 14.8086 2.87612 14.7773C2.5369 14.6438 2.36981 14.2604 2.50375 13.9216C2.84113 13.066 3.23558 12.2232 3.67699 11.4172C3.85235 11.0978 4.25325 10.9809 4.57315 11.1558C4.89257 11.3312 5.00994 11.7325 4.83459 12.052C4.41942 12.8087 4.04889 13.6008 3.73177 14.4049C3.62958 14.665 3.38103 14.8233 3.11776 14.8233V14.8233ZM42.8337 14.7013C42.5718 14.7013 42.3242 14.5444 42.2206 14.2871C41.8993 13.4862 41.5237 12.6968 41.1049 11.9433C40.9272 11.6253 41.0423 11.2234 41.3608 11.0458C41.6793 10.8681 42.0811 10.9836 42.2583 11.3017C42.7044 12.1039 43.1034 12.9426 43.4454 13.7959C43.5811 14.1342 43.4168 14.5185 43.0785 14.6539C42.9984 14.6861 42.9156 14.7013 42.8337 14.7013L42.8337 14.7013ZM5.68882 10.1284C5.55488 10.1284 5.41956 10.0875 5.30266 10.0032C5.00762 9.78967 4.9418 9.37726 5.15491 9.08223C5.69389 8.33796 6.28581 7.61995 6.9127 6.94973C7.16264 6.68369 7.57965 6.6708 7.84569 6.91889C8.11172 7.16744 8.12553 7.58536 7.87652 7.85187C7.28645 8.48291 6.73043 9.1572 6.22372 9.85735C6.0953 10.0332 5.8937 10.1285 5.68887 10.1285L5.68882 10.1284ZM40.2367 10.0262C40.0333 10.0262 39.8335 9.93235 39.7042 9.75652C39.1928 9.0592 38.6326 8.38816 38.0398 7.76118C37.7899 7.49652 37.8009 7.07905 38.066 6.8282C38.3307 6.57827 38.7482 6.58932 38.999 6.85444C39.6292 7.52091 40.2242 8.23482 40.7688 8.97586C40.9847 9.26951 40.9207 9.68238 40.6271 9.89779C40.5088 9.98432 40.3721 10.0262 40.2368 10.0262L40.2367 10.0262ZM9.34392 6.21891C9.15475 6.21891 8.96696 6.1379 8.8367 5.98141C8.60334 5.70156 8.64155 5.28548 8.92185 5.05212C9.62745 4.46481 10.3776 3.9157 11.1514 3.42088C11.4575 3.22342 11.8662 3.31317 12.0628 3.62063C12.2593 3.92764 12.1696 4.3359 11.863 4.53198C11.1353 4.99778 10.4297 5.51374 9.766 6.06613C9.64218 6.16923 9.49306 6.21895 9.34393 6.21895L9.34392 6.21891ZM36.558 6.13836C36.4103 6.13836 36.2616 6.08865 36.1392 5.98786C35.4713 5.43829 34.7629 4.92693 34.033 4.46573C33.725 4.27103 33.6325 3.86322 33.8272 3.55576C34.0219 3.24829 34.4302 3.1567 34.7372 3.35001C35.5137 3.84021 36.2676 4.38471 36.9783 4.96877C37.2596 5.20028 37.3005 5.61592 37.0685 5.89806C36.9378 6.0564 36.7491 6.13833 36.5581 6.13833L36.558 6.13836ZM13.8509 3.33718C13.6042 3.33718 13.3672 3.19864 13.2544 2.96022C13.0979 2.63112 13.2388 2.23759 13.5679 2.0811C14.3978 1.68664 15.2617 1.34144 16.1348 1.05561C16.4819 0.940999 16.8542 1.13063 16.9674 1.47722C17.0811 1.8238 16.8924 2.19663 16.5458 2.30985C15.7256 2.57912 14.9141 2.90315 14.1335 3.27321C14.0424 3.31694 13.9457 3.33719 13.8509 3.33719L13.8509 3.33718ZM32.0322 3.28195C31.9383 3.28195 31.8435 3.26216 31.7532 3.21981C30.9694 2.85343 30.1552 2.534 29.3336 2.27072C28.9865 2.15934 28.796 1.78789 28.9074 1.44084C29.0183 1.0938 29.3893 0.901864 29.7373 1.01463C30.6118 1.29493 31.4771 1.63508 32.3121 2.02493C32.6421 2.17866 32.7843 2.57173 32.6301 2.90175C32.5178 3.14109 32.2803 3.28194 32.0322 3.28194L32.0322 3.28195ZM18.9341 1.6705C18.6239 1.6705 18.3477 1.45141 18.287 1.1352C18.2184 0.777558 18.4518 0.430971 18.8094 0.362394C19.7088 0.188865 20.6312 0.0705753 21.5504 0.010741C21.9108 -0.00628904 22.2279 0.262968 22.2518 0.626593C22.2758 0.990206 21.9996 1.30412 21.636 1.32805C20.7716 1.3842 19.9045 1.49513 19.0594 1.65807C19.0175 1.66635 18.9761 1.6705 18.9342 1.6705L18.9341 1.6705ZM26.9365 1.64611C26.8964 1.64611 26.8559 1.64288 26.815 1.63506C25.9685 1.47719 25.1009 1.37178 24.236 1.32023C23.8724 1.29906 23.5949 0.986992 23.6165 0.622908C23.6377 0.258835 23.947 -0.0283769 24.3138 0.00337839C25.2334 0.0576911 26.1563 0.169543 27.0565 0.337993C27.4146 0.404733 27.6512 0.749021 27.5845 1.10757C27.5256 1.42424 27.2476 1.64609 26.9364 1.64609L26.9365 1.64611Z" fill="#424441"/>
<path d="M23.2392 3.40369C13.1555 3.40369 4.98022 11.7259 4.98022 21.9926C4.98022 32.2593 13.1552 40.5815 23.2392 40.5815C33.3243 40.5815 41.4994 32.2588 41.4994 21.9926C41.4994 11.7262 33.3249 3.40369 23.2392 3.40369ZM32.5022 13.0566L24.863 30.2209C24.5896 30.834 23.9881 31.2 23.3552 31.2C23.1471 31.2 22.9354 31.1604 22.7315 31.0766L14.9078 27.8763C14.0646 27.532 13.6604 26.5686 14.0052 25.725C14.3504 24.8818 15.3137 24.4786 16.1565 24.8224L22.4996 27.417L29.488 11.7137C29.858 10.8811 30.8329 10.5064 31.666 10.877C32.4977 11.2493 32.8723 12.2238 32.5023 13.0563L32.5022 13.0566Z" fill="#424441"/>
</svg>
