<svg width="57" height="50" viewBox="0 0 57 50" fill="none" xmlns="http://www.w3.org/2000/svg">
<path d="M17.8916 8.6958H22.2394V13.0436H17.8916V8.6958Z" fill="#FC9823"/>
<path d="M22.239 4.3479H26.5868V8.69573H22.239V4.3479Z" fill="#FC9823"/>
<path d="M9.19556 8.6958H13.5434V13.0436H9.19556V8.6958Z" fill="#FC9823"/>
<path d="M13.5435 17.3913H16.5432L17.8913 16.0432V13.0435H13.5435V17.3913Z" fill="#FC9823"/>
<path d="M30.9346 4.3479H35.2824V8.69573H30.9346V4.3479Z" fill="#FC9823"/>
<path d="M35.2827 29.0869L36.6308 30.4349H39.3695L39.6306 30.1739V26.0872H35.2828L35.2827 29.0869Z" fill="#FC9823"/>
<path d="M4.84814 26.0868H7.8479L9.19597 24.7388V21.739H4.84814V26.0868Z" fill="#FC9823"/>
<path d="M13.5435 4.3479H17.8913V8.69573H13.5435V4.3479Z" fill="#FC9823"/>
<path d="M9.19556 21.7392H12.1953L13.5434 20.3911V17.3914H9.19556V21.7392Z" fill="#FC9823"/>
<path d="M4.84814 4.3479H9.19597V8.69573H4.84814V4.3479Z" fill="#FC9823"/>
<path d="M4.84814 13.0435H9.19597V17.3913H4.84814V13.0435Z" fill="#FC9823"/>
<path d="M30.9346 21.739V24.7388L32.2826 26.0868H35.2824V21.739H30.9346Z" fill="#FC9823"/>
<path d="M43.9783 21.7391H48.065L48.3261 21.4781V17.3914H43.9783L43.9783 21.7391Z" fill="#FC9823"/>
<path d="M39.6304 26.087H43.7171L43.9782 25.826V21.7393H39.6304L39.6304 26.087Z" fill="#FC9823"/>
<path d="M22.239 13.0435V16.0432L23.5871 17.3913H26.5868V13.0435H22.239Z" fill="#FC9823"/>
<path d="M26.5869 17.3914V20.3911L27.935 21.7392H30.9347V17.3914H26.5869Z" fill="#FC9823"/>
<path d="M48.3262 13.0435H52.674V17.3913H48.3262V13.0435Z" fill="#FC9823"/>
<path d="M35.2827 17.3914H39.6305V21.7392H35.2827V17.3914Z" fill="#FC9823"/>
<path d="M43.9783 8.6958H48.3261V13.0436H43.9783V8.6958Z" fill="#FC9823"/>
<path d="M48.3262 4.3479H52.674V8.69573H48.3262V4.3479Z" fill="#FC9823"/>
<path d="M39.6304 4.3479H43.9782V8.69573H39.6304V4.3479Z" fill="#FC9823"/>
<path d="M30.9346 13.0435H35.2824V17.3913H30.9346V13.0435Z" fill="#FC9823"/>
<path d="M35.2827 8.6958H39.6305V13.0436H35.2827V8.6958Z" fill="#FC9823"/>
<path d="M26.5869 8.6958H30.9347V13.0436H26.5869V8.6958Z" fill="#FC9823"/>
<path d="M39.6304 13.0435H43.9782V17.3913H39.6304V13.0435Z" fill="#FC9823"/>
<path d="M0.5 0V50H56.7174V0H0.5ZM50 23L37 34.3354L20 17.5L2.37391 34.3354V2.17267H54.8435V35.4224L50 23Z" fill="#FC9823"/>
</svg>
