<svg width="40" height="40" viewBox="0 0 40 40" fill="none" xmlns="http://www.w3.org/2000/svg">
<path d="M29.1661 39.9982H0.833402C0.373317 39.9982 0 39.6233 0 39.1648V10.8322C0 10.3721 0.373317 9.99878 0.833402 9.99878H29.1661C29.6245 9.99878 29.9995 10.3721 29.9995 10.8322V39.1648C29.9995 39.6233 29.6245 39.9982 29.1661 39.9982ZM1.66695 38.3317H28.3325V11.6662H1.66695V38.3317Z" fill="#FC9823"/>
<path d="M39.1657 29.9986H29.9996C29.5411 29.9986 29.1662 29.6236 29.1662 29.1652C29.1662 28.7068 29.5411 28.3318 29.9996 28.3318H38.3329V1.66623H11.6673V9.99954C11.6673 10.4596 11.294 10.8329 10.8339 10.8329C10.3738 10.8329 10.0005 10.4596 10.0005 9.99954V0.833402C10.0005 0.373317 10.3738 0 10.8339 0H39.1665C39.625 0 39.9999 0.373317 39.9999 0.833402V29.1661C39.9999 29.6245 39.625 29.9995 39.1665 29.9995L39.1657 29.9986Z" fill="#FC9823"/>
<path d="M0.834131 11.666C0.620688 11.666 0.407524 11.5842 0.244029 11.4227C-0.0810175 11.0993 -0.0810175 10.5695 0.244029 10.2444L10.2437 0.244762C10.5688 -0.0802851 11.0969 -0.0802851 11.422 0.244762C11.747 0.569808 11.747 1.09966 11.422 1.42301L1.42228 11.4227C1.26073 11.5842 1.04729 11.666 0.833846 11.666H0.834131Z" fill="#FC9823"/>
<path d="M29.1662 11.6657C28.9527 11.6657 28.7396 11.584 28.5761 11.4224C28.251 11.0991 28.251 10.5693 28.5761 10.2442L38.5757 0.244517C38.8991 -0.0805292 39.4289 -0.0805292 39.754 0.244517C40.0774 0.569564 40.0774 1.09942 39.754 1.42277L29.7543 11.4224C29.5928 11.584 29.3793 11.6657 29.1659 11.6657H29.1662Z" fill="#FC9823"/>
<path d="M29.1662 39.9982C28.9527 39.9982 28.7396 39.9165 28.5761 39.7549C28.251 39.4332 28.251 38.9017 28.5761 38.5767L38.5757 28.577C38.8991 28.2536 39.4289 28.2536 39.754 28.577C40.0774 28.902 40.0774 29.4335 39.754 29.7552L29.7543 39.7549C29.5928 39.9165 29.3793 39.9982 29.1659 39.9982H29.1662Z" fill="#FC9823"/>
<path d="M0.833887 39.9983C0.620444 39.9983 0.40728 39.9166 0.243785 39.7551C-0.0812617 39.4334 -0.0812617 38.9019 0.243785 38.5768L0.833887 37.9867C1.15893 37.6617 1.68707 37.6617 2.01213 37.9867C2.33718 38.3118 2.33718 38.8432 2.01213 39.1667L1.42203 39.7568C1.26049 39.9166 1.04704 39.9984 0.833602 39.9984L0.833887 39.9983Z" fill="#FC9823"/>
<path d="M3.62905 37.2034C3.41561 37.2034 3.20245 37.1216 3.03895 36.9601C2.7139 36.6351 2.7139 36.1052 3.03895 35.7819L4.14213 34.6787C4.46718 34.3536 4.99532 34.3536 5.32038 34.6787C5.64542 35.002 5.64542 35.5319 5.32038 35.8569L4.2172 36.9618C4.05565 37.12 3.84221 37.2034 3.62877 37.2034L3.62905 37.2034ZM6.93723 33.8952C6.72379 33.8952 6.51062 33.8135 6.34713 33.6519C6.02208 33.3286 6.02208 32.7987 6.34713 32.4737L7.45031 31.3705C7.77536 31.0454 8.3035 31.0454 8.62856 31.3705C8.9536 31.6939 8.9536 32.222 8.62856 32.5487L7.52538 33.6519C7.36215 33.8151 7.15039 33.8952 6.93695 33.8952H6.93723Z" fill="#FC9823"/>
<path d="M10.2438 30.5887C10.0304 30.5887 9.81719 30.5103 9.6537 30.3454C9.32865 30.0203 9.32865 29.4922 9.6537 29.1671L10.2438 28.577C10.5688 28.252 11.097 28.252 11.422 28.577C11.7471 28.9004 11.7471 29.4319 11.422 29.7553L10.8319 30.3437C10.6704 30.5069 10.457 30.5887 10.2435 30.5887L10.2438 30.5887Z" fill="#FC9823"/>
<path d="M29.9996 29.9985H28.3331C27.8747 29.9985 27.4997 29.6235 27.4997 29.1651C27.4997 28.7067 27.8747 28.3317 28.3331 28.3317H29.9996C30.458 28.3317 30.833 28.7067 30.833 29.1651C30.833 29.6235 30.458 29.9985 29.9996 29.9985ZM24.9998 29.9985H23.3332C22.8748 29.9985 22.4998 29.6235 22.4998 29.1651C22.4998 28.7067 22.8748 28.3317 23.3332 28.3317H24.9998C25.4582 28.3317 25.8332 28.7067 25.8332 29.1651C25.8332 29.6235 25.4582 29.9985 24.9998 29.9985ZM19.9999 29.9985H18.3334C17.8733 29.9985 17.5 29.6235 17.5 29.1651C17.5 28.7067 17.8733 28.3317 18.3334 28.3317H19.9999C20.46 28.3317 20.8333 28.7067 20.8333 29.1651C20.8333 29.6235 20.46 29.9985 19.9999 29.9985ZM15.0001 29.9985H13.3336C12.8735 29.9985 12.5002 29.6235 12.5002 29.1651C12.5002 28.7067 12.8735 28.3317 13.3336 28.3317H15.0001C15.4602 28.3317 15.8335 28.7067 15.8335 29.1651C15.8335 29.6235 15.4602 29.9985 15.0001 29.9985ZM10.8336 29.1651C10.3736 29.1651 10.0002 28.7901 10.0002 28.3317V26.6652C10.0002 26.2068 10.3736 25.8318 10.8336 25.8318C11.2937 25.8318 11.667 26.2068 11.667 26.6652V28.3317C11.667 28.7901 11.2937 29.1651 10.8336 29.1651ZM10.8336 24.1653C10.3736 24.1653 10.0002 23.7903 10.0002 23.3319V21.6654C10.0002 21.2069 10.3736 20.832 10.8336 20.832C11.2937 20.832 11.667 21.2069 11.667 21.6654V23.3319C11.667 23.7903 11.2937 24.1653 10.8336 24.1653ZM10.8336 19.1654C10.3736 19.1654 10.0002 18.7921 10.0002 18.332V16.6655C10.0002 16.2054 10.3736 15.8321 10.8336 15.8321C11.2937 15.8321 11.667 16.2054 11.667 16.6655V18.332C11.667 18.7921 11.2937 19.1654 10.8336 19.1654ZM10.8336 14.1656C10.3736 14.1656 10.0002 13.7923 10.0002 13.3322V11.6657C10.0002 11.2056 10.3736 10.8323 10.8336 10.8323C11.2937 10.8323 11.667 11.2056 11.667 11.6657V13.3322C11.667 13.7923 11.2937 14.1656 10.8336 14.1656Z" fill="#FC9823"/>
</svg>
