<svg width="31" height="33" viewBox="0 0 31 33" fill="none" xmlns="http://www.w3.org/2000/svg">
<path d="M30.4483 9.09333C30.3441 8.62451 29.9795 8.25986 29.5109 8.15592C29.3546 8.10383 29.1463 8.10383 28.99 8.15592L27.5317 8.52056C25.6566 7.32243 21.021 7.16621 15.8127 8.36429C16.542 8.57266 17.271 9.51008 17.792 10.8644C17.9483 11.2291 18.0525 11.5937 18.1045 11.9581C18.2087 12.4269 18.2608 12.8434 18.3129 13.2602C18.4171 14.6143 18.1566 15.7082 17.6357 16.1768C22.792 14.9269 26.907 12.7914 28.0523 10.9163L29.5106 10.5517C29.8231 10.4475 30.0836 10.2912 30.292 9.97869C30.5001 9.71848 30.5522 9.40593 30.448 9.09338L30.4483 9.09333Z" fill="#63AC43"/>
<path d="M16.2815 3.88473C16.5941 5.1868 16.5941 6.38487 16.3336 7.21809C18.5733 6.74926 20.7086 6.54091 22.6355 6.54091C24.198 6.54091 26.2294 6.69718 27.6877 7.42622C25.3959 2.16596 19.6671 -0.907168 13.8855 0.238805C14.8229 0.447174 15.8127 1.90548 16.2814 3.88473H16.2815Z" fill="#63AC43"/>
<path d="M18.573 17.0098C19.146 17.6349 19.6667 18.7286 19.9792 19.9786C20.448 21.9578 20.1875 23.7287 19.4582 24.2496C25.1876 22.7392 28.9376 17.4784 28.6771 11.8015C27.1667 13.7805 23.3127 15.7598 18.5728 17.0099L18.573 17.0098Z" fill="#63AC43"/>
<path d="M6.02074 13.7808V13.6245L0.5 14.9789L1.07301 17.4269L6.69793 16.0205C6.22911 15.3956 6.02075 14.6143 6.02075 13.7808L6.02074 13.7808Z" fill="#63AC43"/>
<path d="M17.1146 12.1662C17.0105 11.8536 16.9063 11.489 16.8021 11.1767C16.8021 11.1246 16.75 11.0725 16.75 11.0725L13.4688 11.8539C13.7813 12.4269 13.9897 13.1039 13.9897 13.781C13.9897 13.9373 13.9897 14.1457 13.9376 14.3019L17.323 13.4685V13.3122C17.2709 12.9476 17.2188 12.5308 17.1147 12.1662L17.1146 12.1662Z" fill="#63AC43"/>
<path d="M15.9687 32.583H15.7603C15.3957 32.583 15.0832 32.3746 14.9269 32.062L10.9684 25.9681V31.5933C10.9684 32.1142 10.5517 32.5307 10.031 32.5307C9.51012 32.5307 9.09363 32.1139 9.09363 31.5933V25.9681L5.13519 32.062C4.97892 32.3746 4.66637 32.583 4.30173 32.583H4.09336C3.36409 32.583 2.89548 31.8016 3.2599 31.1247L7.11421 25.7079H4.30174C3.9892 25.7079 3.78083 25.4474 3.78083 25.187V22.9473C3.78083 22.6347 4.04129 22.4264 4.30174 22.4264H9.09346L9.0937 16.5931C7.94791 16.1764 7.11445 15.0827 7.11445 13.7807C7.11445 12.1661 8.41652 10.864 10.0311 10.864C11.6457 10.864 12.9478 12.1661 12.9478 13.7807C12.9478 15.0827 12.1143 16.1766 10.9164 16.5931V22.4266H15.7081C16.0207 22.4266 16.229 22.6871 16.229 22.9475V25.1872C16.229 25.4998 15.9686 25.7081 15.7081 25.7081H12.8957L16.75 31.1244C17.1146 31.7495 16.6979 32.583 15.9689 32.583H15.9687Z" fill="#63AC43"/>
</svg>
