<svg width="16" height="16" viewBox="0 0 16 16" fill="none" xmlns="http://www.w3.org/2000/svg">
<path fill-rule="evenodd" clip-rule="evenodd" d="M8 15.0015C12.1421 15.0015 15.5 11.6436 15.5 7.50146C15.5 3.35933 12.1421 0.00146484 8 0.00146484C3.85786 0.00146484 0.5 3.35933 0.5 7.50146C0.5 11.6436 3.85786 15.0015 8 15.0015ZM9.65329 5.68311C9.17884 5.18679 8.53142 4.8693 7.84435 4.8693V4.86989C6.48511 4.86989 5.28843 6.13076 5.28843 7.56137C5.28843 8.97674 6.48511 10.2244 7.84435 10.2244C8.53142 10.2244 9.16281 9.93712 9.63726 9.44726L9.64486 9.7111C9.63754 10.5205 10.6494 11.0608 11.3309 10.5053C12.8355 9.28367 12.9247 6.14131 11.3835 4.46181C9.90866 2.85677 7.46214 2.53781 5.60792 3.68905C3.18194 5.19295 3.13356 8.0958 4.04788 9.74598C5.40121 12.1889 8.29884 12.2361 9.33858 11.7738C10.0285 11.468 9.72248 10.534 9.05875 10.8134C7.7476 11.3645 5.54464 10.8119 4.77404 8.95944C4.06841 7.2603 4.79485 5.45239 5.93135 4.63389C7.00063 3.86582 9.01178 3.6398 10.5102 5.00796C12.117 6.47375 11.4344 9.00547 10.8649 9.61611C10.7184 9.77207 10.4545 9.6466 10.4779 9.40387L10.4765 5.69982C10.4765 5.59575 10.4093 5.26594 10.0737 5.26594H10.0197C9.80713 5.26594 9.65329 5.44624 9.65329 5.68457V5.68311ZM7.87219 5.79773C8.76429 5.79773 9.50255 6.42216 9.55401 7.45906L9.55655 7.66779C9.50817 8.57951 8.84472 9.35022 7.83423 9.35022C6.92891 9.35022 6.23903 8.67244 6.23903 7.59919C6.23903 6.64203 6.81023 5.79773 7.83844 5.79773H7.87219Z" fill="#63AC43"/>
</svg>
