<svg width="40" height="37" viewBox="0 0 40 37" fill="none" xmlns="http://www.w3.org/2000/svg">
<path fill-rule="evenodd" clip-rule="evenodd" d="M9.72082 35.259C9.80751 35.5212 9.66525 35.804 9.40306 35.8907L6.47321 36.8594C6.21103 36.9461 5.92821 36.8039 5.84152 36.5417L0.662648 20.8792C0.575956 20.617 0.718221 20.3342 0.9804 20.2475L3.91026 19.2787C4.17244 19.192 4.45526 19.3343 4.54195 19.5965L9.72082 35.259ZM31.1816 29.6178C31.369 29.8206 31.3565 30.1369 31.1537 30.3244L28.8874 32.4187C28.6846 32.6061 28.3682 32.5936 28.1808 32.3908L11.8725 14.7428C11.6851 14.54 11.6976 14.2236 11.9004 14.0362L14.1667 11.9419C14.3696 11.7545 14.6859 11.767 14.8733 11.9698L31.1816 29.6178ZM39.5314 9.68001C39.6445 9.42807 39.5319 9.13219 39.2799 9.01915L21.4344 1.01244C21.1824 0.8994 20.8865 1.01201 20.7735 1.26395L19.5103 4.07942C19.3972 4.33137 19.5098 4.62725 19.7618 4.74029L37.6074 12.747C37.8593 12.86 38.1552 12.7474 38.2682 12.4955L39.5314 9.68001Z" fill="#FC9823"/>
</svg>
