<svg width="80" height="71" viewBox="0 0 80 71" fill="none" xmlns="http://www.w3.org/2000/svg">
<path d="M10.9144 32.5245C13.9516 33.6513 16.7245 35.0341 19.6669 35.7036C22.9188 36.4996 26.2757 36.8272 29.6363 36.6766C31.3582 36.5864 32.9902 35.8398 34.194 34.5914C35.3978 33.343 36.0809 31.6887 36.1016 29.9717C36.3742 26.1853 34.125 23.4006 30.1092 22.5203C24.9199 21.3702 19.8832 22.398 14.958 24.2583C13.7501 24.7191 12.5937 25.2765 11.4761 25.7564C4.44867 21.7125 4.03597 18.8955 7.82548 1.10405C5.05854 0.0119193 3.72492 1.78392 2.60768 3.8119C-1.12487 10.599 -0.109272 21.5547 4.75373 27.379C5.25097 27.9691 5.77019 28.536 6.37727 29.225C5.79483 30.1727 5.25406 30.9623 4.79042 31.7894C1.48643 37.791 2.01649 44.353 6.89629 49.0268C9.81212 51.7132 13.1186 53.9474 16.7079 55.6567C22.7932 58.6617 29.4846 59.9038 36.2539 60.3465C44.4267 60.8894 52.6408 61.037 60.8272 61.3691C62.0545 61.4176 63.2784 61.5244 64.8708 61.6354C63.1955 63.5342 61.62 65.5176 60.1507 67.5776C59.6721 68.3336 59.6583 70.2849 60.0809 70.5198C61.0031 71.027 62.3549 70.7935 63.5317 70.7902C63.7921 70.785 64.0592 70.4485 64.3201 70.2509C68.4075 67.1822 72.5376 64.0002 76.725 60.9904C80.4256 58.3343 80.7388 57.1818 78.1627 53.568C75.1769 49.597 71.1413 46.5368 66.4953 44.7205C65.0088 44.0776 63.3609 43.6689 62.2814 46.0042C64.1411 50.1635 69.2009 51.1349 72.2912 55.0696C70.5244 55.2112 69.3246 55.4077 68.1338 55.3847C57.8471 55.1483 47.5398 55.217 37.2832 54.4784C31.6882 53.9682 26.1763 52.8476 20.8463 51.1365C17.5042 50.0337 14.4117 48.3085 11.7313 46.0513C7.2532 42.3469 7.11792 37.73 10.9144 32.5245ZM17.5591 29.9606L17.6722 28.6902C20.5466 27.3523 23.7049 26.7655 26.8455 26.9857C29.8007 27.185 31.3175 28.2071 30.9237 29.8101C30.3646 32.1127 28.3654 32.0972 26.6758 31.8466C23.6749 31.3895 20.6488 30.5844 17.6035 29.9366L17.5591 29.9606Z" fill="#63AC43"/>
</svg>
