<svg width="16" height="16" viewBox="0 0 16 16" fill="none" xmlns="http://www.w3.org/2000/svg">
<path d="M8.75 1.50146C10.1424 1.50146 11.4777 2.05459 12.4623 3.03915C13.4469 4.02372 14 5.35908 14 6.75146C14 6.95038 14.079 7.14114 14.2197 7.28179C14.3603 7.42245 14.5511 7.50146 14.75 7.50146C14.9489 7.50146 15.1397 7.42245 15.2803 7.28179C15.421 7.14114 15.5 6.95038 15.5 6.75146C15.5 4.96125 14.7888 3.24436 13.523 1.97849C12.2571 0.712623 10.5402 0.00146484 8.75 0.00146484C8.55109 0.00146484 8.36032 0.0804824 8.21967 0.221135C8.07902 0.361787 8 0.552552 8 0.751465C8 0.950377 8.07902 1.14114 8.21967 1.2818C8.36032 1.42245 8.55109 1.50146 8.75 1.50146ZM15.3125 10.434C15.2712 10.3136 15.2 10.2056 15.1056 10.1204C15.0111 10.0351 14.8965 9.97523 14.7725 9.94646L10.2725 8.91897C10.1504 8.89127 10.0232 8.8946 9.90269 8.92867C9.78216 8.96273 9.67208 9.02643 9.5825 9.11396C9.4775 9.21146 9.47 9.21896 8.9825 10.149C7.3649 9.40358 6.06875 8.10211 5.33 6.48147C6.2825 6.00147 6.29 6.00147 6.3875 5.88897C6.47503 5.79938 6.53874 5.6893 6.5728 5.56878C6.60686 5.44825 6.6102 5.32111 6.5825 5.19897L5.555 0.751465C5.52624 0.627487 5.46639 0.512868 5.38111 0.418398C5.29582 0.323929 5.1879 0.252717 5.0675 0.211465C4.89235 0.148907 4.71148 0.10369 4.5275 0.0764648C4.33794 0.0325112 4.1445 0.00738935 3.95 0.00146484C3.035 0.00146484 2.15748 0.364946 1.51048 1.01195C0.863481 1.65895 0.5 2.53647 0.5 3.45146C0.503969 6.5135 1.72212 9.44898 3.8873 11.6142C6.05249 13.7793 8.98797 14.9975 12.05 15.0015C12.5031 15.0015 12.9517 14.9122 13.3703 14.7388C13.7888 14.5655 14.1692 14.3113 14.4895 13.991C14.8099 13.6706 15.064 13.2903 15.2374 12.8717C15.4108 12.4531 15.5 12.0045 15.5 11.5515C15.5002 11.3606 15.4852 11.17 15.455 10.9815C15.4235 10.7952 15.3758 10.612 15.3125 10.434Z" fill="#63AC43"/>
</svg>
